%TF.GenerationSoftware,KiCad,Pcbnew,8.0.3*%
%TF.CreationDate,2024-06-16T19:36:31+02:00*%
%TF.ProjectId,jewelled_lc1,6a657765-6c6c-4656-945f-6c63312e6b69,rev?*%
%TF.SameCoordinates,Original*%
%TF.FileFunction,AssemblyDrawing,Top*%
%FSLAX45Y45*%
G04 Gerber Fmt 4.5, Leading zero omitted, Abs format (unit mm)*
G04 Created by KiCad (PCBNEW 8.0.3) date 2024-06-16 19:36:31*
%MOMM*%
%LPD*%
G01*
G04 APERTURE LIST*
%ADD10C,0.100000*%
%ADD11C,0.150001*%
G04 APERTURE END LIST*
D10*
%TO.C,D8*%
X15155258Y-8796486D02*
X15199966Y-8774098D01*
X15199966Y-8774098D02*
X15244742Y-8863514D01*
X15200034Y-8885902D02*
X15155258Y-8796486D01*
X15235787Y-8845631D02*
X15191079Y-8868019D01*
X15240264Y-8854572D02*
X15195556Y-8876960D01*
X15244742Y-8863514D02*
X15200034Y-8885902D01*
%TO.C,D19*%
X15050000Y-11300000D02*
X15050000Y-11210000D01*
X15050000Y-11210000D02*
X15080000Y-11180000D01*
X15080000Y-11180000D02*
X15130000Y-11180000D01*
X15130000Y-11180000D02*
X15130000Y-11300000D01*
X15130000Y-11300000D02*
X15050000Y-11300000D01*
%TO.C,U4*%
X14515000Y-11615000D02*
X14715000Y-11615000D01*
X14515000Y-11765000D02*
X14515000Y-11615000D01*
X14565000Y-11815000D02*
X14515000Y-11765000D01*
X14715000Y-11615000D02*
X14715000Y-11815000D01*
X14715000Y-11815000D02*
X14565000Y-11815000D01*
%TO.C,D11*%
X14155258Y-8863514D02*
X14200034Y-8774098D01*
X14199966Y-8885902D02*
X14155258Y-8863514D01*
X14200034Y-8774098D02*
X14244742Y-8796486D01*
X14204443Y-8876960D02*
X14159736Y-8854572D01*
X14208921Y-8868019D02*
X14164213Y-8845631D01*
X14244742Y-8796486D02*
X14199966Y-8885902D01*
%TO.C,D14*%
X13365000Y-10400000D02*
X13415000Y-10400000D01*
X13365000Y-10500000D02*
X13365000Y-10400000D01*
X13415000Y-10400000D02*
X13415000Y-10500000D01*
X13415000Y-10480000D02*
X13365000Y-10480000D01*
X13415000Y-10490000D02*
X13365000Y-10490000D01*
X13415000Y-10500000D02*
X13365000Y-10500000D01*
%TO.C,R4*%
X14542500Y-11928000D02*
X14647500Y-11928000D01*
X14542500Y-11982000D02*
X14542500Y-11928000D01*
X14647500Y-11928000D02*
X14647500Y-11982000D01*
X14647500Y-11982000D02*
X14542500Y-11982000D01*
%TO.C,C7*%
X14320000Y-10905000D02*
X14370000Y-10905000D01*
X14320000Y-11005000D02*
X14320000Y-10905000D01*
X14370000Y-10905000D02*
X14370000Y-11005000D01*
X14370000Y-11005000D02*
X14320000Y-11005000D01*
%TO.C,C9*%
X14200000Y-10905000D02*
X14250000Y-10905000D01*
X14200000Y-11005000D02*
X14200000Y-10905000D01*
X14250000Y-10905000D02*
X14250000Y-11005000D01*
X14250000Y-11005000D02*
X14200000Y-11005000D01*
%TO.C,D13*%
X13615258Y-9943514D02*
X13660034Y-9854098D01*
X13659966Y-9965902D02*
X13615258Y-9943514D01*
X13660034Y-9854098D02*
X13704742Y-9876486D01*
X13664443Y-9956960D02*
X13619736Y-9934572D01*
X13668921Y-9948019D02*
X13624213Y-9925631D01*
X13704742Y-9876486D02*
X13659966Y-9965902D01*
%TO.C,U2*%
X14690000Y-10860000D02*
X14752000Y-10860000D01*
X14690000Y-10960000D02*
X14690000Y-10860000D01*
X14790000Y-10898000D02*
X14752000Y-10860000D01*
X14790000Y-10898000D02*
X14790000Y-10960000D01*
X14790000Y-10960000D02*
X14690000Y-10960000D01*
%TO.C,C11*%
X14485000Y-9910000D02*
X14535000Y-9910000D01*
X14485000Y-10010000D02*
X14485000Y-9910000D01*
X14535000Y-9910000D02*
X14535000Y-10010000D01*
X14535000Y-10010000D02*
X14485000Y-10010000D01*
%TO.C,R3*%
X14487500Y-10843000D02*
X14592500Y-10843000D01*
X14487500Y-10897000D02*
X14487500Y-10843000D01*
X14592500Y-10843000D02*
X14592500Y-10897000D01*
X14592500Y-10897000D02*
X14487500Y-10897000D01*
%TO.C,D16*%
X13882008Y-11486486D02*
X13926716Y-11464098D01*
X13926716Y-11464098D02*
X13971492Y-11553514D01*
X13926784Y-11575902D02*
X13882008Y-11486486D01*
X13962537Y-11535631D02*
X13917829Y-11558019D01*
X13967014Y-11544572D02*
X13922306Y-11566960D01*
X13971492Y-11553514D02*
X13926784Y-11575902D01*
%TO.C,C5*%
X14490000Y-10725000D02*
X14590000Y-10725000D01*
X14490000Y-10775000D02*
X14490000Y-10725000D01*
X14590000Y-10725000D02*
X14590000Y-10775000D01*
X14590000Y-10775000D02*
X14490000Y-10775000D01*
%TO.C,U8*%
X14995000Y-10860000D02*
X15057000Y-10860000D01*
X14995000Y-10960000D02*
X14995000Y-10860000D01*
X15095000Y-10898000D02*
X15057000Y-10860000D01*
X15095000Y-10898000D02*
X15095000Y-10960000D01*
X15095000Y-10960000D02*
X14995000Y-10960000D01*
%TO.C,C1*%
X14645000Y-12530000D02*
X14745000Y-12530000D01*
X14645000Y-12580000D02*
X14645000Y-12530000D01*
X14745000Y-12530000D02*
X14745000Y-12580000D01*
X14745000Y-12580000D02*
X14645000Y-12580000D01*
%TO.C,R1*%
X14723000Y-9907500D02*
X14777000Y-9907500D01*
X14723000Y-10012500D02*
X14723000Y-9907500D01*
X14777000Y-9907500D02*
X14777000Y-10012500D01*
X14777000Y-10012500D02*
X14723000Y-10012500D01*
%TO.C,Q2*%
X15220000Y-10860000D02*
X15280000Y-10860000D01*
X15220000Y-10960000D02*
X15220000Y-10860000D01*
X15220000Y-10960000D02*
X15280000Y-10960000D01*
X15280000Y-10960000D02*
X15280000Y-10860000D01*
D11*
X15197500Y-10970000D02*
G75*
G02*
X15182500Y-10970000I-7500J0D01*
G01*
X15182500Y-10970000D02*
G75*
G02*
X15197500Y-10970000I7500J0D01*
G01*
D10*
%TO.C,D12*%
X13885258Y-9403514D02*
X13930034Y-9314098D01*
X13929966Y-9425902D02*
X13885258Y-9403514D01*
X13930034Y-9314098D02*
X13974742Y-9336486D01*
X13934443Y-9416960D02*
X13889736Y-9394572D01*
X13938921Y-9408019D02*
X13894213Y-9385631D01*
X13974742Y-9336486D02*
X13929966Y-9425902D01*
%TO.C,C10*%
X14605000Y-9910000D02*
X14655000Y-9910000D01*
X14605000Y-10010000D02*
X14605000Y-9910000D01*
X14655000Y-9910000D02*
X14655000Y-10010000D01*
X14655000Y-10010000D02*
X14605000Y-10010000D01*
%TO.C,D15*%
X13629098Y-11015034D02*
X13718514Y-10970258D01*
X13651486Y-11059742D02*
X13629098Y-11015034D01*
X13700631Y-10979213D02*
X13723019Y-11023921D01*
X13709572Y-10974736D02*
X13731960Y-11019444D01*
X13718514Y-10970258D02*
X13740902Y-11014966D01*
X13740902Y-11014966D02*
X13651486Y-11059742D01*
%TO.C,D7*%
X15425258Y-9336486D02*
X15469966Y-9314098D01*
X15469966Y-9314098D02*
X15514742Y-9403514D01*
X15470034Y-9425902D02*
X15425258Y-9336486D01*
X15505787Y-9385631D02*
X15461079Y-9408019D01*
X15510264Y-9394572D02*
X15465556Y-9416960D01*
X15514742Y-9403514D02*
X15470034Y-9425902D01*
%TO.C,C3*%
X14800000Y-11735000D02*
X14850000Y-11735000D01*
X14800000Y-11835000D02*
X14800000Y-11735000D01*
X14850000Y-11735000D02*
X14850000Y-11835000D01*
X14850000Y-11835000D02*
X14800000Y-11835000D01*
%TO.C,D3*%
X15425258Y-11563514D02*
X15470034Y-11474098D01*
X15469966Y-11585902D02*
X15425258Y-11563514D01*
X15470034Y-11474098D02*
X15514742Y-11496486D01*
X15474443Y-11576960D02*
X15429736Y-11554572D01*
X15478921Y-11568019D02*
X15434213Y-11545631D01*
X15514742Y-11496486D02*
X15469966Y-11585902D01*
%TO.C,C6*%
X14825000Y-11580000D02*
X14925000Y-11580000D01*
X14825000Y-11630000D02*
X14825000Y-11580000D01*
X14925000Y-11580000D02*
X14925000Y-11630000D01*
X14925000Y-11630000D02*
X14825000Y-11630000D01*
%TO.C,D9*%
X14885258Y-8256486D02*
X14929966Y-8234098D01*
X14929966Y-8234098D02*
X14974742Y-8323514D01*
X14930034Y-8345902D02*
X14885258Y-8256486D01*
X14965787Y-8305631D02*
X14921079Y-8328019D01*
X14970264Y-8314572D02*
X14925556Y-8336960D01*
X14974742Y-8323514D02*
X14930034Y-8345902D01*
%TO.C,D17*%
X14155258Y-12036486D02*
X14199966Y-12014098D01*
X14199966Y-12014098D02*
X14244742Y-12103514D01*
X14200034Y-12125902D02*
X14155258Y-12036486D01*
X14235787Y-12085631D02*
X14191079Y-12108019D01*
X14240264Y-12094572D02*
X14195556Y-12116960D01*
X14244742Y-12103514D02*
X14200034Y-12125902D01*
%TO.C,D10*%
X14425258Y-8323514D02*
X14470034Y-8234098D01*
X14469966Y-8345902D02*
X14425258Y-8323514D01*
X14470034Y-8234098D02*
X14514742Y-8256486D01*
X14474443Y-8336960D02*
X14429736Y-8314572D01*
X14478921Y-8328019D02*
X14434213Y-8305631D01*
X14514742Y-8256486D02*
X14469966Y-8345902D01*
%TO.C,C8*%
X15385000Y-10380000D02*
X15435000Y-10380000D01*
X15385000Y-10480000D02*
X15385000Y-10380000D01*
X15435000Y-10380000D02*
X15435000Y-10480000D01*
X15435000Y-10480000D02*
X15385000Y-10480000D01*
%TO.C,R5*%
X14492500Y-10308000D02*
X14597500Y-10308000D01*
X14492500Y-10362000D02*
X14492500Y-10308000D01*
X14597500Y-10308000D02*
X14597500Y-10362000D01*
X14597500Y-10362000D02*
X14492500Y-10362000D01*
%TO.C,C2*%
X14660000Y-12185000D02*
X14760000Y-12185000D01*
X14660000Y-12235000D02*
X14660000Y-12185000D01*
X14760000Y-12185000D02*
X14760000Y-12235000D01*
X14760000Y-12235000D02*
X14660000Y-12235000D01*
%TO.C,D4*%
X15670258Y-11048514D02*
X15715034Y-10959098D01*
X15714966Y-11070902D02*
X15670258Y-11048514D01*
X15715034Y-10959098D02*
X15759742Y-10981486D01*
X15719443Y-11061960D02*
X15674736Y-11039572D01*
X15723921Y-11053019D02*
X15679213Y-11030631D01*
X15759742Y-10981486D02*
X15714966Y-11070902D01*
%TO.C,U6*%
X14171750Y-10150000D02*
X14221750Y-10100000D01*
X14171750Y-10400000D02*
X14171750Y-10150000D01*
X14221750Y-10100000D02*
X14371750Y-10100000D01*
X14371750Y-10100000D02*
X14371750Y-10400000D01*
X14371750Y-10400000D02*
X14171750Y-10400000D01*
%TO.C,D18*%
X14425258Y-12576486D02*
X14469966Y-12554098D01*
X14469966Y-12554098D02*
X14514742Y-12643514D01*
X14470034Y-12665902D02*
X14425258Y-12576486D01*
X14505787Y-12625631D02*
X14461079Y-12648019D01*
X14510264Y-12634572D02*
X14465556Y-12656960D01*
X14514742Y-12643514D02*
X14470034Y-12665902D01*
%TO.C,R6*%
X14492500Y-10198000D02*
X14597500Y-10198000D01*
X14492500Y-10252000D02*
X14492500Y-10198000D01*
X14597500Y-10198000D02*
X14597500Y-10252000D01*
X14597500Y-10252000D02*
X14492500Y-10252000D01*
%TO.C,U5*%
X14860000Y-8780000D02*
X14860000Y-8718000D01*
X14898000Y-8680000D02*
X14860000Y-8718000D01*
X14898000Y-8680000D02*
X14960000Y-8680000D01*
X14960000Y-8680000D02*
X14960000Y-8780000D01*
X14960000Y-8780000D02*
X14860000Y-8780000D01*
%TO.C,D6*%
X15695258Y-9876486D02*
X15739966Y-9854098D01*
X15739966Y-9854098D02*
X15784742Y-9943514D01*
X15740034Y-9965902D02*
X15695258Y-9876486D01*
X15775787Y-9925631D02*
X15731079Y-9948019D01*
X15780264Y-9934572D02*
X15735556Y-9956960D01*
X15784742Y-9943514D02*
X15740034Y-9965902D01*
%TO.C,C12*%
X14725000Y-10250000D02*
X14775000Y-10250000D01*
X14725000Y-10350000D02*
X14725000Y-10250000D01*
X14775000Y-10250000D02*
X14775000Y-10350000D01*
X14775000Y-10350000D02*
X14725000Y-10350000D01*
%TO.C,C4*%
X14690000Y-10725000D02*
X14790000Y-10725000D01*
X14690000Y-10775000D02*
X14690000Y-10725000D01*
X14790000Y-10725000D02*
X14790000Y-10775000D01*
X14790000Y-10775000D02*
X14690000Y-10775000D01*
%TO.C,D5*%
X15985000Y-10400000D02*
X16035000Y-10400000D01*
X15985000Y-10500000D02*
X15985000Y-10400000D01*
X16035000Y-10400000D02*
X16035000Y-10500000D01*
X16035000Y-10480000D02*
X15985000Y-10480000D01*
X16035000Y-10490000D02*
X15985000Y-10490000D01*
X16035000Y-10500000D02*
X15985000Y-10500000D01*
%TO.C,D2*%
X15163542Y-12071880D02*
X15208318Y-11982465D01*
X15208250Y-12094268D02*
X15163542Y-12071880D01*
X15208318Y-11982465D02*
X15253025Y-12004853D01*
X15212727Y-12085327D02*
X15168019Y-12062939D01*
X15217205Y-12076385D02*
X15172497Y-12053997D01*
X15253025Y-12004853D02*
X15208250Y-12094268D01*
%TO.C,D1*%
X14885258Y-12643514D02*
X14930034Y-12554098D01*
X14929966Y-12665902D02*
X14885258Y-12643514D01*
X14930034Y-12554098D02*
X14974742Y-12576486D01*
X14934443Y-12656960D02*
X14889736Y-12634572D01*
X14938921Y-12648019D02*
X14894213Y-12625631D01*
X14974742Y-12576486D02*
X14929966Y-12665902D01*
%TO.C,R2*%
X14487500Y-10963000D02*
X14592500Y-10963000D01*
X14487500Y-11017000D02*
X14487500Y-10963000D01*
X14592500Y-10963000D02*
X14592500Y-11017000D01*
X14592500Y-11017000D02*
X14487500Y-11017000D01*
%TO.C,U3*%
X14870000Y-10250000D02*
X14970000Y-10150000D01*
X14870000Y-10550000D02*
X14870000Y-10250000D01*
X14970000Y-10150000D02*
X15270000Y-10150000D01*
X15270000Y-10150000D02*
X15270000Y-10550000D01*
X15270000Y-10550000D02*
X14870000Y-10550000D01*
%TO.C,U1*%
X14500000Y-9400000D02*
X14900000Y-9400000D01*
X14500000Y-9700000D02*
X14500000Y-9400000D01*
X14600000Y-9800000D02*
X14500000Y-9700000D01*
X14900000Y-9400000D02*
X14900000Y-9800000D01*
X14900000Y-9800000D02*
X14600000Y-9800000D01*
%TD*%
M02*
