%TF.GenerationSoftware,KiCad,Pcbnew,8.0.3*%
%TF.CreationDate,2024-06-16T19:36:31+02:00*%
%TF.ProjectId,jewelled_lc1,6a657765-6c6c-4656-945f-6c63312e6b69,rev?*%
%TF.SameCoordinates,Original*%
%TF.FileFunction,Legend,Bot*%
%TF.FilePolarity,Positive*%
%FSLAX45Y45*%
G04 Gerber Fmt 4.5, Leading zero omitted, Abs format (unit mm)*
G04 Created by KiCad (PCBNEW 8.0.3) date 2024-06-16 19:36:31*
%MOMM*%
%LPD*%
G01*
G04 APERTURE LIST*
%ADD10C,0.120000*%
%ADD11C,0.150000*%
G04 APERTURE END LIST*
D10*
%TO.C,JP2*%
X14901385Y-8357631D02*
X14955034Y-8330766D01*
X14993271Y-8697458D02*
X14867898Y-8447094D01*
X15046729Y-8357542D02*
X15172102Y-8607906D01*
X15138615Y-8697369D02*
X15084966Y-8724234D01*
X14870137Y-8451565D02*
G75*
G02*
X14901385Y-8357631I62590J31343D01*
G01*
X14955034Y-8330766D02*
G75*
G02*
X15048968Y-8362013I31343J-62590D01*
G01*
X15084966Y-8724234D02*
G75*
G02*
X14991032Y-8692987I-31343J62591D01*
G01*
X15169863Y-8603435D02*
G75*
G02*
X15138615Y-8697369I-62591J-31343D01*
G01*
D11*
%TO.C,SW3*%
X13447823Y-10486611D02*
X13528297Y-10446312D01*
X13564370Y-10931517D02*
X13385267Y-10573855D01*
X13635630Y-10448483D02*
X13655779Y-10488720D01*
X13752177Y-10893389D02*
X13671703Y-10933688D01*
X13794584Y-10765908D02*
X13814733Y-10806145D01*
%TO.C,SW2*%
X14495000Y-12065000D02*
X14495000Y-12155000D01*
X14915000Y-11950000D02*
X14495000Y-11950000D01*
X14915000Y-12065000D02*
X14915000Y-12155000D01*
X14915000Y-12270000D02*
X14495000Y-12270000D01*
%TO.C,BT1*%
X13917500Y-10692500D02*
X13917500Y-9112500D01*
X14052500Y-11197500D02*
X14052500Y-10807500D01*
X14052500Y-11197500D02*
X14487500Y-11197500D01*
X15352186Y-10807063D02*
X15352500Y-11197500D01*
X15352500Y-11197500D02*
X14917500Y-11197500D01*
X15487500Y-10692500D02*
X15487500Y-9112500D01*
X13915509Y-9110496D02*
G75*
G02*
X14542500Y-8797500I786991J-792004D01*
G01*
X14052500Y-10807500D02*
G75*
G02*
X13917120Y-10692882I650003J905004D01*
G01*
X14862500Y-8797500D02*
G75*
G02*
X15489491Y-9110496I-160000J-1105000D01*
G01*
X15487500Y-10692500D02*
G75*
G02*
X15352186Y-10807063I-784890J789870D01*
G01*
D10*
%TO.C,JP1*%
X14615000Y-11565000D02*
X14615000Y-11505000D01*
X14685000Y-11435000D02*
X14825000Y-11435000D01*
X14825000Y-11635000D02*
X14685000Y-11635000D01*
X14895000Y-11505000D02*
X14895000Y-11565000D01*
X14615000Y-11505000D02*
G75*
G02*
X14685000Y-11435000I70000J0D01*
G01*
X14685000Y-11635000D02*
G75*
G02*
X14615000Y-11565000I0J70000D01*
G01*
X14825000Y-11435000D02*
G75*
G02*
X14895000Y-11505000I0J-70000D01*
G01*
X14895000Y-11565000D02*
G75*
G02*
X14825000Y-11635000I-70000J0D01*
G01*
D11*
%TO.C,SW1*%
X14490000Y-12450000D02*
X14910000Y-12450000D01*
X14490000Y-12655000D02*
X14490000Y-12565000D01*
X14490000Y-12770000D02*
X14910000Y-12770000D01*
X14910000Y-12655000D02*
X14910000Y-12565000D01*
%TD*%
M02*
