%TF.GenerationSoftware,KiCad,Pcbnew,8.0.3*%
%TF.CreationDate,2024-06-16T19:36:36+02:00*%
%TF.ProjectId,jewelled_lc1,6a657765-6c6c-4656-945f-6c63312e6b69,rev?*%
%TF.SameCoordinates,Original*%
%TF.FileFunction,Drillmap*%
%TF.FilePolarity,Positive*%
%FSLAX45Y45*%
G04 Gerber Fmt 4.5, Leading zero omitted, Abs format (unit mm)*
G04 Created by KiCad (PCBNEW 8.0.3) date 2024-06-16 19:36:36*
%MOMM*%
%LPD*%
G01*
G04 APERTURE LIST*
%ADD10C,0.200000*%
%ADD11C,0.100000*%
%ADD12C,0.430000*%
G04 APERTURE END LIST*
D10*
X14878885Y-13092229D02*
G75*
G02*
X14521334Y-13092666I-178886J89439D01*
G01*
X16155279Y-10360557D02*
G75*
G02*
X16155279Y-10539443I-178889J-89443D01*
G01*
X13244721Y-10539442D02*
G75*
G02*
X13244721Y-10360557I178889J89442D01*
G01*
X14878885Y-13092229D02*
X16155278Y-10539443D01*
X14357939Y-7814684D02*
G75*
G02*
X14400002Y-8050001I-136829J-145876D01*
G01*
X13244721Y-10539442D02*
X14521333Y-13092667D01*
X14400000Y-8050000D02*
X13244721Y-10360557D01*
X15000000Y-8049999D02*
G75*
G02*
X15042064Y-7814687I178880J89440D01*
G01*
X16155279Y-10360557D02*
X15000000Y-8049999D01*
X14357939Y-7814684D02*
G75*
G02*
X15042061Y-7814684I342061J364684D01*
G01*
D11*
X13605000Y-10150000D02*
X13635000Y-10180000D01*
X13635000Y-10150000D02*
X13605000Y-10180000D01*
X13755000Y-11140000D02*
X13785000Y-11170000D01*
X13785000Y-11140000D02*
X13755000Y-11170000D01*
X13835000Y-9525000D02*
X13865000Y-9555000D01*
X13865000Y-9525000D02*
X13835000Y-9555000D01*
X14025000Y-10540000D02*
X14055000Y-10570000D01*
X14055000Y-10540000D02*
X14025000Y-10570000D01*
X14065000Y-9195000D02*
X14095000Y-9225000D01*
X14095000Y-9195000D02*
X14065000Y-9225000D01*
X14075000Y-9325000D02*
X14105000Y-9355000D01*
X14105000Y-9325000D02*
X14075000Y-9355000D01*
X14075000Y-9990000D02*
X14105000Y-10020000D01*
X14105000Y-9990000D02*
X14075000Y-10020000D01*
X14205000Y-10775000D02*
X14235000Y-10805000D01*
X14235000Y-10775000D02*
X14205000Y-10805000D01*
X14220000Y-9300000D02*
X14250000Y-9330000D01*
X14250000Y-9300000D02*
X14220000Y-9330000D01*
X14235000Y-10040000D02*
X14265000Y-10070000D01*
X14265000Y-10040000D02*
X14235000Y-10070000D01*
X14280000Y-9060000D02*
X14310000Y-9090000D01*
X14310000Y-9060000D02*
X14280000Y-9090000D01*
X14295000Y-10775000D02*
X14325000Y-10805000D01*
X14325000Y-10775000D02*
X14295000Y-10805000D01*
X14340000Y-12435000D02*
X14370000Y-12465000D01*
X14370000Y-12435000D02*
X14340000Y-12465000D01*
X14355000Y-9835000D02*
X14385000Y-9865000D01*
X14385000Y-9835000D02*
X14355000Y-9865000D01*
X14360000Y-9165000D02*
X14390000Y-9195000D01*
X14390000Y-9165000D02*
X14360000Y-9195000D01*
X14385000Y-11375000D02*
X14415000Y-11405000D01*
X14415000Y-11375000D02*
X14385000Y-11405000D01*
X14405000Y-9995000D02*
X14435000Y-10025000D01*
X14435000Y-9995000D02*
X14405000Y-10025000D01*
X14415000Y-8690000D02*
X14445000Y-8720000D01*
X14445000Y-8690000D02*
X14415000Y-8720000D01*
X14440000Y-10400000D02*
X14470000Y-10430000D01*
X14470000Y-10400000D02*
X14440000Y-10430000D01*
X14475000Y-10095000D02*
X14505000Y-10125000D01*
X14505000Y-10095000D02*
X14475000Y-10125000D01*
X14575000Y-10105000D02*
X14605000Y-10135000D01*
X14605000Y-10105000D02*
X14575000Y-10135000D01*
X14575000Y-10655000D02*
X14605000Y-10685000D01*
X14605000Y-10655000D02*
X14575000Y-10685000D01*
X14625000Y-12725000D02*
X14655000Y-12755000D01*
X14655000Y-12725000D02*
X14625000Y-12755000D01*
X14640000Y-10400000D02*
X14670000Y-10430000D01*
X14670000Y-10400000D02*
X14640000Y-10430000D01*
X14645000Y-12075000D02*
X14675000Y-12105000D01*
X14675000Y-12075000D02*
X14645000Y-12105000D01*
X14715000Y-8395000D02*
X14745000Y-8425000D01*
X14745000Y-8395000D02*
X14715000Y-8425000D01*
X14715000Y-12870000D02*
X14745000Y-12900000D01*
X14745000Y-12870000D02*
X14715000Y-12900000D01*
X14825000Y-9945000D02*
X14855000Y-9975000D01*
X14855000Y-9945000D02*
X14825000Y-9975000D01*
X14870000Y-10720000D02*
X14900000Y-10750000D01*
X14900000Y-10720000D02*
X14870000Y-10750000D01*
X14905000Y-9875000D02*
X14935000Y-9905000D01*
X14935000Y-9875000D02*
X14905000Y-9905000D01*
X14925000Y-8900000D02*
X14955000Y-8930000D01*
X14955000Y-8900000D02*
X14925000Y-8930000D01*
X15005000Y-9815000D02*
X15035000Y-9845000D01*
X15035000Y-9815000D02*
X15005000Y-9845000D01*
X15010000Y-11760000D02*
X15040000Y-11790000D01*
X15040000Y-11760000D02*
X15010000Y-11790000D01*
X15025000Y-11075000D02*
X15055000Y-11105000D01*
X15055000Y-11075000D02*
X15025000Y-11105000D01*
X15030000Y-11575000D02*
X15060000Y-11605000D01*
X15060000Y-11575000D02*
X15030000Y-11605000D01*
X15030000Y-12430000D02*
X15060000Y-12460000D01*
X15060000Y-12430000D02*
X15030000Y-12460000D01*
X15035000Y-12085000D02*
X15065000Y-12115000D01*
X15065000Y-12085000D02*
X15035000Y-12115000D01*
X15050000Y-8815000D02*
X15080000Y-8845000D01*
X15080000Y-8815000D02*
X15050000Y-8845000D01*
X15055000Y-10335000D02*
X15085000Y-10365000D01*
X15085000Y-10335000D02*
X15055000Y-10365000D01*
X15060000Y-10765000D02*
X15090000Y-10795000D01*
X15090000Y-10765000D02*
X15060000Y-10795000D01*
X15075000Y-10670000D02*
X15105000Y-10700000D01*
X15105000Y-10670000D02*
X15075000Y-10700000D01*
X15155000Y-9995000D02*
X15185000Y-10025000D01*
X15185000Y-9995000D02*
X15155000Y-10025000D01*
X15180000Y-9065000D02*
X15210000Y-9095000D01*
X15210000Y-9065000D02*
X15180000Y-9095000D01*
X15225000Y-9650000D02*
X15255000Y-9680000D01*
X15255000Y-9650000D02*
X15225000Y-9680000D01*
X15240000Y-11125000D02*
X15270000Y-11155000D01*
X15270000Y-11125000D02*
X15240000Y-11155000D01*
X15255000Y-9950000D02*
X15285000Y-9980000D01*
X15285000Y-9950000D02*
X15255000Y-9980000D01*
X15270000Y-10595000D02*
X15300000Y-10625000D01*
X15300000Y-10595000D02*
X15270000Y-10625000D01*
X15275000Y-10055000D02*
X15305000Y-10085000D01*
X15305000Y-10055000D02*
X15275000Y-10085000D01*
X15400000Y-10140000D02*
X15430000Y-10170000D01*
X15430000Y-10140000D02*
X15400000Y-10170000D01*
X15475000Y-10215000D02*
X15505000Y-10245000D01*
X15505000Y-10215000D02*
X15475000Y-10245000D01*
X15560000Y-9675000D02*
X15590000Y-9705000D01*
X15590000Y-9675000D02*
X15560000Y-9705000D01*
X15575000Y-10460000D02*
X15605000Y-10490000D01*
X15605000Y-10460000D02*
X15575000Y-10490000D01*
X15925000Y-10585000D02*
X15955000Y-10615000D01*
X15955000Y-10585000D02*
X15925000Y-10615000D01*
X15963788Y-10276212D02*
X15993788Y-10306212D01*
X15993788Y-10276212D02*
X15963788Y-10306212D01*
D12*
X14915000Y-7450000D02*
G75*
G02*
X14485000Y-7450000I-215000J0D01*
G01*
X14485000Y-7450000D02*
G75*
G02*
X14915000Y-7450000I215000J0D01*
G01*
D10*
X13474384Y-13524272D02*
X13474384Y-13324272D01*
X13474384Y-13324272D02*
X13522003Y-13324272D01*
X13522003Y-13324272D02*
X13550575Y-13333796D01*
X13550575Y-13333796D02*
X13569622Y-13352843D01*
X13569622Y-13352843D02*
X13579146Y-13371891D01*
X13579146Y-13371891D02*
X13588670Y-13409986D01*
X13588670Y-13409986D02*
X13588670Y-13438558D01*
X13588670Y-13438558D02*
X13579146Y-13476653D01*
X13579146Y-13476653D02*
X13569622Y-13495701D01*
X13569622Y-13495701D02*
X13550575Y-13514748D01*
X13550575Y-13514748D02*
X13522003Y-13524272D01*
X13522003Y-13524272D02*
X13474384Y-13524272D01*
X13674384Y-13524272D02*
X13674384Y-13390939D01*
X13674384Y-13429034D02*
X13683908Y-13409986D01*
X13683908Y-13409986D02*
X13693432Y-13400462D01*
X13693432Y-13400462D02*
X13712479Y-13390939D01*
X13712479Y-13390939D02*
X13731527Y-13390939D01*
X13798194Y-13524272D02*
X13798194Y-13390939D01*
X13798194Y-13324272D02*
X13788670Y-13333796D01*
X13788670Y-13333796D02*
X13798194Y-13343320D01*
X13798194Y-13343320D02*
X13807717Y-13333796D01*
X13807717Y-13333796D02*
X13798194Y-13324272D01*
X13798194Y-13324272D02*
X13798194Y-13343320D01*
X13922003Y-13524272D02*
X13902955Y-13514748D01*
X13902955Y-13514748D02*
X13893432Y-13495701D01*
X13893432Y-13495701D02*
X13893432Y-13324272D01*
X14026765Y-13524272D02*
X14007717Y-13514748D01*
X14007717Y-13514748D02*
X13998194Y-13495701D01*
X13998194Y-13495701D02*
X13998194Y-13324272D01*
X14255336Y-13524272D02*
X14255336Y-13324272D01*
X14255336Y-13324272D02*
X14322003Y-13467129D01*
X14322003Y-13467129D02*
X14388670Y-13324272D01*
X14388670Y-13324272D02*
X14388670Y-13524272D01*
X14569622Y-13524272D02*
X14569622Y-13419510D01*
X14569622Y-13419510D02*
X14560098Y-13400462D01*
X14560098Y-13400462D02*
X14541051Y-13390939D01*
X14541051Y-13390939D02*
X14502955Y-13390939D01*
X14502955Y-13390939D02*
X14483908Y-13400462D01*
X14569622Y-13514748D02*
X14550575Y-13524272D01*
X14550575Y-13524272D02*
X14502955Y-13524272D01*
X14502955Y-13524272D02*
X14483908Y-13514748D01*
X14483908Y-13514748D02*
X14474384Y-13495701D01*
X14474384Y-13495701D02*
X14474384Y-13476653D01*
X14474384Y-13476653D02*
X14483908Y-13457605D01*
X14483908Y-13457605D02*
X14502955Y-13448082D01*
X14502955Y-13448082D02*
X14550575Y-13448082D01*
X14550575Y-13448082D02*
X14569622Y-13438558D01*
X14664860Y-13390939D02*
X14664860Y-13590939D01*
X14664860Y-13400462D02*
X14683908Y-13390939D01*
X14683908Y-13390939D02*
X14722003Y-13390939D01*
X14722003Y-13390939D02*
X14741051Y-13400462D01*
X14741051Y-13400462D02*
X14750575Y-13409986D01*
X14750575Y-13409986D02*
X14760098Y-13429034D01*
X14760098Y-13429034D02*
X14760098Y-13486177D01*
X14760098Y-13486177D02*
X14750575Y-13505224D01*
X14750575Y-13505224D02*
X14741051Y-13514748D01*
X14741051Y-13514748D02*
X14722003Y-13524272D01*
X14722003Y-13524272D02*
X14683908Y-13524272D01*
X14683908Y-13524272D02*
X14664860Y-13514748D01*
X14845813Y-13505224D02*
X14855336Y-13514748D01*
X14855336Y-13514748D02*
X14845813Y-13524272D01*
X14845813Y-13524272D02*
X14836289Y-13514748D01*
X14836289Y-13514748D02*
X14845813Y-13505224D01*
X14845813Y-13505224D02*
X14845813Y-13524272D01*
X14845813Y-13400462D02*
X14855336Y-13409986D01*
X14855336Y-13409986D02*
X14845813Y-13419510D01*
X14845813Y-13419510D02*
X14836289Y-13409986D01*
X14836289Y-13409986D02*
X14845813Y-13400462D01*
X14845813Y-13400462D02*
X14845813Y-13419510D01*
D11*
X13183607Y-13837788D02*
X13213607Y-13867788D01*
X13213607Y-13837788D02*
X13183607Y-13867788D01*
D10*
X13512479Y-13744272D02*
X13531527Y-13744272D01*
X13531527Y-13744272D02*
X13550575Y-13753796D01*
X13550575Y-13753796D02*
X13560098Y-13763320D01*
X13560098Y-13763320D02*
X13569622Y-13782367D01*
X13569622Y-13782367D02*
X13579146Y-13820462D01*
X13579146Y-13820462D02*
X13579146Y-13868082D01*
X13579146Y-13868082D02*
X13569622Y-13906177D01*
X13569622Y-13906177D02*
X13560098Y-13925224D01*
X13560098Y-13925224D02*
X13550575Y-13934748D01*
X13550575Y-13934748D02*
X13531527Y-13944272D01*
X13531527Y-13944272D02*
X13512479Y-13944272D01*
X13512479Y-13944272D02*
X13493432Y-13934748D01*
X13493432Y-13934748D02*
X13483908Y-13925224D01*
X13483908Y-13925224D02*
X13474384Y-13906177D01*
X13474384Y-13906177D02*
X13464860Y-13868082D01*
X13464860Y-13868082D02*
X13464860Y-13820462D01*
X13464860Y-13820462D02*
X13474384Y-13782367D01*
X13474384Y-13782367D02*
X13483908Y-13763320D01*
X13483908Y-13763320D02*
X13493432Y-13753796D01*
X13493432Y-13753796D02*
X13512479Y-13744272D01*
X13664860Y-13925224D02*
X13674384Y-13934748D01*
X13674384Y-13934748D02*
X13664860Y-13944272D01*
X13664860Y-13944272D02*
X13655336Y-13934748D01*
X13655336Y-13934748D02*
X13664860Y-13925224D01*
X13664860Y-13925224D02*
X13664860Y-13944272D01*
X13741051Y-13744272D02*
X13864860Y-13744272D01*
X13864860Y-13744272D02*
X13798194Y-13820462D01*
X13798194Y-13820462D02*
X13826765Y-13820462D01*
X13826765Y-13820462D02*
X13845813Y-13829986D01*
X13845813Y-13829986D02*
X13855336Y-13839510D01*
X13855336Y-13839510D02*
X13864860Y-13858558D01*
X13864860Y-13858558D02*
X13864860Y-13906177D01*
X13864860Y-13906177D02*
X13855336Y-13925224D01*
X13855336Y-13925224D02*
X13845813Y-13934748D01*
X13845813Y-13934748D02*
X13826765Y-13944272D01*
X13826765Y-13944272D02*
X13769622Y-13944272D01*
X13769622Y-13944272D02*
X13750575Y-13934748D01*
X13750575Y-13934748D02*
X13741051Y-13925224D01*
X13988670Y-13744272D02*
X14007717Y-13744272D01*
X14007717Y-13744272D02*
X14026765Y-13753796D01*
X14026765Y-13753796D02*
X14036289Y-13763320D01*
X14036289Y-13763320D02*
X14045813Y-13782367D01*
X14045813Y-13782367D02*
X14055336Y-13820462D01*
X14055336Y-13820462D02*
X14055336Y-13868082D01*
X14055336Y-13868082D02*
X14045813Y-13906177D01*
X14045813Y-13906177D02*
X14036289Y-13925224D01*
X14036289Y-13925224D02*
X14026765Y-13934748D01*
X14026765Y-13934748D02*
X14007717Y-13944272D01*
X14007717Y-13944272D02*
X13988670Y-13944272D01*
X13988670Y-13944272D02*
X13969622Y-13934748D01*
X13969622Y-13934748D02*
X13960098Y-13925224D01*
X13960098Y-13925224D02*
X13950575Y-13906177D01*
X13950575Y-13906177D02*
X13941051Y-13868082D01*
X13941051Y-13868082D02*
X13941051Y-13820462D01*
X13941051Y-13820462D02*
X13950575Y-13782367D01*
X13950575Y-13782367D02*
X13960098Y-13763320D01*
X13960098Y-13763320D02*
X13969622Y-13753796D01*
X13969622Y-13753796D02*
X13988670Y-13744272D01*
X14179146Y-13744272D02*
X14198194Y-13744272D01*
X14198194Y-13744272D02*
X14217241Y-13753796D01*
X14217241Y-13753796D02*
X14226765Y-13763320D01*
X14226765Y-13763320D02*
X14236289Y-13782367D01*
X14236289Y-13782367D02*
X14245813Y-13820462D01*
X14245813Y-13820462D02*
X14245813Y-13868082D01*
X14245813Y-13868082D02*
X14236289Y-13906177D01*
X14236289Y-13906177D02*
X14226765Y-13925224D01*
X14226765Y-13925224D02*
X14217241Y-13934748D01*
X14217241Y-13934748D02*
X14198194Y-13944272D01*
X14198194Y-13944272D02*
X14179146Y-13944272D01*
X14179146Y-13944272D02*
X14160098Y-13934748D01*
X14160098Y-13934748D02*
X14150575Y-13925224D01*
X14150575Y-13925224D02*
X14141051Y-13906177D01*
X14141051Y-13906177D02*
X14131527Y-13868082D01*
X14131527Y-13868082D02*
X14131527Y-13820462D01*
X14131527Y-13820462D02*
X14141051Y-13782367D01*
X14141051Y-13782367D02*
X14150575Y-13763320D01*
X14150575Y-13763320D02*
X14160098Y-13753796D01*
X14160098Y-13753796D02*
X14179146Y-13744272D01*
X14331527Y-13944272D02*
X14331527Y-13810939D01*
X14331527Y-13829986D02*
X14341051Y-13820462D01*
X14341051Y-13820462D02*
X14360098Y-13810939D01*
X14360098Y-13810939D02*
X14388670Y-13810939D01*
X14388670Y-13810939D02*
X14407717Y-13820462D01*
X14407717Y-13820462D02*
X14417241Y-13839510D01*
X14417241Y-13839510D02*
X14417241Y-13944272D01*
X14417241Y-13839510D02*
X14426765Y-13820462D01*
X14426765Y-13820462D02*
X14445813Y-13810939D01*
X14445813Y-13810939D02*
X14474384Y-13810939D01*
X14474384Y-13810939D02*
X14493432Y-13820462D01*
X14493432Y-13820462D02*
X14502956Y-13839510D01*
X14502956Y-13839510D02*
X14502956Y-13944272D01*
X14598194Y-13944272D02*
X14598194Y-13810939D01*
X14598194Y-13829986D02*
X14607717Y-13820462D01*
X14607717Y-13820462D02*
X14626765Y-13810939D01*
X14626765Y-13810939D02*
X14655337Y-13810939D01*
X14655337Y-13810939D02*
X14674384Y-13820462D01*
X14674384Y-13820462D02*
X14683908Y-13839510D01*
X14683908Y-13839510D02*
X14683908Y-13944272D01*
X14683908Y-13839510D02*
X14693432Y-13820462D01*
X14693432Y-13820462D02*
X14712479Y-13810939D01*
X14712479Y-13810939D02*
X14741051Y-13810939D01*
X14741051Y-13810939D02*
X14760098Y-13820462D01*
X14760098Y-13820462D02*
X14769622Y-13839510D01*
X14769622Y-13839510D02*
X14769622Y-13944272D01*
X15160098Y-13734748D02*
X14988670Y-13991891D01*
X15417241Y-13744272D02*
X15436289Y-13744272D01*
X15436289Y-13744272D02*
X15455337Y-13753796D01*
X15455337Y-13753796D02*
X15464860Y-13763320D01*
X15464860Y-13763320D02*
X15474384Y-13782367D01*
X15474384Y-13782367D02*
X15483908Y-13820462D01*
X15483908Y-13820462D02*
X15483908Y-13868082D01*
X15483908Y-13868082D02*
X15474384Y-13906177D01*
X15474384Y-13906177D02*
X15464860Y-13925224D01*
X15464860Y-13925224D02*
X15455337Y-13934748D01*
X15455337Y-13934748D02*
X15436289Y-13944272D01*
X15436289Y-13944272D02*
X15417241Y-13944272D01*
X15417241Y-13944272D02*
X15398194Y-13934748D01*
X15398194Y-13934748D02*
X15388670Y-13925224D01*
X15388670Y-13925224D02*
X15379146Y-13906177D01*
X15379146Y-13906177D02*
X15369622Y-13868082D01*
X15369622Y-13868082D02*
X15369622Y-13820462D01*
X15369622Y-13820462D02*
X15379146Y-13782367D01*
X15379146Y-13782367D02*
X15388670Y-13763320D01*
X15388670Y-13763320D02*
X15398194Y-13753796D01*
X15398194Y-13753796D02*
X15417241Y-13744272D01*
X15569622Y-13925224D02*
X15579146Y-13934748D01*
X15579146Y-13934748D02*
X15569622Y-13944272D01*
X15569622Y-13944272D02*
X15560099Y-13934748D01*
X15560099Y-13934748D02*
X15569622Y-13925224D01*
X15569622Y-13925224D02*
X15569622Y-13944272D01*
X15702956Y-13744272D02*
X15722003Y-13744272D01*
X15722003Y-13744272D02*
X15741051Y-13753796D01*
X15741051Y-13753796D02*
X15750575Y-13763320D01*
X15750575Y-13763320D02*
X15760099Y-13782367D01*
X15760099Y-13782367D02*
X15769622Y-13820462D01*
X15769622Y-13820462D02*
X15769622Y-13868082D01*
X15769622Y-13868082D02*
X15760099Y-13906177D01*
X15760099Y-13906177D02*
X15750575Y-13925224D01*
X15750575Y-13925224D02*
X15741051Y-13934748D01*
X15741051Y-13934748D02*
X15722003Y-13944272D01*
X15722003Y-13944272D02*
X15702956Y-13944272D01*
X15702956Y-13944272D02*
X15683908Y-13934748D01*
X15683908Y-13934748D02*
X15674384Y-13925224D01*
X15674384Y-13925224D02*
X15664860Y-13906177D01*
X15664860Y-13906177D02*
X15655337Y-13868082D01*
X15655337Y-13868082D02*
X15655337Y-13820462D01*
X15655337Y-13820462D02*
X15664860Y-13782367D01*
X15664860Y-13782367D02*
X15674384Y-13763320D01*
X15674384Y-13763320D02*
X15683908Y-13753796D01*
X15683908Y-13753796D02*
X15702956Y-13744272D01*
X15960099Y-13944272D02*
X15845813Y-13944272D01*
X15902956Y-13944272D02*
X15902956Y-13744272D01*
X15902956Y-13744272D02*
X15883908Y-13772843D01*
X15883908Y-13772843D02*
X15864860Y-13791891D01*
X15864860Y-13791891D02*
X15845813Y-13801415D01*
X16150575Y-13944272D02*
X16036289Y-13944272D01*
X16093432Y-13944272D02*
X16093432Y-13744272D01*
X16093432Y-13744272D02*
X16074384Y-13772843D01*
X16074384Y-13772843D02*
X16055337Y-13791891D01*
X16055337Y-13791891D02*
X16036289Y-13801415D01*
X16264860Y-13829986D02*
X16245813Y-13820462D01*
X16245813Y-13820462D02*
X16236289Y-13810939D01*
X16236289Y-13810939D02*
X16226765Y-13791891D01*
X16226765Y-13791891D02*
X16226765Y-13782367D01*
X16226765Y-13782367D02*
X16236289Y-13763320D01*
X16236289Y-13763320D02*
X16245813Y-13753796D01*
X16245813Y-13753796D02*
X16264860Y-13744272D01*
X16264860Y-13744272D02*
X16302956Y-13744272D01*
X16302956Y-13744272D02*
X16322003Y-13753796D01*
X16322003Y-13753796D02*
X16331527Y-13763320D01*
X16331527Y-13763320D02*
X16341051Y-13782367D01*
X16341051Y-13782367D02*
X16341051Y-13791891D01*
X16341051Y-13791891D02*
X16331527Y-13810939D01*
X16331527Y-13810939D02*
X16322003Y-13820462D01*
X16322003Y-13820462D02*
X16302956Y-13829986D01*
X16302956Y-13829986D02*
X16264860Y-13829986D01*
X16264860Y-13829986D02*
X16245813Y-13839510D01*
X16245813Y-13839510D02*
X16236289Y-13849034D01*
X16236289Y-13849034D02*
X16226765Y-13868082D01*
X16226765Y-13868082D02*
X16226765Y-13906177D01*
X16226765Y-13906177D02*
X16236289Y-13925224D01*
X16236289Y-13925224D02*
X16245813Y-13934748D01*
X16245813Y-13934748D02*
X16264860Y-13944272D01*
X16264860Y-13944272D02*
X16302956Y-13944272D01*
X16302956Y-13944272D02*
X16322003Y-13934748D01*
X16322003Y-13934748D02*
X16331527Y-13925224D01*
X16331527Y-13925224D02*
X16341051Y-13906177D01*
X16341051Y-13906177D02*
X16341051Y-13868082D01*
X16341051Y-13868082D02*
X16331527Y-13849034D01*
X16331527Y-13849034D02*
X16322003Y-13839510D01*
X16322003Y-13839510D02*
X16302956Y-13829986D01*
X16417241Y-13744272D02*
X16417241Y-13782367D01*
X16493432Y-13744272D02*
X16493432Y-13782367D01*
X16788670Y-14020462D02*
X16779146Y-14010939D01*
X16779146Y-14010939D02*
X16760099Y-13982367D01*
X16760099Y-13982367D02*
X16750575Y-13963320D01*
X16750575Y-13963320D02*
X16741051Y-13934748D01*
X16741051Y-13934748D02*
X16731527Y-13887129D01*
X16731527Y-13887129D02*
X16731527Y-13849034D01*
X16731527Y-13849034D02*
X16741051Y-13801415D01*
X16741051Y-13801415D02*
X16750575Y-13772843D01*
X16750575Y-13772843D02*
X16760099Y-13753796D01*
X16760099Y-13753796D02*
X16779146Y-13725224D01*
X16779146Y-13725224D02*
X16788670Y-13715701D01*
X16960099Y-13744272D02*
X16864861Y-13744272D01*
X16864861Y-13744272D02*
X16855337Y-13839510D01*
X16855337Y-13839510D02*
X16864861Y-13829986D01*
X16864861Y-13829986D02*
X16883908Y-13820462D01*
X16883908Y-13820462D02*
X16931527Y-13820462D01*
X16931527Y-13820462D02*
X16950575Y-13829986D01*
X16950575Y-13829986D02*
X16960099Y-13839510D01*
X16960099Y-13839510D02*
X16969623Y-13858558D01*
X16969623Y-13858558D02*
X16969623Y-13906177D01*
X16969623Y-13906177D02*
X16960099Y-13925224D01*
X16960099Y-13925224D02*
X16950575Y-13934748D01*
X16950575Y-13934748D02*
X16931527Y-13944272D01*
X16931527Y-13944272D02*
X16883908Y-13944272D01*
X16883908Y-13944272D02*
X16864861Y-13934748D01*
X16864861Y-13934748D02*
X16855337Y-13925224D01*
X17141051Y-13810939D02*
X17141051Y-13944272D01*
X17093432Y-13734748D02*
X17045813Y-13877605D01*
X17045813Y-13877605D02*
X17169623Y-13877605D01*
X17398194Y-13944272D02*
X17398194Y-13744272D01*
X17483908Y-13944272D02*
X17483908Y-13839510D01*
X17483908Y-13839510D02*
X17474385Y-13820462D01*
X17474385Y-13820462D02*
X17455337Y-13810939D01*
X17455337Y-13810939D02*
X17426765Y-13810939D01*
X17426765Y-13810939D02*
X17407718Y-13820462D01*
X17407718Y-13820462D02*
X17398194Y-13829986D01*
X17607718Y-13944272D02*
X17588670Y-13934748D01*
X17588670Y-13934748D02*
X17579146Y-13925224D01*
X17579146Y-13925224D02*
X17569623Y-13906177D01*
X17569623Y-13906177D02*
X17569623Y-13849034D01*
X17569623Y-13849034D02*
X17579146Y-13829986D01*
X17579146Y-13829986D02*
X17588670Y-13820462D01*
X17588670Y-13820462D02*
X17607718Y-13810939D01*
X17607718Y-13810939D02*
X17636289Y-13810939D01*
X17636289Y-13810939D02*
X17655337Y-13820462D01*
X17655337Y-13820462D02*
X17664861Y-13829986D01*
X17664861Y-13829986D02*
X17674385Y-13849034D01*
X17674385Y-13849034D02*
X17674385Y-13906177D01*
X17674385Y-13906177D02*
X17664861Y-13925224D01*
X17664861Y-13925224D02*
X17655337Y-13934748D01*
X17655337Y-13934748D02*
X17636289Y-13944272D01*
X17636289Y-13944272D02*
X17607718Y-13944272D01*
X17788670Y-13944272D02*
X17769623Y-13934748D01*
X17769623Y-13934748D02*
X17760099Y-13915701D01*
X17760099Y-13915701D02*
X17760099Y-13744272D01*
X17941051Y-13934748D02*
X17922004Y-13944272D01*
X17922004Y-13944272D02*
X17883908Y-13944272D01*
X17883908Y-13944272D02*
X17864861Y-13934748D01*
X17864861Y-13934748D02*
X17855337Y-13915701D01*
X17855337Y-13915701D02*
X17855337Y-13839510D01*
X17855337Y-13839510D02*
X17864861Y-13820462D01*
X17864861Y-13820462D02*
X17883908Y-13810939D01*
X17883908Y-13810939D02*
X17922004Y-13810939D01*
X17922004Y-13810939D02*
X17941051Y-13820462D01*
X17941051Y-13820462D02*
X17950575Y-13839510D01*
X17950575Y-13839510D02*
X17950575Y-13858558D01*
X17950575Y-13858558D02*
X17855337Y-13877605D01*
X18026766Y-13934748D02*
X18045813Y-13944272D01*
X18045813Y-13944272D02*
X18083908Y-13944272D01*
X18083908Y-13944272D02*
X18102956Y-13934748D01*
X18102956Y-13934748D02*
X18112480Y-13915701D01*
X18112480Y-13915701D02*
X18112480Y-13906177D01*
X18112480Y-13906177D02*
X18102956Y-13887129D01*
X18102956Y-13887129D02*
X18083908Y-13877605D01*
X18083908Y-13877605D02*
X18055337Y-13877605D01*
X18055337Y-13877605D02*
X18036289Y-13868082D01*
X18036289Y-13868082D02*
X18026766Y-13849034D01*
X18026766Y-13849034D02*
X18026766Y-13839510D01*
X18026766Y-13839510D02*
X18036289Y-13820462D01*
X18036289Y-13820462D02*
X18055337Y-13810939D01*
X18055337Y-13810939D02*
X18083908Y-13810939D01*
X18083908Y-13810939D02*
X18102956Y-13820462D01*
X18179147Y-14020462D02*
X18188670Y-14010939D01*
X18188670Y-14010939D02*
X18207718Y-13982367D01*
X18207718Y-13982367D02*
X18217242Y-13963320D01*
X18217242Y-13963320D02*
X18226766Y-13934748D01*
X18226766Y-13934748D02*
X18236289Y-13887129D01*
X18236289Y-13887129D02*
X18236289Y-13849034D01*
X18236289Y-13849034D02*
X18226766Y-13801415D01*
X18226766Y-13801415D02*
X18217242Y-13772843D01*
X18217242Y-13772843D02*
X18207718Y-13753796D01*
X18207718Y-13753796D02*
X18188670Y-13725224D01*
X18188670Y-13725224D02*
X18179147Y-13715701D01*
X13213607Y-14116788D02*
G75*
G02*
X13013607Y-14116788I-100000J0D01*
G01*
X13013607Y-14116788D02*
G75*
G02*
X13213607Y-14116788I100000J0D01*
G01*
X13560098Y-14074939D02*
X13560098Y-14208272D01*
X13512479Y-13998748D02*
X13464860Y-14141605D01*
X13464860Y-14141605D02*
X13588670Y-14141605D01*
X13664860Y-14189224D02*
X13674384Y-14198748D01*
X13674384Y-14198748D02*
X13664860Y-14208272D01*
X13664860Y-14208272D02*
X13655336Y-14198748D01*
X13655336Y-14198748D02*
X13664860Y-14189224D01*
X13664860Y-14189224D02*
X13664860Y-14208272D01*
X13741051Y-14008272D02*
X13864860Y-14008272D01*
X13864860Y-14008272D02*
X13798194Y-14084462D01*
X13798194Y-14084462D02*
X13826765Y-14084462D01*
X13826765Y-14084462D02*
X13845813Y-14093986D01*
X13845813Y-14093986D02*
X13855336Y-14103510D01*
X13855336Y-14103510D02*
X13864860Y-14122558D01*
X13864860Y-14122558D02*
X13864860Y-14170177D01*
X13864860Y-14170177D02*
X13855336Y-14189224D01*
X13855336Y-14189224D02*
X13845813Y-14198748D01*
X13845813Y-14198748D02*
X13826765Y-14208272D01*
X13826765Y-14208272D02*
X13769622Y-14208272D01*
X13769622Y-14208272D02*
X13750575Y-14198748D01*
X13750575Y-14198748D02*
X13741051Y-14189224D01*
X13988670Y-14008272D02*
X14007717Y-14008272D01*
X14007717Y-14008272D02*
X14026765Y-14017796D01*
X14026765Y-14017796D02*
X14036289Y-14027320D01*
X14036289Y-14027320D02*
X14045813Y-14046367D01*
X14045813Y-14046367D02*
X14055336Y-14084462D01*
X14055336Y-14084462D02*
X14055336Y-14132082D01*
X14055336Y-14132082D02*
X14045813Y-14170177D01*
X14045813Y-14170177D02*
X14036289Y-14189224D01*
X14036289Y-14189224D02*
X14026765Y-14198748D01*
X14026765Y-14198748D02*
X14007717Y-14208272D01*
X14007717Y-14208272D02*
X13988670Y-14208272D01*
X13988670Y-14208272D02*
X13969622Y-14198748D01*
X13969622Y-14198748D02*
X13960098Y-14189224D01*
X13960098Y-14189224D02*
X13950575Y-14170177D01*
X13950575Y-14170177D02*
X13941051Y-14132082D01*
X13941051Y-14132082D02*
X13941051Y-14084462D01*
X13941051Y-14084462D02*
X13950575Y-14046367D01*
X13950575Y-14046367D02*
X13960098Y-14027320D01*
X13960098Y-14027320D02*
X13969622Y-14017796D01*
X13969622Y-14017796D02*
X13988670Y-14008272D01*
X14179146Y-14008272D02*
X14198194Y-14008272D01*
X14198194Y-14008272D02*
X14217241Y-14017796D01*
X14217241Y-14017796D02*
X14226765Y-14027320D01*
X14226765Y-14027320D02*
X14236289Y-14046367D01*
X14236289Y-14046367D02*
X14245813Y-14084462D01*
X14245813Y-14084462D02*
X14245813Y-14132082D01*
X14245813Y-14132082D02*
X14236289Y-14170177D01*
X14236289Y-14170177D02*
X14226765Y-14189224D01*
X14226765Y-14189224D02*
X14217241Y-14198748D01*
X14217241Y-14198748D02*
X14198194Y-14208272D01*
X14198194Y-14208272D02*
X14179146Y-14208272D01*
X14179146Y-14208272D02*
X14160098Y-14198748D01*
X14160098Y-14198748D02*
X14150575Y-14189224D01*
X14150575Y-14189224D02*
X14141051Y-14170177D01*
X14141051Y-14170177D02*
X14131527Y-14132082D01*
X14131527Y-14132082D02*
X14131527Y-14084462D01*
X14131527Y-14084462D02*
X14141051Y-14046367D01*
X14141051Y-14046367D02*
X14150575Y-14027320D01*
X14150575Y-14027320D02*
X14160098Y-14017796D01*
X14160098Y-14017796D02*
X14179146Y-14008272D01*
X14331527Y-14208272D02*
X14331527Y-14074939D01*
X14331527Y-14093986D02*
X14341051Y-14084462D01*
X14341051Y-14084462D02*
X14360098Y-14074939D01*
X14360098Y-14074939D02*
X14388670Y-14074939D01*
X14388670Y-14074939D02*
X14407717Y-14084462D01*
X14407717Y-14084462D02*
X14417241Y-14103510D01*
X14417241Y-14103510D02*
X14417241Y-14208272D01*
X14417241Y-14103510D02*
X14426765Y-14084462D01*
X14426765Y-14084462D02*
X14445813Y-14074939D01*
X14445813Y-14074939D02*
X14474384Y-14074939D01*
X14474384Y-14074939D02*
X14493432Y-14084462D01*
X14493432Y-14084462D02*
X14502956Y-14103510D01*
X14502956Y-14103510D02*
X14502956Y-14208272D01*
X14598194Y-14208272D02*
X14598194Y-14074939D01*
X14598194Y-14093986D02*
X14607717Y-14084462D01*
X14607717Y-14084462D02*
X14626765Y-14074939D01*
X14626765Y-14074939D02*
X14655337Y-14074939D01*
X14655337Y-14074939D02*
X14674384Y-14084462D01*
X14674384Y-14084462D02*
X14683908Y-14103510D01*
X14683908Y-14103510D02*
X14683908Y-14208272D01*
X14683908Y-14103510D02*
X14693432Y-14084462D01*
X14693432Y-14084462D02*
X14712479Y-14074939D01*
X14712479Y-14074939D02*
X14741051Y-14074939D01*
X14741051Y-14074939D02*
X14760098Y-14084462D01*
X14760098Y-14084462D02*
X14769622Y-14103510D01*
X14769622Y-14103510D02*
X14769622Y-14208272D01*
X15160098Y-13998748D02*
X14988670Y-14255891D01*
X15417241Y-14008272D02*
X15436289Y-14008272D01*
X15436289Y-14008272D02*
X15455337Y-14017796D01*
X15455337Y-14017796D02*
X15464860Y-14027320D01*
X15464860Y-14027320D02*
X15474384Y-14046367D01*
X15474384Y-14046367D02*
X15483908Y-14084462D01*
X15483908Y-14084462D02*
X15483908Y-14132082D01*
X15483908Y-14132082D02*
X15474384Y-14170177D01*
X15474384Y-14170177D02*
X15464860Y-14189224D01*
X15464860Y-14189224D02*
X15455337Y-14198748D01*
X15455337Y-14198748D02*
X15436289Y-14208272D01*
X15436289Y-14208272D02*
X15417241Y-14208272D01*
X15417241Y-14208272D02*
X15398194Y-14198748D01*
X15398194Y-14198748D02*
X15388670Y-14189224D01*
X15388670Y-14189224D02*
X15379146Y-14170177D01*
X15379146Y-14170177D02*
X15369622Y-14132082D01*
X15369622Y-14132082D02*
X15369622Y-14084462D01*
X15369622Y-14084462D02*
X15379146Y-14046367D01*
X15379146Y-14046367D02*
X15388670Y-14027320D01*
X15388670Y-14027320D02*
X15398194Y-14017796D01*
X15398194Y-14017796D02*
X15417241Y-14008272D01*
X15569622Y-14189224D02*
X15579146Y-14198748D01*
X15579146Y-14198748D02*
X15569622Y-14208272D01*
X15569622Y-14208272D02*
X15560099Y-14198748D01*
X15560099Y-14198748D02*
X15569622Y-14189224D01*
X15569622Y-14189224D02*
X15569622Y-14208272D01*
X15769622Y-14208272D02*
X15655337Y-14208272D01*
X15712479Y-14208272D02*
X15712479Y-14008272D01*
X15712479Y-14008272D02*
X15693432Y-14036843D01*
X15693432Y-14036843D02*
X15674384Y-14055891D01*
X15674384Y-14055891D02*
X15655337Y-14065415D01*
X15941051Y-14008272D02*
X15902956Y-14008272D01*
X15902956Y-14008272D02*
X15883908Y-14017796D01*
X15883908Y-14017796D02*
X15874384Y-14027320D01*
X15874384Y-14027320D02*
X15855337Y-14055891D01*
X15855337Y-14055891D02*
X15845813Y-14093986D01*
X15845813Y-14093986D02*
X15845813Y-14170177D01*
X15845813Y-14170177D02*
X15855337Y-14189224D01*
X15855337Y-14189224D02*
X15864860Y-14198748D01*
X15864860Y-14198748D02*
X15883908Y-14208272D01*
X15883908Y-14208272D02*
X15922003Y-14208272D01*
X15922003Y-14208272D02*
X15941051Y-14198748D01*
X15941051Y-14198748D02*
X15950575Y-14189224D01*
X15950575Y-14189224D02*
X15960099Y-14170177D01*
X15960099Y-14170177D02*
X15960099Y-14122558D01*
X15960099Y-14122558D02*
X15950575Y-14103510D01*
X15950575Y-14103510D02*
X15941051Y-14093986D01*
X15941051Y-14093986D02*
X15922003Y-14084462D01*
X15922003Y-14084462D02*
X15883908Y-14084462D01*
X15883908Y-14084462D02*
X15864860Y-14093986D01*
X15864860Y-14093986D02*
X15855337Y-14103510D01*
X15855337Y-14103510D02*
X15845813Y-14122558D01*
X16055337Y-14208272D02*
X16093432Y-14208272D01*
X16093432Y-14208272D02*
X16112480Y-14198748D01*
X16112480Y-14198748D02*
X16122003Y-14189224D01*
X16122003Y-14189224D02*
X16141051Y-14160653D01*
X16141051Y-14160653D02*
X16150575Y-14122558D01*
X16150575Y-14122558D02*
X16150575Y-14046367D01*
X16150575Y-14046367D02*
X16141051Y-14027320D01*
X16141051Y-14027320D02*
X16131527Y-14017796D01*
X16131527Y-14017796D02*
X16112480Y-14008272D01*
X16112480Y-14008272D02*
X16074384Y-14008272D01*
X16074384Y-14008272D02*
X16055337Y-14017796D01*
X16055337Y-14017796D02*
X16045813Y-14027320D01*
X16045813Y-14027320D02*
X16036289Y-14046367D01*
X16036289Y-14046367D02*
X16036289Y-14093986D01*
X16036289Y-14093986D02*
X16045813Y-14113034D01*
X16045813Y-14113034D02*
X16055337Y-14122558D01*
X16055337Y-14122558D02*
X16074384Y-14132082D01*
X16074384Y-14132082D02*
X16112480Y-14132082D01*
X16112480Y-14132082D02*
X16131527Y-14122558D01*
X16131527Y-14122558D02*
X16141051Y-14113034D01*
X16141051Y-14113034D02*
X16150575Y-14093986D01*
X16217241Y-14008272D02*
X16341051Y-14008272D01*
X16341051Y-14008272D02*
X16274384Y-14084462D01*
X16274384Y-14084462D02*
X16302956Y-14084462D01*
X16302956Y-14084462D02*
X16322003Y-14093986D01*
X16322003Y-14093986D02*
X16331527Y-14103510D01*
X16331527Y-14103510D02*
X16341051Y-14122558D01*
X16341051Y-14122558D02*
X16341051Y-14170177D01*
X16341051Y-14170177D02*
X16331527Y-14189224D01*
X16331527Y-14189224D02*
X16322003Y-14198748D01*
X16322003Y-14198748D02*
X16302956Y-14208272D01*
X16302956Y-14208272D02*
X16245813Y-14208272D01*
X16245813Y-14208272D02*
X16226765Y-14198748D01*
X16226765Y-14198748D02*
X16217241Y-14189224D01*
X16417241Y-14008272D02*
X16417241Y-14046367D01*
X16493432Y-14008272D02*
X16493432Y-14046367D01*
X16788670Y-14284462D02*
X16779146Y-14274939D01*
X16779146Y-14274939D02*
X16760099Y-14246367D01*
X16760099Y-14246367D02*
X16750575Y-14227320D01*
X16750575Y-14227320D02*
X16741051Y-14198748D01*
X16741051Y-14198748D02*
X16731527Y-14151129D01*
X16731527Y-14151129D02*
X16731527Y-14113034D01*
X16731527Y-14113034D02*
X16741051Y-14065415D01*
X16741051Y-14065415D02*
X16750575Y-14036843D01*
X16750575Y-14036843D02*
X16760099Y-14017796D01*
X16760099Y-14017796D02*
X16779146Y-13989224D01*
X16779146Y-13989224D02*
X16788670Y-13979701D01*
X16969623Y-14208272D02*
X16855337Y-14208272D01*
X16912480Y-14208272D02*
X16912480Y-14008272D01*
X16912480Y-14008272D02*
X16893432Y-14036843D01*
X16893432Y-14036843D02*
X16874384Y-14055891D01*
X16874384Y-14055891D02*
X16855337Y-14065415D01*
X17207718Y-14208272D02*
X17207718Y-14008272D01*
X17293432Y-14208272D02*
X17293432Y-14103510D01*
X17293432Y-14103510D02*
X17283908Y-14084462D01*
X17283908Y-14084462D02*
X17264861Y-14074939D01*
X17264861Y-14074939D02*
X17236289Y-14074939D01*
X17236289Y-14074939D02*
X17217242Y-14084462D01*
X17217242Y-14084462D02*
X17207718Y-14093986D01*
X17417242Y-14208272D02*
X17398194Y-14198748D01*
X17398194Y-14198748D02*
X17388670Y-14189224D01*
X17388670Y-14189224D02*
X17379146Y-14170177D01*
X17379146Y-14170177D02*
X17379146Y-14113034D01*
X17379146Y-14113034D02*
X17388670Y-14093986D01*
X17388670Y-14093986D02*
X17398194Y-14084462D01*
X17398194Y-14084462D02*
X17417242Y-14074939D01*
X17417242Y-14074939D02*
X17445813Y-14074939D01*
X17445813Y-14074939D02*
X17464861Y-14084462D01*
X17464861Y-14084462D02*
X17474385Y-14093986D01*
X17474385Y-14093986D02*
X17483908Y-14113034D01*
X17483908Y-14113034D02*
X17483908Y-14170177D01*
X17483908Y-14170177D02*
X17474385Y-14189224D01*
X17474385Y-14189224D02*
X17464861Y-14198748D01*
X17464861Y-14198748D02*
X17445813Y-14208272D01*
X17445813Y-14208272D02*
X17417242Y-14208272D01*
X17598194Y-14208272D02*
X17579146Y-14198748D01*
X17579146Y-14198748D02*
X17569623Y-14179701D01*
X17569623Y-14179701D02*
X17569623Y-14008272D01*
X17750575Y-14198748D02*
X17731527Y-14208272D01*
X17731527Y-14208272D02*
X17693432Y-14208272D01*
X17693432Y-14208272D02*
X17674385Y-14198748D01*
X17674385Y-14198748D02*
X17664861Y-14179701D01*
X17664861Y-14179701D02*
X17664861Y-14103510D01*
X17664861Y-14103510D02*
X17674385Y-14084462D01*
X17674385Y-14084462D02*
X17693432Y-14074939D01*
X17693432Y-14074939D02*
X17731527Y-14074939D01*
X17731527Y-14074939D02*
X17750575Y-14084462D01*
X17750575Y-14084462D02*
X17760099Y-14103510D01*
X17760099Y-14103510D02*
X17760099Y-14122558D01*
X17760099Y-14122558D02*
X17664861Y-14141605D01*
X17826766Y-14284462D02*
X17836289Y-14274939D01*
X17836289Y-14274939D02*
X17855337Y-14246367D01*
X17855337Y-14246367D02*
X17864861Y-14227320D01*
X17864861Y-14227320D02*
X17874385Y-14198748D01*
X17874385Y-14198748D02*
X17883908Y-14151129D01*
X17883908Y-14151129D02*
X17883908Y-14113034D01*
X17883908Y-14113034D02*
X17874385Y-14065415D01*
X17874385Y-14065415D02*
X17864861Y-14036843D01*
X17864861Y-14036843D02*
X17855337Y-14017796D01*
X17855337Y-14017796D02*
X17836289Y-13989224D01*
X17836289Y-13989224D02*
X17826766Y-13979701D01*
M02*
