%TF.GenerationSoftware,KiCad,Pcbnew,8.0.3*%
%TF.CreationDate,2024-06-16T19:36:31+02:00*%
%TF.ProjectId,jewelled_lc1,6a657765-6c6c-4656-945f-6c63312e6b69,rev?*%
%TF.SameCoordinates,Original*%
%TF.FileFunction,Copper,L1,Top*%
%TF.FilePolarity,Positive*%
%FSLAX45Y45*%
G04 Gerber Fmt 4.5, Leading zero omitted, Abs format (unit mm)*
G04 Created by KiCad (PCBNEW 8.0.3) date 2024-06-16 19:36:31*
%MOMM*%
%LPD*%
G01*
G04 APERTURE LIST*
G04 Aperture macros list*
%AMRoundRect*
0 Rectangle with rounded corners*
0 $1 Rounding radius*
0 $2 $3 $4 $5 $6 $7 $8 $9 X,Y pos of 4 corners*
0 Add a 4 corners polygon primitive as box body*
4,1,4,$2,$3,$4,$5,$6,$7,$8,$9,$2,$3,0*
0 Add four circle primitives for the rounded corners*
1,1,$1+$1,$2,$3*
1,1,$1+$1,$4,$5*
1,1,$1+$1,$6,$7*
1,1,$1+$1,$8,$9*
0 Add four rect primitives between the rounded corners*
20,1,$1+$1,$2,$3,$4,$5,0*
20,1,$1+$1,$4,$5,$6,$7,0*
20,1,$1+$1,$6,$7,$8,$9,0*
20,1,$1+$1,$8,$9,$2,$3,0*%
%AMRotRect*
0 Rectangle, with rotation*
0 The origin of the aperture is its center*
0 $1 length*
0 $2 width*
0 $3 Rotation angle, in degrees counterclockwise*
0 Add horizontal line*
21,1,$1,$2,0,0,$3*%
%AMFreePoly0*
4,1,5,0.110000,-0.125000,-0.110000,-0.125000,-0.110000,0.125000,0.360000,0.125000,0.110000,-0.125000,0.110000,-0.125000,$1*%
%AMFreePoly1*
4,1,6,0.290000,-0.055000,0.290000,-0.125000,-0.110000,-0.125000,-0.110000,0.125000,0.110000,0.125000,0.290000,-0.055000,0.290000,-0.055000,$1*%
%AMFreePoly2*
4,1,7,0.110000,-0.125000,-0.110000,-0.125000,-0.290000,-0.125000,-0.290000,-0.055000,-0.110000,0.125000,0.110000,0.125000,0.110000,-0.125000,0.110000,-0.125000,$1*%
%AMFreePoly3*
4,1,6,0.110000,-0.125000,-0.110000,-0.125000,-0.290000,0.055000,-0.290000,0.125000,0.110000,0.125000,0.110000,-0.125000,0.110000,-0.125000,$1*%
G04 Aperture macros list end*
%TA.AperFunction,SMDPad,CuDef*%
%ADD10RoundRect,0.147500X0.220286X-0.054649X0.088197X0.209126X-0.220286X0.054649X-0.088197X-0.209126X0*%
%TD*%
%TA.AperFunction,SMDPad,CuDef*%
%ADD11RoundRect,0.100000X-0.125000X-0.100000X0.125000X-0.100000X0.125000X0.100000X-0.125000X0.100000X0*%
%TD*%
%TA.AperFunction,SMDPad,CuDef*%
%ADD12R,0.350000X0.650000*%
%TD*%
%TA.AperFunction,SMDPad,CuDef*%
%ADD13R,1.600000X1.000000*%
%TD*%
%TA.AperFunction,SMDPad,CuDef*%
%ADD14RoundRect,0.147500X0.088197X-0.209126X0.220286X0.054649X-0.088197X0.209126X-0.220286X-0.054649X0*%
%TD*%
%TA.AperFunction,SMDPad,CuDef*%
%ADD15RoundRect,0.147500X0.172500X-0.147500X0.172500X0.147500X-0.172500X0.147500X-0.172500X-0.147500X0*%
%TD*%
%TA.AperFunction,SMDPad,CuDef*%
%ADD16RoundRect,0.135000X-0.135000X-0.185000X0.135000X-0.185000X0.135000X0.185000X-0.135000X0.185000X0*%
%TD*%
%TA.AperFunction,SMDPad,CuDef*%
%ADD17RoundRect,0.140000X0.170000X-0.140000X0.170000X0.140000X-0.170000X0.140000X-0.170000X-0.140000X0*%
%TD*%
%TA.AperFunction,SMDPad,CuDef*%
%ADD18FreePoly0,270.000000*%
%TD*%
%TA.AperFunction,SMDPad,CuDef*%
%ADD19FreePoly1,270.000000*%
%TD*%
%TA.AperFunction,SMDPad,CuDef*%
%ADD20FreePoly2,270.000000*%
%TD*%
%TA.AperFunction,SMDPad,CuDef*%
%ADD21FreePoly3,270.000000*%
%TD*%
%TA.AperFunction,SMDPad,CuDef*%
%ADD22RotRect,0.480000X0.480000X315.000000*%
%TD*%
%TA.AperFunction,SMDPad,CuDef*%
%ADD23RoundRect,0.140000X-0.170000X0.140000X-0.170000X-0.140000X0.170000X-0.140000X0.170000X0.140000X0*%
%TD*%
%TA.AperFunction,SMDPad,CuDef*%
%ADD24RoundRect,0.140000X-0.140000X-0.170000X0.140000X-0.170000X0.140000X0.170000X-0.140000X0.170000X0*%
%TD*%
%TA.AperFunction,SMDPad,CuDef*%
%ADD25RoundRect,0.135000X-0.185000X0.135000X-0.185000X-0.135000X0.185000X-0.135000X0.185000X0.135000X0*%
%TD*%
%TA.AperFunction,SMDPad,CuDef*%
%ADD26R,0.200000X0.500000*%
%TD*%
%TA.AperFunction,SMDPad,CuDef*%
%ADD27R,0.650000X0.500000*%
%TD*%
%TA.AperFunction,SMDPad,CuDef*%
%ADD28RoundRect,0.147500X0.054649X0.220286X-0.209126X0.088197X-0.054649X-0.220286X0.209126X-0.088197X0*%
%TD*%
%TA.AperFunction,SMDPad,CuDef*%
%ADD29RoundRect,0.135000X0.135000X0.185000X-0.135000X0.185000X-0.135000X-0.185000X0.135000X-0.185000X0*%
%TD*%
%TA.AperFunction,ComponentPad*%
%ADD30C,4.700000*%
%TD*%
%TA.AperFunction,ConnectorPad*%
%ADD31C,7.500000*%
%TD*%
%TA.AperFunction,SMDPad,CuDef*%
%ADD32RoundRect,0.062500X-0.372500X-0.062500X0.372500X-0.062500X0.372500X0.062500X-0.372500X0.062500X0*%
%TD*%
%TA.AperFunction,HeatsinkPad*%
%ADD33R,0.610000X2.200000*%
%TD*%
%TA.AperFunction,SMDPad,CuDef*%
%ADD34FreePoly0,0.000000*%
%TD*%
%TA.AperFunction,SMDPad,CuDef*%
%ADD35FreePoly1,0.000000*%
%TD*%
%TA.AperFunction,SMDPad,CuDef*%
%ADD36FreePoly2,0.000000*%
%TD*%
%TA.AperFunction,SMDPad,CuDef*%
%ADD37FreePoly3,0.000000*%
%TD*%
%TA.AperFunction,SMDPad,CuDef*%
%ADD38RotRect,0.480000X0.480000X45.000000*%
%TD*%
%TA.AperFunction,SMDPad,CuDef*%
%ADD39RoundRect,0.140000X0.140000X0.170000X-0.140000X0.170000X-0.140000X-0.170000X0.140000X-0.170000X0*%
%TD*%
%TA.AperFunction,SMDPad,CuDef*%
%ADD40R,1.100000X1.800000*%
%TD*%
%TA.AperFunction,SMDPad,CuDef*%
%ADD41R,0.540000X0.600000*%
%TD*%
%TA.AperFunction,SMDPad,CuDef*%
%ADD42RoundRect,0.050000X-0.387500X-0.050000X0.387500X-0.050000X0.387500X0.050000X-0.387500X0.050000X0*%
%TD*%
%TA.AperFunction,SMDPad,CuDef*%
%ADD43RoundRect,0.050000X-0.050000X-0.387500X0.050000X-0.387500X0.050000X0.387500X-0.050000X0.387500X0*%
%TD*%
%TA.AperFunction,HeatsinkPad*%
%ADD44R,2.600000X2.600000*%
%TD*%
%TA.AperFunction,SMDPad,CuDef*%
%ADD45RoundRect,0.062500X0.062500X-0.350000X0.062500X0.350000X-0.062500X0.350000X-0.062500X-0.350000X0*%
%TD*%
%TA.AperFunction,SMDPad,CuDef*%
%ADD46RoundRect,0.062500X0.350000X-0.062500X0.350000X0.062500X-0.350000X0.062500X-0.350000X-0.062500X0*%
%TD*%
%TA.AperFunction,HeatsinkPad*%
%ADD47R,2.400000X2.400000*%
%TD*%
%TA.AperFunction,WasherPad*%
%ADD48C,1.200000*%
%TD*%
%TA.AperFunction,ViaPad*%
%ADD49C,0.600000*%
%TD*%
%TA.AperFunction,Conductor*%
%ADD50C,0.150000*%
%TD*%
%TA.AperFunction,Conductor*%
%ADD51C,0.500000*%
%TD*%
G04 APERTURE END LIST*
D10*
%TO.P,D8,1,K*%
%TO.N,Net-(D8-K)*%
X15221716Y-8873367D03*
%TO.P,D8,2,A*%
%TO.N,VAA*%
X15178284Y-8786634D03*
%TD*%
D11*
%TO.P,D19,1,A*%
%TO.N,Net-(BZ1--)*%
X15032500Y-11200000D03*
%TO.P,D19,2,A*%
%TO.N,unconnected-(D19-A-Pad2)*%
X15032500Y-11280000D03*
%TO.P,D19,3,K*%
%TO.N,VAA*%
X15147500Y-11240000D03*
%TD*%
D12*
%TO.P,U4,1,PROG*%
%TO.N,Net-(U4-PROG)*%
X14550000Y-11820000D03*
%TO.P,U4,2,GND*%
%TO.N,GND*%
X14615000Y-11820000D03*
%TO.P,U4,3,VCC*%
%TO.N,+5V*%
X14680000Y-11820000D03*
%TO.P,U4,4,BAT*%
%TO.N,Net-(JP1-B)*%
X14680000Y-11610000D03*
%TO.P,U4,5,CHRGb*%
%TO.N,CHARGE_STATUS*%
X14615000Y-11610000D03*
%TO.P,U4,6,TEMP*%
%TO.N,GND*%
X14550000Y-11610000D03*
D13*
%TO.P,U4,7,GND*%
X14615000Y-11715000D03*
%TD*%
D14*
%TO.P,D11,1,K*%
%TO.N,Net-(D11-K)*%
X14178284Y-8873367D03*
%TO.P,D11,2,A*%
%TO.N,VAA*%
X14221716Y-8786634D03*
%TD*%
D15*
%TO.P,D14,1,K*%
%TO.N,Net-(D14-K)*%
X13390000Y-10498500D03*
%TO.P,D14,2,A*%
%TO.N,VAA*%
X13390000Y-10401500D03*
%TD*%
D16*
%TO.P,R4,1*%
%TO.N,Net-(U4-PROG)*%
X14544000Y-11955000D03*
%TO.P,R4,2*%
%TO.N,GND*%
X14646000Y-11955000D03*
%TD*%
D17*
%TO.P,C7,1*%
%TO.N,Net-(U7-OUT)*%
X14345000Y-11003000D03*
%TO.P,C7,2*%
%TO.N,MIC_OUT*%
X14345000Y-10907000D03*
%TD*%
%TO.P,C9,1*%
%TO.N,VAA*%
X14225000Y-11003000D03*
%TO.P,C9,2*%
%TO.N,GND*%
X14225000Y-10907000D03*
%TD*%
D14*
%TO.P,D13,1,K*%
%TO.N,Net-(D13-K)*%
X13638284Y-9953367D03*
%TO.P,D13,2,A*%
%TO.N,VAA*%
X13681716Y-9866634D03*
%TD*%
D18*
%TO.P,U2,1,VOUT*%
%TO.N,+2V8*%
X14772500Y-10856000D03*
D19*
%TO.P,U2,2,GND*%
%TO.N,GND*%
X14707500Y-10856000D03*
D20*
%TO.P,U2,3,EN*%
%TO.N,VDD*%
X14707500Y-10964000D03*
D21*
%TO.P,U2,4,VIN*%
X14772500Y-10964000D03*
D22*
%TO.P,U2,5,GND*%
%TO.N,GND*%
X14740000Y-10910000D03*
%TD*%
D23*
%TO.P,C11,1*%
%TO.N,VAA*%
X14510000Y-9912000D03*
%TO.P,C11,2*%
%TO.N,GND*%
X14510000Y-10008000D03*
%TD*%
D16*
%TO.P,R3,1*%
%TO.N,BATSENSE*%
X14489000Y-10870000D03*
%TO.P,R3,2*%
%TO.N,GND*%
X14591000Y-10870000D03*
%TD*%
D10*
%TO.P,D16,1,K*%
%TO.N,Net-(D16-K)*%
X13948466Y-11563366D03*
%TO.P,D16,2,A*%
%TO.N,VAA*%
X13905034Y-11476633D03*
%TD*%
D24*
%TO.P,C5,1*%
%TO.N,BATSENSE*%
X14492000Y-10750000D03*
%TO.P,C5,2*%
%TO.N,GND*%
X14588000Y-10750000D03*
%TD*%
D18*
%TO.P,U8,1,VOUT*%
%TO.N,VAA*%
X15077500Y-10856000D03*
D19*
%TO.P,U8,2,GND*%
%TO.N,GND*%
X15012500Y-10856000D03*
D20*
%TO.P,U8,3,EN*%
%TO.N,PERI_EN*%
X15012500Y-10964000D03*
D21*
%TO.P,U8,4,VIN*%
%TO.N,VDD*%
X15077500Y-10964000D03*
D22*
%TO.P,U8,5,GND*%
%TO.N,GND*%
X15045000Y-10910000D03*
%TD*%
D24*
%TO.P,C1,1*%
%TO.N,BUT1*%
X14647000Y-12555000D03*
%TO.P,C1,2*%
%TO.N,GND*%
X14743000Y-12555000D03*
%TD*%
D25*
%TO.P,R1,1*%
%TO.N,Net-(U1-ISET)*%
X14750000Y-9909000D03*
%TO.P,R1,2*%
%TO.N,GND*%
X14750000Y-10011000D03*
%TD*%
D26*
%TO.P,Q2,1,G*%
%TO.N,SPEAKER_PWM*%
X15272500Y-10872500D03*
%TO.P,Q2,2,S*%
%TO.N,GND*%
X15227500Y-10872500D03*
D27*
%TO.P,Q2,3,D*%
%TO.N,Net-(BZ1--)*%
X15250000Y-10947500D03*
%TD*%
D14*
%TO.P,D12,1,K*%
%TO.N,Net-(D12-K)*%
X13908284Y-9413367D03*
%TO.P,D12,2,A*%
%TO.N,VAA*%
X13951716Y-9326634D03*
%TD*%
D23*
%TO.P,C10,1*%
%TO.N,VAA*%
X14630000Y-9912000D03*
%TO.P,C10,2*%
%TO.N,GND*%
X14630000Y-10008000D03*
%TD*%
D28*
%TO.P,D15,1,K*%
%TO.N,Net-(D15-K)*%
X13728366Y-10993284D03*
%TO.P,D15,2,A*%
%TO.N,VAA*%
X13641633Y-11036716D03*
%TD*%
D10*
%TO.P,D7,1,K*%
%TO.N,Net-(D7-K)*%
X15491716Y-9413367D03*
%TO.P,D7,2,A*%
%TO.N,VAA*%
X15448284Y-9326634D03*
%TD*%
D17*
%TO.P,C3,1*%
%TO.N,+5V*%
X14825000Y-11833000D03*
%TO.P,C3,2*%
%TO.N,GND*%
X14825000Y-11737000D03*
%TD*%
D14*
%TO.P,D3,1,K*%
%TO.N,Net-(D3-K)*%
X15448284Y-11573366D03*
%TO.P,D3,2,A*%
%TO.N,VAA*%
X15491716Y-11486633D03*
%TD*%
D24*
%TO.P,C6,1*%
%TO.N,Net-(JP1-B)*%
X14827000Y-11605000D03*
%TO.P,C6,2*%
%TO.N,GND*%
X14923000Y-11605000D03*
%TD*%
D10*
%TO.P,D9,1,K*%
%TO.N,Net-(D9-K)*%
X14951716Y-8333366D03*
%TO.P,D9,2,A*%
%TO.N,VAA*%
X14908284Y-8246633D03*
%TD*%
%TO.P,D17,1,K*%
%TO.N,Net-(D17-K)*%
X14221716Y-12113366D03*
%TO.P,D17,2,A*%
%TO.N,VAA*%
X14178284Y-12026633D03*
%TD*%
D14*
%TO.P,D10,1,K*%
%TO.N,Net-(D10-K)*%
X14448284Y-8333366D03*
%TO.P,D10,2,A*%
%TO.N,VAA*%
X14491716Y-8246633D03*
%TD*%
D23*
%TO.P,C8,1*%
%TO.N,+2V8*%
X15410000Y-10382000D03*
%TO.P,C8,2*%
%TO.N,GND*%
X15410000Y-10478000D03*
%TD*%
D29*
%TO.P,R5,1*%
%TO.N,VAA*%
X14596000Y-10335000D03*
%TO.P,R5,2*%
%TO.N,I2C_SDA*%
X14494000Y-10335000D03*
%TD*%
D30*
%TO.P,H1,1,1*%
%TO.N,unconnected-(H1-Pad1)_0*%
X14700000Y-7450000D03*
D31*
%TO.N,unconnected-(H1-Pad1)*%
X14700000Y-7450000D03*
%TD*%
D24*
%TO.P,C2,1*%
%TO.N,BUT2*%
X14662000Y-12210000D03*
%TO.P,C2,2*%
%TO.N,GND*%
X14758000Y-12210000D03*
%TD*%
D14*
%TO.P,D4,1,K*%
%TO.N,Net-(D4-K)*%
X15693284Y-11058367D03*
%TO.P,D4,2,A*%
%TO.N,VAA*%
X15736716Y-10971634D03*
%TD*%
D32*
%TO.P,U6,1,A0*%
%TO.N,GND*%
X14177750Y-10175000D03*
%TO.P,U6,2,A1*%
X14177750Y-10225000D03*
%TO.P,U6,3,A2*%
X14177750Y-10275000D03*
%TO.P,U6,4,GND*%
X14177750Y-10325000D03*
%TO.P,U6,5,SDA*%
%TO.N,I2C_SDA*%
X14365750Y-10325000D03*
%TO.P,U6,6,SCL*%
%TO.N,I2C_SCL*%
X14365750Y-10275000D03*
%TO.P,U6,7,WP*%
%TO.N,GND*%
X14365750Y-10225000D03*
%TO.P,U6,8,VCC*%
%TO.N,VAA*%
X14365750Y-10175000D03*
D33*
%TO.P,U6,9,GND*%
%TO.N,GND*%
X14271750Y-10250000D03*
%TD*%
D10*
%TO.P,D18,1,K*%
%TO.N,Net-(D18-K)*%
X14491716Y-12653366D03*
%TO.P,D18,2,A*%
%TO.N,VAA*%
X14448284Y-12566633D03*
%TD*%
D29*
%TO.P,R6,1*%
%TO.N,VAA*%
X14596000Y-10225000D03*
%TO.P,R6,2*%
%TO.N,I2C_SCL*%
X14494000Y-10225000D03*
%TD*%
D34*
%TO.P,U5,1,VDD*%
%TO.N,/BATT+_CRG*%
X14856000Y-8697500D03*
D35*
%TO.P,U5,2,BM*%
%TO.N,BM*%
X14856000Y-8762500D03*
D36*
%TO.P,U5,3,BM*%
X14964000Y-8762500D03*
D37*
%TO.P,U5,4,VM*%
%TO.N,Net-(JP2-B)*%
X14964000Y-8697500D03*
D38*
%TO.P,U5,5*%
%TO.N,N/C*%
X14910000Y-8730000D03*
%TD*%
D10*
%TO.P,D6,1,K*%
%TO.N,Net-(D6-K)*%
X15761716Y-9953367D03*
%TO.P,D6,2,A*%
%TO.N,VAA*%
X15718284Y-9866634D03*
%TD*%
D17*
%TO.P,C12,1*%
%TO.N,+2V8*%
X14750000Y-10348000D03*
%TO.P,C12,2*%
%TO.N,GND*%
X14750000Y-10252000D03*
%TD*%
D39*
%TO.P,C4,1*%
%TO.N,+2V8*%
X14788000Y-10750000D03*
%TO.P,C4,2*%
%TO.N,GND*%
X14692000Y-10750000D03*
%TD*%
D15*
%TO.P,D5,1,K*%
%TO.N,Net-(D5-K)*%
X16010000Y-10498500D03*
%TO.P,D5,2,A*%
%TO.N,VAA*%
X16010000Y-10401500D03*
%TD*%
D14*
%TO.P,D2,1,K*%
%TO.N,Net-(D2-K)*%
X15186567Y-12081733D03*
%TO.P,D2,2,A*%
%TO.N,VAA*%
X15230000Y-11995000D03*
%TD*%
D40*
%TO.P,BZ1,1,+*%
%TO.N,VAA*%
X14535000Y-11270000D03*
%TO.P,BZ1,2,-*%
%TO.N,Net-(BZ1--)*%
X14905000Y-11270000D03*
%TD*%
D14*
%TO.P,D1,1,K*%
%TO.N,Net-(D1-K)*%
X14908284Y-12653366D03*
%TO.P,D1,2,A*%
%TO.N,VAA*%
X14951716Y-12566633D03*
%TD*%
D41*
%TO.P,U7,1,OUT*%
%TO.N,Net-(U7-OUT)*%
X14381500Y-11137500D03*
%TO.P,U7,2,GND*%
%TO.N,GND*%
X14188500Y-11137500D03*
%TO.P,U7,3,GND*%
X14188500Y-11242500D03*
%TO.P,U7,4,VDD*%
%TO.N,VAA*%
X14381500Y-11242500D03*
%TD*%
D29*
%TO.P,R2,1*%
%TO.N,/BATT+_CRG*%
X14591000Y-10990000D03*
%TO.P,R2,2*%
%TO.N,BATSENSE*%
X14489000Y-10990000D03*
%TD*%
D42*
%TO.P,U3,1,PB8/BOOT0*%
%TO.N,GND*%
X14876250Y-10230000D03*
%TO.P,U3,2,OSCIN/PD0*%
%TO.N,unconnected-(U3-OSCIN{slash}PD0-Pad2)*%
X14876250Y-10270000D03*
%TO.P,U3,3,OSCOUT/PD1*%
%TO.N,unconnected-(U3-OSCOUT{slash}PD1-Pad3)*%
X14876250Y-10310000D03*
%TO.P,U3,4,NRST*%
%TO.N,+2V8*%
X14876250Y-10350000D03*
%TO.P,U3,5,VDDA*%
X14876250Y-10390000D03*
%TO.P,U3,6,PA0/WKUP/ADC0*%
%TO.N,BUT1*%
X14876250Y-10430000D03*
%TO.P,U3,7,PA1/ADC1*%
%TO.N,BUT2*%
X14876250Y-10470000D03*
D43*
%TO.P,U3,8,PA2/ADC2*%
%TO.N,MIC_OUT*%
X14950000Y-10543750D03*
%TO.P,U3,9,PA3/ADC3*%
%TO.N,BATSENSE*%
X14990000Y-10543750D03*
%TO.P,U3,10,PA4/ADC4*%
%TO.N,PERI_EN*%
X15030000Y-10543750D03*
%TO.P,U3,11,PA5/ADC5*%
%TO.N,unconnected-(U3-PA5{slash}ADC5-Pad11)*%
X15070000Y-10543750D03*
%TO.P,U3,12,PA6/ADC6*%
%TO.N,unconnected-(U3-PA6{slash}ADC6-Pad12)*%
X15110000Y-10543750D03*
%TO.P,U3,13,PA7/ADC7*%
%TO.N,SPEAKER_PWM*%
X15150000Y-10543750D03*
%TO.P,U3,14,PB0/ADC8*%
%TO.N,CHARGE_STATUS*%
X15190000Y-10543750D03*
D42*
%TO.P,U3,15,PB1/ADC9*%
%TO.N,unconnected-(U3-PB1{slash}ADC9-Pad15)*%
X15263750Y-10470000D03*
%TO.P,U3,16,GND*%
%TO.N,GND*%
X15263750Y-10430000D03*
%TO.P,U3,17,VDD*%
%TO.N,+2V8*%
X15263750Y-10390000D03*
%TO.P,U3,18,PA9*%
%TO.N,MCU_TXD*%
X15263750Y-10350000D03*
%TO.P,U3,19,PA10/PA11/USB1DM*%
%TO.N,MCU_RXD*%
X15263750Y-10310000D03*
%TO.P,U3,20,PA12/USB1DP*%
%TO.N,unconnected-(U3-PA12{slash}USB1DP-Pad20)*%
X15263750Y-10270000D03*
%TO.P,U3,21,PA13/SWDIO*%
%TO.N,SWDIO*%
X15263750Y-10230000D03*
D43*
%TO.P,U3,22,PA14/SWCLK*%
%TO.N,SWCLK*%
X15190000Y-10156250D03*
%TO.P,U3,23,PA15*%
%TO.N,unconnected-(U3-PA15-Pad23)*%
X15150000Y-10156250D03*
%TO.P,U3,24,PB3*%
%TO.N,unconnected-(U3-PB3-Pad24)*%
X15110000Y-10156250D03*
%TO.P,U3,25,PB4*%
%TO.N,LED1_SDB*%
X15070000Y-10156250D03*
%TO.P,U3,26,PB5*%
%TO.N,unconnected-(U3-PB5-Pad26)*%
X15030000Y-10156250D03*
%TO.P,U3,27,PB6*%
%TO.N,I2C_SCL*%
X14990000Y-10156250D03*
%TO.P,U3,28,PB7*%
%TO.N,I2C_SDA*%
X14950000Y-10156250D03*
D44*
%TO.P,U3,29,GND*%
%TO.N,GND*%
X15070000Y-10350000D03*
%TD*%
D45*
%TO.P,U1,1,SDB*%
%TO.N,LED1_SDB*%
X14580000Y-9793750D03*
%TO.P,U1,2,AD*%
%TO.N,VAA*%
X14620000Y-9793750D03*
%TO.P,U1,3,VCC*%
X14660000Y-9793750D03*
%TO.P,U1,4,GND*%
%TO.N,GND*%
X14700000Y-9793750D03*
%TO.P,U1,5,ISET*%
%TO.N,Net-(U1-ISET)*%
X14740000Y-9793750D03*
%TO.P,U1,6,SDA*%
%TO.N,I2C_SDA*%
X14780000Y-9793750D03*
%TO.P,U1,7,SCL*%
%TO.N,I2C_SCL*%
X14820000Y-9793750D03*
D46*
%TO.P,U1,8,OUT1*%
%TO.N,Net-(D1-K)*%
X14893750Y-9720000D03*
%TO.P,U1,9,OUT2*%
%TO.N,Net-(D2-K)*%
X14893750Y-9680000D03*
%TO.P,U1,10,OUT3*%
%TO.N,Net-(D3-K)*%
X14893750Y-9640000D03*
%TO.P,U1,11,GND*%
%TO.N,GND*%
X14893750Y-9600000D03*
%TO.P,U1,12,OUT4*%
%TO.N,Net-(D4-K)*%
X14893750Y-9560000D03*
%TO.P,U1,13,OUT5*%
%TO.N,Net-(D5-K)*%
X14893750Y-9520000D03*
%TO.P,U1,14,OUT6*%
%TO.N,Net-(D6-K)*%
X14893750Y-9480000D03*
D45*
%TO.P,U1,15,OUT7*%
%TO.N,Net-(D7-K)*%
X14820000Y-9406250D03*
%TO.P,U1,16,OUT8*%
%TO.N,Net-(D8-K)*%
X14780000Y-9406250D03*
%TO.P,U1,17,OUT9*%
%TO.N,Net-(D9-K)*%
X14740000Y-9406250D03*
%TO.P,U1,18,GND*%
%TO.N,GND*%
X14700000Y-9406250D03*
%TO.P,U1,19,OUT10*%
%TO.N,Net-(D10-K)*%
X14660000Y-9406250D03*
%TO.P,U1,20,OUT11*%
%TO.N,Net-(D11-K)*%
X14620000Y-9406250D03*
%TO.P,U1,21,OUT12*%
%TO.N,Net-(D12-K)*%
X14580000Y-9406250D03*
D46*
%TO.P,U1,22,OUT13*%
%TO.N,Net-(D13-K)*%
X14506250Y-9480000D03*
%TO.P,U1,23,OUT14*%
%TO.N,Net-(D14-K)*%
X14506250Y-9520000D03*
%TO.P,U1,24,OUT15*%
%TO.N,Net-(D15-K)*%
X14506250Y-9560000D03*
%TO.P,U1,25,GND*%
%TO.N,GND*%
X14506250Y-9600000D03*
%TO.P,U1,26,OUT16*%
%TO.N,Net-(D16-K)*%
X14506250Y-9640000D03*
%TO.P,U1,27,OUT17*%
%TO.N,Net-(D17-K)*%
X14506250Y-9680000D03*
%TO.P,U1,28,OUT18*%
%TO.N,Net-(D18-K)*%
X14506250Y-9720000D03*
D47*
%TO.P,U1,29,GND*%
%TO.N,GND*%
X14700000Y-9600000D03*
%TD*%
D48*
%TO.P,SW3,*%
%TO.N,*%
X13667164Y-10824123D03*
X13532836Y-10555877D03*
%TD*%
D49*
%TO.N,BM*%
X14940000Y-8915000D03*
%TO.N,/BATT+_CRG*%
X14730000Y-8410000D03*
X14295000Y-9075000D03*
X14400000Y-11390000D03*
X14090000Y-10005000D03*
X14090000Y-9340000D03*
X14040000Y-10555000D03*
%TO.N,VAA*%
X14590000Y-10120000D03*
X15075000Y-10780000D03*
X15045000Y-12445000D03*
X14080000Y-9210000D03*
X14420000Y-10010000D03*
X15255000Y-11140000D03*
X14355000Y-12450000D03*
X14310000Y-10790000D03*
X15940000Y-10600000D03*
X15978788Y-10291212D03*
%TO.N,GND*%
X15240000Y-9665000D03*
X15575000Y-9690000D03*
X15070000Y-10350000D03*
X14375000Y-9180000D03*
X13620000Y-10165000D03*
X15590000Y-10475000D03*
X15285000Y-10610000D03*
X15050000Y-12100000D03*
X14235000Y-9315000D03*
X15090000Y-10685000D03*
X14590000Y-10670000D03*
X14220000Y-10790000D03*
X13770000Y-11155000D03*
X14250000Y-10055000D03*
X15195000Y-9080000D03*
X13850000Y-9540000D03*
X14430000Y-8705000D03*
X14730000Y-12885000D03*
%TO.N,+2V8*%
X15270000Y-9965000D03*
X14655000Y-10415000D03*
X14885000Y-10735000D03*
%TO.N,BUT1*%
X14640000Y-12740000D03*
%TO.N,BUT2*%
X14660000Y-12090000D03*
%TO.N,I2C_SCL*%
X14920000Y-9890000D03*
X14490000Y-10110000D03*
%TO.N,SWDIO*%
X15290000Y-10070000D03*
%TO.N,MCU_TXD*%
X15490000Y-10230000D03*
%TO.N,+5V*%
X15025000Y-11775000D03*
%TO.N,MCU_RXD*%
X15415000Y-10155000D03*
%TO.N,SWCLK*%
X15170000Y-10010000D03*
%TO.N,I2C_SDA*%
X14455000Y-10415000D03*
X14840000Y-9960000D03*
%TO.N,LED1_SDB*%
X14370000Y-9850000D03*
X15020000Y-9830000D03*
%TO.N,Net-(JP1-B)*%
X15045000Y-11590000D03*
%TO.N,Net-(JP2-B)*%
X15065000Y-8830000D03*
%TO.N,VDD*%
X15040000Y-11090000D03*
%TD*%
D50*
%TO.N,BM*%
X14964000Y-8762500D02*
X14964000Y-8891000D01*
X14856000Y-8831000D02*
X14940000Y-8915000D01*
X14856000Y-8762500D02*
X14856000Y-8831000D01*
X14964000Y-8891000D02*
X14940000Y-8915000D01*
%TO.N,/BATT+_CRG*%
X14067500Y-10057500D02*
X14090000Y-10035000D01*
X14535000Y-11080000D02*
X14445000Y-11170000D01*
X14295000Y-9135000D02*
X14295000Y-9075000D01*
X14445000Y-11170000D02*
X14445000Y-11195000D01*
X14040000Y-10555000D02*
X14040000Y-10085000D01*
X14445000Y-11195000D02*
X14445000Y-11345000D01*
X14090000Y-9340000D02*
X14295000Y-9135000D01*
X14856000Y-8697500D02*
X14856000Y-8536000D01*
X14591000Y-10990000D02*
X14591000Y-11024000D01*
X14445000Y-11345000D02*
X14400000Y-11390000D01*
X14040000Y-10085000D02*
X14067500Y-10057500D01*
X14591000Y-11024000D02*
X14535000Y-11080000D01*
X14856000Y-8536000D02*
X14730000Y-8410000D01*
X14090000Y-10035000D02*
X14090000Y-10005000D01*
%TO.N,Net-(BZ1--)*%
X15032500Y-11200000D02*
X15055000Y-11200000D01*
X15250000Y-11005000D02*
X15250000Y-10947500D01*
X15032500Y-11200000D02*
X14975000Y-11200000D01*
X15055000Y-11200000D02*
X15250000Y-11005000D01*
X14975000Y-11200000D02*
X14905000Y-11270000D01*
%TO.N,VAA*%
X13830000Y-11520000D02*
X13641633Y-11036716D01*
X14420000Y-8220000D02*
X14491716Y-8246633D01*
D51*
X15147500Y-11307500D02*
X15147500Y-11240000D01*
D50*
X16000000Y-10340000D02*
X15978788Y-10291212D01*
X14951716Y-12566633D02*
X15010000Y-12600000D01*
X14120000Y-12060000D02*
X13830000Y-11520000D01*
X15077500Y-10856000D02*
X15077500Y-10782500D01*
X15780000Y-9830000D02*
X15510000Y-9290000D01*
X14970000Y-8210000D02*
X15240000Y-8750000D01*
X14285000Y-10943000D02*
X14285000Y-10815000D01*
X15077500Y-10782500D02*
X15075000Y-10780000D01*
X15718284Y-9866634D02*
X15780000Y-9830000D01*
X14596000Y-10126000D02*
X14590000Y-10120000D01*
X14365750Y-10064250D02*
X14420000Y-10010000D01*
X14150000Y-8760000D02*
X14420000Y-8220000D01*
X14445000Y-9940000D02*
X14420000Y-9965000D01*
X14326667Y-12473333D02*
X14350000Y-12450000D01*
X13681716Y-9866634D02*
X13610000Y-9830000D01*
X14080000Y-9210000D02*
X13958333Y-9143333D01*
X14420000Y-9965000D02*
X14420000Y-10010000D01*
X13890000Y-9280000D02*
X13951716Y-9326634D01*
D51*
X15015000Y-11440000D02*
X15147500Y-11307500D01*
D50*
X15178284Y-8786634D02*
X15240000Y-8750000D01*
X14620000Y-9793750D02*
X14620000Y-9902000D01*
X14510000Y-9912000D02*
X14630000Y-9912000D01*
X15280000Y-12090000D02*
X15280000Y-12045000D01*
X15940000Y-10600000D02*
X15736716Y-10971634D01*
X14390000Y-12600000D02*
X14326667Y-12473333D01*
X14225000Y-11003000D02*
X14300000Y-11078000D01*
X15045000Y-12445000D02*
X15060000Y-12445000D01*
X14596000Y-10335000D02*
X14596000Y-10225000D01*
X15060000Y-12445000D02*
X15080961Y-12465961D01*
X13320000Y-10430000D02*
X13390000Y-10401500D01*
X13958333Y-9143333D02*
X14150000Y-8760000D01*
X15820000Y-11000000D02*
X15736716Y-10971634D01*
X14620000Y-9902000D02*
X14630000Y-9912000D01*
D51*
X14595000Y-11270000D02*
X14765000Y-11440000D01*
D50*
X15240000Y-8750000D02*
X15510000Y-9290000D01*
X15978788Y-10291212D02*
X15900000Y-10110000D01*
X15900000Y-10110000D02*
X15780000Y-9830000D01*
X15080961Y-12465961D02*
X15280000Y-12090000D01*
X14326667Y-12473333D02*
X14120000Y-12060000D01*
D51*
X15247500Y-11140000D02*
X15255000Y-11140000D01*
D50*
X13335000Y-10540000D02*
X13320000Y-10430000D01*
X14473000Y-9912000D02*
X14445000Y-9940000D01*
X14660000Y-9882000D02*
X14630000Y-9912000D01*
D51*
X14535000Y-11270000D02*
X14595000Y-11270000D01*
D50*
X13390000Y-10401500D02*
X13610000Y-9830000D01*
X14491716Y-8246633D02*
X14908284Y-8246633D01*
D51*
X14765000Y-11440000D02*
X15015000Y-11440000D01*
D50*
X15010000Y-12600000D02*
X15080961Y-12465961D01*
X14448284Y-12566633D02*
X14390000Y-12600000D01*
X15280000Y-12045000D02*
X15230000Y-11995000D01*
X14350000Y-12450000D02*
X14355000Y-12450000D01*
X14285000Y-10815000D02*
X14310000Y-10790000D01*
X15560000Y-11510000D02*
X15820000Y-11000000D01*
X14225000Y-11003000D02*
X14285000Y-10943000D01*
X14300000Y-11220000D02*
X14322500Y-11242500D01*
X13890000Y-9280000D02*
X13958333Y-9143333D01*
D51*
X15147500Y-11240000D02*
X15247500Y-11140000D01*
D50*
X14365750Y-10175000D02*
X14365750Y-10064250D01*
X14510000Y-9912000D02*
X14473000Y-9912000D01*
X16010000Y-10401500D02*
X16000000Y-10340000D01*
X15510000Y-9290000D02*
X15448284Y-9326634D01*
X14908284Y-8246633D02*
X14970000Y-8210000D01*
X14322500Y-11242500D02*
X14381500Y-11242500D01*
X13641633Y-11036716D02*
X13335000Y-10540000D01*
X13830000Y-11520000D02*
X13905034Y-11476633D01*
X13610000Y-9830000D02*
X13890000Y-9280000D01*
X14596000Y-10225000D02*
X14596000Y-10126000D01*
X14300000Y-11078000D02*
X14300000Y-11220000D01*
X14660000Y-9793750D02*
X14660000Y-9882000D01*
X14150000Y-8760000D02*
X14221716Y-8786634D01*
X14120000Y-12060000D02*
X14178284Y-12026633D01*
X15491716Y-11486633D02*
X15560000Y-11510000D01*
%TO.N,GND*%
X14630000Y-10008000D02*
X14630000Y-10035000D01*
X14550000Y-11650000D02*
X14615000Y-11715000D01*
X14825000Y-11737000D02*
X14637000Y-11737000D01*
X14707500Y-10877500D02*
X14740000Y-10910000D01*
X14637000Y-11737000D02*
X14615000Y-11715000D01*
X15012500Y-10877500D02*
X15045000Y-10910000D01*
X14950000Y-10230000D02*
X15070000Y-10350000D01*
X14296750Y-10225000D02*
X14271750Y-10250000D01*
X14615000Y-11820000D02*
X14615000Y-11924000D01*
X14225000Y-10795000D02*
X14220000Y-10790000D01*
X14246750Y-10225000D02*
X14271750Y-10250000D01*
X15227500Y-10822500D02*
X15090000Y-10685000D01*
X15587000Y-10478000D02*
X15590000Y-10475000D01*
X15090000Y-10685000D02*
X15050000Y-10700000D01*
X14615000Y-11715000D02*
X14615000Y-11820000D01*
X14225000Y-10907000D02*
X14225000Y-10795000D01*
X14510000Y-10008000D02*
X14630000Y-10008000D01*
X14772000Y-10230000D02*
X14750000Y-10252000D01*
X15410000Y-10478000D02*
X15410000Y-10485000D01*
X14150000Y-10982000D02*
X14150000Y-11099000D01*
X14693500Y-10870000D02*
X14707500Y-10856000D01*
X15362000Y-10430000D02*
X15410000Y-10478000D01*
X14591000Y-10870000D02*
X14693500Y-10870000D01*
X14177750Y-10225000D02*
X14177750Y-10275000D01*
X14225000Y-10907000D02*
X14150000Y-10982000D01*
X14695000Y-9798750D02*
X14700000Y-9793750D01*
X14876250Y-10230000D02*
X14950000Y-10230000D01*
X14750000Y-10011000D02*
X14736000Y-10011000D01*
X15263750Y-10430000D02*
X15150000Y-10430000D01*
X15150000Y-10430000D02*
X15070000Y-10350000D01*
X14743000Y-12555000D02*
X14743000Y-12225000D01*
X15227500Y-10872500D02*
X15227500Y-10822500D01*
X14271750Y-10250000D02*
X14271750Y-10076750D01*
X14630000Y-10035000D02*
X14685000Y-10090000D01*
X14188500Y-11242500D02*
X14188500Y-11137500D01*
X14550000Y-11610000D02*
X14550000Y-11650000D01*
X15240000Y-9665000D02*
X15175000Y-9600000D01*
X14365750Y-10225000D02*
X14296750Y-10225000D01*
X14177750Y-10175000D02*
X14177750Y-10225000D01*
X14588000Y-10867000D02*
X14591000Y-10870000D01*
X14750000Y-10155000D02*
X14750000Y-10252000D01*
X14588000Y-10750000D02*
X14588000Y-10867000D01*
X14370000Y-9180000D02*
X14375000Y-9180000D01*
X14758000Y-12067000D02*
X14646000Y-11955000D01*
X14177750Y-10225000D02*
X14246750Y-10225000D01*
X14700000Y-9793750D02*
X14700000Y-9600000D01*
X14893750Y-9600000D02*
X14700000Y-9600000D01*
X14876250Y-10230000D02*
X14772000Y-10230000D01*
X14615000Y-11924000D02*
X14646000Y-11955000D01*
X14188500Y-11343500D02*
X14455000Y-11610000D01*
X14685000Y-10090000D02*
X14750000Y-10155000D01*
X14758000Y-12210000D02*
X14940000Y-12210000D01*
X14271750Y-10076750D02*
X14250000Y-10055000D01*
X14923000Y-11639000D02*
X14825000Y-11737000D01*
X14150000Y-11099000D02*
X14188500Y-11137500D01*
X14588000Y-10672000D02*
X14590000Y-10670000D01*
X15012500Y-10737500D02*
X15012500Y-10856000D01*
X14188500Y-11242500D02*
X14188500Y-11343500D01*
X14506250Y-9600000D02*
X14700000Y-9600000D01*
X14923000Y-11605000D02*
X14923000Y-11639000D01*
X14695000Y-9970000D02*
X14695000Y-9798750D01*
X14743000Y-12225000D02*
X14758000Y-12210000D01*
X15410000Y-10478000D02*
X15587000Y-10478000D01*
X15050000Y-10700000D02*
X15012500Y-10737500D01*
X14692000Y-10750000D02*
X14588000Y-10750000D01*
X15410000Y-10485000D02*
X15285000Y-10610000D01*
X14940000Y-12210000D02*
X15050000Y-12100000D01*
X14588000Y-10750000D02*
X14588000Y-10672000D01*
X14550000Y-11610000D02*
X14455000Y-11610000D01*
X14758000Y-12210000D02*
X14758000Y-12067000D01*
X14707500Y-10856000D02*
X14707500Y-10877500D01*
X14657000Y-10008000D02*
X14695000Y-9970000D01*
X15012500Y-10856000D02*
X15012500Y-10877500D01*
X14700000Y-9406250D02*
X14700000Y-9600000D01*
X15175000Y-9600000D02*
X14893750Y-9600000D01*
X14177750Y-10325000D02*
X14177750Y-10275000D01*
X14235000Y-9315000D02*
X14370000Y-9180000D01*
X14630000Y-10008000D02*
X14657000Y-10008000D01*
X14736000Y-10011000D02*
X14695000Y-9970000D01*
X15263750Y-10430000D02*
X15362000Y-10430000D01*
%TO.N,+2V8*%
X14752000Y-10350000D02*
X14750000Y-10348000D01*
X15410000Y-10382000D02*
X15578000Y-10382000D01*
X14876250Y-10390000D02*
X14792000Y-10390000D01*
X14876250Y-10350000D02*
X14752000Y-10350000D01*
X14655000Y-10415000D02*
X14683000Y-10415000D01*
X14683000Y-10415000D02*
X14750000Y-10348000D01*
X15402000Y-10390000D02*
X15410000Y-10382000D01*
X14772500Y-10856000D02*
X14772500Y-10765500D01*
X15330000Y-9965000D02*
X15270000Y-9965000D01*
X15578000Y-10382000D02*
X15600000Y-10360000D01*
X15600000Y-10235000D02*
X15535000Y-10170000D01*
D51*
X14870000Y-10750000D02*
X14885000Y-10735000D01*
D50*
X15263750Y-10390000D02*
X15402000Y-10390000D01*
X14772500Y-10765500D02*
X14788000Y-10750000D01*
X15535000Y-10170000D02*
X15330000Y-9965000D01*
D51*
X14788000Y-10750000D02*
X14870000Y-10750000D01*
D50*
X14792000Y-10390000D02*
X14750000Y-10348000D01*
X15600000Y-10360000D02*
X15600000Y-10235000D01*
%TO.N,MIC_OUT*%
X14500000Y-10560000D02*
X14890000Y-10560000D01*
X14890000Y-10560000D02*
X14906250Y-10543750D01*
X14430000Y-10630000D02*
X14500000Y-10560000D01*
X14430000Y-10822000D02*
X14430000Y-10630000D01*
X14906250Y-10543750D02*
X14950000Y-10543750D01*
X14345000Y-10907000D02*
X14430000Y-10822000D01*
%TO.N,BUT1*%
X14790000Y-10430000D02*
X14740000Y-10480000D01*
X14085000Y-11455000D02*
X14135000Y-11505000D01*
X14135000Y-11740000D02*
X14400000Y-12005000D01*
X14740000Y-10480000D02*
X14305000Y-10480000D01*
X14305000Y-10480000D02*
X14015000Y-10770000D01*
X14640000Y-12740000D02*
X14647000Y-12555000D01*
X14135000Y-11505000D02*
X14135000Y-11740000D01*
X14400000Y-12260000D02*
X14647000Y-12507000D01*
X14876250Y-10430000D02*
X14790000Y-10430000D01*
X14647000Y-12507000D02*
X14647000Y-12555000D01*
X14015000Y-10770000D02*
X14015000Y-11185000D01*
X14015000Y-11185000D02*
X14085000Y-11255000D01*
X14085000Y-11255000D02*
X14085000Y-11455000D01*
X14400000Y-12005000D02*
X14400000Y-12260000D01*
%TO.N,BUT2*%
X14660000Y-12208000D02*
X14662000Y-12210000D01*
X14315000Y-10520000D02*
X14055000Y-10780000D01*
X14175000Y-11730000D02*
X14440000Y-11995000D01*
X14120000Y-11435000D02*
X14175000Y-11490000D01*
X14876250Y-10470000D02*
X14805000Y-10470000D01*
X14120000Y-11240000D02*
X14120000Y-11435000D01*
X14755000Y-10520000D02*
X14315000Y-10520000D01*
X14055000Y-10780000D02*
X14055000Y-11175000D01*
X14805000Y-10470000D02*
X14755000Y-10520000D01*
X14555000Y-12210000D02*
X14662000Y-12210000D01*
X14660000Y-12090000D02*
X14660000Y-12208000D01*
X14440000Y-12095000D02*
X14555000Y-12210000D01*
X14055000Y-11175000D02*
X14120000Y-11240000D01*
X14175000Y-11490000D02*
X14175000Y-11730000D01*
X14440000Y-11995000D02*
X14440000Y-12095000D01*
%TO.N,BATSENSE*%
X14489000Y-10870000D02*
X14489000Y-10990000D01*
X14915000Y-10660000D02*
X14960000Y-10660000D01*
X14990000Y-10630000D02*
X14990000Y-10543750D01*
X14530000Y-10595000D02*
X14850000Y-10595000D01*
X14492000Y-10633000D02*
X14530000Y-10595000D01*
X14489000Y-10753000D02*
X14492000Y-10750000D01*
X14492000Y-10750000D02*
X14492000Y-10633000D01*
X14960000Y-10660000D02*
X14990000Y-10630000D01*
X14489000Y-10870000D02*
X14489000Y-10753000D01*
X14850000Y-10595000D02*
X14915000Y-10660000D01*
%TO.N,Net-(D4-K)*%
X15355000Y-9750000D02*
X15850000Y-10245000D01*
X15632459Y-10890000D02*
X15632459Y-10997541D01*
X15850000Y-10245000D02*
X15850000Y-10672459D01*
X15850000Y-10672459D02*
X15632459Y-10890000D01*
X14893750Y-9560000D02*
X15270000Y-9560000D01*
X15270000Y-9560000D02*
X15355000Y-9645000D01*
X15632459Y-10997541D02*
X15693284Y-11058367D01*
X15355000Y-9645000D02*
X15355000Y-9750000D01*
%TO.N,Net-(D5-K)*%
X15410000Y-9635000D02*
X15410000Y-9740000D01*
X15897500Y-10227500D02*
X15897500Y-10432500D01*
X15410000Y-9740000D02*
X15897500Y-10227500D01*
X15295000Y-9520000D02*
X15410000Y-9635000D01*
X15963500Y-10498500D02*
X16010000Y-10498500D01*
X15897500Y-10432500D02*
X15963500Y-10498500D01*
X14893750Y-9520000D02*
X15295000Y-9520000D01*
%TO.N,Net-(D6-K)*%
X15310000Y-9480000D02*
X15455000Y-9625000D01*
X15455000Y-9625000D02*
X15455000Y-9715000D01*
X14893750Y-9480000D02*
X15310000Y-9480000D01*
X15693366Y-9953367D02*
X15761716Y-9953367D01*
X15455000Y-9715000D02*
X15693366Y-9953367D01*
%TO.N,Net-(D7-K)*%
X15160000Y-9255000D02*
X15318366Y-9413367D01*
X14820000Y-9295000D02*
X14860000Y-9255000D01*
X15318366Y-9413367D02*
X15491716Y-9413367D01*
X14820000Y-9406250D02*
X14820000Y-9295000D01*
X14860000Y-9255000D02*
X15160000Y-9255000D01*
%TO.N,Net-(D8-K)*%
X15146633Y-8873367D02*
X14780000Y-9240000D01*
X14780000Y-9240000D02*
X14780000Y-9406250D01*
X15221716Y-8873367D02*
X15146633Y-8873367D01*
%TO.N,Net-(D9-K)*%
X14681633Y-8333366D02*
X14630000Y-8385000D01*
X14630000Y-8385000D02*
X14630000Y-8445000D01*
X14951716Y-8333366D02*
X14681633Y-8333366D01*
X14630000Y-8445000D02*
X14740000Y-8555000D01*
X14740000Y-8555000D02*
X14740000Y-9406250D01*
%TO.N,Net-(D10-K)*%
X14660000Y-9406250D02*
X14660000Y-8545083D01*
X14660000Y-8545083D02*
X14448284Y-8333366D01*
%TO.N,Net-(D11-K)*%
X14178284Y-8873367D02*
X14278366Y-8873367D01*
X14620000Y-9215000D02*
X14620000Y-9406250D01*
X14278366Y-8873367D02*
X14620000Y-9215000D01*
%TO.N,Net-(D12-K)*%
X14321633Y-9413367D02*
X14405000Y-9330000D01*
X14565000Y-9330000D02*
X14580000Y-9345000D01*
X14405000Y-9330000D02*
X14565000Y-9330000D01*
X13908284Y-9413367D02*
X14321633Y-9413367D01*
X14580000Y-9345000D02*
X14580000Y-9406250D01*
%TO.N,Net-(D13-K)*%
X13706633Y-9953367D02*
X13755000Y-9905000D01*
X13755000Y-9750000D02*
X14025000Y-9480000D01*
X13755000Y-9905000D02*
X13755000Y-9750000D01*
X13638284Y-9953367D02*
X13706633Y-9953367D01*
X14025000Y-9480000D02*
X14506250Y-9480000D01*
%TO.N,Net-(D14-K)*%
X13800000Y-10205000D02*
X13645000Y-10360000D01*
X13645000Y-10360000D02*
X13530000Y-10360000D01*
X13391500Y-10498500D02*
X13390000Y-10498500D01*
X14100000Y-9520000D02*
X13800000Y-9820000D01*
X13800000Y-9820000D02*
X13800000Y-10205000D01*
X14506250Y-9520000D02*
X14100000Y-9520000D01*
X13530000Y-10360000D02*
X13391500Y-10498500D01*
%TO.N,Net-(D15-K)*%
X13820000Y-10691634D02*
X13728366Y-10600000D01*
X13820000Y-10901650D02*
X13820000Y-10691634D01*
X13728366Y-10600000D02*
X13728366Y-10391634D01*
X14125000Y-9560000D02*
X14506250Y-9560000D01*
X13728366Y-10391634D02*
X13845000Y-10275000D01*
X13728366Y-10993284D02*
X13820000Y-10901650D01*
X13845000Y-10275000D02*
X13845000Y-9840000D01*
X13845000Y-9840000D02*
X14125000Y-9560000D01*
%TO.N,Net-(D16-K)*%
X13890000Y-11270000D02*
X13890000Y-9950000D01*
X14200000Y-9640000D02*
X14506250Y-9640000D01*
X13975000Y-11536833D02*
X13975000Y-11355000D01*
X13948466Y-11563366D02*
X13975000Y-11536833D01*
X13890000Y-9950000D02*
X14200000Y-9640000D01*
X13975000Y-11355000D02*
X13890000Y-11270000D01*
%TO.N,Net-(D17-K)*%
X14045000Y-11855000D02*
X14045000Y-11530000D01*
X14200000Y-11940000D02*
X14130000Y-11940000D01*
X13930000Y-11235000D02*
X13930000Y-9970000D01*
X14220000Y-9680000D02*
X14506250Y-9680000D01*
X13930000Y-9970000D02*
X14220000Y-9680000D01*
X14270000Y-12065083D02*
X14270000Y-12010000D01*
X14270000Y-12010000D02*
X14200000Y-11940000D01*
X14015000Y-11320000D02*
X13930000Y-11235000D01*
X14221716Y-12113366D02*
X14270000Y-12065083D01*
X14015000Y-11500000D02*
X14015000Y-11320000D01*
X14130000Y-11940000D02*
X14045000Y-11855000D01*
X14045000Y-11530000D02*
X14015000Y-11500000D01*
%TO.N,Net-(D18-K)*%
X14540000Y-12605083D02*
X14540000Y-12520000D01*
X14090000Y-11840000D02*
X14090000Y-11525000D01*
X14213750Y-11903750D02*
X14153750Y-11903750D01*
X13975000Y-9980000D02*
X14235000Y-9720000D01*
X14540000Y-12520000D02*
X14340000Y-12320000D01*
X14491716Y-12653366D02*
X14540000Y-12605083D01*
X14235000Y-9720000D02*
X14506250Y-9720000D01*
X14050000Y-11485000D02*
X14050000Y-11290000D01*
X13975000Y-11215000D02*
X13975000Y-9980000D01*
X14340000Y-12320000D02*
X14340000Y-12030000D01*
X14050000Y-11290000D02*
X13975000Y-11215000D01*
X14090000Y-11525000D02*
X14050000Y-11485000D01*
X14153750Y-11903750D02*
X14090000Y-11840000D01*
X14340000Y-12030000D02*
X14213750Y-11903750D01*
%TO.N,I2C_SCL*%
X14494000Y-10225000D02*
X14494000Y-10114000D01*
X14990000Y-9960000D02*
X14920000Y-9890000D01*
X14820000Y-9793750D02*
X14820000Y-9793750D01*
X14494000Y-10114000D02*
X14490000Y-10110000D01*
X14820000Y-9793750D02*
X14820000Y-9847574D01*
X14444000Y-10275000D02*
X14494000Y-10225000D01*
X14365750Y-10275000D02*
X14444000Y-10275000D01*
X14900000Y-9890000D02*
X14920000Y-9890000D01*
X14990000Y-10156250D02*
X14990000Y-9960000D01*
X14820000Y-9847574D02*
X14831213Y-9858787D01*
X14831213Y-9858787D02*
X14862426Y-9890000D01*
X14862426Y-9890000D02*
X14900000Y-9890000D01*
%TO.N,SWDIO*%
X15350000Y-10130000D02*
X15290000Y-10070000D01*
X15340000Y-10230000D02*
X15350000Y-10220000D01*
X15263750Y-10230000D02*
X15340000Y-10230000D01*
X15350000Y-10220000D02*
X15350000Y-10130000D01*
%TO.N,MCU_TXD*%
X15470000Y-10230000D02*
X15490000Y-10230000D01*
X15380000Y-10320000D02*
X15470000Y-10230000D01*
X15263750Y-10350000D02*
X15350000Y-10350000D01*
X15350000Y-10350000D02*
X15380000Y-10320000D01*
D51*
%TO.N,+5V*%
X15025000Y-11775000D02*
X14967000Y-11833000D01*
D50*
X14680000Y-11820000D02*
X14812000Y-11820000D01*
X14812000Y-11820000D02*
X14825000Y-11833000D01*
D51*
X14967000Y-11833000D02*
X14825000Y-11833000D01*
D50*
%TO.N,MCU_RXD*%
X15263750Y-10310000D02*
X15330000Y-10310000D01*
X15415000Y-10225000D02*
X15415000Y-10155000D01*
X15390000Y-10250000D02*
X15415000Y-10225000D01*
X15370000Y-10270000D02*
X15390000Y-10250000D01*
X15330000Y-10310000D02*
X15370000Y-10270000D01*
%TO.N,SWCLK*%
X15190000Y-10030000D02*
X15170000Y-10010000D01*
X15190000Y-10156250D02*
X15190000Y-10030000D01*
%TO.N,I2C_SDA*%
X14950000Y-10156250D02*
X14950000Y-10040000D01*
X14494000Y-10376000D02*
X14455000Y-10415000D01*
X14484000Y-10325000D02*
X14494000Y-10335000D01*
X14780000Y-9793750D02*
X14780000Y-9850000D01*
X14870000Y-9960000D02*
X14840000Y-9960000D01*
X14494000Y-10335000D02*
X14494000Y-10376000D01*
X14780000Y-9850000D02*
X14810000Y-9880000D01*
X14840000Y-9910000D02*
X14840000Y-9960000D01*
X14950000Y-10040000D02*
X14870000Y-9960000D01*
X14365750Y-10325000D02*
X14484000Y-10325000D01*
X14810000Y-9880000D02*
X14840000Y-9910000D01*
%TO.N,SPEAKER_PWM*%
X15272500Y-10792500D02*
X15272500Y-10872500D01*
X15150000Y-10543750D02*
X15150000Y-10670000D01*
X15150000Y-10670000D02*
X15272500Y-10792500D01*
%TO.N,PERI_EN*%
X15012500Y-10964000D02*
X14964000Y-10964000D01*
X14955000Y-10955000D02*
X14955000Y-10730000D01*
X14955000Y-10730000D02*
X15030000Y-10655000D01*
X15030000Y-10655000D02*
X15030000Y-10543750D01*
X14964000Y-10964000D02*
X14955000Y-10955000D01*
%TO.N,CHARGE_STATUS*%
X15190000Y-10645000D02*
X15425000Y-10880000D01*
X14615000Y-11560000D02*
X14615000Y-11610000D01*
X15425000Y-11140000D02*
X15055000Y-11510000D01*
X15425000Y-10880000D02*
X15425000Y-11140000D01*
X15055000Y-11510000D02*
X14665000Y-11510000D01*
X14665000Y-11510000D02*
X14615000Y-11560000D01*
X15190000Y-10543750D02*
X15190000Y-10645000D01*
%TO.N,LED1_SDB*%
X15020000Y-9830000D02*
X15070000Y-9880000D01*
X15070000Y-9880000D02*
X15070000Y-10156250D01*
X14540000Y-9860000D02*
X14380000Y-9860000D01*
X14580000Y-9850000D02*
X14570000Y-9860000D01*
X14580000Y-9793750D02*
X14580000Y-9850000D01*
X14380000Y-9860000D02*
X14370000Y-9850000D01*
X14570000Y-9860000D02*
X14540000Y-9860000D01*
%TO.N,Net-(U7-OUT)*%
X14381500Y-11039500D02*
X14345000Y-11003000D01*
X14381500Y-11137500D02*
X14381500Y-11039500D01*
%TO.N,Net-(D1-K)*%
X15510000Y-11135000D02*
X15265000Y-11380000D01*
X14855000Y-12600083D02*
X14908284Y-12653366D01*
X15115000Y-11900000D02*
X15115000Y-12245000D01*
X15280000Y-9870000D02*
X15730000Y-10320000D01*
X14893750Y-9720000D02*
X15020000Y-9720000D01*
X15265000Y-11750000D02*
X15115000Y-11900000D01*
X15115000Y-12245000D02*
X14855000Y-12505000D01*
X14855000Y-12505000D02*
X14855000Y-12600083D01*
X15020000Y-9720000D02*
X15170000Y-9870000D01*
X15730000Y-10620000D02*
X15510000Y-10840000D01*
X15265000Y-11380000D02*
X15265000Y-11750000D01*
X15730000Y-10320000D02*
X15730000Y-10620000D01*
X15170000Y-9870000D02*
X15280000Y-9870000D01*
X15510000Y-10840000D02*
X15510000Y-11135000D01*
%TO.N,Net-(D2-K)*%
X15770000Y-10300000D02*
X15770000Y-10640000D01*
X15302500Y-9832500D02*
X15770000Y-10300000D01*
X15550000Y-11155000D02*
X15305000Y-11400000D01*
X15770000Y-10640000D02*
X15550000Y-10860000D01*
X15165000Y-11920000D02*
X15165000Y-12060166D01*
X15040000Y-9680000D02*
X15192500Y-9832500D01*
X15305000Y-11780000D02*
X15165000Y-11920000D01*
X15550000Y-10860000D02*
X15550000Y-11155000D01*
X15305000Y-11400000D02*
X15305000Y-11780000D01*
X15192500Y-9832500D02*
X15302500Y-9832500D01*
X14893750Y-9680000D02*
X15040000Y-9680000D01*
X15165000Y-12060166D02*
X15186567Y-12081733D01*
%TO.N,Net-(D3-K)*%
X15590000Y-10880000D02*
X15590000Y-11185000D01*
X15215000Y-9795000D02*
X15335000Y-9795000D01*
X14893750Y-9640000D02*
X15060000Y-9640000D01*
X15810000Y-10270000D02*
X15810000Y-10660000D01*
X15405000Y-11370000D02*
X15405000Y-11530083D01*
X15060000Y-9640000D02*
X15215000Y-9795000D01*
X15405000Y-11530083D02*
X15448284Y-11573366D01*
X15810000Y-10660000D02*
X15590000Y-10880000D01*
X15335000Y-9795000D02*
X15810000Y-10270000D01*
X15590000Y-11185000D02*
X15405000Y-11370000D01*
%TO.N,Net-(JP1-B)*%
X14895000Y-11545000D02*
X15000000Y-11545000D01*
X14685000Y-11605000D02*
X14680000Y-11610000D01*
X14827000Y-11605000D02*
X14827000Y-11568000D01*
X14840000Y-11555000D02*
X14850000Y-11545000D01*
X14827000Y-11568000D02*
X14840000Y-11555000D01*
X15000000Y-11545000D02*
X15045000Y-11590000D01*
X14827000Y-11605000D02*
X14685000Y-11605000D01*
X14850000Y-11545000D02*
X14895000Y-11545000D01*
%TO.N,Net-(JP2-B)*%
X14964000Y-8697500D02*
X15022500Y-8697500D01*
X15065000Y-8740000D02*
X15065000Y-8830000D01*
X15022500Y-8697500D02*
X15030000Y-8705000D01*
X15030000Y-8705000D02*
X15065000Y-8740000D01*
%TO.N,Net-(U1-ISET)*%
X14740000Y-9793750D02*
X14740000Y-9899000D01*
X14740000Y-9899000D02*
X14750000Y-9909000D01*
%TO.N,Net-(U4-PROG)*%
X14550000Y-11949000D02*
X14544000Y-11955000D01*
X14550000Y-11820000D02*
X14550000Y-11949000D01*
%TO.N,VDD*%
X14770000Y-11030000D02*
X14750000Y-11030000D01*
X14772500Y-10964000D02*
X14772500Y-11027500D01*
X14707500Y-10987500D02*
X14707500Y-10964000D01*
D51*
X14940000Y-11030000D02*
X15000000Y-11090000D01*
X15077500Y-11052500D02*
X15040000Y-11090000D01*
D50*
X15075000Y-10960000D02*
X15077500Y-10962500D01*
X14750000Y-11030000D02*
X14707500Y-10987500D01*
X15077500Y-10964000D02*
X15077500Y-10997500D01*
D51*
X15000000Y-11090000D02*
X15040000Y-11090000D01*
D50*
X14772500Y-11027500D02*
X14770000Y-11030000D01*
D51*
X15077500Y-10997500D02*
X15077500Y-11052500D01*
D50*
X14940000Y-11030000D02*
X14770000Y-11030000D01*
X15077500Y-10964000D02*
X15077500Y-10962500D01*
%TD*%
%TA.AperFunction,Conductor*%
%TO.N,GND*%
G36*
X14741793Y-6991971D02*
G01*
X14742582Y-6992044D01*
X14781133Y-6997389D01*
X14783628Y-6997735D01*
X14784409Y-6997880D01*
X14791116Y-6999448D01*
X14824760Y-7007312D01*
X14825522Y-7007528D01*
X14851978Y-7016339D01*
X14864838Y-7020622D01*
X14865579Y-7020907D01*
X14903528Y-7037552D01*
X14904240Y-7037904D01*
X14940501Y-7057959D01*
X14941178Y-7058374D01*
X14975448Y-7081672D01*
X14976083Y-7082148D01*
X15008071Y-7108489D01*
X15008660Y-7109022D01*
X15038097Y-7138186D01*
X15038635Y-7138771D01*
X15065273Y-7170513D01*
X15065755Y-7171144D01*
X15089369Y-7205196D01*
X15089791Y-7205869D01*
X15110182Y-7241942D01*
X15110540Y-7242651D01*
X15127537Y-7280443D01*
X15127829Y-7281182D01*
X15141287Y-7320374D01*
X15141510Y-7321136D01*
X15151317Y-7361397D01*
X15151469Y-7362177D01*
X15157541Y-7403167D01*
X15157621Y-7403957D01*
X15159908Y-7445332D01*
X15159915Y-7446126D01*
X15158397Y-7487537D01*
X15158332Y-7488328D01*
X15153022Y-7529424D01*
X15152884Y-7530207D01*
X15143827Y-7570643D01*
X15143618Y-7571409D01*
X15130890Y-7610845D01*
X15130611Y-7611589D01*
X15114320Y-7649689D01*
X15113975Y-7650404D01*
X15094257Y-7686851D01*
X15093848Y-7687531D01*
X15070870Y-7722015D01*
X15070400Y-7722655D01*
X15044356Y-7754887D01*
X15043829Y-7755481D01*
X15014798Y-7785332D01*
X15014515Y-7785610D01*
X15010041Y-7789806D01*
X15009997Y-7789854D01*
X15004460Y-7795048D01*
X15004459Y-7795049D01*
X14986409Y-7816437D01*
X14970966Y-7839778D01*
X14958340Y-7864754D01*
X14958340Y-7864755D01*
X14948701Y-7891031D01*
X14942181Y-7918248D01*
X14942181Y-7918248D01*
X14938868Y-7946038D01*
X14938807Y-7974026D01*
X14941997Y-8001830D01*
X14948398Y-8029076D01*
X14957920Y-8055394D01*
X14961590Y-8062733D01*
X14961592Y-8062739D01*
X14962091Y-8063737D01*
X14962166Y-8064390D01*
X14964059Y-8067702D01*
X14964285Y-8068126D01*
X16119328Y-10378211D01*
X16119567Y-10378732D01*
X16127429Y-10397462D01*
X16127802Y-10398545D01*
X16133045Y-10417872D01*
X16133271Y-10418994D01*
X16133762Y-10422677D01*
X16135777Y-10437799D01*
X16135916Y-10438844D01*
X16135992Y-10439987D01*
X16135992Y-10460013D01*
X16135916Y-10461155D01*
X16133271Y-10481005D01*
X16133045Y-10482128D01*
X16127802Y-10501455D01*
X16127429Y-10502538D01*
X16119569Y-10521264D01*
X16119330Y-10521785D01*
X14845759Y-13068928D01*
X14845759Y-13068928D01*
X14843206Y-13074034D01*
X14842900Y-13074593D01*
X14831328Y-13094013D01*
X14830597Y-13095057D01*
X14816500Y-13112318D01*
X14815624Y-13113243D01*
X14799143Y-13128247D01*
X14798141Y-13129032D01*
X14786668Y-13136732D01*
X14779635Y-13141452D01*
X14778527Y-13142082D01*
X14758398Y-13151647D01*
X14757210Y-13152108D01*
X14735893Y-13158612D01*
X14734650Y-13158893D01*
X14712609Y-13162194D01*
X14711338Y-13162290D01*
X14689052Y-13162317D01*
X14687781Y-13162225D01*
X14665732Y-13158977D01*
X14664488Y-13158699D01*
X14643156Y-13152247D01*
X14641967Y-13151790D01*
X14621813Y-13142273D01*
X14620705Y-13141646D01*
X14620413Y-13141452D01*
X14602169Y-13129273D01*
X14601164Y-13128489D01*
X14584647Y-13113526D01*
X14583768Y-13112603D01*
X14582150Y-13110631D01*
X14577376Y-13104815D01*
X14569629Y-13095376D01*
X14568895Y-13094334D01*
X14557278Y-13074945D01*
X14556961Y-13074367D01*
X14131872Y-12224189D01*
X13308983Y-10578411D01*
X13308307Y-10572533D01*
X13311567Y-10567595D01*
X13317238Y-10565908D01*
X13322667Y-10568262D01*
X13324080Y-10569999D01*
X13477309Y-10818215D01*
X13591603Y-11003360D01*
X13591693Y-11003506D01*
X13592892Y-11009300D01*
X13591942Y-11012164D01*
X13591870Y-11012297D01*
X13588274Y-11023105D01*
X13588517Y-11031778D01*
X13588592Y-11034492D01*
X13589289Y-11036503D01*
X13590145Y-11038975D01*
X13590145Y-11038976D01*
X13608982Y-11076591D01*
X13608982Y-11076592D01*
X13610360Y-11078626D01*
X13611642Y-11080521D01*
X13620569Y-11087596D01*
X13628949Y-11090383D01*
X13632095Y-11091430D01*
X13632044Y-11091586D01*
X13636495Y-11093993D01*
X13638086Y-11096594D01*
X13804988Y-11524808D01*
X13805536Y-11527084D01*
X13805573Y-11527462D01*
X13805619Y-11527611D01*
X13805633Y-11527676D01*
X13805647Y-11527718D01*
X13805730Y-11527974D01*
X13805742Y-11528012D01*
X13805768Y-11528073D01*
X13805818Y-11528221D01*
X13807024Y-11530307D01*
X13807594Y-11531494D01*
X13808470Y-11533739D01*
X13808470Y-11533740D01*
X13808732Y-11534013D01*
X13810109Y-11535908D01*
X14095200Y-12066766D01*
X14095780Y-12068107D01*
X14095785Y-12068121D01*
X14097789Y-12071622D01*
X14098019Y-12072051D01*
X14302033Y-12480079D01*
X14302033Y-12480079D01*
X14303726Y-12483466D01*
X14303981Y-12484023D01*
X14305430Y-12487523D01*
X14305904Y-12488232D01*
X14305864Y-12488258D01*
X14306707Y-12489427D01*
X14365035Y-12606085D01*
X14365419Y-12607346D01*
X14365514Y-12607314D01*
X14365785Y-12608121D01*
X14367789Y-12611623D01*
X14368019Y-12612052D01*
X14369823Y-12615660D01*
X14370263Y-12616227D01*
X14370736Y-12616770D01*
X14373452Y-12618870D01*
X14373926Y-12619236D01*
X14374302Y-12619545D01*
X14377351Y-12622189D01*
X14377975Y-12622544D01*
X14378620Y-12622865D01*
X14378620Y-12622865D01*
X14382514Y-12623924D01*
X14382974Y-12624063D01*
X14386806Y-12625340D01*
X14386806Y-12625340D01*
X14386806Y-12625340D01*
X14387518Y-12625430D01*
X14388236Y-12625480D01*
X14388236Y-12625480D01*
X14388236Y-12625480D01*
X14392240Y-12624967D01*
X14392721Y-12624920D01*
X14396746Y-12624634D01*
X14396746Y-12624634D01*
X14397439Y-12624444D01*
X14398121Y-12624215D01*
X14398121Y-12624215D01*
X14401623Y-12622211D01*
X14402050Y-12621981D01*
X14405659Y-12620177D01*
X14406333Y-12619655D01*
X14406394Y-12619734D01*
X14407412Y-12618896D01*
X14413714Y-12615288D01*
X14419544Y-12614282D01*
X14423384Y-12616017D01*
X14423864Y-12616397D01*
X14432399Y-12619236D01*
X14434116Y-12619807D01*
X14434673Y-12619993D01*
X14435391Y-12620231D01*
X14435310Y-12620475D01*
X14439527Y-12622754D01*
X14441706Y-12628255D01*
X14440926Y-12631534D01*
X14441076Y-12631584D01*
X14437241Y-12643110D01*
X14437241Y-12643110D01*
X14437559Y-12654496D01*
X14437559Y-12654497D01*
X14439111Y-12658979D01*
X14439112Y-12658979D01*
X14439112Y-12658980D01*
X14455710Y-12692126D01*
X14455711Y-12692127D01*
X14457533Y-12694818D01*
X14458370Y-12696055D01*
X14467297Y-12703130D01*
X14478105Y-12706726D01*
X14478105Y-12706725D01*
X14478105Y-12706726D01*
X14478399Y-12706717D01*
X14489492Y-12706407D01*
X14493975Y-12704855D01*
X14521594Y-12691024D01*
X14531591Y-12686018D01*
X14531591Y-12686018D01*
X14531591Y-12686018D01*
X14531592Y-12686018D01*
X14535520Y-12683358D01*
X14542596Y-12674431D01*
X14546191Y-12663623D01*
X14545873Y-12652236D01*
X14545873Y-12652236D01*
X14545873Y-12652236D01*
X14544321Y-12647754D01*
X14544321Y-12647754D01*
X14544321Y-12647753D01*
X14544321Y-12647753D01*
X14543255Y-12645625D01*
X14542575Y-12639747D01*
X14544873Y-12635636D01*
X14552973Y-12627536D01*
X14552973Y-12627535D01*
X14554190Y-12626319D01*
X14554190Y-12626319D01*
X14561236Y-12619272D01*
X14564195Y-12612129D01*
X14565050Y-12610065D01*
X14565050Y-12600100D01*
X14565050Y-12599403D01*
X14565050Y-12599402D01*
X14565050Y-12515017D01*
X14564328Y-12513274D01*
X14561236Y-12505810D01*
X14554190Y-12498764D01*
X14367583Y-12312157D01*
X14365083Y-12306795D01*
X14365050Y-12306041D01*
X14365050Y-12281359D01*
X14367074Y-12275799D01*
X14372198Y-12272840D01*
X14378025Y-12273868D01*
X14379816Y-12275243D01*
X14609361Y-12504787D01*
X14611862Y-12510150D01*
X14610330Y-12515865D01*
X14609361Y-12517020D01*
X14606757Y-12519624D01*
X14602055Y-12529708D01*
X14602055Y-12529708D01*
X14601450Y-12534303D01*
X14601450Y-12575697D01*
X14601450Y-12575697D01*
X14602055Y-12580292D01*
X14606757Y-12590375D01*
X14606757Y-12590376D01*
X14614624Y-12598243D01*
X14614992Y-12598414D01*
X14619176Y-12602598D01*
X14619980Y-12606581D01*
X14616785Y-12691024D01*
X14614553Y-12696504D01*
X14612818Y-12697974D01*
X14606887Y-12701785D01*
X14606887Y-12701786D01*
X14597462Y-12712662D01*
X14597462Y-12712662D01*
X14591483Y-12725754D01*
X14589435Y-12740000D01*
X14591483Y-12754246D01*
X14597462Y-12767337D01*
X14597462Y-12767338D01*
X14606887Y-12778214D01*
X14606887Y-12778214D01*
X14606887Y-12778214D01*
X14618995Y-12785995D01*
X14632804Y-12790050D01*
X14647196Y-12790050D01*
X14661005Y-12785995D01*
X14673113Y-12778214D01*
X14682538Y-12767337D01*
X14688516Y-12754246D01*
X14690565Y-12740000D01*
X14688516Y-12725754D01*
X14682538Y-12712663D01*
X14682538Y-12712663D01*
X14682538Y-12712662D01*
X14682537Y-12712662D01*
X14673113Y-12701786D01*
X14673113Y-12701786D01*
X14670824Y-12700315D01*
X14667241Y-12695607D01*
X14666857Y-12692711D01*
X14667110Y-12686018D01*
X14670071Y-12607768D01*
X14672304Y-12602288D01*
X14675059Y-12600256D01*
X14679375Y-12598243D01*
X14687243Y-12590375D01*
X14687243Y-12590375D01*
X14687677Y-12589756D01*
X14687823Y-12589858D01*
X14691371Y-12586310D01*
X14697265Y-12585793D01*
X14702112Y-12589186D01*
X14702706Y-12590214D01*
X14702799Y-12590346D01*
X14710653Y-12598201D01*
X14720722Y-12602896D01*
X14720721Y-12602896D01*
X14725309Y-12603500D01*
X14730500Y-12603500D01*
X14730500Y-12603500D01*
X14730500Y-12567500D01*
X14755500Y-12567500D01*
X14755500Y-12603500D01*
X14755500Y-12603500D01*
X14760691Y-12603500D01*
X14765278Y-12602896D01*
X14775346Y-12598201D01*
X14783201Y-12590346D01*
X14787896Y-12580278D01*
X14788500Y-12575691D01*
X14788500Y-12567500D01*
X14788500Y-12567500D01*
X14755500Y-12567500D01*
X14755500Y-12567500D01*
X14730500Y-12567500D01*
X14730500Y-12506500D01*
X14755500Y-12506500D01*
X14755500Y-12542500D01*
X14755500Y-12542500D01*
X14788500Y-12542500D01*
X14788500Y-12542500D01*
X14788500Y-12534309D01*
X14787896Y-12529722D01*
X14783201Y-12519653D01*
X14775346Y-12511799D01*
X14765278Y-12507104D01*
X14765278Y-12507104D01*
X14760691Y-12506500D01*
X14755500Y-12506500D01*
X14755500Y-12506500D01*
X14730500Y-12506500D01*
X14730500Y-12506500D01*
X14725309Y-12506500D01*
X14720722Y-12507104D01*
X14710653Y-12511799D01*
X14702799Y-12519653D01*
X14702365Y-12520273D01*
X14702210Y-12520164D01*
X14698682Y-12523691D01*
X14692787Y-12524206D01*
X14687941Y-12520811D01*
X14687317Y-12519730D01*
X14687243Y-12519624D01*
X14679375Y-12511757D01*
X14677044Y-12510670D01*
X14672860Y-12506486D01*
X14672050Y-12502830D01*
X14672050Y-12502017D01*
X14670616Y-12498556D01*
X14668236Y-12492810D01*
X14661190Y-12485764D01*
X14427583Y-12252157D01*
X14425083Y-12246795D01*
X14425050Y-12246041D01*
X14425050Y-12136359D01*
X14427074Y-12130799D01*
X14432198Y-12127840D01*
X14438025Y-12128868D01*
X14439816Y-12130242D01*
X14533763Y-12224189D01*
X14533764Y-12224190D01*
X14540810Y-12231236D01*
X14544624Y-12232816D01*
X14544624Y-12232816D01*
X14544624Y-12232816D01*
X14550017Y-12235050D01*
X14560990Y-12235050D01*
X14560990Y-12235050D01*
X14611432Y-12235050D01*
X14616992Y-12237074D01*
X14619271Y-12240044D01*
X14621757Y-12245375D01*
X14621757Y-12245375D01*
X14629624Y-12253243D01*
X14639708Y-12257945D01*
X14644303Y-12258550D01*
X14679697Y-12258550D01*
X14679697Y-12258550D01*
X14679697Y-12258550D01*
X14684292Y-12257945D01*
X14694375Y-12253243D01*
X14702243Y-12245375D01*
X14702243Y-12245375D01*
X14702677Y-12244756D01*
X14702823Y-12244858D01*
X14706371Y-12241310D01*
X14712265Y-12240793D01*
X14717112Y-12244186D01*
X14717706Y-12245214D01*
X14717799Y-12245346D01*
X14725653Y-12253201D01*
X14735722Y-12257896D01*
X14735721Y-12257896D01*
X14740309Y-12258500D01*
X14745500Y-12258500D01*
X14745500Y-12258500D01*
X14745500Y-12222500D01*
X14770500Y-12222500D01*
X14770500Y-12258500D01*
X14770500Y-12258500D01*
X14775691Y-12258500D01*
X14780278Y-12257896D01*
X14790346Y-12253201D01*
X14798201Y-12245346D01*
X14802896Y-12235278D01*
X14803500Y-12230691D01*
X14803500Y-12222500D01*
X14803500Y-12222500D01*
X14770500Y-12222500D01*
X14770500Y-12222500D01*
X14745500Y-12222500D01*
X14745500Y-12161500D01*
X14770500Y-12161500D01*
X14770500Y-12197500D01*
X14770500Y-12197500D01*
X14803500Y-12197500D01*
X14803500Y-12197500D01*
X14803500Y-12189309D01*
X14802896Y-12184722D01*
X14798201Y-12174653D01*
X14790346Y-12166799D01*
X14780278Y-12162104D01*
X14780278Y-12162104D01*
X14775691Y-12161500D01*
X14770500Y-12161500D01*
X14770500Y-12161500D01*
X14745500Y-12161500D01*
X14745500Y-12161500D01*
X14740309Y-12161500D01*
X14735722Y-12162104D01*
X14725653Y-12166799D01*
X14717799Y-12174653D01*
X14717365Y-12175273D01*
X14717210Y-12175164D01*
X14713682Y-12178691D01*
X14707787Y-12179206D01*
X14702941Y-12175811D01*
X14702317Y-12174730D01*
X14702243Y-12174624D01*
X14694375Y-12166757D01*
X14690044Y-12164737D01*
X14685860Y-12160553D01*
X14685050Y-12156898D01*
X14685050Y-12138119D01*
X14687074Y-12132559D01*
X14689023Y-12130842D01*
X14690808Y-12129695D01*
X14693113Y-12128214D01*
X14697092Y-12123622D01*
X14702537Y-12117338D01*
X14702538Y-12117337D01*
X14702537Y-12117337D01*
X14702538Y-12117337D01*
X14708516Y-12104246D01*
X14710565Y-12090000D01*
X14708516Y-12075754D01*
X14702538Y-12062663D01*
X14702538Y-12062663D01*
X14702538Y-12062662D01*
X14702537Y-12062662D01*
X14693113Y-12051786D01*
X14693113Y-12051786D01*
X14681005Y-12044005D01*
X14667196Y-12039950D01*
X14652804Y-12039950D01*
X14638995Y-12044005D01*
X14626887Y-12051786D01*
X14626887Y-12051786D01*
X14617462Y-12062662D01*
X14617462Y-12062662D01*
X14611483Y-12075754D01*
X14609435Y-12090000D01*
X14611483Y-12104246D01*
X14617462Y-12117337D01*
X14617462Y-12117338D01*
X14626887Y-12128214D01*
X14626887Y-12128214D01*
X14626887Y-12128214D01*
X14629192Y-12129695D01*
X14630976Y-12130842D01*
X14634560Y-12135551D01*
X14634950Y-12138119D01*
X14634950Y-12158763D01*
X14632926Y-12164323D01*
X14629956Y-12166603D01*
X14629624Y-12166757D01*
X14621757Y-12174624D01*
X14619271Y-12179956D01*
X14615087Y-12184140D01*
X14611432Y-12184950D01*
X14568959Y-12184950D01*
X14563399Y-12182926D01*
X14562842Y-12182416D01*
X14467583Y-12087157D01*
X14465083Y-12081795D01*
X14465050Y-12081041D01*
X14465050Y-11990017D01*
X14461236Y-11980810D01*
X14461236Y-11980810D01*
X14461236Y-11980810D01*
X14453697Y-11973271D01*
X14453697Y-11973271D01*
X14412290Y-11931864D01*
X14499450Y-11931864D01*
X14499450Y-11978136D01*
X14499751Y-11980732D01*
X14499751Y-11980732D01*
X14499751Y-11980732D01*
X14504440Y-11991351D01*
X14512649Y-11999560D01*
X14523268Y-12004249D01*
X14525864Y-12004550D01*
X14562136Y-12004550D01*
X14562136Y-12004550D01*
X14562136Y-12004550D01*
X14564732Y-12004249D01*
X14575351Y-11999560D01*
X14583560Y-11991351D01*
X14587114Y-11983301D01*
X14591211Y-11979033D01*
X14597094Y-11978396D01*
X14602010Y-11981690D01*
X14602940Y-11983301D01*
X14606482Y-11991322D01*
X14606482Y-11991323D01*
X14614677Y-11999518D01*
X14614678Y-11999518D01*
X14625279Y-12004199D01*
X14625279Y-12004199D01*
X14627871Y-12004500D01*
X14633500Y-12004500D01*
X14633500Y-12004500D01*
X14633500Y-11967500D01*
X14658500Y-11967500D01*
X14658500Y-12004500D01*
X14658500Y-12004500D01*
X14664128Y-12004500D01*
X14666721Y-12004199D01*
X14677322Y-11999518D01*
X14677322Y-11999518D01*
X14685518Y-11991323D01*
X14685518Y-11991322D01*
X14690199Y-11980721D01*
X14690500Y-11978129D01*
X14690500Y-11967500D01*
X14690500Y-11967500D01*
X14658500Y-11967500D01*
X14658500Y-11967500D01*
X14633500Y-11967500D01*
X14633500Y-11905500D01*
X14658500Y-11905500D01*
X14658500Y-11942500D01*
X14658500Y-11942500D01*
X14690500Y-11942500D01*
X14690500Y-11942500D01*
X14690500Y-11931871D01*
X14690199Y-11929279D01*
X14685518Y-11918678D01*
X14685518Y-11918677D01*
X14677322Y-11910482D01*
X14677322Y-11910482D01*
X14666720Y-11905801D01*
X14666721Y-11905801D01*
X14664128Y-11905500D01*
X14658500Y-11905500D01*
X14658500Y-11905500D01*
X14633500Y-11905500D01*
X14633500Y-11905500D01*
X14627871Y-11905500D01*
X14625279Y-11905801D01*
X14614678Y-11910482D01*
X14614677Y-11910482D01*
X14606482Y-11918677D01*
X14606482Y-11918678D01*
X14602940Y-11926698D01*
X14598843Y-11930967D01*
X14592960Y-11931604D01*
X14588045Y-11928310D01*
X14587114Y-11926699D01*
X14583560Y-11918649D01*
X14577583Y-11912672D01*
X14575083Y-11907309D01*
X14575050Y-11906556D01*
X14575050Y-11874729D01*
X14577074Y-11869169D01*
X14582198Y-11866211D01*
X14588025Y-11867238D01*
X14588506Y-11867537D01*
X14590672Y-11868984D01*
X14590672Y-11868985D01*
X14595776Y-11870000D01*
X14595777Y-11870000D01*
X14602500Y-11870000D01*
X14602500Y-11870000D01*
X14602500Y-11727500D01*
X14627500Y-11727500D01*
X14627500Y-11870000D01*
X14627500Y-11870000D01*
X14634223Y-11870000D01*
X14634224Y-11870000D01*
X14639328Y-11868985D01*
X14639328Y-11868984D01*
X14642649Y-11866765D01*
X14648396Y-11865359D01*
X14652260Y-11866765D01*
X14655652Y-11869032D01*
X14658247Y-11869548D01*
X14660771Y-11870050D01*
X14660771Y-11870050D01*
X14660772Y-11870050D01*
X14660772Y-11870050D01*
X14699228Y-11870050D01*
X14699228Y-11870050D01*
X14704348Y-11869032D01*
X14710153Y-11865153D01*
X14714032Y-11859348D01*
X14715050Y-11854228D01*
X14715050Y-11853700D01*
X14717074Y-11848140D01*
X14722198Y-11845181D01*
X14723700Y-11845050D01*
X14768121Y-11845050D01*
X14773681Y-11847074D01*
X14776639Y-11852198D01*
X14776697Y-11852571D01*
X14777055Y-11855292D01*
X14781757Y-11865375D01*
X14781757Y-11865375D01*
X14789624Y-11873243D01*
X14799708Y-11877945D01*
X14804303Y-11878550D01*
X14845697Y-11878550D01*
X14845697Y-11878550D01*
X14845697Y-11878550D01*
X14850292Y-11877945D01*
X14853013Y-11876676D01*
X14853690Y-11876360D01*
X14857346Y-11875550D01*
X14972602Y-11875550D01*
X14972602Y-11875550D01*
X14983424Y-11872650D01*
X14993126Y-11867048D01*
X15034781Y-11825393D01*
X15038460Y-11823211D01*
X15046005Y-11820995D01*
X15058113Y-11813214D01*
X15067538Y-11802337D01*
X15073516Y-11789246D01*
X15075565Y-11775000D01*
X15073516Y-11760754D01*
X15067538Y-11747663D01*
X15067538Y-11747663D01*
X15067538Y-11747662D01*
X15067537Y-11747662D01*
X15058113Y-11736786D01*
X15058113Y-11736786D01*
X15046005Y-11729005D01*
X15032196Y-11724950D01*
X15017804Y-11724950D01*
X15003995Y-11729005D01*
X14991887Y-11736786D01*
X14991887Y-11736786D01*
X14982462Y-11747662D01*
X14982462Y-11747662D01*
X14976483Y-11760754D01*
X14976459Y-11760926D01*
X14976396Y-11761051D01*
X14976309Y-11761348D01*
X14976255Y-11761332D01*
X14974013Y-11765812D01*
X14951909Y-11787916D01*
X14946546Y-11790417D01*
X14945792Y-11790450D01*
X14867981Y-11790450D01*
X14862421Y-11788426D01*
X14859462Y-11783302D01*
X14860490Y-11777475D01*
X14861864Y-11775683D01*
X14868201Y-11769346D01*
X14872896Y-11759278D01*
X14873500Y-11754691D01*
X14873500Y-11749500D01*
X14873500Y-11749500D01*
X14776500Y-11749500D01*
X14776500Y-11749500D01*
X14776500Y-11754691D01*
X14777104Y-11759278D01*
X14781799Y-11769346D01*
X14789653Y-11777201D01*
X14790273Y-11777635D01*
X14790164Y-11777790D01*
X14793691Y-11781317D01*
X14794206Y-11787211D01*
X14790812Y-11792058D01*
X14789731Y-11792683D01*
X14789004Y-11793191D01*
X14788832Y-11792945D01*
X14784602Y-11794917D01*
X14783848Y-11794950D01*
X14723700Y-11794950D01*
X14718140Y-11792926D01*
X14715181Y-11787802D01*
X14715050Y-11786300D01*
X14715050Y-11785772D01*
X14715050Y-11785771D01*
X14714032Y-11780652D01*
X14714032Y-11780652D01*
X14712707Y-11778670D01*
X14711300Y-11772922D01*
X14711415Y-11772176D01*
X14712500Y-11766724D01*
X14712500Y-11766723D01*
X14712500Y-11727500D01*
X14712500Y-11727500D01*
X14627500Y-11727500D01*
X14627500Y-11727500D01*
X14602500Y-11727500D01*
X14602500Y-11727500D01*
X14517500Y-11727500D01*
X14517500Y-11727500D01*
X14517500Y-11766724D01*
X14518585Y-11772176D01*
X14517684Y-11778024D01*
X14517293Y-11778669D01*
X14515968Y-11780652D01*
X14515968Y-11780652D01*
X14514950Y-11785771D01*
X14514950Y-11854229D01*
X14515968Y-11859348D01*
X14515968Y-11859348D01*
X14519847Y-11865153D01*
X14519847Y-11865153D01*
X14519847Y-11865153D01*
X14521106Y-11865994D01*
X14524604Y-11870765D01*
X14524950Y-11873186D01*
X14524950Y-11899372D01*
X14522926Y-11904932D01*
X14519794Y-11907285D01*
X14512649Y-11910440D01*
X14504440Y-11918648D01*
X14499751Y-11929268D01*
X14499450Y-11931864D01*
X14412290Y-11931864D01*
X14202583Y-11722157D01*
X14201255Y-11719309D01*
X14776500Y-11719309D01*
X14776500Y-11724500D01*
X14776500Y-11724500D01*
X14812500Y-11724500D01*
X14812500Y-11724500D01*
X14812500Y-11691500D01*
X14837500Y-11691500D01*
X14837500Y-11724500D01*
X14837500Y-11724500D01*
X14873500Y-11724500D01*
X14873500Y-11724500D01*
X14873500Y-11719309D01*
X14872896Y-11714722D01*
X14868201Y-11704653D01*
X14860346Y-11696799D01*
X14850278Y-11692104D01*
X14850278Y-11692104D01*
X14845691Y-11691500D01*
X14837500Y-11691500D01*
X14837500Y-11691500D01*
X14812500Y-11691500D01*
X14812500Y-11691500D01*
X14804309Y-11691500D01*
X14799722Y-11692104D01*
X14789653Y-11696799D01*
X14781799Y-11704653D01*
X14777104Y-11714722D01*
X14776500Y-11719309D01*
X14201255Y-11719309D01*
X14200083Y-11716795D01*
X14200050Y-11716041D01*
X14200050Y-11575776D01*
X14515000Y-11575776D01*
X14515000Y-11597500D01*
X14515000Y-11597500D01*
X14537500Y-11597500D01*
X14537500Y-11597500D01*
X14537500Y-11560000D01*
X14537500Y-11560000D01*
X14530776Y-11560000D01*
X14525672Y-11561015D01*
X14525671Y-11561015D01*
X14519883Y-11564883D01*
X14519883Y-11564883D01*
X14516015Y-11570671D01*
X14516015Y-11570672D01*
X14515000Y-11575776D01*
X14200050Y-11575776D01*
X14200050Y-11485017D01*
X14199900Y-11484655D01*
X14196236Y-11475810D01*
X14189190Y-11468764D01*
X14147583Y-11427157D01*
X14145083Y-11421795D01*
X14145050Y-11421041D01*
X14145050Y-11297611D01*
X14147074Y-11292051D01*
X14152198Y-11289092D01*
X14155388Y-11289127D01*
X14159776Y-11290000D01*
X14159777Y-11290000D01*
X14176000Y-11290000D01*
X14176000Y-11290000D01*
X14176000Y-11255000D01*
X14201000Y-11255000D01*
X14201000Y-11290000D01*
X14201000Y-11290000D01*
X14217223Y-11290000D01*
X14217224Y-11290000D01*
X14222328Y-11288985D01*
X14222328Y-11288984D01*
X14228116Y-11285117D01*
X14228117Y-11285116D01*
X14231984Y-11279328D01*
X14231985Y-11279328D01*
X14233000Y-11274224D01*
X14233000Y-11274223D01*
X14233000Y-11255000D01*
X14233000Y-11255000D01*
X14201000Y-11255000D01*
X14201000Y-11255000D01*
X14176000Y-11255000D01*
X14176000Y-11238650D01*
X14178024Y-11233090D01*
X14183148Y-11230131D01*
X14184650Y-11230000D01*
X14233000Y-11230000D01*
X14233000Y-11230000D01*
X14233000Y-11210777D01*
X14233000Y-11210776D01*
X14231985Y-11205672D01*
X14231984Y-11205671D01*
X14228117Y-11199883D01*
X14228117Y-11199883D01*
X14224089Y-11197192D01*
X14220591Y-11192421D01*
X14220977Y-11186516D01*
X14224089Y-11182808D01*
X14228117Y-11180117D01*
X14228117Y-11180117D01*
X14231984Y-11174328D01*
X14231985Y-11174328D01*
X14233000Y-11169224D01*
X14233000Y-11169223D01*
X14233000Y-11150000D01*
X14233000Y-11150000D01*
X14144000Y-11150000D01*
X14144000Y-11150000D01*
X14144000Y-11169224D01*
X14145015Y-11174328D01*
X14145015Y-11174328D01*
X14148883Y-11180117D01*
X14148883Y-11180117D01*
X14152911Y-11182808D01*
X14156409Y-11187579D01*
X14156022Y-11193484D01*
X14152911Y-11197192D01*
X14148883Y-11199883D01*
X14148883Y-11199883D01*
X14145015Y-11205671D01*
X14145015Y-11205672D01*
X14144204Y-11209749D01*
X14141135Y-11214808D01*
X14135532Y-11216709D01*
X14130017Y-11214565D01*
X14129604Y-11214178D01*
X14082583Y-11167157D01*
X14080083Y-11161795D01*
X14080050Y-11161041D01*
X14080050Y-11105776D01*
X14144000Y-11105776D01*
X14144000Y-11125000D01*
X14144000Y-11125000D01*
X14176000Y-11125000D01*
X14176000Y-11125000D01*
X14176000Y-11090000D01*
X14201000Y-11090000D01*
X14201000Y-11125000D01*
X14201000Y-11125000D01*
X14233000Y-11125000D01*
X14233000Y-11125000D01*
X14233000Y-11105777D01*
X14233000Y-11105776D01*
X14231985Y-11100672D01*
X14231984Y-11100672D01*
X14228117Y-11094883D01*
X14228116Y-11094883D01*
X14222328Y-11091016D01*
X14222328Y-11091015D01*
X14217224Y-11090000D01*
X14201000Y-11090000D01*
X14201000Y-11090000D01*
X14176000Y-11090000D01*
X14176000Y-11090000D01*
X14159776Y-11090000D01*
X14154672Y-11091015D01*
X14154671Y-11091016D01*
X14148883Y-11094883D01*
X14148883Y-11094883D01*
X14145015Y-11100672D01*
X14145015Y-11100672D01*
X14144000Y-11105776D01*
X14080050Y-11105776D01*
X14080050Y-10889309D01*
X14176500Y-10889309D01*
X14176500Y-10894500D01*
X14176500Y-10894500D01*
X14212500Y-10894500D01*
X14212500Y-10894500D01*
X14212500Y-10861500D01*
X14212500Y-10861500D01*
X14204309Y-10861500D01*
X14199722Y-10862104D01*
X14189653Y-10866799D01*
X14181799Y-10874653D01*
X14177104Y-10884722D01*
X14176500Y-10889309D01*
X14080050Y-10889309D01*
X14080050Y-10793959D01*
X14082074Y-10788399D01*
X14082583Y-10787843D01*
X14322843Y-10547584D01*
X14328205Y-10545083D01*
X14328959Y-10545050D01*
X14458641Y-10545050D01*
X14464201Y-10547074D01*
X14467159Y-10552198D01*
X14466132Y-10558025D01*
X14464757Y-10559817D01*
X14408764Y-10615810D01*
X14408764Y-10615810D01*
X14408764Y-10615810D01*
X14406365Y-10621601D01*
X14404950Y-10625017D01*
X14404950Y-10808041D01*
X14402926Y-10813601D01*
X14402416Y-10814157D01*
X14357657Y-10858917D01*
X14352295Y-10861417D01*
X14351541Y-10861450D01*
X14324303Y-10861450D01*
X14324302Y-10861450D01*
X14319829Y-10862039D01*
X14314052Y-10860758D01*
X14310450Y-10856064D01*
X14310050Y-10853463D01*
X14310050Y-10848573D01*
X14312074Y-10843013D01*
X14316646Y-10840373D01*
X14316602Y-10840224D01*
X14317196Y-10840050D01*
X14331005Y-10835995D01*
X14343113Y-10828214D01*
X14345196Y-10825810D01*
X14352537Y-10817338D01*
X14352538Y-10817337D01*
X14352537Y-10817337D01*
X14352538Y-10817337D01*
X14358516Y-10804246D01*
X14360565Y-10790000D01*
X14358516Y-10775754D01*
X14352538Y-10762663D01*
X14352538Y-10762663D01*
X14352538Y-10762663D01*
X14352537Y-10762662D01*
X14343113Y-10751786D01*
X14343113Y-10751786D01*
X14331005Y-10744005D01*
X14317196Y-10739950D01*
X14302804Y-10739950D01*
X14288995Y-10744005D01*
X14276887Y-10751786D01*
X14276887Y-10751786D01*
X14267462Y-10762662D01*
X14267462Y-10762663D01*
X14261483Y-10775754D01*
X14259435Y-10790000D01*
X14261367Y-10803433D01*
X14260796Y-10807974D01*
X14259950Y-10810017D01*
X14259950Y-10853514D01*
X14257926Y-10859074D01*
X14252802Y-10862032D01*
X14250171Y-10862090D01*
X14245691Y-10861500D01*
X14237500Y-10861500D01*
X14237500Y-10861500D01*
X14237500Y-10910850D01*
X14235476Y-10916410D01*
X14230352Y-10919369D01*
X14228850Y-10919500D01*
X14176500Y-10919500D01*
X14176500Y-10919500D01*
X14176500Y-10924691D01*
X14177104Y-10929278D01*
X14181799Y-10939347D01*
X14189653Y-10947201D01*
X14190273Y-10947635D01*
X14190164Y-10947790D01*
X14193691Y-10951317D01*
X14194206Y-10957211D01*
X14190812Y-10962058D01*
X14189731Y-10962683D01*
X14189624Y-10962757D01*
X14181757Y-10970625D01*
X14177055Y-10980708D01*
X14177055Y-10980708D01*
X14176450Y-10985303D01*
X14176450Y-11020697D01*
X14176450Y-11020697D01*
X14177055Y-11025292D01*
X14181757Y-11035375D01*
X14181757Y-11035376D01*
X14189624Y-11043243D01*
X14199708Y-11047945D01*
X14204303Y-11048550D01*
X14231541Y-11048550D01*
X14237101Y-11050574D01*
X14237657Y-11051083D01*
X14272416Y-11085843D01*
X14274917Y-11091205D01*
X14274950Y-11091959D01*
X14274950Y-11215017D01*
X14274950Y-11224983D01*
X14278764Y-11234190D01*
X14301264Y-11256690D01*
X14308310Y-11263736D01*
X14317517Y-11267550D01*
X14328523Y-11267550D01*
X14334083Y-11269574D01*
X14337006Y-11274512D01*
X14337968Y-11279347D01*
X14337968Y-11279348D01*
X14341847Y-11285153D01*
X14341847Y-11285153D01*
X14343552Y-11286292D01*
X14347652Y-11289032D01*
X14350247Y-11289548D01*
X14352771Y-11290050D01*
X14352771Y-11290050D01*
X14352772Y-11290050D01*
X14352772Y-11290050D01*
X14410229Y-11290050D01*
X14410452Y-11290028D01*
X14410538Y-11290050D01*
X14410653Y-11290050D01*
X14410653Y-11290080D01*
X14416184Y-11291497D01*
X14419630Y-11296306D01*
X14419950Y-11298636D01*
X14419950Y-11331041D01*
X14417926Y-11336601D01*
X14417416Y-11337157D01*
X14416567Y-11338007D01*
X14411204Y-11340507D01*
X14408014Y-11340190D01*
X14407196Y-11339950D01*
X14392804Y-11339950D01*
X14378995Y-11344005D01*
X14366887Y-11351786D01*
X14366887Y-11351786D01*
X14357462Y-11362662D01*
X14357462Y-11362662D01*
X14351483Y-11375754D01*
X14349435Y-11390000D01*
X14351483Y-11404246D01*
X14357462Y-11417337D01*
X14357462Y-11417338D01*
X14366887Y-11428214D01*
X14366887Y-11428214D01*
X14366887Y-11428214D01*
X14378995Y-11435995D01*
X14392804Y-11440050D01*
X14407196Y-11440050D01*
X14421005Y-11435995D01*
X14433113Y-11428214D01*
X14434278Y-11426870D01*
X14442537Y-11417338D01*
X14442538Y-11417337D01*
X14442537Y-11417337D01*
X14442538Y-11417337D01*
X14448516Y-11404246D01*
X14450565Y-11390000D01*
X14450565Y-11390000D01*
X14450565Y-11390000D01*
X14449278Y-11381050D01*
X14450490Y-11375259D01*
X14451723Y-11373703D01*
X14454057Y-11371369D01*
X14459419Y-11368869D01*
X14465134Y-11370400D01*
X14466953Y-11372258D01*
X14467347Y-11372653D01*
X14473152Y-11376531D01*
X14473152Y-11376532D01*
X14474322Y-11376764D01*
X14478271Y-11377550D01*
X14478271Y-11377550D01*
X14478271Y-11377550D01*
X14478272Y-11377550D01*
X14591728Y-11377550D01*
X14591728Y-11377550D01*
X14596848Y-11376532D01*
X14602653Y-11372653D01*
X14606532Y-11366848D01*
X14607546Y-11361750D01*
X14610615Y-11356691D01*
X14616218Y-11354789D01*
X14621733Y-11356934D01*
X14622146Y-11357321D01*
X14735009Y-11470183D01*
X14737509Y-11475546D01*
X14735978Y-11481261D01*
X14731131Y-11484655D01*
X14728892Y-11484950D01*
X14670990Y-11484950D01*
X14670990Y-11484950D01*
X14669983Y-11484950D01*
X14660017Y-11484950D01*
X14660017Y-11484950D01*
X14655334Y-11486890D01*
X14650810Y-11488764D01*
X14593764Y-11545810D01*
X14593764Y-11545810D01*
X14593764Y-11545810D01*
X14590195Y-11554425D01*
X14589950Y-11555017D01*
X14589950Y-11555270D01*
X14589839Y-11555576D01*
X14589784Y-11555853D01*
X14589741Y-11555844D01*
X14587926Y-11560830D01*
X14582802Y-11563789D01*
X14576975Y-11562761D01*
X14576494Y-11562463D01*
X14574328Y-11561015D01*
X14574328Y-11561015D01*
X14569224Y-11560000D01*
X14562500Y-11560000D01*
X14562500Y-11560000D01*
X14562500Y-11613850D01*
X14560476Y-11619410D01*
X14555352Y-11622368D01*
X14553850Y-11622500D01*
X14515000Y-11622500D01*
X14515000Y-11622500D01*
X14515000Y-11644224D01*
X14516015Y-11649328D01*
X14516015Y-11649328D01*
X14517307Y-11651261D01*
X14518713Y-11657008D01*
X14518598Y-11657754D01*
X14517500Y-11663276D01*
X14517500Y-11702500D01*
X14517500Y-11702500D01*
X14712500Y-11702500D01*
X14712500Y-11702500D01*
X14712500Y-11663277D01*
X14712500Y-11663276D01*
X14711415Y-11657824D01*
X14712315Y-11651975D01*
X14712707Y-11651330D01*
X14712857Y-11651106D01*
X14714032Y-11649348D01*
X14715050Y-11644228D01*
X14715050Y-11638700D01*
X14717074Y-11633140D01*
X14722198Y-11630181D01*
X14723700Y-11630050D01*
X14776432Y-11630050D01*
X14781992Y-11632074D01*
X14784271Y-11635044D01*
X14786757Y-11640375D01*
X14786757Y-11640375D01*
X14794624Y-11648243D01*
X14804708Y-11652945D01*
X14809303Y-11653550D01*
X14844697Y-11653550D01*
X14844697Y-11653550D01*
X14844697Y-11653550D01*
X14849292Y-11652945D01*
X14859375Y-11648243D01*
X14867243Y-11640375D01*
X14867243Y-11640375D01*
X14867677Y-11639756D01*
X14867823Y-11639858D01*
X14871371Y-11636310D01*
X14877265Y-11635793D01*
X14882112Y-11639186D01*
X14882706Y-11640214D01*
X14882799Y-11640346D01*
X14890653Y-11648201D01*
X14900722Y-11652896D01*
X14900721Y-11652896D01*
X14905309Y-11653500D01*
X14910500Y-11653500D01*
X14910500Y-11653500D01*
X14910500Y-11617500D01*
X14935500Y-11617500D01*
X14935500Y-11653500D01*
X14935500Y-11653500D01*
X14940691Y-11653500D01*
X14945278Y-11652896D01*
X14955346Y-11648201D01*
X14963201Y-11640346D01*
X14967896Y-11630278D01*
X14968500Y-11625691D01*
X14968500Y-11617500D01*
X14968500Y-11617500D01*
X14935500Y-11617500D01*
X14935500Y-11617500D01*
X14910500Y-11617500D01*
X14910500Y-11601150D01*
X14912524Y-11595590D01*
X14917648Y-11592631D01*
X14919150Y-11592500D01*
X14968500Y-11592500D01*
X14968500Y-11592500D01*
X14968500Y-11584309D01*
X14967910Y-11579829D01*
X14969191Y-11574052D01*
X14973885Y-11570450D01*
X14976486Y-11570050D01*
X14986041Y-11570050D01*
X14991601Y-11572074D01*
X14992157Y-11572583D01*
X14993276Y-11573703D01*
X14995777Y-11579065D01*
X14995722Y-11581050D01*
X14995254Y-11584303D01*
X14994435Y-11590000D01*
X14995072Y-11594431D01*
X14996483Y-11604246D01*
X15002462Y-11617337D01*
X15002462Y-11617338D01*
X15011887Y-11628214D01*
X15011887Y-11628214D01*
X15011887Y-11628214D01*
X15023995Y-11635995D01*
X15037804Y-11640050D01*
X15052196Y-11640050D01*
X15066005Y-11635995D01*
X15078113Y-11628214D01*
X15080049Y-11625980D01*
X15087537Y-11617338D01*
X15087538Y-11617337D01*
X15087537Y-11617337D01*
X15087538Y-11617337D01*
X15093516Y-11604246D01*
X15095565Y-11590000D01*
X15093516Y-11575754D01*
X15087538Y-11562663D01*
X15087538Y-11562663D01*
X15087538Y-11562662D01*
X15087537Y-11562662D01*
X15078113Y-11551786D01*
X15078112Y-11551785D01*
X15068992Y-11545924D01*
X15065408Y-11541215D01*
X15065690Y-11535305D01*
X15068863Y-11531455D01*
X15069189Y-11531236D01*
X15069190Y-11531236D01*
X15225183Y-11375243D01*
X15230546Y-11372742D01*
X15236261Y-11374273D01*
X15239655Y-11379120D01*
X15239950Y-11381359D01*
X15239950Y-11736041D01*
X15237926Y-11741601D01*
X15237416Y-11742157D01*
X15093764Y-11885810D01*
X15089950Y-11895017D01*
X15089950Y-12231041D01*
X15087926Y-12236601D01*
X15087416Y-12237157D01*
X14833764Y-12490810D01*
X14833764Y-12490810D01*
X14833764Y-12490810D01*
X14829950Y-12500017D01*
X14829950Y-12595100D01*
X14829950Y-12605066D01*
X14833764Y-12614272D01*
X14833764Y-12614273D01*
X14855127Y-12635636D01*
X14857627Y-12640998D01*
X14856745Y-12645625D01*
X14855679Y-12647753D01*
X14855679Y-12647754D01*
X14854127Y-12652236D01*
X14853809Y-12663622D01*
X14853809Y-12663623D01*
X14857404Y-12674431D01*
X14857404Y-12674431D01*
X14864479Y-12683358D01*
X14864480Y-12683358D01*
X14866883Y-12684985D01*
X14868408Y-12686018D01*
X14906025Y-12704855D01*
X14910508Y-12706407D01*
X14921307Y-12706709D01*
X14921894Y-12706726D01*
X14921894Y-12706725D01*
X14921895Y-12706726D01*
X14932703Y-12703130D01*
X14941630Y-12696055D01*
X14941982Y-12695534D01*
X14942120Y-12695331D01*
X14944290Y-12692126D01*
X14960888Y-12658980D01*
X14962441Y-12654497D01*
X14962759Y-12643110D01*
X14959163Y-12632302D01*
X14959163Y-12632302D01*
X14958924Y-12631584D01*
X14959167Y-12631503D01*
X14958467Y-12626759D01*
X14961567Y-12621719D01*
X14964659Y-12620382D01*
X14964609Y-12620231D01*
X14965327Y-12619993D01*
X14976136Y-12616397D01*
X14976615Y-12616017D01*
X14982230Y-12614149D01*
X14986286Y-12615289D01*
X14988222Y-12616397D01*
X14992541Y-12618870D01*
X14993704Y-12619668D01*
X14993876Y-12619807D01*
X14993876Y-12619807D01*
X14995136Y-12620475D01*
X14997788Y-12621878D01*
X14998038Y-12622016D01*
X15001879Y-12624215D01*
X15002087Y-12624285D01*
X15002141Y-12624308D01*
X15002142Y-12624308D01*
X15002415Y-12624395D01*
X15002472Y-12624407D01*
X15002683Y-12624470D01*
X15002683Y-12624470D01*
X15007097Y-12624887D01*
X15007370Y-12624918D01*
X15011764Y-12625480D01*
X15011764Y-12625480D01*
X15011982Y-12625465D01*
X15012040Y-12625465D01*
X15012042Y-12625465D01*
X15012328Y-12625441D01*
X15012330Y-12625440D01*
X15012387Y-12625430D01*
X15012604Y-12625408D01*
X15012604Y-12625408D01*
X15016835Y-12624106D01*
X15017106Y-12624027D01*
X15021380Y-12622865D01*
X15021381Y-12622865D01*
X15021575Y-12622768D01*
X15021629Y-12622747D01*
X15021632Y-12622745D01*
X15021885Y-12622614D01*
X15021890Y-12622611D01*
X15021939Y-12622580D01*
X15022129Y-12622477D01*
X15022129Y-12622477D01*
X15025540Y-12619655D01*
X15025764Y-12619476D01*
X15026027Y-12619272D01*
X15029264Y-12616770D01*
X15029264Y-12616769D01*
X15029408Y-12616605D01*
X15029449Y-12616564D01*
X15029635Y-12616343D01*
X15029636Y-12616342D01*
X15029669Y-12616294D01*
X15029807Y-12616125D01*
X15029807Y-12616124D01*
X15031878Y-12612212D01*
X15032015Y-12611965D01*
X15034215Y-12608121D01*
X15034215Y-12608121D01*
X15034285Y-12607912D01*
X15034842Y-12606615D01*
X15035123Y-12606085D01*
X15100730Y-12482160D01*
X15102047Y-12480376D01*
X15102197Y-12480151D01*
X15102198Y-12480151D01*
X15103497Y-12477015D01*
X15103843Y-12476278D01*
X15105432Y-12473278D01*
X15105432Y-12473278D01*
X15299768Y-12106199D01*
X15301086Y-12104415D01*
X15301236Y-12104190D01*
X15301236Y-12104190D01*
X15302536Y-12101053D01*
X15302882Y-12100317D01*
X15304470Y-12097317D01*
X15304470Y-12097316D01*
X15304548Y-12097057D01*
X15304997Y-12095250D01*
X15305050Y-12094983D01*
X15305050Y-12091589D01*
X15305088Y-12090775D01*
X15305162Y-12090000D01*
X15305408Y-12087396D01*
X15305408Y-12087395D01*
X15305381Y-12087131D01*
X15305050Y-12084932D01*
X15305050Y-12050990D01*
X15305050Y-12050989D01*
X15305050Y-12040017D01*
X15302353Y-12033507D01*
X15301236Y-12030810D01*
X15301236Y-12030810D01*
X15301236Y-12030810D01*
X15293697Y-12023271D01*
X15293697Y-12023270D01*
X15283157Y-12012731D01*
X15280656Y-12007368D01*
X15281539Y-12002741D01*
X15282604Y-12000613D01*
X15284157Y-11996130D01*
X15284475Y-11984744D01*
X15280880Y-11973935D01*
X15273804Y-11965009D01*
X15273804Y-11965008D01*
X15269876Y-11962349D01*
X15269876Y-11962349D01*
X15269875Y-11962349D01*
X15232259Y-11943512D01*
X15227775Y-11941959D01*
X15227188Y-11941942D01*
X15216389Y-11941641D01*
X15205580Y-11945236D01*
X15204073Y-11946431D01*
X15198458Y-11948299D01*
X15192957Y-11946121D01*
X15190143Y-11940916D01*
X15190050Y-11939652D01*
X15190050Y-11933959D01*
X15192074Y-11928399D01*
X15192583Y-11927843D01*
X15256493Y-11863933D01*
X15326236Y-11794190D01*
X15330050Y-11784983D01*
X15330050Y-11775017D01*
X15330050Y-11413959D01*
X15332074Y-11408399D01*
X15332582Y-11407844D01*
X15365183Y-11375242D01*
X15370546Y-11372742D01*
X15376261Y-11374273D01*
X15379655Y-11379120D01*
X15379950Y-11381359D01*
X15379950Y-11525100D01*
X15379950Y-11535066D01*
X15383764Y-11544272D01*
X15383764Y-11544273D01*
X15395127Y-11555636D01*
X15397627Y-11560998D01*
X15396745Y-11565625D01*
X15395679Y-11567753D01*
X15395679Y-11567754D01*
X15394127Y-11572236D01*
X15393809Y-11583622D01*
X15393809Y-11583623D01*
X15397404Y-11594431D01*
X15397404Y-11594431D01*
X15404479Y-11603358D01*
X15404480Y-11603358D01*
X15405791Y-11604246D01*
X15408408Y-11606018D01*
X15446025Y-11624855D01*
X15450508Y-11626407D01*
X15461307Y-11626709D01*
X15461894Y-11626726D01*
X15461894Y-11626725D01*
X15461895Y-11626726D01*
X15472703Y-11623130D01*
X15481630Y-11616055D01*
X15484290Y-11612126D01*
X15500888Y-11578980D01*
X15502441Y-11574497D01*
X15502759Y-11563110D01*
X15499163Y-11552302D01*
X15499163Y-11552302D01*
X15498924Y-11551584D01*
X15499167Y-11551503D01*
X15498467Y-11546759D01*
X15501567Y-11541719D01*
X15504659Y-11540382D01*
X15504609Y-11540231D01*
X15505327Y-11539993D01*
X15516136Y-11536397D01*
X15525062Y-11529322D01*
X15525062Y-11529321D01*
X15525581Y-11528911D01*
X15525812Y-11529202D01*
X15529814Y-11527108D01*
X15533762Y-11527497D01*
X15542462Y-11530475D01*
X15549626Y-11532926D01*
X15550754Y-11533404D01*
X15553062Y-11534580D01*
X15553791Y-11534638D01*
X15555911Y-11535077D01*
X15556604Y-11535314D01*
X15556604Y-11535314D01*
X15556604Y-11535314D01*
X15557456Y-11535260D01*
X15559189Y-11535151D01*
X15560414Y-11535160D01*
X15562996Y-11535364D01*
X15563692Y-11535138D01*
X15565819Y-11534733D01*
X15566550Y-11534687D01*
X15568875Y-11533547D01*
X15570011Y-11533087D01*
X15572475Y-11532287D01*
X15572475Y-11532287D01*
X15572475Y-11532287D01*
X15573032Y-11531811D01*
X15574840Y-11530623D01*
X15575498Y-11530301D01*
X15577211Y-11528357D01*
X15578083Y-11527499D01*
X15580054Y-11525817D01*
X15580386Y-11525165D01*
X15581603Y-11523374D01*
X15582087Y-11522825D01*
X15582926Y-11520373D01*
X15583403Y-11519246D01*
X15840397Y-11015143D01*
X15841606Y-11013361D01*
X15842106Y-11012793D01*
X15842933Y-11010364D01*
X15843414Y-11009225D01*
X15844580Y-11006938D01*
X15844640Y-11006184D01*
X15845075Y-11004075D01*
X15845319Y-11003360D01*
X15845317Y-11003339D01*
X15845154Y-11000800D01*
X15845162Y-10999562D01*
X15845364Y-10997004D01*
X15845131Y-10996284D01*
X15844726Y-10994170D01*
X15844677Y-10993415D01*
X15844542Y-10993140D01*
X15843931Y-10991898D01*
X15843544Y-10991112D01*
X15843079Y-10989965D01*
X15842287Y-10987525D01*
X15841796Y-10986950D01*
X15840612Y-10985151D01*
X15840279Y-10984473D01*
X15838351Y-10982779D01*
X15837483Y-10981898D01*
X15835817Y-10979946D01*
X15835816Y-10979946D01*
X15835816Y-10979946D01*
X15835142Y-10979602D01*
X15833361Y-10978394D01*
X15832793Y-10977895D01*
X15832793Y-10977894D01*
X15830364Y-10977067D01*
X15829224Y-10976585D01*
X15826939Y-10975420D01*
X15826938Y-10975420D01*
X15826183Y-10975360D01*
X15824076Y-10974925D01*
X15802783Y-10967673D01*
X15796135Y-10965409D01*
X15791525Y-10961700D01*
X15790717Y-10959951D01*
X15787596Y-10950569D01*
X15784765Y-10946997D01*
X15782897Y-10941383D01*
X15783955Y-10937473D01*
X15938714Y-10654549D01*
X15943158Y-10650642D01*
X15946303Y-10650050D01*
X15947196Y-10650050D01*
X15961005Y-10645995D01*
X15973113Y-10638214D01*
X15974028Y-10637158D01*
X15982537Y-10627338D01*
X15982538Y-10627337D01*
X15982537Y-10627337D01*
X15982538Y-10627337D01*
X15988516Y-10614246D01*
X15990565Y-10600000D01*
X15988516Y-10585754D01*
X15982538Y-10572663D01*
X15982538Y-10572663D01*
X15982538Y-10572663D01*
X15982537Y-10572662D01*
X15973113Y-10561786D01*
X15973113Y-10561786D01*
X15961005Y-10554005D01*
X15947196Y-10549950D01*
X15932804Y-10549950D01*
X15918995Y-10554005D01*
X15906887Y-10561786D01*
X15906887Y-10561786D01*
X15897462Y-10572662D01*
X15897462Y-10572663D01*
X15891568Y-10585569D01*
X15887418Y-10589786D01*
X15881527Y-10590348D01*
X15876654Y-10586993D01*
X15875050Y-10581975D01*
X15875050Y-10466359D01*
X15877074Y-10460799D01*
X15882198Y-10457840D01*
X15888025Y-10458868D01*
X15889816Y-10460242D01*
X15909539Y-10479965D01*
X15942263Y-10512690D01*
X15942263Y-10512690D01*
X15949310Y-10519736D01*
X15949310Y-10519736D01*
X15949310Y-10519736D01*
X15958517Y-10523550D01*
X15958517Y-10523550D01*
X15959304Y-10523876D01*
X15959179Y-10524178D01*
X15963020Y-10526509D01*
X15964114Y-10528268D01*
X15965883Y-10532062D01*
X15965883Y-10532062D01*
X15973938Y-10540117D01*
X15984261Y-10544931D01*
X15988965Y-10545550D01*
X16031035Y-10545550D01*
X16031035Y-10545550D01*
X16031923Y-10545433D01*
X16035739Y-10544931D01*
X16046062Y-10540117D01*
X16054117Y-10532062D01*
X16058931Y-10521739D01*
X16059550Y-10517035D01*
X16059550Y-10479965D01*
X16059470Y-10479360D01*
X16059374Y-10478633D01*
X16058931Y-10475261D01*
X16054117Y-10464938D01*
X16046062Y-10456883D01*
X16046062Y-10456883D01*
X16045527Y-10456348D01*
X16045708Y-10456167D01*
X16042958Y-10452239D01*
X16043473Y-10446345D01*
X16045639Y-10443764D01*
X16045527Y-10443652D01*
X16046062Y-10443117D01*
X16046062Y-10443117D01*
X16054117Y-10435062D01*
X16058931Y-10424739D01*
X16059550Y-10420035D01*
X16059550Y-10382965D01*
X16059508Y-10382647D01*
X16059322Y-10381236D01*
X16058931Y-10378261D01*
X16054117Y-10367938D01*
X16046062Y-10359883D01*
X16035739Y-10355069D01*
X16035739Y-10355069D01*
X16035738Y-10355069D01*
X16034032Y-10354845D01*
X16028784Y-10352112D01*
X16026624Y-10347657D01*
X16025831Y-10342779D01*
X16025115Y-10338374D01*
X16025004Y-10337137D01*
X16025002Y-10337055D01*
X16024959Y-10334582D01*
X16024654Y-10333879D01*
X16024049Y-10331818D01*
X16023926Y-10331062D01*
X16023925Y-10331061D01*
X16022581Y-10328887D01*
X16022005Y-10327787D01*
X16021153Y-10325828D01*
X16020792Y-10319922D01*
X16021218Y-10318786D01*
X16021325Y-10318550D01*
X16021326Y-10318549D01*
X16027304Y-10305458D01*
X16029353Y-10291212D01*
X16027304Y-10276966D01*
X16021326Y-10263875D01*
X16021325Y-10263875D01*
X16021325Y-10263875D01*
X16021325Y-10263874D01*
X16011901Y-10252998D01*
X16011901Y-10252998D01*
X16008701Y-10250942D01*
X15999793Y-10245217D01*
X15999793Y-10245217D01*
X15999793Y-10245217D01*
X15987984Y-10241749D01*
X15983220Y-10238241D01*
X15982489Y-10236899D01*
X15968535Y-10204806D01*
X15923001Y-10100077D01*
X15805262Y-9825353D01*
X15804947Y-9824052D01*
X15804859Y-9824076D01*
X15804409Y-9822433D01*
X15804451Y-9822421D01*
X15804410Y-9822288D01*
X15804368Y-9822302D01*
X15804084Y-9821498D01*
X15802667Y-9819111D01*
X15802155Y-9818104D01*
X15801062Y-9815552D01*
X15801062Y-9815552D01*
X15801062Y-9815552D01*
X15800580Y-9814849D01*
X15800654Y-9814798D01*
X15799865Y-9813717D01*
X15534843Y-9283672D01*
X15534410Y-9282288D01*
X15534368Y-9282302D01*
X15534084Y-9281499D01*
X15534084Y-9281499D01*
X15534084Y-9281499D01*
X15532160Y-9278256D01*
X15531862Y-9277712D01*
X15530177Y-9274341D01*
X15264843Y-8743672D01*
X15264410Y-8742288D01*
X15264368Y-8742302D01*
X15264084Y-8741499D01*
X15264084Y-8741499D01*
X15264084Y-8741499D01*
X15262160Y-8738256D01*
X15261862Y-8737712D01*
X15260177Y-8734341D01*
X14994843Y-8203672D01*
X14994410Y-8202288D01*
X14994368Y-8202302D01*
X14994084Y-8201499D01*
X14994084Y-8201499D01*
X14994084Y-8201498D01*
X14992159Y-8198255D01*
X14991863Y-8197713D01*
X14990177Y-8194340D01*
X14990177Y-8194340D01*
X14990177Y-8194340D01*
X14989654Y-8193667D01*
X14989689Y-8193640D01*
X14989600Y-8193533D01*
X14989567Y-8193563D01*
X14988998Y-8192929D01*
X14988998Y-8192929D01*
X14985979Y-8190670D01*
X14985497Y-8190281D01*
X14982649Y-8187811D01*
X14982648Y-8187811D01*
X14981908Y-8187389D01*
X14981930Y-8187351D01*
X14981806Y-8187286D01*
X14981787Y-8187326D01*
X14981019Y-8186958D01*
X14981019Y-8186958D01*
X14979799Y-8186647D01*
X14977365Y-8186026D01*
X14976768Y-8185851D01*
X14973194Y-8184660D01*
X14972349Y-8184553D01*
X14972355Y-8184510D01*
X14972215Y-8184497D01*
X14972213Y-8184541D01*
X14971362Y-8184495D01*
X14971362Y-8184495D01*
X14967631Y-8185033D01*
X14967012Y-8185099D01*
X14963254Y-8185366D01*
X14962432Y-8185591D01*
X14962421Y-8185549D01*
X14962287Y-8185591D01*
X14962302Y-8185632D01*
X14961499Y-8185915D01*
X14958259Y-8187838D01*
X14957712Y-8188137D01*
X14954341Y-8189823D01*
X14953668Y-8190345D01*
X14953641Y-8190310D01*
X14952527Y-8191241D01*
X14942252Y-8197340D01*
X14936438Y-8198437D01*
X14933434Y-8197109D01*
X14933369Y-8197230D01*
X14932703Y-8196870D01*
X14921894Y-8193274D01*
X14910802Y-8193584D01*
X14910508Y-8193592D01*
X14908386Y-8194327D01*
X14906025Y-8195145D01*
X14906024Y-8195145D01*
X14868409Y-8213982D01*
X14868408Y-8213982D01*
X14864479Y-8216642D01*
X14863160Y-8218307D01*
X14858120Y-8221407D01*
X14856381Y-8221583D01*
X14543619Y-8221583D01*
X14538058Y-8219560D01*
X14536840Y-8218307D01*
X14535520Y-8216642D01*
X14535520Y-8216642D01*
X14531592Y-8213982D01*
X14531592Y-8213982D01*
X14493975Y-8195145D01*
X14489492Y-8193592D01*
X14488904Y-8193576D01*
X14478105Y-8193274D01*
X14467297Y-8196870D01*
X14459110Y-8203359D01*
X14453495Y-8205227D01*
X14450725Y-8204689D01*
X14430430Y-8197152D01*
X14429573Y-8196780D01*
X14426746Y-8195366D01*
X14426746Y-8195366D01*
X14426591Y-8195355D01*
X14424194Y-8194836D01*
X14424050Y-8194782D01*
X14424050Y-8194782D01*
X14424050Y-8194782D01*
X14424050Y-8194782D01*
X14420891Y-8194899D01*
X14419958Y-8194884D01*
X14416806Y-8194660D01*
X14416805Y-8194660D01*
X14416658Y-8194709D01*
X14414245Y-8195146D01*
X14414091Y-8195152D01*
X14414091Y-8195152D01*
X14411219Y-8196469D01*
X14410350Y-8196811D01*
X14407352Y-8197811D01*
X14407351Y-8197811D01*
X14407234Y-8197913D01*
X14405173Y-8199240D01*
X14405032Y-8199304D01*
X14405032Y-8199305D01*
X14402882Y-8201620D01*
X14402211Y-8202269D01*
X14399823Y-8204340D01*
X14399823Y-8204341D01*
X14399753Y-8204479D01*
X14398357Y-8206494D01*
X14398252Y-8206608D01*
X14398252Y-8206608D01*
X14397152Y-8209570D01*
X14396780Y-8210427D01*
X14129823Y-8744340D01*
X14129822Y-8744343D01*
X14129753Y-8744480D01*
X14128357Y-8746495D01*
X14128252Y-8746608D01*
X14128252Y-8746608D01*
X14127152Y-8749570D01*
X14126780Y-8750427D01*
X13936210Y-9131566D01*
X13936059Y-9131854D01*
X13933970Y-9135666D01*
X13933855Y-9136033D01*
X13933341Y-9137304D01*
X13868981Y-9266025D01*
X13868145Y-9267371D01*
X13867010Y-9268874D01*
X13867010Y-9268874D01*
X13866678Y-9270152D01*
X13866015Y-9271899D01*
X13589903Y-9814261D01*
X13588464Y-9816296D01*
X13588413Y-9816350D01*
X13588412Y-9816351D01*
X13587257Y-9819352D01*
X13586888Y-9820178D01*
X13585425Y-9823043D01*
X13585416Y-9823075D01*
X13585410Y-9823151D01*
X13584859Y-9825581D01*
X13383403Y-10348908D01*
X13379517Y-10353369D01*
X13375331Y-10354450D01*
X13368965Y-10354450D01*
X13364408Y-10355050D01*
X13364261Y-10355069D01*
X13353938Y-10359883D01*
X13345883Y-10367938D01*
X13341069Y-10378261D01*
X13341042Y-10378468D01*
X13340450Y-10382965D01*
X13340450Y-10388810D01*
X13338426Y-10394370D01*
X13335062Y-10396821D01*
X13314494Y-10405195D01*
X13312401Y-10405754D01*
X13311679Y-10405853D01*
X13311678Y-10405853D01*
X13309438Y-10407160D01*
X13308340Y-10407700D01*
X13305939Y-10408678D01*
X13305938Y-10408679D01*
X13305419Y-10409191D01*
X13303701Y-10410508D01*
X13303071Y-10410876D01*
X13303071Y-10410876D01*
X13301502Y-10412940D01*
X13300695Y-10413859D01*
X13298850Y-10415682D01*
X13298849Y-10415682D01*
X13298566Y-10416355D01*
X13297483Y-10418228D01*
X13297041Y-10418809D01*
X13297041Y-10418810D01*
X13296381Y-10421318D01*
X13295987Y-10422476D01*
X13294981Y-10424866D01*
X13294980Y-10424866D01*
X13294976Y-10425595D01*
X13294692Y-10427741D01*
X13294506Y-10428447D01*
X13294857Y-10431017D01*
X13294936Y-10432238D01*
X13294920Y-10434831D01*
X13294920Y-10434831D01*
X13295195Y-10435507D01*
X13295754Y-10437599D01*
X13309400Y-10537665D01*
X13309468Y-10539033D01*
X13310077Y-10542797D01*
X13308967Y-10548609D01*
X13304381Y-10552348D01*
X13298464Y-10552264D01*
X13293986Y-10548397D01*
X13293801Y-10548047D01*
X13280672Y-10521789D01*
X13280433Y-10521269D01*
X13280292Y-10520934D01*
X13272571Y-10502537D01*
X13272199Y-10501455D01*
X13266954Y-10482126D01*
X13266729Y-10481005D01*
X13264084Y-10461155D01*
X13264008Y-10460013D01*
X13264008Y-10439987D01*
X13264084Y-10438844D01*
X13264394Y-10436518D01*
X13266729Y-10418993D01*
X13266954Y-10417873D01*
X13272199Y-10398544D01*
X13272570Y-10397463D01*
X13280434Y-10378728D01*
X13280672Y-10378211D01*
X13283119Y-10373318D01*
X14432742Y-8074070D01*
X14432742Y-8074069D01*
X14433247Y-8073060D01*
X14433247Y-8073060D01*
X14434219Y-8071116D01*
X14434224Y-8071111D01*
X14435824Y-8067911D01*
X14435824Y-8067911D01*
X14442082Y-8055394D01*
X14451604Y-8029076D01*
X14458004Y-8001831D01*
X14461195Y-7974026D01*
X14461133Y-7946038D01*
X14457820Y-7918248D01*
X14451300Y-7891030D01*
X14447007Y-7879325D01*
X14441663Y-7864756D01*
X14441662Y-7864755D01*
X14429037Y-7839777D01*
X14429037Y-7839777D01*
X14413594Y-7816436D01*
X14395546Y-7795048D01*
X14395545Y-7795047D01*
X14395543Y-7795046D01*
X14390029Y-7789873D01*
X14390027Y-7789870D01*
X14385483Y-7785608D01*
X14385200Y-7785330D01*
X14356171Y-7755481D01*
X14355644Y-7754887D01*
X14349848Y-7747714D01*
X14329599Y-7722654D01*
X14329130Y-7722015D01*
X14306152Y-7687530D01*
X14305743Y-7686852D01*
X14286025Y-7650405D01*
X14285680Y-7649690D01*
X14279176Y-7634479D01*
X14269388Y-7611588D01*
X14269110Y-7610844D01*
X14267286Y-7605193D01*
X14256381Y-7571408D01*
X14256173Y-7570644D01*
X14247116Y-7530207D01*
X14246978Y-7529424D01*
X14246938Y-7529117D01*
X14241668Y-7488327D01*
X14241603Y-7487537D01*
X14240227Y-7450000D01*
X14294461Y-7450000D01*
X14296414Y-7489749D01*
X14302254Y-7529117D01*
X14302527Y-7530207D01*
X14311924Y-7567722D01*
X14325331Y-7605193D01*
X14342347Y-7641169D01*
X14362807Y-7675305D01*
X14371629Y-7687201D01*
X14386514Y-7707270D01*
X14386514Y-7707271D01*
X14386514Y-7707271D01*
X14413241Y-7736759D01*
X14442729Y-7763485D01*
X14474695Y-7787193D01*
X14508830Y-7807653D01*
X14544807Y-7824669D01*
X14582278Y-7838076D01*
X14620883Y-7847746D01*
X14660250Y-7853586D01*
X14700000Y-7855538D01*
X14739750Y-7853586D01*
X14779117Y-7847746D01*
X14817722Y-7838076D01*
X14855193Y-7824669D01*
X14891169Y-7807653D01*
X14925305Y-7787193D01*
X14957271Y-7763485D01*
X14986759Y-7736759D01*
X15013485Y-7707271D01*
X15037193Y-7675305D01*
X15057653Y-7641169D01*
X15074669Y-7605193D01*
X15088076Y-7567722D01*
X15097746Y-7529117D01*
X15103586Y-7489750D01*
X15105538Y-7450000D01*
X15103586Y-7410250D01*
X15097746Y-7370883D01*
X15088076Y-7332278D01*
X15074669Y-7294807D01*
X15057653Y-7258830D01*
X15037193Y-7224695D01*
X15013485Y-7192729D01*
X14986759Y-7163241D01*
X14957271Y-7136514D01*
X14957271Y-7136514D01*
X14957270Y-7136514D01*
X14943296Y-7126150D01*
X14925305Y-7112807D01*
X14891169Y-7092347D01*
X14869605Y-7082148D01*
X14855193Y-7075331D01*
X14855193Y-7075331D01*
X14855193Y-7075331D01*
X14817722Y-7061924D01*
X14817721Y-7061924D01*
X14817721Y-7061924D01*
X14779117Y-7052254D01*
X14751383Y-7048140D01*
X14739750Y-7046414D01*
X14739749Y-7046414D01*
X14739749Y-7046414D01*
X14700000Y-7044461D01*
X14660251Y-7046414D01*
X14620883Y-7052254D01*
X14582279Y-7061924D01*
X14544806Y-7075331D01*
X14508830Y-7092347D01*
X14474695Y-7112807D01*
X14442730Y-7136514D01*
X14413242Y-7163240D01*
X14413240Y-7163242D01*
X14386514Y-7192730D01*
X14362807Y-7224695D01*
X14342347Y-7258830D01*
X14325331Y-7294806D01*
X14311924Y-7332279D01*
X14302254Y-7370883D01*
X14296414Y-7410251D01*
X14294461Y-7450000D01*
X14240227Y-7450000D01*
X14240084Y-7446125D01*
X14240092Y-7445333D01*
X14242379Y-7403956D01*
X14242459Y-7403169D01*
X14248531Y-7362175D01*
X14248683Y-7361399D01*
X14258490Y-7321134D01*
X14258712Y-7320376D01*
X14272171Y-7281180D01*
X14272463Y-7280444D01*
X14289460Y-7242650D01*
X14289818Y-7241943D01*
X14310209Y-7205868D01*
X14310630Y-7205197D01*
X14334246Y-7171143D01*
X14334726Y-7170514D01*
X14361366Y-7138769D01*
X14361902Y-7138188D01*
X14391341Y-7109021D01*
X14391928Y-7108490D01*
X14423918Y-7082147D01*
X14424551Y-7081672D01*
X14458823Y-7058374D01*
X14459497Y-7057959D01*
X14495761Y-7037903D01*
X14496472Y-7037552D01*
X14534421Y-7020907D01*
X14535161Y-7020622D01*
X14574478Y-7007528D01*
X14575239Y-7007313D01*
X14615591Y-6997880D01*
X14616372Y-6997735D01*
X14657419Y-6992044D01*
X14658206Y-6991971D01*
X14699604Y-6990068D01*
X14700396Y-6990068D01*
X14741793Y-6991971D01*
G37*
%TD.AperFunction*%
%TA.AperFunction,Conductor*%
G36*
X13861261Y-10304273D02*
G01*
X13864655Y-10309120D01*
X13864950Y-10311359D01*
X13864950Y-11265017D01*
X13864950Y-11274983D01*
X13868764Y-11284190D01*
X13908498Y-11323924D01*
X13947416Y-11362842D01*
X13949917Y-11368205D01*
X13949950Y-11368959D01*
X13949950Y-11425222D01*
X13947926Y-11430782D01*
X13942802Y-11433741D01*
X13936975Y-11432713D01*
X13935927Y-11432001D01*
X13929453Y-11426870D01*
X13918644Y-11423274D01*
X13907552Y-11423584D01*
X13907258Y-11423592D01*
X13905136Y-11424327D01*
X13902775Y-11425145D01*
X13902774Y-11425145D01*
X13865159Y-11443982D01*
X13865158Y-11443982D01*
X13861230Y-11446642D01*
X13854154Y-11455569D01*
X13854154Y-11455569D01*
X13851412Y-11463811D01*
X13847737Y-11468448D01*
X13841941Y-11469638D01*
X13836736Y-11466823D01*
X13835145Y-11464222D01*
X13835128Y-11464178D01*
X13721697Y-11173152D01*
X13684243Y-11077060D01*
X13684110Y-11071144D01*
X13685524Y-11068546D01*
X13685636Y-11068404D01*
X13691397Y-11061136D01*
X13694993Y-11050327D01*
X13695231Y-11049609D01*
X13695475Y-11049690D01*
X13697754Y-11045473D01*
X13703255Y-11043294D01*
X13706534Y-11044074D01*
X13706584Y-11043924D01*
X13707302Y-11044163D01*
X13707302Y-11044163D01*
X13718110Y-11047759D01*
X13718110Y-11047759D01*
X13718110Y-11047759D01*
X13720008Y-11047706D01*
X13729497Y-11047441D01*
X13729497Y-11047441D01*
X13729497Y-11047441D01*
X13731630Y-11046702D01*
X13733980Y-11045888D01*
X13767126Y-11029290D01*
X13771055Y-11026630D01*
X13778130Y-11017703D01*
X13781726Y-11006895D01*
X13781407Y-10995508D01*
X13779855Y-10991025D01*
X13778042Y-10987405D01*
X13777362Y-10981528D01*
X13779660Y-10977416D01*
X13841236Y-10915840D01*
X13845050Y-10906633D01*
X13845050Y-10896668D01*
X13845050Y-10686651D01*
X13841236Y-10677444D01*
X13834190Y-10670397D01*
X13755950Y-10592157D01*
X13753449Y-10586795D01*
X13753416Y-10586041D01*
X13753416Y-10405592D01*
X13755440Y-10400032D01*
X13755949Y-10399477D01*
X13850183Y-10305242D01*
X13855546Y-10302742D01*
X13861261Y-10304273D01*
G37*
%TD.AperFunction*%
%TA.AperFunction,Conductor*%
G36*
X14841601Y-10622074D02*
G01*
X14842157Y-10622584D01*
X14866533Y-10646959D01*
X14889757Y-10670184D01*
X14892258Y-10675546D01*
X14890727Y-10681261D01*
X14885880Y-10684655D01*
X14883641Y-10684950D01*
X14877804Y-10684950D01*
X14863995Y-10689005D01*
X14851887Y-10696786D01*
X14851887Y-10696786D01*
X14845233Y-10704465D01*
X14840063Y-10707341D01*
X14838696Y-10707450D01*
X14823779Y-10707450D01*
X14820123Y-10706640D01*
X14816261Y-10704839D01*
X14810292Y-10702055D01*
X14810291Y-10702055D01*
X14805697Y-10701450D01*
X14770303Y-10701450D01*
X14770303Y-10701450D01*
X14765708Y-10702055D01*
X14755624Y-10706757D01*
X14747757Y-10714624D01*
X14747323Y-10715244D01*
X14747177Y-10715142D01*
X14743627Y-10718691D01*
X14737733Y-10719206D01*
X14732886Y-10715812D01*
X14732294Y-10714786D01*
X14732201Y-10714654D01*
X14724346Y-10706799D01*
X14714278Y-10702104D01*
X14714278Y-10702104D01*
X14709691Y-10701500D01*
X14704500Y-10701500D01*
X14704500Y-10701500D01*
X14704500Y-10798500D01*
X14704500Y-10798500D01*
X14709691Y-10798500D01*
X14714278Y-10797896D01*
X14724346Y-10793201D01*
X14732683Y-10784864D01*
X14738046Y-10782364D01*
X14743761Y-10783895D01*
X14747155Y-10788742D01*
X14747450Y-10790981D01*
X14747450Y-10829457D01*
X14745426Y-10835017D01*
X14745277Y-10835189D01*
X14744017Y-10836612D01*
X14744017Y-10836612D01*
X14744017Y-10836612D01*
X14741950Y-10844999D01*
X14741950Y-10845000D01*
X14741950Y-10850729D01*
X14739926Y-10856289D01*
X14734988Y-10859213D01*
X14733172Y-10859574D01*
X14733172Y-10859574D01*
X14728845Y-10862466D01*
X14728844Y-10862466D01*
X14719494Y-10871816D01*
X14751561Y-10903883D01*
X14754062Y-10909246D01*
X14752530Y-10914961D01*
X14751561Y-10916116D01*
X14746116Y-10921561D01*
X14740754Y-10924062D01*
X14735038Y-10922530D01*
X14733883Y-10921561D01*
X14701816Y-10889494D01*
X14692466Y-10898844D01*
X14692466Y-10898845D01*
X14689574Y-10903172D01*
X14689574Y-10903172D01*
X14688216Y-10910000D01*
X14688216Y-10910000D01*
X14688462Y-10911238D01*
X14687562Y-10917086D01*
X14684892Y-10920044D01*
X14684746Y-10920145D01*
X14679017Y-10926612D01*
X14679017Y-10926612D01*
X14676950Y-10934999D01*
X14676950Y-10935000D01*
X14676950Y-10975000D01*
X14677081Y-10977175D01*
X14677082Y-10977176D01*
X14680145Y-10985254D01*
X14680742Y-10986118D01*
X14680418Y-10986341D01*
X14682356Y-10989916D01*
X14682450Y-10991189D01*
X14682450Y-10992483D01*
X14686264Y-11001690D01*
X14686264Y-11001690D01*
X14728763Y-11044190D01*
X14728763Y-11044190D01*
X14735810Y-11051236D01*
X14735810Y-11051236D01*
X14735810Y-11051236D01*
X14738507Y-11052353D01*
X14745017Y-11055050D01*
X14745017Y-11055050D01*
X14745017Y-11055050D01*
X14755990Y-11055050D01*
X14755990Y-11055050D01*
X14765017Y-11055050D01*
X14901292Y-11055050D01*
X14906852Y-11057074D01*
X14907409Y-11057584D01*
X14973874Y-11124049D01*
X14983576Y-11129650D01*
X14983576Y-11129650D01*
X14994398Y-11132550D01*
X14994398Y-11132550D01*
X14994398Y-11132550D01*
X14994398Y-11132550D01*
X15011094Y-11132550D01*
X15015770Y-11133923D01*
X15018995Y-11135995D01*
X15032804Y-11140050D01*
X15047196Y-11140050D01*
X15060444Y-11136160D01*
X15066349Y-11136535D01*
X15070631Y-11140618D01*
X15071287Y-11146499D01*
X15068998Y-11150576D01*
X15058832Y-11160742D01*
X15053469Y-11163243D01*
X15051028Y-11163109D01*
X15047714Y-11162450D01*
X15047713Y-11162450D01*
X15047713Y-11162450D01*
X15047713Y-11162450D01*
X15017287Y-11162450D01*
X15017286Y-11162450D01*
X15009251Y-11164048D01*
X15009250Y-11164049D01*
X15000138Y-11170137D01*
X15000137Y-11170138D01*
X14999491Y-11171106D01*
X14994719Y-11174604D01*
X14992298Y-11174950D01*
X14982356Y-11174950D01*
X14976796Y-11172926D01*
X14975164Y-11171106D01*
X14972653Y-11167347D01*
X14972653Y-11167347D01*
X14966848Y-11163468D01*
X14966848Y-11163468D01*
X14961729Y-11162450D01*
X14961728Y-11162450D01*
X14848272Y-11162450D01*
X14848271Y-11162450D01*
X14843152Y-11163468D01*
X14843152Y-11163468D01*
X14837347Y-11167347D01*
X14837347Y-11167347D01*
X14833468Y-11173152D01*
X14833468Y-11173152D01*
X14832450Y-11178271D01*
X14832450Y-11361729D01*
X14833468Y-11366847D01*
X14833468Y-11366848D01*
X14837347Y-11372653D01*
X14837347Y-11372653D01*
X14843152Y-11376531D01*
X14843152Y-11376532D01*
X14844322Y-11376764D01*
X14848271Y-11377550D01*
X14848271Y-11377550D01*
X14848272Y-11377550D01*
X14848272Y-11377550D01*
X14961728Y-11377550D01*
X14961728Y-11377550D01*
X14966848Y-11376532D01*
X14972653Y-11372653D01*
X14976532Y-11366848D01*
X14977550Y-11361728D01*
X14977550Y-11304405D01*
X14979574Y-11298845D01*
X14984698Y-11295887D01*
X14990525Y-11296914D01*
X14993381Y-11300171D01*
X14993575Y-11300041D01*
X14994048Y-11300749D01*
X14994048Y-11300749D01*
X14996119Y-11303848D01*
X15000137Y-11309862D01*
X15000138Y-11309862D01*
X15002408Y-11311379D01*
X15009250Y-11315951D01*
X15017287Y-11317550D01*
X15047713Y-11317550D01*
X15055749Y-11315951D01*
X15055749Y-11315951D01*
X15056585Y-11315785D01*
X15056662Y-11316172D01*
X15060956Y-11315982D01*
X15065652Y-11319582D01*
X15066935Y-11325358D01*
X15064475Y-11330350D01*
X14999909Y-11394916D01*
X14994546Y-11397417D01*
X14993792Y-11397450D01*
X14786208Y-11397450D01*
X14780648Y-11395426D01*
X14780091Y-11394916D01*
X14621126Y-11235952D01*
X14621126Y-11235951D01*
X14615681Y-11232808D01*
X14611875Y-11230610D01*
X14608071Y-11226077D01*
X14607550Y-11223119D01*
X14607550Y-11178272D01*
X14607550Y-11178271D01*
X14606532Y-11173152D01*
X14606531Y-11173152D01*
X14602653Y-11167347D01*
X14602652Y-11167347D01*
X14596848Y-11163468D01*
X14596847Y-11163468D01*
X14591729Y-11162450D01*
X14591728Y-11162450D01*
X14508859Y-11162450D01*
X14503299Y-11160426D01*
X14500340Y-11155302D01*
X14501368Y-11149475D01*
X14502743Y-11147684D01*
X14556236Y-11094190D01*
X14568307Y-11082119D01*
X14609596Y-11040830D01*
X14612218Y-11039034D01*
X14622351Y-11034560D01*
X14630560Y-11026351D01*
X14635249Y-11015732D01*
X14635550Y-11013136D01*
X14635550Y-10966864D01*
X14635452Y-10966021D01*
X14635249Y-10964268D01*
X14635249Y-10964268D01*
X14630560Y-10953649D01*
X14622351Y-10945440D01*
X14611732Y-10940751D01*
X14609136Y-10940450D01*
X14609135Y-10940450D01*
X14572864Y-10940450D01*
X14572864Y-10940450D01*
X14570268Y-10940751D01*
X14570268Y-10940751D01*
X14570268Y-10940751D01*
X14565950Y-10942658D01*
X14559648Y-10945440D01*
X14551440Y-10953649D01*
X14547913Y-10961637D01*
X14543816Y-10965906D01*
X14537933Y-10966542D01*
X14533017Y-10963248D01*
X14532087Y-10961637D01*
X14528560Y-10953649D01*
X14528560Y-10953648D01*
X14528560Y-10953648D01*
X14520352Y-10945440D01*
X14520351Y-10945440D01*
X14520351Y-10945440D01*
X14520351Y-10945440D01*
X14519206Y-10944934D01*
X14514937Y-10940837D01*
X14514050Y-10937021D01*
X14514050Y-10922979D01*
X14516074Y-10917418D01*
X14519206Y-10915066D01*
X14520351Y-10914560D01*
X14528560Y-10906351D01*
X14532114Y-10898302D01*
X14536211Y-10894033D01*
X14542094Y-10893396D01*
X14547010Y-10896690D01*
X14547940Y-10898302D01*
X14551482Y-10906322D01*
X14551482Y-10906323D01*
X14559677Y-10914518D01*
X14559678Y-10914518D01*
X14570279Y-10919199D01*
X14570279Y-10919199D01*
X14572871Y-10919500D01*
X14578500Y-10919500D01*
X14578500Y-10919500D01*
X14578500Y-10882500D01*
X14603500Y-10882500D01*
X14603500Y-10919500D01*
X14603500Y-10919500D01*
X14609128Y-10919500D01*
X14611721Y-10919199D01*
X14622322Y-10914518D01*
X14622322Y-10914518D01*
X14630518Y-10906323D01*
X14630518Y-10906322D01*
X14635199Y-10895721D01*
X14635500Y-10893129D01*
X14635500Y-10882500D01*
X14635500Y-10882500D01*
X14603500Y-10882500D01*
X14603500Y-10882500D01*
X14578500Y-10882500D01*
X14578500Y-10820500D01*
X14603500Y-10820500D01*
X14603500Y-10857500D01*
X14603500Y-10857500D01*
X14635500Y-10857500D01*
X14635500Y-10857500D01*
X14635500Y-10846871D01*
X14635199Y-10844279D01*
X14630518Y-10833678D01*
X14630518Y-10833677D01*
X14622322Y-10825482D01*
X14622322Y-10825482D01*
X14611720Y-10820801D01*
X14611721Y-10820801D01*
X14609128Y-10820500D01*
X14603500Y-10820500D01*
X14603500Y-10820500D01*
X14578500Y-10820500D01*
X14578500Y-10820500D01*
X14572871Y-10820500D01*
X14570279Y-10820801D01*
X14559678Y-10825482D01*
X14559677Y-10825482D01*
X14551482Y-10833677D01*
X14551482Y-10833678D01*
X14547940Y-10841699D01*
X14543843Y-10845967D01*
X14537960Y-10846604D01*
X14533045Y-10843310D01*
X14532114Y-10841699D01*
X14528560Y-10833649D01*
X14528560Y-10833649D01*
X14528560Y-10833648D01*
X14520352Y-10825440D01*
X14520351Y-10825440D01*
X14520351Y-10825440D01*
X14520351Y-10825440D01*
X14519206Y-10824934D01*
X14514937Y-10820837D01*
X14514050Y-10817021D01*
X14514050Y-10803568D01*
X14516074Y-10798008D01*
X14519044Y-10795729D01*
X14524375Y-10793243D01*
X14532243Y-10785376D01*
X14532243Y-10785375D01*
X14532677Y-10784756D01*
X14532823Y-10784858D01*
X14536371Y-10781310D01*
X14542265Y-10780793D01*
X14547112Y-10784186D01*
X14547706Y-10785214D01*
X14547799Y-10785346D01*
X14555653Y-10793201D01*
X14565722Y-10797896D01*
X14565721Y-10797896D01*
X14570309Y-10798500D01*
X14575500Y-10798500D01*
X14575500Y-10798500D01*
X14575500Y-10701500D01*
X14600500Y-10701500D01*
X14600500Y-10798500D01*
X14600500Y-10798500D01*
X14605691Y-10798500D01*
X14610278Y-10797896D01*
X14620346Y-10793201D01*
X14628201Y-10785347D01*
X14632160Y-10776856D01*
X14636344Y-10772672D01*
X14642239Y-10772156D01*
X14647086Y-10775550D01*
X14647840Y-10776856D01*
X14651799Y-10785347D01*
X14659653Y-10793201D01*
X14669722Y-10797896D01*
X14669721Y-10797896D01*
X14674309Y-10798500D01*
X14679500Y-10798500D01*
X14679500Y-10798500D01*
X14679500Y-10701500D01*
X14679500Y-10701500D01*
X14674309Y-10701500D01*
X14669722Y-10702104D01*
X14659653Y-10706799D01*
X14651799Y-10714653D01*
X14647840Y-10723144D01*
X14643656Y-10727328D01*
X14637761Y-10727844D01*
X14632914Y-10724450D01*
X14632160Y-10723144D01*
X14628201Y-10714653D01*
X14620346Y-10706799D01*
X14610278Y-10702104D01*
X14610278Y-10702104D01*
X14605691Y-10701500D01*
X14600500Y-10701500D01*
X14600500Y-10701500D01*
X14575500Y-10701500D01*
X14575500Y-10701500D01*
X14570309Y-10701500D01*
X14565722Y-10702104D01*
X14555653Y-10706799D01*
X14547799Y-10714654D01*
X14547365Y-10715273D01*
X14547210Y-10715165D01*
X14543682Y-10718691D01*
X14537787Y-10719206D01*
X14532941Y-10715811D01*
X14532317Y-10714730D01*
X14532243Y-10714624D01*
X14524375Y-10706757D01*
X14522044Y-10705670D01*
X14517860Y-10701486D01*
X14517050Y-10697830D01*
X14517050Y-10646959D01*
X14519074Y-10641399D01*
X14519583Y-10640843D01*
X14537843Y-10622584D01*
X14543205Y-10620083D01*
X14543959Y-10620050D01*
X14836041Y-10620050D01*
X14841601Y-10622074D01*
G37*
%TD.AperFunction*%
%TA.AperFunction,Conductor*%
G36*
X14698025Y-8548868D02*
G01*
X14699816Y-8550243D01*
X14712416Y-8562843D01*
X14714917Y-8568205D01*
X14714950Y-8568959D01*
X14714950Y-9342176D01*
X14712926Y-9347736D01*
X14712500Y-9348158D01*
X14712500Y-9357590D01*
X14711439Y-9361087D01*
X14711657Y-9361177D01*
X14711331Y-9361964D01*
X14709950Y-9368905D01*
X14709950Y-9443595D01*
X14711331Y-9450536D01*
X14711657Y-9451323D01*
X14711439Y-9451413D01*
X14712500Y-9454910D01*
X14712500Y-9464222D01*
X14715516Y-9463622D01*
X14716304Y-9463296D01*
X14716413Y-9463559D01*
X14720895Y-9462461D01*
X14723630Y-9463456D01*
X14723677Y-9463343D01*
X14724463Y-9463669D01*
X14724464Y-9463669D01*
X14731406Y-9465050D01*
X14731406Y-9465050D01*
X14748594Y-9465050D01*
X14748594Y-9465050D01*
X14755536Y-9463669D01*
X14755537Y-9463669D01*
X14756323Y-9463343D01*
X14756428Y-9463596D01*
X14760940Y-9462491D01*
X14763625Y-9463468D01*
X14763677Y-9463343D01*
X14764463Y-9463669D01*
X14764464Y-9463669D01*
X14771406Y-9465050D01*
X14771406Y-9465050D01*
X14788594Y-9465050D01*
X14788594Y-9465050D01*
X14795536Y-9463669D01*
X14795537Y-9463669D01*
X14796323Y-9463343D01*
X14796428Y-9463596D01*
X14800939Y-9462491D01*
X14803625Y-9463468D01*
X14803677Y-9463343D01*
X14804464Y-9463669D01*
X14804464Y-9463669D01*
X14811406Y-9465050D01*
X14811406Y-9465050D01*
X14826300Y-9465050D01*
X14831860Y-9467074D01*
X14834819Y-9472198D01*
X14834950Y-9473700D01*
X14834950Y-9488594D01*
X14836331Y-9495536D01*
X14836657Y-9496323D01*
X14836404Y-9496428D01*
X14837509Y-9500942D01*
X14836532Y-9503625D01*
X14836657Y-9503677D01*
X14836331Y-9504464D01*
X14834950Y-9511405D01*
X14834950Y-9528595D01*
X14836331Y-9535536D01*
X14836657Y-9536323D01*
X14836404Y-9536428D01*
X14837508Y-9540943D01*
X14836532Y-9543625D01*
X14836657Y-9543677D01*
X14836331Y-9544464D01*
X14834950Y-9551405D01*
X14834950Y-9568595D01*
X14836331Y-9575536D01*
X14836657Y-9576323D01*
X14836422Y-9576421D01*
X14837539Y-9580987D01*
X14836573Y-9583642D01*
X14836704Y-9583696D01*
X14836378Y-9584483D01*
X14835778Y-9587500D01*
X14845090Y-9587500D01*
X14848587Y-9588561D01*
X14848677Y-9588343D01*
X14849463Y-9588669D01*
X14849464Y-9588669D01*
X14856406Y-9590050D01*
X14856406Y-9590050D01*
X14931094Y-9590050D01*
X14931094Y-9590050D01*
X14938036Y-9588669D01*
X14938037Y-9588669D01*
X14938823Y-9588343D01*
X14938913Y-9588561D01*
X14942410Y-9587500D01*
X14952341Y-9587500D01*
X14956229Y-9585198D01*
X14957824Y-9585050D01*
X15256041Y-9585050D01*
X15261601Y-9587074D01*
X15262157Y-9587584D01*
X15327416Y-9652843D01*
X15329917Y-9658205D01*
X15329950Y-9658959D01*
X15329950Y-9754983D01*
X15331195Y-9757990D01*
X15331454Y-9763901D01*
X15327852Y-9768595D01*
X15323204Y-9769950D01*
X15228959Y-9769950D01*
X15223399Y-9767926D01*
X15222843Y-9767417D01*
X15074190Y-9618764D01*
X15074190Y-9618764D01*
X15064983Y-9614950D01*
X15064983Y-9614950D01*
X14957824Y-9614950D01*
X14952264Y-9612926D01*
X14951842Y-9612500D01*
X14942410Y-9612500D01*
X14938913Y-9611439D01*
X14938823Y-9611657D01*
X14938036Y-9611331D01*
X14931094Y-9609950D01*
X14931094Y-9609950D01*
X14856406Y-9609950D01*
X14856405Y-9609950D01*
X14849464Y-9611331D01*
X14848677Y-9611657D01*
X14848587Y-9611439D01*
X14845090Y-9612500D01*
X14835778Y-9612500D01*
X14836378Y-9615517D01*
X14836704Y-9616304D01*
X14836441Y-9616412D01*
X14837539Y-9620896D01*
X14836544Y-9623630D01*
X14836657Y-9623677D01*
X14836331Y-9624464D01*
X14834950Y-9631405D01*
X14834950Y-9648595D01*
X14836331Y-9655536D01*
X14836657Y-9656323D01*
X14836404Y-9656428D01*
X14837508Y-9660943D01*
X14836532Y-9663625D01*
X14836657Y-9663677D01*
X14836331Y-9664464D01*
X14834950Y-9671405D01*
X14834950Y-9688595D01*
X14836331Y-9695536D01*
X14836657Y-9696323D01*
X14836404Y-9696428D01*
X14837509Y-9700942D01*
X14836532Y-9703625D01*
X14836657Y-9703677D01*
X14836331Y-9704464D01*
X14834950Y-9711406D01*
X14834950Y-9726300D01*
X14832926Y-9731860D01*
X14827802Y-9734819D01*
X14826300Y-9734950D01*
X14811405Y-9734950D01*
X14804464Y-9736331D01*
X14803677Y-9736657D01*
X14803572Y-9736404D01*
X14799057Y-9737509D01*
X14796375Y-9736532D01*
X14796323Y-9736657D01*
X14795536Y-9736331D01*
X14788594Y-9734950D01*
X14788594Y-9734950D01*
X14771406Y-9734950D01*
X14771405Y-9734950D01*
X14764464Y-9736331D01*
X14763677Y-9736657D01*
X14763572Y-9736404D01*
X14759057Y-9737509D01*
X14756375Y-9736532D01*
X14756323Y-9736657D01*
X14755536Y-9736331D01*
X14748594Y-9734950D01*
X14748594Y-9734950D01*
X14731406Y-9734950D01*
X14731405Y-9734950D01*
X14724464Y-9736331D01*
X14723677Y-9736657D01*
X14723579Y-9736422D01*
X14719012Y-9737539D01*
X14716358Y-9736572D01*
X14716303Y-9736704D01*
X14715517Y-9736378D01*
X14712500Y-9735778D01*
X14712500Y-9745090D01*
X14711439Y-9748587D01*
X14711657Y-9748677D01*
X14711331Y-9749464D01*
X14709950Y-9756405D01*
X14709950Y-9831095D01*
X14711331Y-9838036D01*
X14711657Y-9838823D01*
X14711439Y-9838914D01*
X14712500Y-9842410D01*
X14712500Y-9852341D01*
X14714802Y-9856229D01*
X14714950Y-9857824D01*
X14714950Y-9864556D01*
X14712926Y-9870116D01*
X14712416Y-9870672D01*
X14705440Y-9877649D01*
X14701613Y-9886316D01*
X14699005Y-9889034D01*
X14700450Y-9893290D01*
X14700450Y-9927136D01*
X14700450Y-9927136D01*
X14700751Y-9929732D01*
X14700751Y-9929732D01*
X14700751Y-9929732D01*
X14705440Y-9940351D01*
X14713649Y-9948560D01*
X14718745Y-9950810D01*
X14721699Y-9952114D01*
X14725968Y-9956212D01*
X14726604Y-9962094D01*
X14723311Y-9967010D01*
X14721699Y-9967940D01*
X14713678Y-9971482D01*
X14713677Y-9971482D01*
X14705482Y-9979677D01*
X14705482Y-9979678D01*
X14700801Y-9990279D01*
X14700500Y-9992871D01*
X14700500Y-9998500D01*
X14700500Y-9998500D01*
X14801634Y-9998500D01*
X14802997Y-9997864D01*
X14808428Y-9999205D01*
X14817446Y-10005000D01*
X14818995Y-10005995D01*
X14832804Y-10010050D01*
X14847196Y-10010050D01*
X14861005Y-10005995D01*
X14867051Y-10002110D01*
X14872822Y-10000806D01*
X14877844Y-10003270D01*
X14922416Y-10047843D01*
X14924917Y-10053205D01*
X14924950Y-10053959D01*
X14924950Y-10104294D01*
X14923878Y-10107829D01*
X14924084Y-10107914D01*
X14923758Y-10108702D01*
X14922450Y-10115278D01*
X14922450Y-10115279D01*
X14922450Y-10155967D01*
X14922450Y-10193850D01*
X14920426Y-10199410D01*
X14915302Y-10202369D01*
X14913800Y-10202500D01*
X14886250Y-10202500D01*
X14886250Y-10202500D01*
X14886250Y-10220000D01*
X14886250Y-10220000D01*
X14937565Y-10220000D01*
X14941453Y-10217698D01*
X14943047Y-10217550D01*
X14957221Y-10217550D01*
X14957221Y-10217550D01*
X14958536Y-10217288D01*
X14963798Y-10216242D01*
X14965194Y-10215309D01*
X14970941Y-10213903D01*
X14974805Y-10215309D01*
X14976201Y-10216242D01*
X14982779Y-10217550D01*
X14997221Y-10217550D01*
X14997221Y-10217550D01*
X14998536Y-10217288D01*
X15003799Y-10216242D01*
X15005194Y-10215309D01*
X15010941Y-10213903D01*
X15014805Y-10215309D01*
X15016201Y-10216242D01*
X15022779Y-10217550D01*
X15037221Y-10217550D01*
X15037221Y-10217550D01*
X15040510Y-10216896D01*
X15043799Y-10216242D01*
X15045194Y-10215309D01*
X15050941Y-10213903D01*
X15054805Y-10215309D01*
X15056201Y-10216242D01*
X15062779Y-10217550D01*
X15077221Y-10217550D01*
X15077221Y-10217550D01*
X15078536Y-10217288D01*
X15083799Y-10216242D01*
X15085194Y-10215309D01*
X15090941Y-10213903D01*
X15094806Y-10215309D01*
X15096201Y-10216242D01*
X15102779Y-10217550D01*
X15117221Y-10217550D01*
X15117221Y-10217550D01*
X15118536Y-10217288D01*
X15123799Y-10216242D01*
X15125194Y-10215309D01*
X15130941Y-10213903D01*
X15134805Y-10215309D01*
X15136201Y-10216242D01*
X15142779Y-10217550D01*
X15157221Y-10217550D01*
X15157221Y-10217550D01*
X15158536Y-10217288D01*
X15163799Y-10216242D01*
X15165194Y-10215309D01*
X15170941Y-10213903D01*
X15174805Y-10215309D01*
X15176201Y-10216242D01*
X15182779Y-10217550D01*
X15193800Y-10217550D01*
X15199360Y-10219574D01*
X15202319Y-10224698D01*
X15202450Y-10226200D01*
X15202450Y-10237221D01*
X15203758Y-10243798D01*
X15203758Y-10243799D01*
X15204691Y-10245194D01*
X15206097Y-10250942D01*
X15204691Y-10254805D01*
X15203759Y-10256201D01*
X15203758Y-10256202D01*
X15202450Y-10262778D01*
X15202450Y-10277221D01*
X15203758Y-10283798D01*
X15203758Y-10283799D01*
X15204691Y-10285194D01*
X15206097Y-10290942D01*
X15204691Y-10294805D01*
X15203758Y-10296201D01*
X15203758Y-10296201D01*
X15202450Y-10302778D01*
X15202450Y-10317221D01*
X15203758Y-10323799D01*
X15204691Y-10325195D01*
X15206097Y-10330942D01*
X15204691Y-10334805D01*
X15203758Y-10336201D01*
X15203758Y-10336202D01*
X15202450Y-10342778D01*
X15202450Y-10357221D01*
X15203397Y-10361981D01*
X15203758Y-10363799D01*
X15204691Y-10365194D01*
X15206097Y-10370942D01*
X15204691Y-10374806D01*
X15203758Y-10376201D01*
X15203758Y-10376202D01*
X15202450Y-10382778D01*
X15202450Y-10397221D01*
X15203758Y-10403799D01*
X15204721Y-10405239D01*
X15206127Y-10410987D01*
X15204721Y-10414850D01*
X15203806Y-10416220D01*
X15203805Y-10416221D01*
X15203054Y-10420000D01*
X15324446Y-10420000D01*
X15325913Y-10418213D01*
X15331005Y-10415198D01*
X15332600Y-10415050D01*
X15363849Y-10415050D01*
X15369409Y-10417074D01*
X15369965Y-10417584D01*
X15374624Y-10422243D01*
X15375244Y-10422677D01*
X15375142Y-10422823D01*
X15378690Y-10426371D01*
X15379207Y-10432266D01*
X15375813Y-10437113D01*
X15374786Y-10437706D01*
X15374653Y-10437799D01*
X15366799Y-10445653D01*
X15362104Y-10455722D01*
X15361500Y-10460309D01*
X15361500Y-10465500D01*
X15361500Y-10465500D01*
X15458500Y-10465500D01*
X15458500Y-10465500D01*
X15458500Y-10460309D01*
X15457896Y-10455722D01*
X15453201Y-10445653D01*
X15445346Y-10437799D01*
X15444727Y-10437365D01*
X15444835Y-10437210D01*
X15441309Y-10433682D01*
X15440794Y-10427788D01*
X15444188Y-10422941D01*
X15445270Y-10422317D01*
X15445375Y-10422243D01*
X15445375Y-10422243D01*
X15453243Y-10414375D01*
X15454330Y-10412044D01*
X15458514Y-10407860D01*
X15462169Y-10407050D01*
X15582983Y-10407050D01*
X15582983Y-10407050D01*
X15592190Y-10403236D01*
X15612973Y-10382453D01*
X15612973Y-10382453D01*
X15614190Y-10381236D01*
X15614190Y-10381236D01*
X15621236Y-10374190D01*
X15623384Y-10369005D01*
X15623709Y-10368220D01*
X15623709Y-10368219D01*
X15624962Y-10365194D01*
X15625050Y-10364983D01*
X15625050Y-10354321D01*
X15625050Y-10354319D01*
X15625050Y-10271359D01*
X15627074Y-10265799D01*
X15632198Y-10262841D01*
X15638025Y-10263868D01*
X15639816Y-10265243D01*
X15702416Y-10327843D01*
X15704917Y-10333205D01*
X15704950Y-10333959D01*
X15704950Y-10606041D01*
X15702926Y-10611601D01*
X15702416Y-10612157D01*
X15595882Y-10718691D01*
X15488764Y-10825810D01*
X15488764Y-10825810D01*
X15488764Y-10825810D01*
X15486197Y-10832007D01*
X15484950Y-10835017D01*
X15484950Y-11121041D01*
X15482926Y-11126601D01*
X15482416Y-11127157D01*
X15464816Y-11144757D01*
X15459454Y-11147258D01*
X15453739Y-11145727D01*
X15450345Y-11140880D01*
X15450050Y-11138641D01*
X15450050Y-10875017D01*
X15449566Y-10873850D01*
X15446236Y-10865810D01*
X15439190Y-10858764D01*
X15217584Y-10637158D01*
X15215083Y-10631795D01*
X15215050Y-10631041D01*
X15215050Y-10595706D01*
X15216122Y-10592171D01*
X15215916Y-10592086D01*
X15216242Y-10591299D01*
X15216242Y-10591299D01*
X15217550Y-10584721D01*
X15217550Y-10506200D01*
X15219574Y-10500640D01*
X15224698Y-10497681D01*
X15226199Y-10497550D01*
X15304721Y-10497550D01*
X15304721Y-10497550D01*
X15306029Y-10497290D01*
X15311299Y-10496242D01*
X15318758Y-10491258D01*
X15319264Y-10490500D01*
X15361500Y-10490500D01*
X15361500Y-10495691D01*
X15362104Y-10500278D01*
X15366799Y-10510346D01*
X15374653Y-10518201D01*
X15384722Y-10522896D01*
X15384721Y-10522896D01*
X15389309Y-10523500D01*
X15397500Y-10523500D01*
X15397500Y-10523500D01*
X15397500Y-10490500D01*
X15422500Y-10490500D01*
X15422500Y-10523500D01*
X15422500Y-10523500D01*
X15430691Y-10523500D01*
X15435278Y-10522896D01*
X15445346Y-10518201D01*
X15453201Y-10510346D01*
X15457896Y-10500278D01*
X15458500Y-10495691D01*
X15458500Y-10490500D01*
X15458500Y-10490500D01*
X15422500Y-10490500D01*
X15422500Y-10490500D01*
X15397500Y-10490500D01*
X15397500Y-10490500D01*
X15361500Y-10490500D01*
X15361500Y-10490500D01*
X15319264Y-10490500D01*
X15323742Y-10483799D01*
X15325050Y-10477221D01*
X15325050Y-10462779D01*
X15324727Y-10461155D01*
X15324251Y-10458764D01*
X15323742Y-10456202D01*
X15322779Y-10454761D01*
X15321372Y-10449013D01*
X15322779Y-10445149D01*
X15323694Y-10443779D01*
X15324446Y-10440000D01*
X15203054Y-10440000D01*
X15203805Y-10443779D01*
X15203805Y-10443779D01*
X15204721Y-10445149D01*
X15206127Y-10450897D01*
X15204721Y-10454760D01*
X15203758Y-10456201D01*
X15203758Y-10456202D01*
X15202450Y-10462779D01*
X15202450Y-10473800D01*
X15200426Y-10479360D01*
X15195302Y-10482319D01*
X15193800Y-10482450D01*
X15182779Y-10482450D01*
X15176201Y-10483758D01*
X15176201Y-10483758D01*
X15174805Y-10484691D01*
X15169058Y-10486097D01*
X15165194Y-10484691D01*
X15163799Y-10483759D01*
X15163798Y-10483758D01*
X15158529Y-10482710D01*
X15157221Y-10482450D01*
X15157221Y-10482450D01*
X15142779Y-10482450D01*
X15136202Y-10483758D01*
X15136201Y-10483759D01*
X15134805Y-10484691D01*
X15129058Y-10486097D01*
X15125194Y-10484691D01*
X15123799Y-10483759D01*
X15123798Y-10483758D01*
X15118529Y-10482710D01*
X15117221Y-10482450D01*
X15117221Y-10482450D01*
X15102779Y-10482450D01*
X15096201Y-10483758D01*
X15094805Y-10484691D01*
X15089058Y-10486097D01*
X15085194Y-10484691D01*
X15083799Y-10483758D01*
X15083798Y-10483758D01*
X15078529Y-10482710D01*
X15077221Y-10482450D01*
X15077221Y-10482450D01*
X15062779Y-10482450D01*
X15056201Y-10483758D01*
X15056201Y-10483758D01*
X15054805Y-10484691D01*
X15049058Y-10486097D01*
X15045194Y-10484691D01*
X15043799Y-10483758D01*
X15043798Y-10483758D01*
X15038854Y-10482775D01*
X15037221Y-10482450D01*
X15037221Y-10482450D01*
X15022779Y-10482450D01*
X15016202Y-10483758D01*
X15016201Y-10483759D01*
X15014805Y-10484691D01*
X15009058Y-10486097D01*
X15005194Y-10484691D01*
X15003799Y-10483759D01*
X15003798Y-10483758D01*
X14998529Y-10482710D01*
X14997221Y-10482450D01*
X14997221Y-10482450D01*
X14982779Y-10482450D01*
X14976201Y-10483758D01*
X14976201Y-10483758D01*
X14974805Y-10484691D01*
X14969058Y-10486097D01*
X14965194Y-10484691D01*
X14963799Y-10483759D01*
X14963798Y-10483758D01*
X14957221Y-10482450D01*
X14946200Y-10482450D01*
X14940640Y-10480426D01*
X14937681Y-10475302D01*
X14937550Y-10473801D01*
X14937550Y-10462779D01*
X14937227Y-10461155D01*
X14936751Y-10458764D01*
X14936242Y-10456202D01*
X14935309Y-10454806D01*
X14933903Y-10449058D01*
X14935309Y-10445194D01*
X14936242Y-10443799D01*
X14937550Y-10437221D01*
X14937550Y-10422779D01*
X14937529Y-10422677D01*
X14936797Y-10418994D01*
X14936242Y-10416201D01*
X14935309Y-10414806D01*
X14933903Y-10409059D01*
X14935309Y-10405195D01*
X14936242Y-10403799D01*
X14937550Y-10397221D01*
X14937550Y-10382779D01*
X14937523Y-10382647D01*
X14936745Y-10378732D01*
X14936242Y-10376201D01*
X14935309Y-10374806D01*
X14933903Y-10369058D01*
X14935309Y-10365195D01*
X14936242Y-10363799D01*
X14937550Y-10357221D01*
X14937550Y-10342779D01*
X14937347Y-10341757D01*
X14936674Y-10338374D01*
X14936242Y-10336201D01*
X14936242Y-10336201D01*
X14935309Y-10334806D01*
X14933903Y-10329058D01*
X14935309Y-10325194D01*
X14936242Y-10323799D01*
X14937550Y-10317221D01*
X14937550Y-10302779D01*
X14937314Y-10301591D01*
X14936728Y-10298648D01*
X14936242Y-10296201D01*
X14935309Y-10294806D01*
X14933903Y-10289059D01*
X14935309Y-10285195D01*
X14936242Y-10283799D01*
X14937550Y-10277221D01*
X14937550Y-10262779D01*
X14937407Y-10262063D01*
X14936468Y-10257337D01*
X14936242Y-10256201D01*
X14935279Y-10254760D01*
X14933872Y-10249013D01*
X14935279Y-10245149D01*
X14936194Y-10243779D01*
X14936946Y-10240000D01*
X14815554Y-10240000D01*
X14815529Y-10240029D01*
X14815634Y-10240402D01*
X14816305Y-10243779D01*
X14816305Y-10243779D01*
X14817221Y-10245149D01*
X14818627Y-10250897D01*
X14817221Y-10254760D01*
X14816258Y-10256201D01*
X14816258Y-10256202D01*
X14815092Y-10262063D01*
X14812023Y-10267122D01*
X14808426Y-10268343D01*
X14812548Y-10270375D01*
X14814931Y-10275791D01*
X14814950Y-10276356D01*
X14814950Y-10277221D01*
X14816258Y-10283798D01*
X14816258Y-10283799D01*
X14817191Y-10285194D01*
X14818597Y-10290942D01*
X14817191Y-10294805D01*
X14816258Y-10296201D01*
X14816258Y-10296201D01*
X14814950Y-10302778D01*
X14814950Y-10302779D01*
X14814950Y-10316300D01*
X14812926Y-10321860D01*
X14807802Y-10324819D01*
X14806300Y-10324950D01*
X14803102Y-10324950D01*
X14797542Y-10322926D01*
X14795263Y-10319956D01*
X14793243Y-10315625D01*
X14785375Y-10307757D01*
X14784756Y-10307323D01*
X14784858Y-10307177D01*
X14781309Y-10303628D01*
X14780793Y-10297734D01*
X14784187Y-10292887D01*
X14785214Y-10292294D01*
X14785346Y-10292201D01*
X14793201Y-10284347D01*
X14797896Y-10274278D01*
X14797995Y-10273937D01*
X14798159Y-10273714D01*
X14798176Y-10273679D01*
X14798182Y-10273682D01*
X14801494Y-10269165D01*
X14804740Y-10268371D01*
X14800905Y-10266879D01*
X14800492Y-10266492D01*
X14798500Y-10264500D01*
X14701500Y-10264500D01*
X14701500Y-10264500D01*
X14701500Y-10269691D01*
X14702104Y-10274278D01*
X14706799Y-10284347D01*
X14714653Y-10292201D01*
X14715273Y-10292635D01*
X14715164Y-10292790D01*
X14718691Y-10296317D01*
X14719206Y-10302211D01*
X14715812Y-10307058D01*
X14714731Y-10307683D01*
X14714624Y-10307757D01*
X14706757Y-10315625D01*
X14702055Y-10325708D01*
X14702055Y-10325708D01*
X14701450Y-10330303D01*
X14701450Y-10357541D01*
X14699426Y-10363101D01*
X14698916Y-10363657D01*
X14691626Y-10370947D01*
X14686264Y-10373448D01*
X14680833Y-10372108D01*
X14676005Y-10369005D01*
X14662196Y-10364950D01*
X14649200Y-10364950D01*
X14643640Y-10362926D01*
X14640681Y-10357802D01*
X14640550Y-10356300D01*
X14640550Y-10311864D01*
X14640378Y-10310381D01*
X14640249Y-10309268D01*
X14635560Y-10298649D01*
X14635560Y-10298648D01*
X14635560Y-10298648D01*
X14627352Y-10290440D01*
X14627351Y-10290440D01*
X14627351Y-10290440D01*
X14627351Y-10290440D01*
X14626206Y-10289934D01*
X14621937Y-10285837D01*
X14621050Y-10282021D01*
X14621050Y-10277979D01*
X14623074Y-10272418D01*
X14626206Y-10270066D01*
X14627351Y-10269560D01*
X14635560Y-10261351D01*
X14640249Y-10250732D01*
X14640550Y-10248136D01*
X14640550Y-10234309D01*
X14701500Y-10234309D01*
X14701500Y-10239500D01*
X14701500Y-10239500D01*
X14737500Y-10239500D01*
X14737500Y-10239500D01*
X14737500Y-10206500D01*
X14762500Y-10206500D01*
X14762500Y-10239500D01*
X14762500Y-10239500D01*
X14798500Y-10239500D01*
X14798946Y-10239054D01*
X14798500Y-10236605D01*
X14798500Y-10234309D01*
X14797896Y-10229722D01*
X14793363Y-10220000D01*
X14815554Y-10220000D01*
X14866250Y-10220000D01*
X14866250Y-10220000D01*
X14866250Y-10202500D01*
X14866250Y-10202500D01*
X14835284Y-10202500D01*
X14828721Y-10203805D01*
X14828721Y-10203805D01*
X14821279Y-10208778D01*
X14821278Y-10208779D01*
X14816305Y-10216221D01*
X14816305Y-10216221D01*
X14815554Y-10220000D01*
X14793363Y-10220000D01*
X14793201Y-10219653D01*
X14785346Y-10211799D01*
X14775278Y-10207104D01*
X14775278Y-10207104D01*
X14770691Y-10206500D01*
X14762500Y-10206500D01*
X14762500Y-10206500D01*
X14737500Y-10206500D01*
X14737500Y-10206500D01*
X14729309Y-10206500D01*
X14724722Y-10207104D01*
X14714653Y-10211799D01*
X14706799Y-10219653D01*
X14702104Y-10229722D01*
X14701500Y-10234309D01*
X14640550Y-10234309D01*
X14640550Y-10201864D01*
X14640512Y-10201542D01*
X14640378Y-10200381D01*
X14640249Y-10199268D01*
X14635560Y-10188649D01*
X14635560Y-10188648D01*
X14635560Y-10188648D01*
X14627352Y-10180440D01*
X14627351Y-10180440D01*
X14627351Y-10180440D01*
X14627351Y-10180440D01*
X14626206Y-10179934D01*
X14621937Y-10175837D01*
X14621050Y-10172021D01*
X14621050Y-10163821D01*
X14623074Y-10158261D01*
X14623158Y-10158163D01*
X14632538Y-10147337D01*
X14638516Y-10134246D01*
X14640565Y-10120000D01*
X14638516Y-10105754D01*
X14632538Y-10092663D01*
X14632538Y-10092663D01*
X14632538Y-10092663D01*
X14632537Y-10092662D01*
X14623113Y-10081786D01*
X14623113Y-10081786D01*
X14611005Y-10074005D01*
X14597196Y-10069950D01*
X14582804Y-10069950D01*
X14568995Y-10074005D01*
X14556887Y-10081786D01*
X14549493Y-10090318D01*
X14544323Y-10093195D01*
X14538513Y-10092075D01*
X14535088Y-10088247D01*
X14532538Y-10082663D01*
X14532537Y-10082662D01*
X14523113Y-10071786D01*
X14523113Y-10071786D01*
X14521595Y-10070810D01*
X14519442Y-10069427D01*
X14515859Y-10064718D01*
X14516140Y-10058808D01*
X14520155Y-10054462D01*
X14524119Y-10053500D01*
X14530691Y-10053500D01*
X14535278Y-10052896D01*
X14545346Y-10048201D01*
X14553201Y-10040347D01*
X14557896Y-10030278D01*
X14558500Y-10025691D01*
X14558500Y-10020500D01*
X14581500Y-10020500D01*
X14581500Y-10025691D01*
X14582104Y-10030278D01*
X14586799Y-10040347D01*
X14594653Y-10048201D01*
X14604722Y-10052896D01*
X14604721Y-10052896D01*
X14609309Y-10053500D01*
X14617500Y-10053500D01*
X14617500Y-10053500D01*
X14617500Y-10020500D01*
X14642500Y-10020500D01*
X14642500Y-10053500D01*
X14642500Y-10053500D01*
X14650691Y-10053500D01*
X14655278Y-10052896D01*
X14665346Y-10048201D01*
X14673201Y-10040347D01*
X14677896Y-10030278D01*
X14678500Y-10025691D01*
X14678500Y-10023500D01*
X14700500Y-10023500D01*
X14700500Y-10029129D01*
X14700801Y-10031721D01*
X14705482Y-10042322D01*
X14705482Y-10042323D01*
X14713677Y-10050518D01*
X14713678Y-10050518D01*
X14724279Y-10055199D01*
X14724279Y-10055199D01*
X14726871Y-10055500D01*
X14737500Y-10055500D01*
X14737500Y-10055500D01*
X14737500Y-10023500D01*
X14762500Y-10023500D01*
X14762500Y-10055500D01*
X14762500Y-10055500D01*
X14773129Y-10055500D01*
X14775721Y-10055199D01*
X14786322Y-10050518D01*
X14786323Y-10050518D01*
X14794518Y-10042323D01*
X14794518Y-10042322D01*
X14799199Y-10031721D01*
X14799500Y-10029129D01*
X14799500Y-10023500D01*
X14799500Y-10023500D01*
X14762500Y-10023500D01*
X14762500Y-10023500D01*
X14737500Y-10023500D01*
X14737500Y-10023500D01*
X14700500Y-10023500D01*
X14700500Y-10023500D01*
X14678500Y-10023500D01*
X14678500Y-10020500D01*
X14678500Y-10020500D01*
X14642500Y-10020500D01*
X14642500Y-10020500D01*
X14617500Y-10020500D01*
X14617500Y-10020500D01*
X14581500Y-10020500D01*
X14581500Y-10020500D01*
X14558500Y-10020500D01*
X14558500Y-10020500D01*
X14506150Y-10020500D01*
X14500590Y-10018476D01*
X14497631Y-10013352D01*
X14497500Y-10011850D01*
X14497500Y-10004150D01*
X14499524Y-9998590D01*
X14504648Y-9995631D01*
X14506150Y-9995500D01*
X14558500Y-9995500D01*
X14558500Y-9995500D01*
X14558500Y-9990309D01*
X14557896Y-9985722D01*
X14553201Y-9975653D01*
X14545346Y-9967799D01*
X14544727Y-9967365D01*
X14544835Y-9967210D01*
X14541309Y-9963682D01*
X14540794Y-9957788D01*
X14544188Y-9952941D01*
X14545270Y-9952317D01*
X14545375Y-9952243D01*
X14545375Y-9952243D01*
X14553243Y-9944376D01*
X14554330Y-9942044D01*
X14558514Y-9937860D01*
X14562169Y-9937050D01*
X14577830Y-9937050D01*
X14583391Y-9939074D01*
X14585670Y-9942044D01*
X14586757Y-9944376D01*
X14586757Y-9944376D01*
X14594624Y-9952243D01*
X14595244Y-9952677D01*
X14595142Y-9952823D01*
X14598690Y-9956371D01*
X14599207Y-9962266D01*
X14595813Y-9967113D01*
X14594786Y-9967706D01*
X14594653Y-9967799D01*
X14586799Y-9975653D01*
X14582104Y-9985722D01*
X14581500Y-9990309D01*
X14581500Y-9995500D01*
X14581500Y-9995500D01*
X14678500Y-9995500D01*
X14678500Y-9995500D01*
X14678500Y-9990309D01*
X14677896Y-9985722D01*
X14673201Y-9975653D01*
X14665346Y-9967799D01*
X14664727Y-9967365D01*
X14664835Y-9967210D01*
X14661309Y-9963682D01*
X14660794Y-9957788D01*
X14664188Y-9952941D01*
X14665270Y-9952317D01*
X14665375Y-9952243D01*
X14665375Y-9952243D01*
X14673243Y-9944376D01*
X14677945Y-9934292D01*
X14678550Y-9929697D01*
X14678550Y-9902459D01*
X14680574Y-9896899D01*
X14681082Y-9896344D01*
X14681236Y-9896190D01*
X14683808Y-9889980D01*
X14686447Y-9887100D01*
X14685050Y-9882822D01*
X14685050Y-9857824D01*
X14687074Y-9852264D01*
X14687500Y-9851842D01*
X14687500Y-9842410D01*
X14688561Y-9838914D01*
X14688343Y-9838823D01*
X14688669Y-9838037D01*
X14688669Y-9838036D01*
X14690050Y-9831094D01*
X14690050Y-9756406D01*
X14688669Y-9749464D01*
X14688669Y-9749464D01*
X14688343Y-9748677D01*
X14688560Y-9748587D01*
X14687500Y-9745090D01*
X14687500Y-9735778D01*
X14684483Y-9736378D01*
X14683696Y-9736704D01*
X14683587Y-9736442D01*
X14679101Y-9737539D01*
X14676370Y-9736544D01*
X14676323Y-9736657D01*
X14675536Y-9736331D01*
X14668594Y-9734950D01*
X14668594Y-9734950D01*
X14651406Y-9734950D01*
X14651405Y-9734950D01*
X14644464Y-9736331D01*
X14643677Y-9736657D01*
X14643572Y-9736404D01*
X14639057Y-9737509D01*
X14636375Y-9736532D01*
X14636323Y-9736657D01*
X14635536Y-9736331D01*
X14628594Y-9734950D01*
X14628594Y-9734950D01*
X14611406Y-9734950D01*
X14611405Y-9734950D01*
X14604464Y-9736331D01*
X14603677Y-9736657D01*
X14603572Y-9736404D01*
X14599057Y-9737509D01*
X14596375Y-9736532D01*
X14596323Y-9736657D01*
X14595536Y-9736331D01*
X14588594Y-9734950D01*
X14588594Y-9734950D01*
X14573700Y-9734950D01*
X14568140Y-9732926D01*
X14565181Y-9727802D01*
X14565050Y-9726300D01*
X14565050Y-9711406D01*
X14565050Y-9711406D01*
X14563669Y-9704464D01*
X14563343Y-9703677D01*
X14563596Y-9703572D01*
X14562491Y-9699059D01*
X14563468Y-9696375D01*
X14563343Y-9696323D01*
X14563669Y-9695537D01*
X14563669Y-9695536D01*
X14565050Y-9688594D01*
X14565050Y-9671406D01*
X14563669Y-9664464D01*
X14563669Y-9664464D01*
X14563343Y-9663677D01*
X14563596Y-9663572D01*
X14562491Y-9659060D01*
X14563468Y-9656375D01*
X14563343Y-9656323D01*
X14563669Y-9655537D01*
X14563669Y-9655536D01*
X14565050Y-9648594D01*
X14565050Y-9631406D01*
X14563669Y-9624464D01*
X14563669Y-9624464D01*
X14563343Y-9623677D01*
X14563578Y-9623579D01*
X14562461Y-9619015D01*
X14563428Y-9616358D01*
X14563296Y-9616304D01*
X14563622Y-9615517D01*
X14564222Y-9612500D01*
X14554910Y-9612500D01*
X14551413Y-9611439D01*
X14551323Y-9611657D01*
X14550536Y-9611331D01*
X14543594Y-9609950D01*
X14543594Y-9609950D01*
X14468906Y-9609950D01*
X14468905Y-9609950D01*
X14461964Y-9611331D01*
X14461177Y-9611657D01*
X14461087Y-9611439D01*
X14457590Y-9612500D01*
X14447659Y-9612500D01*
X14443771Y-9614802D01*
X14442176Y-9614950D01*
X14204983Y-9614950D01*
X14195017Y-9614950D01*
X14185810Y-9618764D01*
X14185810Y-9618764D01*
X13884816Y-9919757D01*
X13879454Y-9922258D01*
X13873739Y-9920727D01*
X13870345Y-9915880D01*
X13870050Y-9913641D01*
X13870050Y-9853959D01*
X13872074Y-9848399D01*
X13872583Y-9847843D01*
X14132843Y-9587584D01*
X14138205Y-9585083D01*
X14138959Y-9585050D01*
X14442176Y-9585050D01*
X14447736Y-9587074D01*
X14448158Y-9587500D01*
X14457590Y-9587500D01*
X14461087Y-9588561D01*
X14461177Y-9588343D01*
X14461963Y-9588669D01*
X14461964Y-9588669D01*
X14468906Y-9590050D01*
X14468906Y-9590050D01*
X14543594Y-9590050D01*
X14543594Y-9590050D01*
X14550536Y-9588669D01*
X14550537Y-9588669D01*
X14551323Y-9588343D01*
X14551413Y-9588561D01*
X14554910Y-9587500D01*
X14564222Y-9587500D01*
X14563622Y-9584483D01*
X14563296Y-9583697D01*
X14563559Y-9583588D01*
X14562461Y-9579104D01*
X14563456Y-9576370D01*
X14563343Y-9576323D01*
X14563669Y-9575537D01*
X14563669Y-9575536D01*
X14565050Y-9568594D01*
X14565050Y-9551406D01*
X14563669Y-9544464D01*
X14563669Y-9544464D01*
X14563343Y-9543677D01*
X14563596Y-9543572D01*
X14562491Y-9539060D01*
X14563468Y-9536375D01*
X14563343Y-9536323D01*
X14563669Y-9535537D01*
X14563669Y-9535536D01*
X14565050Y-9528594D01*
X14565050Y-9511406D01*
X14563669Y-9504464D01*
X14563669Y-9504464D01*
X14563343Y-9503677D01*
X14563596Y-9503572D01*
X14562491Y-9499058D01*
X14563468Y-9496375D01*
X14563343Y-9496323D01*
X14563669Y-9495537D01*
X14563669Y-9495536D01*
X14565050Y-9488594D01*
X14565050Y-9473700D01*
X14567074Y-9468140D01*
X14572198Y-9465181D01*
X14573700Y-9465050D01*
X14588594Y-9465050D01*
X14588594Y-9465050D01*
X14595536Y-9463669D01*
X14595536Y-9463669D01*
X14596323Y-9463343D01*
X14596428Y-9463596D01*
X14600939Y-9462491D01*
X14603625Y-9463468D01*
X14603677Y-9463343D01*
X14604463Y-9463669D01*
X14604464Y-9463669D01*
X14611406Y-9465050D01*
X14611406Y-9465050D01*
X14628594Y-9465050D01*
X14628594Y-9465050D01*
X14635536Y-9463669D01*
X14635537Y-9463669D01*
X14636323Y-9463343D01*
X14636428Y-9463596D01*
X14640940Y-9462491D01*
X14643625Y-9463468D01*
X14643677Y-9463343D01*
X14644463Y-9463669D01*
X14644464Y-9463669D01*
X14651406Y-9465050D01*
X14651406Y-9465050D01*
X14668594Y-9465050D01*
X14668594Y-9465050D01*
X14675536Y-9463669D01*
X14675537Y-9463669D01*
X14676323Y-9463343D01*
X14676421Y-9463579D01*
X14680985Y-9462461D01*
X14683641Y-9463427D01*
X14683696Y-9463296D01*
X14684483Y-9463622D01*
X14687500Y-9464222D01*
X14687500Y-9464222D01*
X14687500Y-9454910D01*
X14688561Y-9451413D01*
X14688343Y-9451323D01*
X14688669Y-9450537D01*
X14688669Y-9450536D01*
X14690050Y-9443594D01*
X14690050Y-9368906D01*
X14688669Y-9361964D01*
X14688669Y-9361964D01*
X14688343Y-9361177D01*
X14688560Y-9361087D01*
X14687500Y-9357590D01*
X14687500Y-9347659D01*
X14685198Y-9343771D01*
X14685050Y-9342176D01*
X14685050Y-8556359D01*
X14687074Y-8550799D01*
X14692198Y-8547840D01*
X14698025Y-8548868D01*
G37*
%TD.AperFunction*%
%TA.AperFunction,Conductor*%
G36*
X15094805Y-10602809D02*
G01*
X15096201Y-10603742D01*
X15102779Y-10605050D01*
X15116300Y-10605050D01*
X15121860Y-10607074D01*
X15124819Y-10612198D01*
X15124950Y-10613700D01*
X15124950Y-10665017D01*
X15124950Y-10674983D01*
X15128764Y-10684190D01*
X15187237Y-10742663D01*
X15244916Y-10800343D01*
X15247417Y-10805705D01*
X15247450Y-10806459D01*
X15247450Y-10821350D01*
X15245426Y-10826910D01*
X15240302Y-10829869D01*
X15238800Y-10830000D01*
X15237500Y-10830000D01*
X15237500Y-10830000D01*
X15237500Y-10873850D01*
X15235476Y-10879410D01*
X15230352Y-10882369D01*
X15228850Y-10882500D01*
X15200000Y-10882500D01*
X15200000Y-10882500D01*
X15200000Y-10899224D01*
X15201015Y-10904328D01*
X15201016Y-10904329D01*
X15201564Y-10905150D01*
X15202970Y-10910897D01*
X15201564Y-10914760D01*
X15200968Y-10915652D01*
X15200968Y-10915653D01*
X15199950Y-10920771D01*
X15199950Y-10974229D01*
X15200968Y-10979348D01*
X15200968Y-10979348D01*
X15204847Y-10985153D01*
X15204847Y-10985153D01*
X15210652Y-10989032D01*
X15210652Y-10989032D01*
X15210652Y-10989032D01*
X15211370Y-10989174D01*
X15216428Y-10992244D01*
X15218331Y-10997846D01*
X15216186Y-11003361D01*
X15215799Y-11003775D01*
X15099881Y-11119693D01*
X15094519Y-11122193D01*
X15088803Y-11120662D01*
X15085409Y-11115815D01*
X15085896Y-11109983D01*
X15088516Y-11104246D01*
X15088541Y-11104074D01*
X15088603Y-11103950D01*
X15088691Y-11103652D01*
X15088745Y-11103667D01*
X15090987Y-11099188D01*
X15111548Y-11078627D01*
X15111548Y-11078626D01*
X15111548Y-11078626D01*
X15117150Y-11068924D01*
X15120050Y-11058102D01*
X15120050Y-11046898D01*
X15120050Y-10991898D01*
X15117150Y-10981076D01*
X15111548Y-10971374D01*
X15110583Y-10970409D01*
X15108083Y-10965046D01*
X15108050Y-10964292D01*
X15108050Y-10935000D01*
X15107918Y-10932825D01*
X15107918Y-10932824D01*
X15104855Y-10924746D01*
X15099753Y-10920226D01*
X15096933Y-10915025D01*
X15098116Y-10909227D01*
X15099591Y-10907671D01*
X15099557Y-10907641D01*
X15100725Y-10906322D01*
X15105982Y-10900388D01*
X15108050Y-10892000D01*
X15108050Y-10845776D01*
X15200000Y-10845776D01*
X15200000Y-10862500D01*
X15200000Y-10862500D01*
X15217500Y-10862500D01*
X15217500Y-10862500D01*
X15217500Y-10830000D01*
X15217500Y-10830000D01*
X15215776Y-10830000D01*
X15210672Y-10831015D01*
X15210671Y-10831016D01*
X15204883Y-10834883D01*
X15204883Y-10834883D01*
X15201015Y-10840672D01*
X15201015Y-10840672D01*
X15200000Y-10845776D01*
X15108050Y-10845776D01*
X15108050Y-10845000D01*
X15107918Y-10842824D01*
X15104855Y-10834746D01*
X15104855Y-10834746D01*
X15104855Y-10834746D01*
X15104258Y-10833882D01*
X15104581Y-10833659D01*
X15102644Y-10830081D01*
X15102550Y-10828811D01*
X15102550Y-10826513D01*
X15104574Y-10820952D01*
X15106523Y-10819236D01*
X15108113Y-10818214D01*
X15115216Y-10810017D01*
X15117537Y-10807338D01*
X15117538Y-10807337D01*
X15117537Y-10807337D01*
X15117538Y-10807337D01*
X15123516Y-10794246D01*
X15125565Y-10780000D01*
X15123516Y-10765754D01*
X15117538Y-10752663D01*
X15117538Y-10752663D01*
X15117538Y-10752663D01*
X15117537Y-10752662D01*
X15108113Y-10741786D01*
X15108113Y-10741786D01*
X15096005Y-10734005D01*
X15082196Y-10729950D01*
X15067804Y-10729950D01*
X15053995Y-10734005D01*
X15041887Y-10741786D01*
X15041887Y-10741786D01*
X15032462Y-10752662D01*
X15032462Y-10752663D01*
X15026483Y-10765754D01*
X15024435Y-10780000D01*
X15026483Y-10794246D01*
X15032462Y-10807337D01*
X15032462Y-10807338D01*
X15041887Y-10818214D01*
X15041887Y-10818215D01*
X15048324Y-10822351D01*
X15051908Y-10827060D01*
X15051626Y-10832970D01*
X15050123Y-10835364D01*
X15049017Y-10836612D01*
X15049017Y-10836612D01*
X15046950Y-10844999D01*
X15046950Y-10845000D01*
X15046950Y-10850729D01*
X15044926Y-10856289D01*
X15039988Y-10859213D01*
X15038172Y-10859574D01*
X15038172Y-10859574D01*
X15033845Y-10862466D01*
X15033844Y-10862466D01*
X15024494Y-10871816D01*
X15056561Y-10903883D01*
X15059062Y-10909246D01*
X15057530Y-10914961D01*
X15056561Y-10916116D01*
X15051116Y-10921561D01*
X15045754Y-10924062D01*
X15040038Y-10922530D01*
X15038883Y-10921561D01*
X15006816Y-10889494D01*
X14997466Y-10898844D01*
X14997466Y-10898844D01*
X14995892Y-10901200D01*
X14991120Y-10904698D01*
X14985216Y-10904311D01*
X14980942Y-10900219D01*
X14980050Y-10896394D01*
X14980050Y-10743959D01*
X14982074Y-10738399D01*
X14982583Y-10737843D01*
X15015962Y-10704465D01*
X15051236Y-10669190D01*
X15055050Y-10659983D01*
X15055050Y-10650017D01*
X15055050Y-10613700D01*
X15057074Y-10608140D01*
X15062198Y-10605181D01*
X15063699Y-10605050D01*
X15077221Y-10605050D01*
X15077221Y-10605050D01*
X15080510Y-10604396D01*
X15083799Y-10603742D01*
X15085194Y-10602809D01*
X15090941Y-10601403D01*
X15094805Y-10602809D01*
G37*
%TD.AperFunction*%
%TA.AperFunction,Conductor*%
G36*
X14458729Y-9746508D02*
G01*
X14460339Y-9747584D01*
X14461964Y-9748669D01*
X14468906Y-9750050D01*
X14468906Y-9750050D01*
X14541300Y-9750050D01*
X14546860Y-9752074D01*
X14549818Y-9757198D01*
X14549950Y-9758700D01*
X14549950Y-9826300D01*
X14547926Y-9831860D01*
X14542802Y-9834819D01*
X14541300Y-9834950D01*
X14423708Y-9834950D01*
X14418148Y-9832926D01*
X14415840Y-9829893D01*
X14412538Y-9822663D01*
X14412537Y-9822662D01*
X14403113Y-9811786D01*
X14403113Y-9811786D01*
X14391005Y-9804005D01*
X14377196Y-9799950D01*
X14362804Y-9799950D01*
X14348995Y-9804005D01*
X14336887Y-9811786D01*
X14336887Y-9811786D01*
X14327462Y-9822662D01*
X14327462Y-9822663D01*
X14321483Y-9835754D01*
X14319435Y-9850000D01*
X14321483Y-9864246D01*
X14327462Y-9877337D01*
X14327462Y-9877338D01*
X14336887Y-9888214D01*
X14336887Y-9888214D01*
X14336887Y-9888214D01*
X14348995Y-9895995D01*
X14362804Y-9900050D01*
X14377196Y-9900050D01*
X14391005Y-9895995D01*
X14403113Y-9888214D01*
X14403268Y-9888035D01*
X14403411Y-9887956D01*
X14403580Y-9887809D01*
X14403611Y-9887845D01*
X14408438Y-9885159D01*
X14409805Y-9885050D01*
X14443641Y-9885050D01*
X14449201Y-9887074D01*
X14452159Y-9892198D01*
X14451132Y-9898025D01*
X14449757Y-9899816D01*
X14430810Y-9918764D01*
X14398764Y-9950810D01*
X14398764Y-9950810D01*
X14398764Y-9950810D01*
X14397629Y-9953550D01*
X14394950Y-9960017D01*
X14394950Y-9961881D01*
X14392926Y-9967441D01*
X14390977Y-9969158D01*
X14386887Y-9971786D01*
X14386887Y-9971786D01*
X14377462Y-9982662D01*
X14377462Y-9982663D01*
X14371483Y-9995754D01*
X14369435Y-10010000D01*
X14370722Y-10018950D01*
X14369510Y-10024741D01*
X14368276Y-10026297D01*
X14351560Y-10043014D01*
X14351560Y-10043014D01*
X14344514Y-10050060D01*
X14344514Y-10050060D01*
X14344514Y-10050060D01*
X14343339Y-10052896D01*
X14340700Y-10059267D01*
X14340700Y-10136300D01*
X14338676Y-10141860D01*
X14333552Y-10144819D01*
X14332050Y-10144950D01*
X14326155Y-10144950D01*
X14319214Y-10146331D01*
X14319213Y-10146331D01*
X14311341Y-10151591D01*
X14311341Y-10151591D01*
X14306081Y-10159463D01*
X14306081Y-10159464D01*
X14304700Y-10166405D01*
X14304700Y-10183595D01*
X14306081Y-10190536D01*
X14306081Y-10190537D01*
X14309223Y-10195239D01*
X14310630Y-10200987D01*
X14309223Y-10204851D01*
X14306128Y-10209483D01*
X14306128Y-10209483D01*
X14305528Y-10212500D01*
X14425972Y-10212500D01*
X14425372Y-10209483D01*
X14422277Y-10204851D01*
X14420870Y-10199103D01*
X14422277Y-10195239D01*
X14423630Y-10193214D01*
X14425419Y-10190536D01*
X14426800Y-10183594D01*
X14426800Y-10166406D01*
X14425419Y-10159464D01*
X14425419Y-10159463D01*
X14421376Y-10153413D01*
X14420159Y-10151591D01*
X14418181Y-10150269D01*
X14412287Y-10146331D01*
X14412286Y-10146331D01*
X14405344Y-10144950D01*
X14405344Y-10144950D01*
X14399450Y-10144950D01*
X14393890Y-10142926D01*
X14390931Y-10137802D01*
X14390800Y-10136300D01*
X14390800Y-10078209D01*
X14392824Y-10072649D01*
X14393333Y-10072093D01*
X14403433Y-10061993D01*
X14408795Y-10059492D01*
X14411986Y-10059810D01*
X14412804Y-10060050D01*
X14427196Y-10060050D01*
X14441005Y-10055995D01*
X14453113Y-10048214D01*
X14453124Y-10048201D01*
X14453856Y-10047357D01*
X14457035Y-10043688D01*
X14462205Y-10040811D01*
X14468015Y-10041931D01*
X14469688Y-10043236D01*
X14475189Y-10048736D01*
X14474942Y-10048983D01*
X14477541Y-10052692D01*
X14477027Y-10058587D01*
X14472844Y-10062772D01*
X14471624Y-10063233D01*
X14468995Y-10064005D01*
X14456887Y-10071786D01*
X14456887Y-10071786D01*
X14447462Y-10082662D01*
X14447462Y-10082663D01*
X14441483Y-10095754D01*
X14439435Y-10110000D01*
X14441483Y-10124246D01*
X14447462Y-10137337D01*
X14447462Y-10137338D01*
X14456887Y-10148214D01*
X14456887Y-10148214D01*
X14456887Y-10148214D01*
X14464976Y-10153413D01*
X14468560Y-10158121D01*
X14468950Y-10160690D01*
X14468950Y-10172021D01*
X14466926Y-10177582D01*
X14463794Y-10179934D01*
X14462649Y-10180440D01*
X14462648Y-10180440D01*
X14454440Y-10188648D01*
X14449751Y-10199268D01*
X14449450Y-10201864D01*
X14449450Y-10230541D01*
X14447426Y-10236101D01*
X14446916Y-10236657D01*
X14441144Y-10242430D01*
X14435781Y-10244930D01*
X14430066Y-10243399D01*
X14426672Y-10238552D01*
X14426665Y-10238345D01*
X14425972Y-10237500D01*
X14305528Y-10237500D01*
X14306128Y-10240517D01*
X14309223Y-10245149D01*
X14310630Y-10250897D01*
X14309223Y-10254761D01*
X14306081Y-10259463D01*
X14306081Y-10259464D01*
X14304700Y-10266405D01*
X14304700Y-10283595D01*
X14306081Y-10290536D01*
X14306081Y-10290537D01*
X14309193Y-10295194D01*
X14310600Y-10300942D01*
X14309193Y-10304806D01*
X14306081Y-10309463D01*
X14306081Y-10309464D01*
X14304700Y-10316405D01*
X14304700Y-10333595D01*
X14306081Y-10340536D01*
X14306081Y-10340537D01*
X14310839Y-10347657D01*
X14311341Y-10348409D01*
X14313159Y-10349624D01*
X14319213Y-10353669D01*
X14319214Y-10353669D01*
X14326156Y-10355050D01*
X14326156Y-10355050D01*
X14405344Y-10355050D01*
X14405344Y-10355050D01*
X14412286Y-10353669D01*
X14414617Y-10352112D01*
X14415521Y-10351508D01*
X14420327Y-10350050D01*
X14438386Y-10350050D01*
X14443947Y-10352074D01*
X14446905Y-10357198D01*
X14445878Y-10363025D01*
X14441345Y-10366828D01*
X14440823Y-10367000D01*
X14433995Y-10369005D01*
X14421887Y-10376786D01*
X14421887Y-10376786D01*
X14412462Y-10387662D01*
X14412462Y-10387663D01*
X14406483Y-10400754D01*
X14405344Y-10408678D01*
X14404435Y-10415000D01*
X14406483Y-10429246D01*
X14410389Y-10437799D01*
X14412631Y-10442707D01*
X14413100Y-10448605D01*
X14409668Y-10453425D01*
X14404763Y-10454950D01*
X14309983Y-10454950D01*
X14300017Y-10454950D01*
X14290810Y-10458764D01*
X14290810Y-10458764D01*
X14014816Y-10734757D01*
X14009454Y-10737258D01*
X14003739Y-10735727D01*
X14000345Y-10730880D01*
X14000050Y-10728641D01*
X14000050Y-10604662D01*
X14002074Y-10599101D01*
X14007198Y-10596143D01*
X14013025Y-10597170D01*
X14013374Y-10597383D01*
X14018995Y-10600995D01*
X14032804Y-10605050D01*
X14047196Y-10605050D01*
X14061005Y-10600995D01*
X14073113Y-10593214D01*
X14074773Y-10591299D01*
X14082537Y-10582338D01*
X14082538Y-10582337D01*
X14082537Y-10582337D01*
X14082538Y-10582337D01*
X14088516Y-10569246D01*
X14090565Y-10555000D01*
X14088516Y-10540754D01*
X14082538Y-10527663D01*
X14082538Y-10527663D01*
X14082538Y-10527663D01*
X14082537Y-10527662D01*
X14073113Y-10516786D01*
X14073113Y-10516786D01*
X14073113Y-10516786D01*
X14069023Y-10514158D01*
X14065440Y-10509449D01*
X14065050Y-10506881D01*
X14065050Y-10337500D01*
X14117528Y-10337500D01*
X14118128Y-10340517D01*
X14118128Y-10340517D01*
X14123377Y-10348373D01*
X14123377Y-10348373D01*
X14131233Y-10353622D01*
X14131233Y-10353622D01*
X14138160Y-10355000D01*
X14138161Y-10355000D01*
X14165250Y-10355000D01*
X14165250Y-10355000D01*
X14165250Y-10337500D01*
X14190250Y-10337500D01*
X14190250Y-10355000D01*
X14190250Y-10355000D01*
X14217339Y-10355000D01*
X14217340Y-10355000D01*
X14224266Y-10353622D01*
X14224267Y-10353622D01*
X14232122Y-10348373D01*
X14232123Y-10348373D01*
X14237372Y-10340517D01*
X14237372Y-10340517D01*
X14237972Y-10337500D01*
X14190250Y-10337500D01*
X14190250Y-10337500D01*
X14165250Y-10337500D01*
X14165250Y-10337500D01*
X14117528Y-10337500D01*
X14065050Y-10337500D01*
X14065050Y-10312500D01*
X14117528Y-10312500D01*
X14165250Y-10312500D01*
X14165250Y-10312500D01*
X14165250Y-10287500D01*
X14190250Y-10287500D01*
X14190250Y-10312500D01*
X14190250Y-10312500D01*
X14237972Y-10312500D01*
X14237372Y-10309483D01*
X14237372Y-10309483D01*
X14234247Y-10304806D01*
X14232840Y-10299058D01*
X14234247Y-10295194D01*
X14237372Y-10290517D01*
X14237372Y-10290517D01*
X14237972Y-10287500D01*
X14190250Y-10287500D01*
X14190250Y-10287500D01*
X14165250Y-10287500D01*
X14165250Y-10287500D01*
X14117528Y-10287500D01*
X14118128Y-10290517D01*
X14118128Y-10290517D01*
X14121253Y-10295194D01*
X14122660Y-10300942D01*
X14121253Y-10304806D01*
X14118128Y-10309483D01*
X14118128Y-10309483D01*
X14117528Y-10312500D01*
X14065050Y-10312500D01*
X14065050Y-10262500D01*
X14117528Y-10262500D01*
X14165250Y-10262500D01*
X14165250Y-10262500D01*
X14165250Y-10237500D01*
X14190250Y-10237500D01*
X14190250Y-10262500D01*
X14190250Y-10262500D01*
X14237972Y-10262500D01*
X14237372Y-10259483D01*
X14237372Y-10259483D01*
X14234247Y-10254806D01*
X14232840Y-10249058D01*
X14234247Y-10245194D01*
X14237372Y-10240517D01*
X14237372Y-10240517D01*
X14237972Y-10237500D01*
X14190250Y-10237500D01*
X14190250Y-10237500D01*
X14165250Y-10237500D01*
X14165250Y-10237500D01*
X14117528Y-10237500D01*
X14118128Y-10240517D01*
X14118128Y-10240517D01*
X14121253Y-10245194D01*
X14122660Y-10250942D01*
X14121253Y-10254806D01*
X14118128Y-10259483D01*
X14118128Y-10259483D01*
X14117528Y-10262500D01*
X14065050Y-10262500D01*
X14065050Y-10212500D01*
X14117528Y-10212500D01*
X14165250Y-10212500D01*
X14165250Y-10212500D01*
X14165250Y-10187500D01*
X14190250Y-10187500D01*
X14190250Y-10212500D01*
X14190250Y-10212500D01*
X14237972Y-10212500D01*
X14237372Y-10209483D01*
X14237372Y-10209483D01*
X14234247Y-10204806D01*
X14232840Y-10199058D01*
X14234247Y-10195194D01*
X14237372Y-10190517D01*
X14237372Y-10190517D01*
X14237972Y-10187500D01*
X14190250Y-10187500D01*
X14190250Y-10187500D01*
X14165250Y-10187500D01*
X14165250Y-10187500D01*
X14117528Y-10187500D01*
X14118128Y-10190517D01*
X14118128Y-10190517D01*
X14121253Y-10195194D01*
X14122660Y-10200942D01*
X14121253Y-10204806D01*
X14118128Y-10209483D01*
X14118128Y-10209483D01*
X14117528Y-10212500D01*
X14065050Y-10212500D01*
X14065050Y-10162500D01*
X14117528Y-10162500D01*
X14165250Y-10162500D01*
X14165250Y-10162500D01*
X14165250Y-10145000D01*
X14190250Y-10145000D01*
X14190250Y-10162500D01*
X14190250Y-10162500D01*
X14237972Y-10162500D01*
X14237372Y-10159483D01*
X14237372Y-10159483D01*
X14232123Y-10151627D01*
X14232122Y-10151627D01*
X14224267Y-10146378D01*
X14224266Y-10146378D01*
X14217340Y-10145000D01*
X14190250Y-10145000D01*
X14190250Y-10145000D01*
X14165250Y-10145000D01*
X14165250Y-10145000D01*
X14138160Y-10145000D01*
X14131233Y-10146378D01*
X14131233Y-10146378D01*
X14123377Y-10151627D01*
X14123377Y-10151627D01*
X14118128Y-10159483D01*
X14118128Y-10159483D01*
X14117528Y-10162500D01*
X14065050Y-10162500D01*
X14065050Y-10098959D01*
X14067074Y-10093399D01*
X14067583Y-10092843D01*
X14080473Y-10079953D01*
X14081689Y-10078736D01*
X14081690Y-10078736D01*
X14107215Y-10053211D01*
X14110458Y-10051287D01*
X14110443Y-10051252D01*
X14110764Y-10051106D01*
X14110895Y-10051028D01*
X14110913Y-10051022D01*
X14111005Y-10050995D01*
X14123113Y-10043214D01*
X14123591Y-10042663D01*
X14132537Y-10032338D01*
X14132538Y-10032337D01*
X14132537Y-10032337D01*
X14132538Y-10032337D01*
X14138516Y-10019246D01*
X14140565Y-10005000D01*
X14138516Y-9990754D01*
X14132538Y-9977663D01*
X14132538Y-9977663D01*
X14132538Y-9977663D01*
X14132537Y-9977662D01*
X14123113Y-9966786D01*
X14123113Y-9966786D01*
X14111005Y-9959005D01*
X14097196Y-9954950D01*
X14082804Y-9954950D01*
X14068995Y-9959005D01*
X14056887Y-9966786D01*
X14056887Y-9966786D01*
X14047462Y-9977662D01*
X14047462Y-9977663D01*
X14041483Y-9990754D01*
X14040721Y-9996055D01*
X14039435Y-10005000D01*
X14041483Y-10019246D01*
X14047462Y-10032337D01*
X14047462Y-10032337D01*
X14047517Y-10032423D01*
X14047533Y-10032492D01*
X14047719Y-10032900D01*
X14047634Y-10032939D01*
X14048821Y-10038194D01*
X14046357Y-10043216D01*
X14046264Y-10043310D01*
X14046263Y-10043310D01*
X14033579Y-10055995D01*
X14018764Y-10070810D01*
X14016691Y-10075813D01*
X14012694Y-10080175D01*
X14006828Y-10080947D01*
X14001837Y-10077768D01*
X14000050Y-10072502D01*
X14000050Y-9993959D01*
X14002074Y-9988399D01*
X14002583Y-9987843D01*
X14242842Y-9747584D01*
X14248205Y-9745083D01*
X14248959Y-9745050D01*
X14453923Y-9745050D01*
X14458729Y-9746508D01*
G37*
%TD.AperFunction*%
%TA.AperFunction,Conductor*%
G36*
X13771261Y-9934273D02*
G01*
X13774655Y-9939120D01*
X13774950Y-9941359D01*
X13774950Y-10191041D01*
X13772926Y-10196601D01*
X13772416Y-10197157D01*
X13637157Y-10332417D01*
X13631795Y-10334917D01*
X13631041Y-10334950D01*
X13535990Y-10334950D01*
X13535990Y-10334950D01*
X13534983Y-10334950D01*
X13525017Y-10334950D01*
X13525017Y-10334950D01*
X13518740Y-10337550D01*
X13515810Y-10338764D01*
X13508763Y-10345810D01*
X13454316Y-10400257D01*
X13448954Y-10402758D01*
X13443238Y-10401227D01*
X13439845Y-10396380D01*
X13439550Y-10394141D01*
X13439550Y-10382965D01*
X13439322Y-10381236D01*
X13438931Y-10378261D01*
X13434117Y-10367938D01*
X13434116Y-10367937D01*
X13433948Y-10367697D01*
X13433871Y-10367412D01*
X13433797Y-10367252D01*
X13433825Y-10367239D01*
X13432416Y-10361981D01*
X13432961Y-10359628D01*
X13577815Y-9983336D01*
X13581701Y-9978874D01*
X13587546Y-9977954D01*
X13592615Y-9981006D01*
X13592666Y-9981070D01*
X13594479Y-9983358D01*
X13594480Y-9983358D01*
X13596883Y-9984985D01*
X13598408Y-9986018D01*
X13636025Y-10004855D01*
X13640508Y-10006408D01*
X13651307Y-10006709D01*
X13651894Y-10006726D01*
X13651894Y-10006726D01*
X13651895Y-10006726D01*
X13662703Y-10003130D01*
X13671630Y-9996055D01*
X13674290Y-9992126D01*
X13678763Y-9983193D01*
X13683062Y-9979128D01*
X13686497Y-9978417D01*
X13711616Y-9978417D01*
X13711616Y-9978417D01*
X13720823Y-9974603D01*
X13760183Y-9935242D01*
X13765546Y-9932742D01*
X13771261Y-9934273D01*
G37*
%TD.AperFunction*%
%TA.AperFunction,Conductor*%
G36*
X15151601Y-9282074D02*
G01*
X15152157Y-9282584D01*
X15224657Y-9355083D01*
X15297130Y-9427556D01*
X15297130Y-9427556D01*
X15304177Y-9434603D01*
X15307990Y-9436182D01*
X15307990Y-9436183D01*
X15307990Y-9436183D01*
X15313123Y-9438308D01*
X15314677Y-9439733D01*
X15318554Y-9438417D01*
X15324356Y-9438417D01*
X15324357Y-9438417D01*
X15443503Y-9438417D01*
X15449063Y-9440440D01*
X15451237Y-9443193D01*
X15455710Y-9452125D01*
X15455711Y-9452127D01*
X15456252Y-9452926D01*
X15458370Y-9456055D01*
X15467297Y-9463130D01*
X15478105Y-9466726D01*
X15478105Y-9466726D01*
X15478105Y-9466726D01*
X15478399Y-9466717D01*
X15489492Y-9466408D01*
X15493975Y-9464855D01*
X15520861Y-9451392D01*
X15531591Y-9446018D01*
X15531591Y-9446018D01*
X15531591Y-9446018D01*
X15531592Y-9446018D01*
X15535520Y-9443358D01*
X15541277Y-9436095D01*
X15546317Y-9432995D01*
X15552170Y-9433859D01*
X15555793Y-9437599D01*
X15737401Y-9800815D01*
X15738077Y-9806693D01*
X15734817Y-9811631D01*
X15729905Y-9813330D01*
X15720845Y-9813583D01*
X15720508Y-9813593D01*
X15718577Y-9814261D01*
X15716025Y-9815145D01*
X15716024Y-9815145D01*
X15678409Y-9833982D01*
X15678408Y-9833982D01*
X15674480Y-9836642D01*
X15667404Y-9845569D01*
X15667404Y-9845569D01*
X15663809Y-9856377D01*
X15663809Y-9856378D01*
X15664121Y-9867574D01*
X15662254Y-9873189D01*
X15657214Y-9876289D01*
X15651360Y-9875425D01*
X15649358Y-9873932D01*
X15482583Y-9707157D01*
X15480083Y-9701795D01*
X15480050Y-9701041D01*
X15480050Y-9620017D01*
X15479531Y-9618764D01*
X15476236Y-9610810D01*
X15469190Y-9603764D01*
X15324190Y-9458764D01*
X15315244Y-9455058D01*
X15313689Y-9453634D01*
X15309812Y-9454950D01*
X14946077Y-9454950D01*
X14941271Y-9453492D01*
X14938036Y-9451331D01*
X14938036Y-9451331D01*
X14931094Y-9449950D01*
X14931094Y-9449950D01*
X14858700Y-9449950D01*
X14853140Y-9447926D01*
X14850181Y-9442802D01*
X14850050Y-9441300D01*
X14850050Y-9368906D01*
X14850050Y-9368905D01*
X14849350Y-9365388D01*
X14848669Y-9361964D01*
X14847362Y-9360007D01*
X14846508Y-9358729D01*
X14845050Y-9353923D01*
X14845050Y-9308959D01*
X14847074Y-9303399D01*
X14847584Y-9302843D01*
X14867843Y-9282584D01*
X14873205Y-9280083D01*
X14873959Y-9280050D01*
X15146041Y-9280050D01*
X15151601Y-9282074D01*
G37*
%TD.AperFunction*%
%TA.AperFunction,Conductor*%
G36*
X13855900Y-9430796D02*
G01*
X13856855Y-9432779D01*
X13857404Y-9434431D01*
X13857404Y-9434431D01*
X13864479Y-9443358D01*
X13864480Y-9443358D01*
X13866883Y-9444985D01*
X13868408Y-9446018D01*
X13906025Y-9464855D01*
X13910508Y-9466408D01*
X13921307Y-9466709D01*
X13921894Y-9466726D01*
X13921894Y-9466726D01*
X13921895Y-9466726D01*
X13932703Y-9463130D01*
X13941630Y-9456055D01*
X13944290Y-9452126D01*
X13948763Y-9443193D01*
X13953062Y-9439128D01*
X13956497Y-9438417D01*
X14016446Y-9438417D01*
X14022006Y-9440440D01*
X14024965Y-9445564D01*
X14023937Y-9451392D01*
X14019756Y-9455058D01*
X14011666Y-9458409D01*
X14010810Y-9458764D01*
X13733764Y-9735810D01*
X13733764Y-9735810D01*
X13733764Y-9735810D01*
X13732313Y-9739313D01*
X13729950Y-9745017D01*
X13729950Y-9824162D01*
X13727926Y-9829722D01*
X13722802Y-9832681D01*
X13717427Y-9831896D01*
X13683975Y-9815145D01*
X13683975Y-9815145D01*
X13683975Y-9815145D01*
X13679492Y-9813593D01*
X13678872Y-9813575D01*
X13668105Y-9813274D01*
X13662247Y-9815223D01*
X13656332Y-9815058D01*
X13651908Y-9811129D01*
X13651044Y-9805276D01*
X13651808Y-9803092D01*
X13840938Y-9431585D01*
X13845264Y-9427549D01*
X13851173Y-9427237D01*
X13855900Y-9430796D01*
G37*
%TD.AperFunction*%
%TA.AperFunction,Conductor*%
G36*
X14126375Y-8892276D02*
G01*
X14127364Y-8894311D01*
X14127404Y-8894431D01*
X14127404Y-8894431D01*
X14134479Y-8903358D01*
X14134480Y-8903358D01*
X14136883Y-8904985D01*
X14138408Y-8906018D01*
X14176025Y-8924855D01*
X14180508Y-8926408D01*
X14191307Y-8926709D01*
X14191894Y-8926726D01*
X14191894Y-8926726D01*
X14191895Y-8926726D01*
X14202703Y-8923130D01*
X14211630Y-8916055D01*
X14214290Y-8912126D01*
X14218763Y-8903193D01*
X14223062Y-8899128D01*
X14226497Y-8898417D01*
X14264407Y-8898417D01*
X14269967Y-8900440D01*
X14270524Y-8900950D01*
X14592416Y-9222843D01*
X14594917Y-9228205D01*
X14594950Y-9228959D01*
X14594950Y-9303641D01*
X14592926Y-9309201D01*
X14587802Y-9312160D01*
X14581975Y-9311132D01*
X14580183Y-9309757D01*
X14579190Y-9308764D01*
X14579190Y-9308764D01*
X14569983Y-9304950D01*
X14409983Y-9304950D01*
X14400017Y-9304950D01*
X14398523Y-9305569D01*
X14390810Y-9308764D01*
X14313791Y-9385783D01*
X14308428Y-9388284D01*
X14307674Y-9388317D01*
X14133300Y-9388317D01*
X14127740Y-9386293D01*
X14124781Y-9381169D01*
X14125809Y-9375342D01*
X14126763Y-9374002D01*
X14127728Y-9372888D01*
X14132538Y-9367337D01*
X14138516Y-9354246D01*
X14140565Y-9340000D01*
X14140565Y-9340000D01*
X14140565Y-9340000D01*
X14139278Y-9331050D01*
X14140490Y-9325259D01*
X14141723Y-9323703D01*
X14307973Y-9157453D01*
X14307973Y-9157453D01*
X14309190Y-9156236D01*
X14309190Y-9156236D01*
X14316236Y-9149190D01*
X14320050Y-9139983D01*
X14320050Y-9123119D01*
X14322074Y-9117559D01*
X14324023Y-9115842D01*
X14328113Y-9113214D01*
X14337538Y-9102337D01*
X14343516Y-9089246D01*
X14345565Y-9075000D01*
X14343516Y-9060754D01*
X14337538Y-9047663D01*
X14337538Y-9047663D01*
X14337538Y-9047663D01*
X14337537Y-9047662D01*
X14328113Y-9036786D01*
X14328113Y-9036786D01*
X14316005Y-9029005D01*
X14302196Y-9024950D01*
X14287804Y-9024950D01*
X14273995Y-9029005D01*
X14261887Y-9036786D01*
X14261887Y-9036786D01*
X14252462Y-9047662D01*
X14252462Y-9047663D01*
X14246483Y-9060754D01*
X14244435Y-9075000D01*
X14246483Y-9089246D01*
X14252462Y-9102337D01*
X14252462Y-9102338D01*
X14261887Y-9113214D01*
X14261887Y-9113214D01*
X14264711Y-9115029D01*
X14268295Y-9119738D01*
X14268013Y-9125648D01*
X14266151Y-9128423D01*
X14106567Y-9288007D01*
X14101204Y-9290507D01*
X14098014Y-9290190D01*
X14097196Y-9289950D01*
X14082804Y-9289950D01*
X14068995Y-9294005D01*
X14056887Y-9301786D01*
X14056887Y-9301786D01*
X14047462Y-9312662D01*
X14047462Y-9312663D01*
X14041483Y-9325754D01*
X14039435Y-9340000D01*
X14041483Y-9354246D01*
X14047462Y-9367337D01*
X14053237Y-9374002D01*
X14055349Y-9379529D01*
X14053414Y-9385121D01*
X14048337Y-9388160D01*
X14046700Y-9388317D01*
X13985937Y-9388317D01*
X13980376Y-9386293D01*
X13977418Y-9381169D01*
X13978445Y-9375342D01*
X13980564Y-9372888D01*
X13983351Y-9370678D01*
X13985062Y-9369322D01*
X13987722Y-9365393D01*
X14004321Y-9332247D01*
X14005873Y-9327764D01*
X14006191Y-9316377D01*
X14002596Y-9305569D01*
X14000876Y-9303399D01*
X13995521Y-9296642D01*
X13995520Y-9296642D01*
X13992316Y-9294472D01*
X13991592Y-9293982D01*
X13953975Y-9275145D01*
X13949492Y-9273593D01*
X13948872Y-9273575D01*
X13938105Y-9273274D01*
X13938105Y-9273274D01*
X13937828Y-9273367D01*
X13937536Y-9273358D01*
X13937356Y-9273385D01*
X13937352Y-9273353D01*
X13931913Y-9273201D01*
X13927489Y-9269272D01*
X13926625Y-9263419D01*
X13927361Y-9261291D01*
X13965090Y-9185834D01*
X13969386Y-9181766D01*
X13975293Y-9181411D01*
X13976982Y-9182116D01*
X14007140Y-9198641D01*
X14025779Y-9208854D01*
X14029682Y-9213300D01*
X14030184Y-9215208D01*
X14031483Y-9224245D01*
X14031483Y-9224246D01*
X14037462Y-9237337D01*
X14037462Y-9237338D01*
X14046887Y-9248214D01*
X14046887Y-9248214D01*
X14046887Y-9248214D01*
X14058995Y-9255995D01*
X14072804Y-9260050D01*
X14087196Y-9260050D01*
X14101005Y-9255995D01*
X14113113Y-9248214D01*
X14122538Y-9237337D01*
X14128516Y-9224246D01*
X14130565Y-9210000D01*
X14128516Y-9195754D01*
X14122538Y-9182663D01*
X14122538Y-9182663D01*
X14122538Y-9182663D01*
X14122537Y-9182662D01*
X14113113Y-9171786D01*
X14113113Y-9171786D01*
X14101005Y-9164005D01*
X14087196Y-9159950D01*
X14072804Y-9159950D01*
X14058995Y-9164005D01*
X14058994Y-9164005D01*
X14058345Y-9164422D01*
X14052574Y-9165725D01*
X14049513Y-9164731D01*
X13998833Y-9136961D01*
X13994930Y-9132515D01*
X13994798Y-9126599D01*
X13995253Y-9125507D01*
X14111420Y-8893174D01*
X14115716Y-8889106D01*
X14121623Y-8888751D01*
X14126375Y-8892276D01*
G37*
%TD.AperFunction*%
%TA.AperFunction,Conductor*%
G36*
X15282170Y-8893859D02*
G01*
X15285793Y-8897599D01*
X15467401Y-9260815D01*
X15468077Y-9266693D01*
X15464817Y-9271631D01*
X15459905Y-9273330D01*
X15450845Y-9273583D01*
X15450508Y-9273593D01*
X15448386Y-9274328D01*
X15446025Y-9275145D01*
X15446024Y-9275145D01*
X15408409Y-9293982D01*
X15408408Y-9293982D01*
X15404480Y-9296642D01*
X15397404Y-9305569D01*
X15397404Y-9305569D01*
X15393809Y-9316377D01*
X15393809Y-9316378D01*
X15394127Y-9327763D01*
X15394127Y-9327764D01*
X15395679Y-9332246D01*
X15395679Y-9332246D01*
X15395679Y-9332247D01*
X15412277Y-9365393D01*
X15412278Y-9365394D01*
X15413429Y-9367094D01*
X15414937Y-9369322D01*
X15419436Y-9372888D01*
X15422537Y-9377927D01*
X15421672Y-9383781D01*
X15417248Y-9387709D01*
X15414063Y-9388317D01*
X15332325Y-9388317D01*
X15326765Y-9386293D01*
X15326209Y-9385783D01*
X15174190Y-9233764D01*
X15174190Y-9233764D01*
X15164983Y-9229950D01*
X14864983Y-9229950D01*
X14855017Y-9229950D01*
X14845810Y-9233764D01*
X14845810Y-9233764D01*
X14845023Y-9234090D01*
X14844933Y-9233873D01*
X14840312Y-9235003D01*
X14835005Y-9232385D01*
X14832623Y-9226969D01*
X14834280Y-9221289D01*
X14835137Y-9220289D01*
X15154476Y-8900950D01*
X15159839Y-8898449D01*
X15160592Y-8898417D01*
X15173503Y-8898417D01*
X15179063Y-8900440D01*
X15181237Y-8903193D01*
X15185710Y-8912125D01*
X15185711Y-8912127D01*
X15187533Y-8914818D01*
X15188370Y-8916055D01*
X15197297Y-8923130D01*
X15208105Y-8926726D01*
X15208105Y-8926726D01*
X15208105Y-8926726D01*
X15208399Y-8926717D01*
X15219492Y-8926408D01*
X15223975Y-8924855D01*
X15249396Y-8912125D01*
X15261591Y-8906018D01*
X15261591Y-8906018D01*
X15261591Y-8906018D01*
X15261592Y-8906018D01*
X15265520Y-8903358D01*
X15271277Y-8896095D01*
X15276317Y-8892995D01*
X15282170Y-8893859D01*
G37*
%TD.AperFunction*%
%TA.AperFunction,Conductor*%
G36*
X14396375Y-8352276D02*
G01*
X14397364Y-8354311D01*
X14397404Y-8354431D01*
X14397404Y-8354431D01*
X14404479Y-8363358D01*
X14404480Y-8363358D01*
X14406883Y-8364985D01*
X14408408Y-8366018D01*
X14446025Y-8384855D01*
X14450508Y-8386407D01*
X14458046Y-8386618D01*
X14462651Y-8386747D01*
X14462642Y-8387070D01*
X14467149Y-8387993D01*
X14468737Y-8389246D01*
X14632416Y-8552925D01*
X14634917Y-8558288D01*
X14634950Y-8559042D01*
X14634950Y-9173641D01*
X14632926Y-9179201D01*
X14627802Y-9182160D01*
X14621975Y-9181132D01*
X14620183Y-9179757D01*
X14292556Y-8852130D01*
X14292556Y-8852130D01*
X14283349Y-8848317D01*
X14283349Y-8848317D01*
X14255937Y-8848317D01*
X14250376Y-8846293D01*
X14247418Y-8841169D01*
X14248445Y-8835342D01*
X14250564Y-8832888D01*
X14254207Y-8830000D01*
X14255062Y-8829322D01*
X14257722Y-8825393D01*
X14274321Y-8792247D01*
X14275873Y-8787764D01*
X14276191Y-8776377D01*
X14272596Y-8765569D01*
X14265520Y-8756642D01*
X14265520Y-8756642D01*
X14265520Y-8756642D01*
X14261592Y-8753982D01*
X14261592Y-8753982D01*
X14223975Y-8735145D01*
X14219492Y-8733593D01*
X14218872Y-8733575D01*
X14208105Y-8733274D01*
X14208105Y-8733274D01*
X14207828Y-8733366D01*
X14207537Y-8733358D01*
X14207356Y-8733385D01*
X14207352Y-8733353D01*
X14201914Y-8733201D01*
X14197489Y-8729272D01*
X14196625Y-8723419D01*
X14197362Y-8721290D01*
X14197599Y-8720815D01*
X14381420Y-8353173D01*
X14385716Y-8349105D01*
X14391623Y-8348751D01*
X14396375Y-8352276D01*
G37*
%TD.AperFunction*%
%TD*%
M02*
