M48
; DRILL file {KiCad 8.0.3} date 2024-06-16T19:36:34+0200
; FORMAT={-:-/ absolute / metric / decimal}
; #@! TF.CreationDate,2024-06-16T19:36:34+02:00
; #@! TF.GenerationSoftware,Kicad,Pcbnew,8.0.3
; #@! TF.FileFunction,Plated,1,2,PTH
FMAT,2
METRIC
; #@! TA.AperFunction,Plated,PTH,ViaDrill
T1C0.300
; #@! TA.AperFunction,Plated,PTH,ComponentDrill
T2C4.300
%
G90
G05
T1
X136.2Y-101.65
X137.7Y-111.55
X138.5Y-95.4
X140.4Y-105.55
X140.8Y-92.1
X140.9Y-93.4
X140.9Y-100.05
X142.2Y-107.9
X142.35Y-93.15
X142.5Y-100.55
X142.95Y-90.75
X143.1Y-107.9
X143.55Y-124.5
X143.7Y-98.5
X143.75Y-91.8
X144.0Y-113.9
X144.2Y-100.1
X144.3Y-87.05
X144.55Y-104.15
X144.9Y-101.1
X145.9Y-101.2
X145.9Y-106.7
X146.4Y-127.4
X146.55Y-104.15
X146.6Y-120.9
X147.3Y-84.1
X147.3Y-128.85
X148.4Y-99.6
X148.85Y-107.35
X149.2Y-98.9
X149.4Y-89.15
X150.2Y-98.3
X150.25Y-117.75
X150.4Y-110.9
X150.45Y-115.9
X150.45Y-124.45
X150.5Y-121.0
X150.65Y-88.3
X150.7Y-103.5
X150.75Y-107.8
X150.9Y-106.85
X151.7Y-100.1
X151.95Y-90.8
X152.4Y-96.65
X152.55Y-111.4
X152.7Y-99.65
X152.85Y-106.1
X152.9Y-100.7
X154.15Y-101.55
X154.9Y-102.3
X155.75Y-96.9
X155.9Y-104.75
X159.4Y-106.0
X159.788Y-102.912
T2
X147.0Y-74.5
M30
