%TF.GenerationSoftware,KiCad,Pcbnew,8.0.3*%
%TF.CreationDate,2024-06-16T19:36:31+02:00*%
%TF.ProjectId,jewelled_lc1,6a657765-6c6c-4656-945f-6c63312e6b69,rev?*%
%TF.SameCoordinates,Original*%
%TF.FileFunction,Copper,L2,Bot*%
%TF.FilePolarity,Positive*%
%FSLAX45Y45*%
G04 Gerber Fmt 4.5, Leading zero omitted, Abs format (unit mm)*
G04 Created by KiCad (PCBNEW 8.0.3) date 2024-06-16 19:36:31*
%MOMM*%
%LPD*%
G01*
G04 APERTURE LIST*
G04 Aperture macros list*
%AMRotRect*
0 Rectangle, with rotation*
0 The origin of the aperture is its center*
0 $1 length*
0 $2 width*
0 $3 Rotation angle, in degrees counterclockwise*
0 Add horizontal line*
21,1,$1,$2,0,0,$3*%
%AMFreePoly0*
4,1,19,0.550000,-0.750000,0.000000,-0.750000,0.000000,-0.744911,-0.071158,-0.744911,-0.207708,-0.704816,-0.327430,-0.627875,-0.420627,-0.520320,-0.479746,-0.390866,-0.500000,-0.250000,-0.500000,0.250000,-0.479746,0.390866,-0.420627,0.520320,-0.327430,0.627875,-0.207708,0.704816,-0.071157,0.744911,0.000000,0.744911,0.000000,0.750000,0.550000,0.750000,0.550000,-0.750000,0.550000,-0.750000,
$1*%
%AMFreePoly1*
4,1,19,0.000000,0.744911,0.071158,0.744911,0.207708,0.704816,0.327430,0.627875,0.420627,0.520320,0.479746,0.390866,0.500000,0.250000,0.500000,-0.250000,0.479746,-0.390866,0.420627,-0.520320,0.327430,-0.627875,0.207708,-0.704816,0.071157,-0.744911,0.000000,-0.744911,0.000000,-0.750000,-0.550000,-0.750000,-0.550000,0.750000,0.000000,0.750000,0.000000,0.744911,0.000000,0.744911,
$1*%
%AMFreePoly2*
4,1,25,-1.750000,1.900000,0.350000,1.900000,0.498310,1.892122,0.731447,1.847033,0.953609,1.763193,1.158408,1.643012,1.339949,1.489949,1.493012,1.308408,1.613193,1.103609,1.697033,0.881447,1.742122,0.648310,1.750000,0.500000,1.750000,-0.500000,1.742122,-0.648310,1.697033,-0.881447,1.613193,-1.103609,1.493012,-1.308408,1.339949,-1.489949,1.158408,-1.643012,0.953609,-1.763193,
0.731447,-1.847033,0.498310,-1.892122,0.350000,-1.900000,-1.750000,-1.900000,-1.750000,1.900000,-1.750000,1.900000,$1*%
%AMFreePoly3*
4,1,19,0.500000,-0.750000,0.000000,-0.750000,0.000000,-0.744911,-0.071157,-0.744911,-0.207708,-0.704816,-0.327430,-0.627875,-0.420627,-0.520320,-0.479746,-0.390866,-0.500000,-0.250000,-0.500000,0.250000,-0.479746,0.390866,-0.420627,0.520320,-0.327430,0.627875,-0.207708,0.704816,-0.071157,0.744911,0.000000,0.744911,0.000000,0.750000,0.500000,0.750000,0.500000,-0.750000,0.500000,-0.750000,
$1*%
%AMFreePoly4*
4,1,19,0.000000,0.744911,0.071157,0.744911,0.207708,0.704816,0.327430,0.627875,0.420627,0.520320,0.479746,0.390866,0.500000,0.250000,0.500000,-0.250000,0.479746,-0.390866,0.420627,-0.520320,0.327430,-0.627875,0.207708,-0.704816,0.071157,-0.744911,0.000000,-0.744911,0.000000,-0.750000,-0.500000,-0.750000,-0.500000,0.750000,0.000000,0.750000,0.000000,0.744911,0.000000,0.744911,
$1*%
G04 Aperture macros list end*
%TA.AperFunction,ComponentPad*%
%ADD10C,4.700000*%
%TD*%
%TA.AperFunction,ConnectorPad*%
%ADD11C,7.500000*%
%TD*%
%TA.AperFunction,SMDPad,CuDef*%
%ADD12FreePoly0,296.600000*%
%TD*%
%TA.AperFunction,SMDPad,CuDef*%
%ADD13RotRect,1.000000X1.500000X296.600000*%
%TD*%
%TA.AperFunction,SMDPad,CuDef*%
%ADD14FreePoly1,296.600000*%
%TD*%
%TA.AperFunction,WasherPad*%
%ADD15C,1.200000*%
%TD*%
%TA.AperFunction,SMDPad,CuDef*%
%ADD16RotRect,0.600000X1.500000X116.600000*%
%TD*%
%TA.AperFunction,SMDPad,CuDef*%
%ADD17RotRect,1.000000X0.800000X116.600000*%
%TD*%
%TA.AperFunction,SMDPad,CuDef*%
%ADD18R,1.000000X0.700000*%
%TD*%
%TA.AperFunction,SMDPad,CuDef*%
%ADD19C,1.200000*%
%TD*%
%TA.AperFunction,SMDPad,CuDef*%
%ADD20FreePoly2,270.000000*%
%TD*%
%TA.AperFunction,SMDPad,CuDef*%
%ADD21R,2.800000X7.000000*%
%TD*%
%TA.AperFunction,SMDPad,CuDef*%
%ADD22FreePoly3,0.000000*%
%TD*%
%TA.AperFunction,SMDPad,CuDef*%
%ADD23FreePoly4,0.000000*%
%TD*%
%TA.AperFunction,ViaPad*%
%ADD24C,0.600000*%
%TD*%
%TA.AperFunction,Conductor*%
%ADD25C,0.150000*%
%TD*%
%TA.AperFunction,Conductor*%
%ADD26C,0.500000*%
%TD*%
G04 APERTURE END LIST*
D10*
%TO.P,H1,1,1*%
%TO.N,unconnected-(H1-Pad1)_0*%
X14700000Y-7450000D03*
D11*
%TO.N,unconnected-(H1-Pad1)_1*%
X14700000Y-7450000D03*
%TD*%
D12*
%TO.P,JP2,1,A*%
%TO.N,BM*%
X14961791Y-8411260D03*
D13*
%TO.P,JP2,2,C*%
%TO.N,GND*%
X15020000Y-8527500D03*
D14*
%TO.P,JP2,3,B*%
%TO.N,Net-(JP2-B)*%
X15078209Y-8643740D03*
%TD*%
D15*
%TO.P,SW3,*%
%TO.N,*%
X13667164Y-10824123D03*
X13532836Y-10555877D03*
D16*
%TO.P,SW3,1,A*%
%TO.N,unconnected-(SW3-A-Pad1)*%
X13805724Y-10698819D03*
%TO.P,SW3,2,B*%
%TO.N,/BATT+_CRG*%
X13760948Y-10609403D03*
%TO.P,SW3,3,C*%
%TO.N,VDD*%
X13716172Y-10519988D03*
D17*
%TO.P,SW3,4,B*%
%TO.N,GND*%
X13624777Y-10985146D03*
X13821491Y-10886639D03*
X13378509Y-10493361D03*
X13575223Y-10394854D03*
%TD*%
D18*
%TO.P,SW2,1,A*%
%TO.N,GND*%
X14480000Y-12215000D03*
X14930000Y-12215000D03*
%TO.P,SW2,2,B*%
%TO.N,BUT2*%
X14480000Y-12005000D03*
X14930000Y-12005000D03*
%TD*%
D19*
%TO.P,J1,1,Pin_1*%
%TO.N,MCU_TXD*%
X15448967Y-11605945D03*
%TO.P,J1,2,Pin_2*%
%TO.N,SWDIO*%
X15270136Y-11516393D03*
%TO.P,J1,3,Pin_3*%
%TO.N,MCU_RXD*%
X15359415Y-11784776D03*
%TO.P,J1,4,Pin_4*%
%TO.N,SWCLK*%
X15180585Y-11695224D03*
%TO.P,J1,5,Pin_5*%
%TO.N,GND*%
X15269864Y-11963607D03*
%TO.P,J1,6,Pin_6*%
%TO.N,+5V*%
X15091033Y-11874055D03*
%TD*%
D20*
%TO.P,BT1,1,+*%
%TO.N,/BATT+_CRG*%
X14702500Y-11202500D03*
D21*
%TO.P,BT1,2,-*%
%TO.N,BM*%
X14702500Y-8887500D03*
%TD*%
D22*
%TO.P,JP1,1,A*%
%TO.N,/BATT+_CRG*%
X14690000Y-11535000D03*
D23*
%TO.P,JP1,2,B*%
%TO.N,Net-(JP1-B)*%
X14820000Y-11535000D03*
%TD*%
D18*
%TO.P,SW1,1,A*%
%TO.N,GND*%
X14925000Y-12505000D03*
X14475000Y-12505000D03*
%TO.P,SW1,2,B*%
%TO.N,BUT1*%
X14925000Y-12715000D03*
X14475000Y-12715000D03*
%TD*%
D24*
%TO.N,BM*%
X14940000Y-8915000D03*
%TO.N,/BATT+_CRG*%
X14730000Y-8410000D03*
X14295000Y-9075000D03*
X14400000Y-11390000D03*
X14090000Y-10005000D03*
X14090000Y-9340000D03*
X14040000Y-10555000D03*
%TO.N,VAA*%
X14590000Y-10120000D03*
X15075000Y-10780000D03*
X15045000Y-12445000D03*
X14080000Y-9210000D03*
X14420000Y-10010000D03*
X15255000Y-11140000D03*
X14355000Y-12450000D03*
X14310000Y-10790000D03*
X15940000Y-10600000D03*
X15978788Y-10291212D03*
%TO.N,GND*%
X15240000Y-9665000D03*
X15575000Y-9690000D03*
X15070000Y-10350000D03*
X14375000Y-9180000D03*
X13620000Y-10165000D03*
X15590000Y-10475000D03*
X15285000Y-10610000D03*
X15050000Y-12100000D03*
X14235000Y-9315000D03*
X15090000Y-10685000D03*
X14590000Y-10670000D03*
X14220000Y-10790000D03*
X13770000Y-11155000D03*
X14250000Y-10055000D03*
X15195000Y-9080000D03*
X13850000Y-9540000D03*
X14430000Y-8705000D03*
X14730000Y-12885000D03*
%TO.N,+2V8*%
X15270000Y-9965000D03*
X14655000Y-10415000D03*
X14885000Y-10735000D03*
%TO.N,BUT1*%
X14640000Y-12740000D03*
%TO.N,BUT2*%
X14660000Y-12090000D03*
%TO.N,I2C_SCL*%
X14920000Y-9890000D03*
X14490000Y-10110000D03*
%TO.N,SWDIO*%
X15290000Y-10070000D03*
%TO.N,MCU_TXD*%
X15490000Y-10230000D03*
%TO.N,+5V*%
X15025000Y-11775000D03*
%TO.N,MCU_RXD*%
X15415000Y-10155000D03*
%TO.N,SWCLK*%
X15170000Y-10010000D03*
%TO.N,I2C_SDA*%
X14455000Y-10415000D03*
X14840000Y-9960000D03*
%TO.N,LED1_SDB*%
X14370000Y-9850000D03*
X15020000Y-9830000D03*
%TO.N,Net-(JP1-B)*%
X15045000Y-11590000D03*
%TO.N,Net-(JP2-B)*%
X15065000Y-8830000D03*
%TO.N,VDD*%
X15040000Y-11090000D03*
%TD*%
D25*
%TO.N,BM*%
X14912500Y-8887500D02*
X14940000Y-8915000D01*
X14702500Y-8887500D02*
X14912500Y-8887500D01*
X14702500Y-8887500D02*
X14702500Y-8670551D01*
X14702500Y-8670551D02*
X14961791Y-8411260D01*
%TO.N,/BATT+_CRG*%
X14295000Y-8620000D02*
X14490000Y-8425000D01*
X14690000Y-11535000D02*
X14690000Y-11215000D01*
X14415000Y-11375000D02*
X14415000Y-11202500D01*
X14295000Y-9075000D02*
X14295000Y-8620000D01*
X14040000Y-10570000D02*
X14040000Y-10555000D01*
X14505000Y-8410000D02*
X14730000Y-8410000D01*
X14490000Y-8425000D02*
X14505000Y-8410000D01*
D26*
X14010000Y-10600000D02*
X13960000Y-10550000D01*
X14415000Y-11202500D02*
X14212500Y-11202500D01*
D25*
X14090000Y-10005000D02*
X14090000Y-9340000D01*
D26*
X14040000Y-10630000D02*
X14010000Y-10600000D01*
X13960000Y-10550000D02*
X13870000Y-10550000D01*
D25*
X14010000Y-10600000D02*
X14040000Y-10570000D01*
X14400000Y-11390000D02*
X14415000Y-11375000D01*
D26*
X14040000Y-11030000D02*
X14040000Y-10630000D01*
X14212500Y-11202500D02*
X14040000Y-11030000D01*
D25*
X14690000Y-11215000D02*
X14702500Y-11202500D01*
D26*
X13870000Y-10550000D02*
X13760948Y-10609403D01*
X14702500Y-11202500D02*
X14415000Y-11202500D01*
%TO.N,VAA*%
X14400000Y-10880000D02*
X14975000Y-10880000D01*
D25*
X15040000Y-12545000D02*
X15045000Y-12540000D01*
X14355000Y-12450000D02*
X14355000Y-12555000D01*
D26*
X14310000Y-10790000D02*
X14400000Y-10880000D01*
D25*
X14340000Y-9300000D02*
X14340000Y-9710000D01*
X14355000Y-12555000D02*
X14410000Y-12610000D01*
X14480000Y-10010000D02*
X14420000Y-10010000D01*
X14270000Y-9962000D02*
X14420000Y-10010000D01*
X15045000Y-12540000D02*
X15045000Y-12445000D01*
X14340000Y-9710000D02*
X14270000Y-9780000D01*
X14410000Y-12610000D02*
X14975000Y-12610000D01*
X14975000Y-12610000D02*
X15040000Y-12545000D01*
X14250000Y-9210000D02*
X14340000Y-9300000D01*
D26*
X15255000Y-11140000D02*
X15255000Y-10960000D01*
D25*
X14270000Y-9780000D02*
X14270000Y-9962000D01*
X14590000Y-10120000D02*
X14480000Y-10010000D01*
X14080000Y-9210000D02*
X14250000Y-9210000D01*
D26*
X14310000Y-10790000D02*
X14310000Y-10599615D01*
D25*
X14380000Y-10270000D02*
X14389615Y-10520000D01*
X14420000Y-10010000D02*
X14380000Y-10270000D01*
D26*
X15255000Y-10960000D02*
X15075000Y-10780000D01*
X14310000Y-10599615D02*
X14389615Y-10520000D01*
D25*
X15978788Y-10291212D02*
X15940000Y-10600000D01*
D26*
X14975000Y-10880000D02*
X15075000Y-10780000D01*
D25*
%TO.N,GND*%
X14250000Y-10055000D02*
X14205000Y-10010000D01*
X14205000Y-9345000D02*
X14235000Y-9315000D01*
X14220000Y-10790000D02*
X14220000Y-10085000D01*
X14205000Y-10010000D02*
X14205000Y-9705000D01*
X15030000Y-8905000D02*
X15030000Y-9325000D01*
X15590000Y-10070000D02*
X15590000Y-10475000D01*
X15285000Y-10610000D02*
X15165000Y-10610000D01*
X15285000Y-10590000D02*
X15045000Y-10350000D01*
X15240000Y-9665000D02*
X15240000Y-9720000D01*
X14950000Y-8825000D02*
X15030000Y-8905000D01*
X15016317Y-10685000D02*
X15090000Y-10685000D01*
X14735000Y-10815000D02*
X14886317Y-10815000D01*
X14950000Y-8597500D02*
X14950000Y-8685000D01*
X15240000Y-9720000D02*
X15590000Y-10070000D01*
X14480000Y-12215000D02*
X14930000Y-12215000D01*
X13378509Y-10493361D02*
X13477016Y-10394854D01*
X14375000Y-9180000D02*
X14525000Y-9330000D01*
X14205000Y-9705000D02*
X14205000Y-9345000D01*
X14950000Y-8685000D02*
X14950000Y-8825000D01*
X15030000Y-9325000D02*
X15025000Y-9330000D01*
X15050000Y-12100000D02*
X15045000Y-12100000D01*
X15269864Y-11963607D02*
X15133470Y-12100000D01*
X15020000Y-8527500D02*
X14950000Y-8597500D01*
X14525000Y-9330000D02*
X15025000Y-9330000D01*
X13525000Y-10885369D02*
X13624777Y-10985146D01*
X13722984Y-10985146D02*
X13821491Y-10886639D01*
X14590000Y-10670000D02*
X14735000Y-10815000D01*
X13525000Y-10770000D02*
X13525000Y-10885369D01*
X15025000Y-9330000D02*
X15025000Y-9450000D01*
X13378509Y-10493361D02*
X13378509Y-10623509D01*
X13624777Y-10985146D02*
X13722984Y-10985146D01*
X14886317Y-10815000D02*
X15016317Y-10685000D01*
X14475000Y-12505000D02*
X14480000Y-12215000D01*
X13378509Y-10623509D02*
X13525000Y-10770000D01*
X15045000Y-12100000D02*
X14930000Y-12215000D01*
X14925000Y-12220000D02*
X14930000Y-12215000D01*
X15165000Y-10610000D02*
X15090000Y-10685000D01*
X13910146Y-10394854D02*
X14250000Y-10055000D01*
X13477016Y-10394854D02*
X13575223Y-10394854D01*
X13575223Y-10394854D02*
X13910146Y-10394854D01*
X15133470Y-12100000D02*
X15050000Y-12100000D01*
X14220000Y-10085000D02*
X14250000Y-10055000D01*
X15045000Y-10350000D02*
X15070000Y-10350000D01*
X15285000Y-10610000D02*
X15285000Y-10590000D01*
X14925000Y-12505000D02*
X14925000Y-12220000D01*
X15025000Y-9450000D02*
X15240000Y-9665000D01*
%TO.N,+2V8*%
X14885000Y-10735000D02*
X14885000Y-10295000D01*
X14950000Y-10095000D02*
X15092500Y-9952500D01*
X15257500Y-9952500D02*
X15270000Y-9965000D01*
X14950000Y-10230000D02*
X14950000Y-10095000D01*
X15092500Y-9952500D02*
X15257500Y-9952500D01*
X14885000Y-10295000D02*
X14950000Y-10230000D01*
X14765000Y-10415000D02*
X14655000Y-10415000D01*
X14885000Y-10295000D02*
X14765000Y-10415000D01*
%TO.N,BUT1*%
X14475000Y-12715000D02*
X14640000Y-12740000D01*
X14925000Y-12715000D02*
X14640000Y-12740000D01*
%TO.N,BUT2*%
X14575000Y-12005000D02*
X14660000Y-12090000D01*
X14745000Y-12005000D02*
X14660000Y-12090000D01*
X14930000Y-12005000D02*
X14745000Y-12005000D01*
X14480000Y-12005000D02*
X14575000Y-12005000D01*
%TO.N,I2C_SCL*%
X14690000Y-10200000D02*
X14760000Y-10130000D01*
X14490000Y-10160000D02*
X14530000Y-10200000D01*
X14760000Y-10130000D02*
X14760000Y-9930000D01*
X14530000Y-10200000D02*
X14690000Y-10200000D01*
X14490000Y-10110000D02*
X14490000Y-10160000D01*
X14800000Y-9890000D02*
X14920000Y-9890000D01*
X14760000Y-9930000D02*
X14800000Y-9890000D01*
%TO.N,SWDIO*%
X15290000Y-10365000D02*
X15290000Y-10070000D01*
X15270136Y-11516393D02*
X15410000Y-11376530D01*
X15410000Y-11376530D02*
X15410000Y-10485000D01*
X15410000Y-10485000D02*
X15290000Y-10365000D01*
%TO.N,MCU_TXD*%
X15490000Y-10230000D02*
X15490000Y-11564912D01*
X15490000Y-11564912D02*
X15448967Y-11605945D01*
D26*
%TO.N,+5V*%
X15091033Y-11841033D02*
X15025000Y-11775000D01*
X15091033Y-11874055D02*
X15091033Y-11841033D01*
D25*
%TO.N,MCU_RXD*%
X15359415Y-11535584D02*
X15450000Y-11445000D01*
X15450000Y-11445000D02*
X15450000Y-10455000D01*
X15415000Y-10420000D02*
X15422500Y-10427500D01*
X15415000Y-10155000D02*
X15415000Y-10420000D01*
X15450000Y-10455000D02*
X15422500Y-10427500D01*
X15359415Y-11784776D02*
X15359415Y-11535584D01*
%TO.N,SWCLK*%
X15115000Y-11629639D02*
X15115000Y-11470000D01*
X15350000Y-11235000D02*
X15350000Y-10480000D01*
X15350000Y-10480000D02*
X15170000Y-10300000D01*
X15180585Y-11695224D02*
X15115000Y-11629639D01*
X15170000Y-10300000D02*
X15170000Y-10010000D01*
X15115000Y-11470000D02*
X15350000Y-11235000D01*
%TO.N,I2C_SDA*%
X14840000Y-10180000D02*
X14840000Y-9960000D01*
X14760000Y-10260000D02*
X14840000Y-10180000D01*
X14610000Y-10260000D02*
X14760000Y-10260000D01*
X14455000Y-10415000D02*
X14610000Y-10260000D01*
%TO.N,LED1_SDB*%
X14750000Y-9780000D02*
X14970000Y-9780000D01*
X14970000Y-9780000D02*
X15020000Y-9830000D01*
X14370000Y-9850000D02*
X14440000Y-9780000D01*
X14440000Y-9780000D02*
X14750000Y-9780000D01*
%TO.N,Net-(JP1-B)*%
X14990000Y-11535000D02*
X14820000Y-11535000D01*
X15045000Y-11590000D02*
X14990000Y-11535000D01*
%TO.N,Net-(JP2-B)*%
X15065000Y-8830000D02*
X15065000Y-8810000D01*
X15065000Y-8810000D02*
X15078209Y-8796791D01*
X15078209Y-8796791D02*
X15078209Y-8643740D01*
D26*
%TO.N,VDD*%
X14130000Y-10910000D02*
X14130000Y-10505000D01*
X14190000Y-10970000D02*
X14130000Y-10910000D01*
X14085000Y-10460000D02*
X13830000Y-10460000D01*
X15040000Y-11090000D02*
X15040000Y-11010000D01*
X15040000Y-11010000D02*
X15000000Y-10970000D01*
X14130000Y-10505000D02*
X14085000Y-10460000D01*
X15000000Y-10970000D02*
X14190000Y-10970000D01*
X13830000Y-10460000D02*
X13716172Y-10519988D01*
%TD*%
%TA.AperFunction,Conductor*%
%TO.N,GND*%
G36*
X14854333Y-12748376D02*
G01*
X14857728Y-12753222D01*
X14857857Y-12753776D01*
X14858468Y-12756847D01*
X14858468Y-12756848D01*
X14862347Y-12762653D01*
X14862347Y-12762653D01*
X14868152Y-12766532D01*
X14868698Y-12766640D01*
X14873271Y-12767550D01*
X14873271Y-12767550D01*
X14873272Y-12767550D01*
X14873272Y-12767550D01*
X14976728Y-12767550D01*
X14976728Y-12767550D01*
X14981302Y-12766640D01*
X14987150Y-12767540D01*
X14991051Y-12771989D01*
X14991180Y-12777904D01*
X14990726Y-12778992D01*
X14845759Y-13068928D01*
X14845759Y-13068928D01*
X14843206Y-13074034D01*
X14842900Y-13074593D01*
X14831328Y-13094013D01*
X14830597Y-13095057D01*
X14816500Y-13112318D01*
X14815624Y-13113243D01*
X14799143Y-13128247D01*
X14798141Y-13129032D01*
X14786668Y-13136732D01*
X14779635Y-13141452D01*
X14778527Y-13142082D01*
X14758398Y-13151647D01*
X14757210Y-13152108D01*
X14735893Y-13158612D01*
X14734650Y-13158893D01*
X14712609Y-13162194D01*
X14711338Y-13162290D01*
X14689052Y-13162317D01*
X14687781Y-13162225D01*
X14665732Y-13158977D01*
X14664488Y-13158699D01*
X14643156Y-13152247D01*
X14641967Y-13151790D01*
X14621813Y-13142273D01*
X14620705Y-13141646D01*
X14620413Y-13141452D01*
X14602169Y-13129273D01*
X14601164Y-13128489D01*
X14584647Y-13113526D01*
X14583768Y-13112603D01*
X14582150Y-13110631D01*
X14577376Y-13104815D01*
X14569629Y-13095376D01*
X14568895Y-13094334D01*
X14557278Y-13074945D01*
X14556961Y-13074367D01*
X14554361Y-13069168D01*
X14409273Y-12778992D01*
X14408597Y-12773114D01*
X14411857Y-12768176D01*
X14417529Y-12766489D01*
X14418697Y-12766640D01*
X14423272Y-12767550D01*
X14423272Y-12767550D01*
X14526728Y-12767550D01*
X14526728Y-12767550D01*
X14531848Y-12766532D01*
X14537653Y-12762653D01*
X14541532Y-12756848D01*
X14541532Y-12756848D01*
X14542005Y-12756139D01*
X14542178Y-12756255D01*
X14545443Y-12752691D01*
X14550734Y-12751811D01*
X14588690Y-12757562D01*
X14593884Y-12760395D01*
X14595262Y-12762520D01*
X14597462Y-12767337D01*
X14597462Y-12767337D01*
X14597462Y-12767338D01*
X14606887Y-12778214D01*
X14606887Y-12778214D01*
X14606887Y-12778214D01*
X14618995Y-12785995D01*
X14632804Y-12790050D01*
X14647196Y-12790050D01*
X14661005Y-12785995D01*
X14673113Y-12778214D01*
X14673381Y-12777904D01*
X14682537Y-12767338D01*
X14682537Y-12767337D01*
X14682538Y-12767337D01*
X14683262Y-12765751D01*
X14687412Y-12761534D01*
X14690374Y-12760727D01*
X14848618Y-12746846D01*
X14854333Y-12748376D01*
G37*
%TD.AperFunction*%
%TA.AperFunction,Conductor*%
G36*
X14741793Y-6991971D02*
G01*
X14742582Y-6992044D01*
X14781133Y-6997389D01*
X14783628Y-6997735D01*
X14784409Y-6997880D01*
X14791116Y-6999448D01*
X14824760Y-7007312D01*
X14825522Y-7007528D01*
X14851978Y-7016339D01*
X14864838Y-7020622D01*
X14865579Y-7020907D01*
X14903528Y-7037552D01*
X14904240Y-7037904D01*
X14940501Y-7057959D01*
X14941178Y-7058374D01*
X14975448Y-7081672D01*
X14976083Y-7082148D01*
X15008071Y-7108489D01*
X15008660Y-7109022D01*
X15038097Y-7138186D01*
X15038635Y-7138771D01*
X15065273Y-7170513D01*
X15065755Y-7171144D01*
X15089369Y-7205196D01*
X15089791Y-7205869D01*
X15110182Y-7241942D01*
X15110540Y-7242651D01*
X15127537Y-7280443D01*
X15127829Y-7281182D01*
X15141287Y-7320374D01*
X15141510Y-7321136D01*
X15151317Y-7361397D01*
X15151469Y-7362177D01*
X15157541Y-7403167D01*
X15157621Y-7403957D01*
X15159908Y-7445332D01*
X15159915Y-7446126D01*
X15158397Y-7487537D01*
X15158332Y-7488328D01*
X15153022Y-7529424D01*
X15152884Y-7530207D01*
X15143827Y-7570643D01*
X15143618Y-7571409D01*
X15130890Y-7610845D01*
X15130611Y-7611589D01*
X15114320Y-7649689D01*
X15113975Y-7650404D01*
X15094257Y-7686851D01*
X15093848Y-7687531D01*
X15070870Y-7722015D01*
X15070400Y-7722655D01*
X15044356Y-7754887D01*
X15043829Y-7755481D01*
X15014798Y-7785332D01*
X15014515Y-7785610D01*
X15010041Y-7789806D01*
X15009997Y-7789854D01*
X15004460Y-7795048D01*
X15004459Y-7795049D01*
X14986409Y-7816437D01*
X14970966Y-7839778D01*
X14958340Y-7864754D01*
X14958340Y-7864755D01*
X14948701Y-7891031D01*
X14942181Y-7918248D01*
X14942181Y-7918248D01*
X14938868Y-7946038D01*
X14938807Y-7974026D01*
X14941997Y-8001830D01*
X14948398Y-8029076D01*
X14957920Y-8055394D01*
X14961590Y-8062733D01*
X14961592Y-8062739D01*
X14962091Y-8063737D01*
X14962166Y-8064390D01*
X14964059Y-8067702D01*
X14964285Y-8068126D01*
X16119328Y-10378211D01*
X16119567Y-10378732D01*
X16127429Y-10397462D01*
X16127802Y-10398545D01*
X16133045Y-10417872D01*
X16133271Y-10418994D01*
X16135916Y-10438844D01*
X16135992Y-10439987D01*
X16135992Y-10460013D01*
X16135916Y-10461155D01*
X16133271Y-10481005D01*
X16133045Y-10482128D01*
X16127802Y-10501455D01*
X16127429Y-10502538D01*
X16119569Y-10521264D01*
X16119330Y-10521785D01*
X15008937Y-12742571D01*
X15004640Y-12746640D01*
X14998734Y-12746994D01*
X14993981Y-12743469D01*
X14992550Y-12738703D01*
X14992550Y-12678272D01*
X14992550Y-12678271D01*
X14991532Y-12673152D01*
X14991531Y-12673152D01*
X14987653Y-12667347D01*
X14987653Y-12667347D01*
X14981848Y-12663468D01*
X14981847Y-12663468D01*
X14976729Y-12662450D01*
X14976728Y-12662450D01*
X14873272Y-12662450D01*
X14873271Y-12662450D01*
X14868152Y-12663468D01*
X14868152Y-12663468D01*
X14862347Y-12667347D01*
X14862347Y-12667347D01*
X14858468Y-12673152D01*
X14858468Y-12673152D01*
X14857450Y-12678271D01*
X14857450Y-12687855D01*
X14855426Y-12693415D01*
X14850302Y-12696373D01*
X14849556Y-12696472D01*
X14685698Y-12710845D01*
X14679982Y-12709315D01*
X14678405Y-12707893D01*
X14673113Y-12701786D01*
X14673113Y-12701786D01*
X14661005Y-12694005D01*
X14647196Y-12689950D01*
X14632804Y-12689950D01*
X14618995Y-12694005D01*
X14606887Y-12701786D01*
X14603987Y-12705133D01*
X14598816Y-12708010D01*
X14596154Y-12708021D01*
X14549904Y-12701013D01*
X14544710Y-12698179D01*
X14542552Y-12692670D01*
X14542550Y-12692461D01*
X14542550Y-12678272D01*
X14542550Y-12678271D01*
X14541532Y-12673152D01*
X14541531Y-12673152D01*
X14537653Y-12667347D01*
X14537653Y-12667347D01*
X14531848Y-12663468D01*
X14531847Y-12663468D01*
X14526729Y-12662450D01*
X14526728Y-12662450D01*
X14423272Y-12662450D01*
X14423271Y-12662450D01*
X14418152Y-12663468D01*
X14418152Y-12663468D01*
X14412347Y-12667347D01*
X14412347Y-12667347D01*
X14408468Y-12673152D01*
X14408468Y-12673152D01*
X14407450Y-12678271D01*
X14407450Y-12738703D01*
X14405426Y-12744263D01*
X14400302Y-12747222D01*
X14394475Y-12746194D01*
X14391063Y-12742572D01*
X14244777Y-12450000D01*
X14304435Y-12450000D01*
X14306483Y-12464246D01*
X14312462Y-12477337D01*
X14312462Y-12477338D01*
X14321887Y-12488214D01*
X14321887Y-12488214D01*
X14321887Y-12488214D01*
X14322170Y-12488396D01*
X14325976Y-12490842D01*
X14329560Y-12495551D01*
X14329950Y-12498119D01*
X14329950Y-12550017D01*
X14329950Y-12559983D01*
X14333764Y-12569190D01*
X14388764Y-12624190D01*
X14395810Y-12631236D01*
X14405017Y-12635050D01*
X14405017Y-12635050D01*
X14979983Y-12635050D01*
X14979983Y-12635050D01*
X14989190Y-12631236D01*
X15052973Y-12567453D01*
X15052973Y-12567453D01*
X15054190Y-12566236D01*
X15054190Y-12566236D01*
X15056557Y-12563869D01*
X15059190Y-12561236D01*
X15063942Y-12556484D01*
X15066236Y-12554190D01*
X15067979Y-12549983D01*
X15070050Y-12544983D01*
X15070050Y-12535017D01*
X15070050Y-12534321D01*
X15070050Y-12534319D01*
X15070050Y-12493119D01*
X15072074Y-12487559D01*
X15074023Y-12485842D01*
X15078113Y-12483214D01*
X15078113Y-12483214D01*
X15087537Y-12472338D01*
X15087538Y-12472337D01*
X15087537Y-12472337D01*
X15087538Y-12472337D01*
X15093516Y-12459246D01*
X15095565Y-12445000D01*
X15093516Y-12430754D01*
X15087538Y-12417663D01*
X15087538Y-12417663D01*
X15087538Y-12417662D01*
X15087537Y-12417662D01*
X15078113Y-12406786D01*
X15078113Y-12406786D01*
X15066005Y-12399005D01*
X15052196Y-12394950D01*
X15037804Y-12394950D01*
X15023995Y-12399005D01*
X15011887Y-12406786D01*
X15011887Y-12406786D01*
X15002462Y-12417662D01*
X15002462Y-12417662D01*
X14996483Y-12430754D01*
X14994435Y-12445000D01*
X14994435Y-12445619D01*
X14994155Y-12445619D01*
X14993160Y-12450365D01*
X14988508Y-12454022D01*
X14982594Y-12453832D01*
X14982502Y-12453794D01*
X14981828Y-12453515D01*
X14976724Y-12452500D01*
X14937500Y-12452500D01*
X14937500Y-12452500D01*
X14937500Y-12492500D01*
X14937500Y-12492500D01*
X14992500Y-12492500D01*
X14992500Y-12492500D01*
X14992500Y-12484032D01*
X14994524Y-12478472D01*
X14999648Y-12475513D01*
X15005475Y-12476541D01*
X15007687Y-12478367D01*
X15009527Y-12480490D01*
X15011887Y-12483214D01*
X15015976Y-12485842D01*
X15019560Y-12490551D01*
X15019950Y-12493119D01*
X15019950Y-12526041D01*
X15017926Y-12531601D01*
X15017416Y-12532157D01*
X15007266Y-12542307D01*
X15001904Y-12544808D01*
X14996189Y-12543277D01*
X14992795Y-12538430D01*
X14992500Y-12536191D01*
X14992500Y-12517500D01*
X14992500Y-12517500D01*
X14937500Y-12517500D01*
X14937500Y-12517500D01*
X14937500Y-12557500D01*
X14937500Y-12557500D01*
X14971191Y-12557500D01*
X14976751Y-12559524D01*
X14979709Y-12564648D01*
X14978682Y-12570475D01*
X14977307Y-12572266D01*
X14967157Y-12582416D01*
X14961795Y-12584917D01*
X14961041Y-12584950D01*
X14423959Y-12584950D01*
X14418399Y-12582926D01*
X14417843Y-12582416D01*
X14401131Y-12565705D01*
X14400735Y-12564856D01*
X14400296Y-12564728D01*
X14399295Y-12563869D01*
X14382583Y-12547157D01*
X14380083Y-12541795D01*
X14380050Y-12541041D01*
X14380050Y-12517500D01*
X14407500Y-12517500D01*
X14407500Y-12541724D01*
X14408515Y-12546828D01*
X14408515Y-12546828D01*
X14412383Y-12552617D01*
X14418171Y-12556484D01*
X14418172Y-12556485D01*
X14423276Y-12557500D01*
X14423277Y-12557500D01*
X14462500Y-12557500D01*
X14462500Y-12557500D01*
X14462500Y-12517500D01*
X14487500Y-12517500D01*
X14487500Y-12557500D01*
X14487500Y-12557500D01*
X14526723Y-12557500D01*
X14526724Y-12557500D01*
X14531828Y-12556485D01*
X14531828Y-12556484D01*
X14537616Y-12552617D01*
X14537617Y-12552616D01*
X14541484Y-12546828D01*
X14541485Y-12546828D01*
X14542500Y-12541724D01*
X14542500Y-12541723D01*
X14542500Y-12517500D01*
X14857500Y-12517500D01*
X14857500Y-12541724D01*
X14858515Y-12546828D01*
X14858515Y-12546828D01*
X14862383Y-12552616D01*
X14862383Y-12552617D01*
X14868171Y-12556484D01*
X14868172Y-12556485D01*
X14873276Y-12557500D01*
X14873277Y-12557500D01*
X14912500Y-12557500D01*
X14912500Y-12557500D01*
X14912500Y-12517500D01*
X14912500Y-12517500D01*
X14857500Y-12517500D01*
X14857500Y-12517500D01*
X14542500Y-12517500D01*
X14542500Y-12517500D01*
X14487500Y-12517500D01*
X14487500Y-12517500D01*
X14462500Y-12517500D01*
X14462500Y-12517500D01*
X14407500Y-12517500D01*
X14407500Y-12517500D01*
X14380050Y-12517500D01*
X14380050Y-12498119D01*
X14382074Y-12492559D01*
X14384023Y-12490842D01*
X14386841Y-12489032D01*
X14388113Y-12488214D01*
X14392313Y-12483367D01*
X14397483Y-12480490D01*
X14403293Y-12481610D01*
X14407024Y-12486203D01*
X14407500Y-12489032D01*
X14407500Y-12492500D01*
X14407500Y-12492500D01*
X14462500Y-12492500D01*
X14462500Y-12492500D01*
X14462500Y-12452500D01*
X14487500Y-12452500D01*
X14487500Y-12492500D01*
X14487500Y-12492500D01*
X14542500Y-12492500D01*
X14542500Y-12492500D01*
X14542500Y-12468277D01*
X14542500Y-12468276D01*
X14857500Y-12468276D01*
X14857500Y-12492500D01*
X14857500Y-12492500D01*
X14912500Y-12492500D01*
X14912500Y-12492500D01*
X14912500Y-12452500D01*
X14912500Y-12452500D01*
X14873276Y-12452500D01*
X14868172Y-12453515D01*
X14868171Y-12453515D01*
X14862383Y-12457383D01*
X14862383Y-12457383D01*
X14858515Y-12463171D01*
X14858515Y-12463172D01*
X14857500Y-12468276D01*
X14542500Y-12468276D01*
X14541485Y-12463172D01*
X14541484Y-12463171D01*
X14537617Y-12457383D01*
X14537616Y-12457383D01*
X14531828Y-12453515D01*
X14531828Y-12453515D01*
X14526724Y-12452500D01*
X14487500Y-12452500D01*
X14487500Y-12452500D01*
X14462500Y-12452500D01*
X14462500Y-12452500D01*
X14423276Y-12452500D01*
X14418172Y-12453515D01*
X14417385Y-12453841D01*
X14417275Y-12453577D01*
X14412796Y-12454672D01*
X14407490Y-12452054D01*
X14405177Y-12447305D01*
X14403516Y-12435754D01*
X14397538Y-12422663D01*
X14397538Y-12422663D01*
X14397538Y-12422662D01*
X14397537Y-12422662D01*
X14388113Y-12411786D01*
X14388113Y-12411786D01*
X14376005Y-12404005D01*
X14362196Y-12399950D01*
X14347804Y-12399950D01*
X14333995Y-12404005D01*
X14321887Y-12411786D01*
X14321887Y-12411786D01*
X14312462Y-12422662D01*
X14312462Y-12422662D01*
X14306483Y-12435754D01*
X14304435Y-12450000D01*
X14244777Y-12450000D01*
X14133527Y-12227500D01*
X14412500Y-12227500D01*
X14412500Y-12251724D01*
X14413515Y-12256828D01*
X14413515Y-12256828D01*
X14417383Y-12262616D01*
X14417383Y-12262617D01*
X14423171Y-12266484D01*
X14423172Y-12266485D01*
X14428276Y-12267500D01*
X14428277Y-12267500D01*
X14467500Y-12267500D01*
X14467500Y-12267500D01*
X14467500Y-12227500D01*
X14492500Y-12227500D01*
X14492500Y-12267500D01*
X14492500Y-12267500D01*
X14531723Y-12267500D01*
X14531724Y-12267500D01*
X14536828Y-12266485D01*
X14536828Y-12266484D01*
X14542616Y-12262617D01*
X14542617Y-12262616D01*
X14546484Y-12256828D01*
X14546485Y-12256828D01*
X14547500Y-12251724D01*
X14547500Y-12251723D01*
X14547500Y-12227500D01*
X14862500Y-12227500D01*
X14862500Y-12251724D01*
X14863515Y-12256828D01*
X14863515Y-12256828D01*
X14867383Y-12262616D01*
X14867383Y-12262617D01*
X14873171Y-12266484D01*
X14873172Y-12266485D01*
X14878276Y-12267500D01*
X14878277Y-12267500D01*
X14917500Y-12267500D01*
X14917500Y-12267500D01*
X14917500Y-12227500D01*
X14942500Y-12227500D01*
X14942500Y-12267500D01*
X14942500Y-12267500D01*
X14981723Y-12267500D01*
X14981724Y-12267500D01*
X14986828Y-12266485D01*
X14986828Y-12266484D01*
X14992616Y-12262617D01*
X14992617Y-12262616D01*
X14996484Y-12256828D01*
X14996485Y-12256828D01*
X14997500Y-12251724D01*
X14997500Y-12251723D01*
X14997500Y-12227500D01*
X14997500Y-12227500D01*
X14942500Y-12227500D01*
X14942500Y-12227500D01*
X14917500Y-12227500D01*
X14917500Y-12227500D01*
X14862500Y-12227500D01*
X14862500Y-12227500D01*
X14547500Y-12227500D01*
X14547500Y-12227500D01*
X14492500Y-12227500D01*
X14492500Y-12227500D01*
X14467500Y-12227500D01*
X14467500Y-12227500D01*
X14412500Y-12227500D01*
X14412500Y-12227500D01*
X14133527Y-12227500D01*
X14108915Y-12178276D01*
X14412500Y-12178276D01*
X14412500Y-12202500D01*
X14412500Y-12202500D01*
X14467500Y-12202500D01*
X14467500Y-12202500D01*
X14467500Y-12162500D01*
X14492500Y-12162500D01*
X14492500Y-12202500D01*
X14492500Y-12202500D01*
X14547500Y-12202500D01*
X14547500Y-12202500D01*
X14547500Y-12178277D01*
X14547500Y-12178276D01*
X14862500Y-12178276D01*
X14862500Y-12202500D01*
X14862500Y-12202500D01*
X14917500Y-12202500D01*
X14917500Y-12202500D01*
X14917500Y-12162500D01*
X14942500Y-12162500D01*
X14942500Y-12202500D01*
X14942500Y-12202500D01*
X14997500Y-12202500D01*
X14997500Y-12202500D01*
X14997500Y-12178277D01*
X14997500Y-12178276D01*
X14996485Y-12173172D01*
X14996484Y-12173171D01*
X14992617Y-12167383D01*
X14992616Y-12167383D01*
X14986828Y-12163515D01*
X14986828Y-12163515D01*
X14981724Y-12162500D01*
X14942500Y-12162500D01*
X14942500Y-12162500D01*
X14917500Y-12162500D01*
X14917500Y-12162500D01*
X14878276Y-12162500D01*
X14873172Y-12163515D01*
X14873171Y-12163515D01*
X14867383Y-12167383D01*
X14867383Y-12167383D01*
X14863515Y-12173171D01*
X14863515Y-12173172D01*
X14862500Y-12178276D01*
X14547500Y-12178276D01*
X14546485Y-12173172D01*
X14546484Y-12173171D01*
X14542617Y-12167383D01*
X14542616Y-12167383D01*
X14536828Y-12163515D01*
X14536828Y-12163515D01*
X14531724Y-12162500D01*
X14492500Y-12162500D01*
X14492500Y-12162500D01*
X14467500Y-12162500D01*
X14467500Y-12162500D01*
X14428276Y-12162500D01*
X14423172Y-12163515D01*
X14423171Y-12163515D01*
X14417383Y-12167383D01*
X14417383Y-12167383D01*
X14413515Y-12173171D01*
X14413515Y-12173172D01*
X14412500Y-12178276D01*
X14108915Y-12178276D01*
X14003913Y-11968271D01*
X14412450Y-11968271D01*
X14412450Y-12041729D01*
X14413468Y-12046847D01*
X14413468Y-12046848D01*
X14417347Y-12052653D01*
X14417347Y-12052653D01*
X14423152Y-12056532D01*
X14425747Y-12057048D01*
X14428271Y-12057550D01*
X14428271Y-12057550D01*
X14428272Y-12057550D01*
X14428272Y-12057550D01*
X14531728Y-12057550D01*
X14531728Y-12057550D01*
X14536848Y-12056532D01*
X14542653Y-12052653D01*
X14546532Y-12046848D01*
X14547550Y-12041728D01*
X14547550Y-12038700D01*
X14549574Y-12033140D01*
X14554698Y-12030181D01*
X14556200Y-12030050D01*
X14561041Y-12030050D01*
X14566601Y-12032074D01*
X14567157Y-12032583D01*
X14608276Y-12073703D01*
X14610777Y-12079065D01*
X14610722Y-12081050D01*
X14609435Y-12090000D01*
X14611483Y-12104246D01*
X14617462Y-12117337D01*
X14617462Y-12117338D01*
X14626887Y-12128214D01*
X14626887Y-12128214D01*
X14626887Y-12128214D01*
X14638995Y-12135995D01*
X14652804Y-12140050D01*
X14667196Y-12140050D01*
X14681005Y-12135995D01*
X14693113Y-12128214D01*
X14702538Y-12117337D01*
X14708516Y-12104246D01*
X14710565Y-12090000D01*
X14710565Y-12090000D01*
X14710565Y-12090000D01*
X14709278Y-12081050D01*
X14710490Y-12075259D01*
X14711723Y-12073703D01*
X14752842Y-12032583D01*
X14758205Y-12030083D01*
X14758959Y-12030050D01*
X14853800Y-12030050D01*
X14859360Y-12032074D01*
X14862319Y-12037198D01*
X14862450Y-12038700D01*
X14862450Y-12041729D01*
X14863468Y-12046847D01*
X14863468Y-12046848D01*
X14867347Y-12052653D01*
X14867347Y-12052653D01*
X14873152Y-12056532D01*
X14875747Y-12057048D01*
X14878271Y-12057550D01*
X14878271Y-12057550D01*
X14878272Y-12057550D01*
X14878272Y-12057550D01*
X14981728Y-12057550D01*
X14981728Y-12057550D01*
X14986848Y-12056532D01*
X14992653Y-12052653D01*
X14996532Y-12046848D01*
X14997550Y-12041728D01*
X14997550Y-11999686D01*
X15201005Y-11999686D01*
X15208888Y-12012233D01*
X15221237Y-12024582D01*
X15236025Y-12033874D01*
X15252509Y-12039642D01*
X15269864Y-12041597D01*
X15269864Y-12041597D01*
X15282173Y-12040210D01*
X15282173Y-12040210D01*
X15261948Y-11979413D01*
X15201005Y-11999686D01*
X14997550Y-11999686D01*
X14997550Y-11968272D01*
X14996622Y-11963606D01*
X15191873Y-11963606D01*
X15191873Y-11963607D01*
X15193260Y-11975916D01*
X15193260Y-11975916D01*
X15206468Y-11971522D01*
X15285670Y-11971522D01*
X15305943Y-12032465D01*
X15318490Y-12024582D01*
X15330839Y-12012233D01*
X15340131Y-11997445D01*
X15345899Y-11980961D01*
X15347854Y-11963607D01*
X15347854Y-11963607D01*
X15346467Y-11951298D01*
X15346467Y-11951298D01*
X15285670Y-11971522D01*
X15206468Y-11971522D01*
X15254057Y-11955691D01*
X15233784Y-11894748D01*
X15221238Y-11902631D01*
X15221237Y-11902631D01*
X15208888Y-11914980D01*
X15199597Y-11929768D01*
X15193829Y-11946252D01*
X15191873Y-11963606D01*
X14996622Y-11963606D01*
X14996532Y-11963152D01*
X14992653Y-11957347D01*
X14992653Y-11957347D01*
X14986848Y-11953468D01*
X14986847Y-11953468D01*
X14981729Y-11952450D01*
X14981728Y-11952450D01*
X14878272Y-11952450D01*
X14878271Y-11952450D01*
X14873152Y-11953468D01*
X14873152Y-11953468D01*
X14867347Y-11957347D01*
X14867347Y-11957347D01*
X14863468Y-11963152D01*
X14863468Y-11963152D01*
X14862450Y-11968271D01*
X14862450Y-11971300D01*
X14860426Y-11976860D01*
X14855302Y-11979819D01*
X14853800Y-11979950D01*
X14750990Y-11979950D01*
X14750990Y-11979950D01*
X14749983Y-11979950D01*
X14740017Y-11979950D01*
X14734624Y-11982184D01*
X14730810Y-11983764D01*
X14730810Y-11983764D01*
X14723763Y-11990810D01*
X14676567Y-12038007D01*
X14671204Y-12040507D01*
X14668014Y-12040190D01*
X14667196Y-12039950D01*
X14652804Y-12039950D01*
X14652804Y-12039950D01*
X14651986Y-12040190D01*
X14646081Y-12039815D01*
X14643433Y-12038007D01*
X14617659Y-12012233D01*
X14589190Y-11983764D01*
X14579983Y-11979950D01*
X14579983Y-11979950D01*
X14556200Y-11979950D01*
X14550640Y-11977926D01*
X14547681Y-11972802D01*
X14547550Y-11971300D01*
X14547550Y-11968272D01*
X14547550Y-11968271D01*
X14546532Y-11963152D01*
X14546531Y-11963152D01*
X14542653Y-11957347D01*
X14542653Y-11957347D01*
X14536848Y-11953468D01*
X14536847Y-11953468D01*
X14531729Y-11952450D01*
X14531728Y-11952450D01*
X14428272Y-11952450D01*
X14428271Y-11952450D01*
X14423152Y-11953468D01*
X14423152Y-11953468D01*
X14417347Y-11957347D01*
X14417347Y-11957347D01*
X14413468Y-11963152D01*
X14413468Y-11963152D01*
X14412450Y-11968271D01*
X14003913Y-11968271D01*
X13907277Y-11775000D01*
X14974435Y-11775000D01*
X14976483Y-11789246D01*
X14982462Y-11802337D01*
X14982462Y-11802338D01*
X14991887Y-11813214D01*
X14991887Y-11813214D01*
X14991887Y-11813214D01*
X15003995Y-11820995D01*
X15011539Y-11823210D01*
X15015219Y-11825394D01*
X15019431Y-11829606D01*
X15021932Y-11834968D01*
X15020792Y-11839690D01*
X15020931Y-11839756D01*
X15020721Y-11840194D01*
X15014949Y-11856689D01*
X15012992Y-11874055D01*
X15012992Y-11874055D01*
X15014949Y-11891420D01*
X15014949Y-11891420D01*
X15014949Y-11891421D01*
X15020721Y-11907915D01*
X15030018Y-11922712D01*
X15042375Y-11935070D01*
X15057172Y-11944367D01*
X15073667Y-11950139D01*
X15083950Y-11951298D01*
X15091033Y-11952096D01*
X15091033Y-11952096D01*
X15091033Y-11952096D01*
X15095374Y-11951606D01*
X15108398Y-11950139D01*
X15124893Y-11944367D01*
X15139690Y-11935070D01*
X15152047Y-11922712D01*
X15161345Y-11907915D01*
X15167117Y-11891421D01*
X15167615Y-11887003D01*
X15257555Y-11887003D01*
X15257555Y-11887003D01*
X15277779Y-11947800D01*
X15338722Y-11927527D01*
X15330839Y-11914980D01*
X15318490Y-11902631D01*
X15303702Y-11893340D01*
X15287218Y-11887572D01*
X15269864Y-11885616D01*
X15269864Y-11885616D01*
X15257555Y-11887003D01*
X15167615Y-11887003D01*
X15169073Y-11874055D01*
X15167117Y-11856689D01*
X15161345Y-11840194D01*
X15152047Y-11825397D01*
X15139690Y-11813040D01*
X15139690Y-11813040D01*
X15134758Y-11809941D01*
X15124893Y-11803743D01*
X15109873Y-11798487D01*
X15106613Y-11796439D01*
X15075987Y-11765812D01*
X15073744Y-11761332D01*
X15073691Y-11761348D01*
X15073603Y-11761050D01*
X15073541Y-11760926D01*
X15073516Y-11760754D01*
X15067538Y-11747663D01*
X15067538Y-11747663D01*
X15067538Y-11747662D01*
X15067537Y-11747662D01*
X15058113Y-11736786D01*
X15058113Y-11736786D01*
X15046005Y-11729005D01*
X15032196Y-11724950D01*
X15017804Y-11724950D01*
X15003995Y-11729005D01*
X14991887Y-11736786D01*
X14991887Y-11736786D01*
X14982462Y-11747662D01*
X14982462Y-11747662D01*
X14976483Y-11760754D01*
X14974435Y-11775000D01*
X13907277Y-11775000D01*
X13530812Y-11022069D01*
X13578960Y-11022069D01*
X13578960Y-11022069D01*
X13596522Y-11057140D01*
X13599716Y-11061251D01*
X13605767Y-11064695D01*
X13612674Y-11065561D01*
X13617694Y-11064183D01*
X13643823Y-11051098D01*
X13643823Y-11051098D01*
X13619197Y-11001920D01*
X13578960Y-11022069D01*
X13530812Y-11022069D01*
X13499589Y-10959624D01*
X13548825Y-10959624D01*
X13548825Y-10959624D01*
X13550203Y-10964643D01*
X13567766Y-10999715D01*
X13567766Y-10999715D01*
X13585717Y-10990726D01*
X13641551Y-10990726D01*
X13641551Y-10990726D01*
X13666177Y-11039904D01*
X13692307Y-11026819D01*
X13696417Y-11023626D01*
X13699862Y-11017575D01*
X13700728Y-11010668D01*
X13700728Y-11010668D01*
X13699350Y-11005648D01*
X13681788Y-10970577D01*
X13681787Y-10970577D01*
X13641551Y-10990726D01*
X13585717Y-10990726D01*
X13608003Y-10979566D01*
X13608003Y-10979566D01*
X13583376Y-10930387D01*
X13583376Y-10930387D01*
X13557247Y-10943472D01*
X13557246Y-10943472D01*
X13553136Y-10946666D01*
X13549692Y-10952717D01*
X13548825Y-10959624D01*
X13499589Y-10959624D01*
X13284919Y-10530284D01*
X13332692Y-10530284D01*
X13332692Y-10530284D01*
X13350255Y-10565355D01*
X13353449Y-10569466D01*
X13359499Y-10572910D01*
X13366407Y-10573776D01*
X13371426Y-10572398D01*
X13397556Y-10559314D01*
X13397556Y-10559313D01*
X13372929Y-10510135D01*
X13332692Y-10530284D01*
X13284919Y-10530284D01*
X13280672Y-10521789D01*
X13280433Y-10521269D01*
X13279358Y-10518708D01*
X13272571Y-10502537D01*
X13272199Y-10501455D01*
X13266954Y-10482126D01*
X13266729Y-10481005D01*
X13264974Y-10467839D01*
X13302558Y-10467839D01*
X13302558Y-10467839D01*
X13303936Y-10472859D01*
X13321498Y-10507930D01*
X13321498Y-10507930D01*
X13339449Y-10498941D01*
X13395283Y-10498941D01*
X13395283Y-10498941D01*
X13419910Y-10548119D01*
X13419910Y-10548119D01*
X13440590Y-10537764D01*
X13446467Y-10537084D01*
X13451407Y-10540341D01*
X13453098Y-10546011D01*
X13452947Y-10547186D01*
X13452786Y-10547992D01*
X13452786Y-10547993D01*
X13452786Y-10563762D01*
X13454721Y-10573489D01*
X13455862Y-10579227D01*
X13461897Y-10593795D01*
X13470657Y-10606906D01*
X13481807Y-10618056D01*
X13494918Y-10626816D01*
X13509486Y-10632851D01*
X13521926Y-10635325D01*
X13524951Y-10635927D01*
X13524951Y-10635927D01*
X13524952Y-10635927D01*
X13524952Y-10635927D01*
X13540720Y-10635927D01*
X13540720Y-10635927D01*
X13556186Y-10632851D01*
X13570754Y-10626816D01*
X13583865Y-10618056D01*
X13595015Y-10606906D01*
X13603776Y-10593795D01*
X13609810Y-10579227D01*
X13612886Y-10563761D01*
X13612886Y-10557019D01*
X13614910Y-10551459D01*
X13620034Y-10548501D01*
X13625861Y-10549528D01*
X13629271Y-10553146D01*
X13647624Y-10589798D01*
X13650827Y-10593920D01*
X13650827Y-10593920D01*
X13652872Y-10595084D01*
X13655994Y-10596861D01*
X13656895Y-10597373D01*
X13657171Y-10597408D01*
X13657489Y-10597571D01*
X13657703Y-10597642D01*
X13657692Y-10597675D01*
X13662436Y-10600108D01*
X13664734Y-10605560D01*
X13663613Y-10610269D01*
X13663475Y-10610512D01*
X13663474Y-10610512D01*
X13662605Y-10617440D01*
X13662605Y-10617440D01*
X13663987Y-10622473D01*
X13692400Y-10679213D01*
X13695603Y-10683335D01*
X13695603Y-10683335D01*
X13699844Y-10685749D01*
X13700770Y-10686276D01*
X13701671Y-10686789D01*
X13701947Y-10686823D01*
X13702265Y-10686987D01*
X13702479Y-10687058D01*
X13702468Y-10687091D01*
X13707212Y-10689523D01*
X13709510Y-10694976D01*
X13708389Y-10699685D01*
X13708250Y-10699928D01*
X13708250Y-10699928D01*
X13707381Y-10706855D01*
X13707381Y-10706856D01*
X13708763Y-10711889D01*
X13727058Y-10748423D01*
X13727738Y-10754301D01*
X13724481Y-10759241D01*
X13718811Y-10760931D01*
X13714518Y-10759489D01*
X13705082Y-10753184D01*
X13705082Y-10753184D01*
X13705082Y-10753184D01*
X13693589Y-10748423D01*
X13690514Y-10747149D01*
X13690513Y-10747149D01*
X13675048Y-10744073D01*
X13675048Y-10744073D01*
X13659280Y-10744073D01*
X13659279Y-10744073D01*
X13643814Y-10747149D01*
X13643814Y-10747149D01*
X13635280Y-10750684D01*
X13629246Y-10753184D01*
X13629246Y-10753184D01*
X13629246Y-10753184D01*
X13616135Y-10761944D01*
X13604985Y-10773094D01*
X13598776Y-10782386D01*
X13596224Y-10786205D01*
X13595358Y-10788297D01*
X13590190Y-10800773D01*
X13590190Y-10800774D01*
X13587114Y-10816238D01*
X13587114Y-10832008D01*
X13589284Y-10842916D01*
X13590190Y-10847473D01*
X13596224Y-10862041D01*
X13604985Y-10875152D01*
X13616135Y-10886302D01*
X13627446Y-10893860D01*
X13630944Y-10898631D01*
X13630557Y-10904535D01*
X13626513Y-10908786D01*
X13605730Y-10919193D01*
X13605730Y-10919193D01*
X13630357Y-10968372D01*
X13670593Y-10948223D01*
X13670593Y-10948223D01*
X13658244Y-10923562D01*
X13775674Y-10923562D01*
X13775674Y-10923562D01*
X13793236Y-10958633D01*
X13796430Y-10962744D01*
X13802481Y-10966188D01*
X13809388Y-10967054D01*
X13814407Y-10965676D01*
X13840537Y-10952591D01*
X13840537Y-10952591D01*
X13815911Y-10903413D01*
X13775674Y-10923562D01*
X13658244Y-10923562D01*
X13654806Y-10916696D01*
X13654126Y-10910818D01*
X13657383Y-10905879D01*
X13662541Y-10904173D01*
X13675048Y-10904173D01*
X13675048Y-10904173D01*
X13690513Y-10901097D01*
X13705082Y-10895062D01*
X13718193Y-10886302D01*
X13729343Y-10875152D01*
X13733704Y-10868625D01*
X13738475Y-10865126D01*
X13744380Y-10865513D01*
X13748630Y-10869558D01*
X13764480Y-10901208D01*
X13764480Y-10901208D01*
X13782431Y-10892219D01*
X13838264Y-10892219D01*
X13838264Y-10892219D01*
X13862891Y-10941397D01*
X13889021Y-10928312D01*
X13893131Y-10925119D01*
X13896575Y-10919068D01*
X13897442Y-10912161D01*
X13897442Y-10912161D01*
X13896064Y-10907141D01*
X13878501Y-10872070D01*
X13878501Y-10872070D01*
X13838264Y-10892219D01*
X13782431Y-10892219D01*
X13804717Y-10881059D01*
X13804717Y-10881059D01*
X13780090Y-10831880D01*
X13759410Y-10842236D01*
X13753532Y-10842916D01*
X13748593Y-10839659D01*
X13746902Y-10833989D01*
X13747053Y-10832814D01*
X13747214Y-10832007D01*
X13747214Y-10820686D01*
X13802444Y-10820686D01*
X13827071Y-10869865D01*
X13867307Y-10849716D01*
X13867307Y-10849716D01*
X13849745Y-10814645D01*
X13846551Y-10810534D01*
X13840501Y-10807090D01*
X13833593Y-10806224D01*
X13828574Y-10807601D01*
X13802444Y-10820686D01*
X13747214Y-10820686D01*
X13747214Y-10816239D01*
X13744137Y-10800773D01*
X13738969Y-10788297D01*
X13738712Y-10782386D01*
X13742314Y-10777691D01*
X13748038Y-10776404D01*
X13752143Y-10776919D01*
X13753374Y-10777074D01*
X13753374Y-10777073D01*
X13753374Y-10777074D01*
X13758408Y-10775692D01*
X13885819Y-10711889D01*
X13895621Y-10706980D01*
X13895782Y-10706855D01*
X13899743Y-10703777D01*
X13903197Y-10697710D01*
X13903680Y-10693860D01*
X13904066Y-10690783D01*
X13904066Y-10690782D01*
X13902684Y-10685749D01*
X13874271Y-10629009D01*
X13871068Y-10624887D01*
X13865000Y-10621433D01*
X13864723Y-10621399D01*
X13864405Y-10621235D01*
X13864192Y-10621165D01*
X13864203Y-10621132D01*
X13859459Y-10618698D01*
X13857161Y-10613246D01*
X13858283Y-10608537D01*
X13858421Y-10608294D01*
X13858421Y-10608294D01*
X13858690Y-10607486D01*
X13859015Y-10607594D01*
X13861045Y-10603635D01*
X13862789Y-10602381D01*
X13878902Y-10593604D01*
X13883040Y-10592550D01*
X13938792Y-10592550D01*
X13944352Y-10594574D01*
X13944909Y-10595084D01*
X13994916Y-10645091D01*
X13997417Y-10650454D01*
X13997450Y-10651208D01*
X13997450Y-11024398D01*
X13997450Y-11035602D01*
X14000350Y-11046424D01*
X14005951Y-11056126D01*
X14178451Y-11228626D01*
X14186374Y-11236548D01*
X14192322Y-11239983D01*
X14196076Y-11242150D01*
X14196076Y-11242150D01*
X14206898Y-11245050D01*
X14206898Y-11245050D01*
X14206898Y-11245050D01*
X14206898Y-11245050D01*
X14381300Y-11245050D01*
X14386860Y-11247074D01*
X14389819Y-11252198D01*
X14389950Y-11253700D01*
X14389950Y-11334313D01*
X14387926Y-11339873D01*
X14383737Y-11342612D01*
X14378995Y-11344005D01*
X14366887Y-11351786D01*
X14366887Y-11351786D01*
X14357462Y-11362662D01*
X14357462Y-11362662D01*
X14351483Y-11375754D01*
X14349435Y-11390000D01*
X14351483Y-11404246D01*
X14357462Y-11417337D01*
X14357462Y-11417338D01*
X14366887Y-11428214D01*
X14366887Y-11428214D01*
X14366887Y-11428214D01*
X14378995Y-11435995D01*
X14392804Y-11440050D01*
X14407196Y-11440050D01*
X14421005Y-11435995D01*
X14433113Y-11428214D01*
X14442538Y-11417337D01*
X14448516Y-11404246D01*
X14450565Y-11390000D01*
X14448516Y-11375754D01*
X14442538Y-11362663D01*
X14442163Y-11362230D01*
X14440051Y-11356703D01*
X14440050Y-11356565D01*
X14440050Y-11253700D01*
X14442074Y-11248140D01*
X14447198Y-11245181D01*
X14448700Y-11245050D01*
X14486910Y-11245050D01*
X14492470Y-11247074D01*
X14495428Y-11252198D01*
X14495538Y-11253091D01*
X14496005Y-11259708D01*
X14496005Y-11259708D01*
X14496005Y-11259708D01*
X14501594Y-11284524D01*
X14511092Y-11308122D01*
X14524251Y-11329891D01*
X14524252Y-11329891D01*
X14540732Y-11349266D01*
X14540734Y-11349268D01*
X14560109Y-11365748D01*
X14560109Y-11365748D01*
X14573269Y-11373704D01*
X14581878Y-11378908D01*
X14605476Y-11388406D01*
X14630292Y-11393995D01*
X14645239Y-11395050D01*
X14645240Y-11395050D01*
X14645241Y-11395050D01*
X14656300Y-11395050D01*
X14661860Y-11397074D01*
X14664819Y-11402198D01*
X14664950Y-11403700D01*
X14664950Y-11440707D01*
X14662926Y-11446267D01*
X14659893Y-11448575D01*
X14659257Y-11448866D01*
X14659257Y-11448866D01*
X14647162Y-11456639D01*
X14647161Y-11456640D01*
X14643280Y-11460003D01*
X14643279Y-11460004D01*
X14633863Y-11470870D01*
X14633863Y-11470871D01*
X14631086Y-11475191D01*
X14631086Y-11475192D01*
X14625113Y-11488270D01*
X14623666Y-11493200D01*
X14622701Y-11499905D01*
X14621619Y-11507431D01*
X14621619Y-11507432D01*
X14621619Y-11512568D01*
X14621862Y-11514255D01*
X14621950Y-11515486D01*
X14621950Y-11554514D01*
X14621862Y-11555744D01*
X14621619Y-11557431D01*
X14621619Y-11562569D01*
X14622392Y-11567945D01*
X14623498Y-11575634D01*
X14623666Y-11576800D01*
X14625113Y-11581730D01*
X14625113Y-11581730D01*
X14625113Y-11581730D01*
X14631086Y-11594808D01*
X14631086Y-11594808D01*
X14633863Y-11599129D01*
X14633863Y-11599129D01*
X14633863Y-11599130D01*
X14639768Y-11605945D01*
X14643279Y-11609996D01*
X14643280Y-11609997D01*
X14647161Y-11613360D01*
X14647161Y-11613360D01*
X14647162Y-11613361D01*
X14647162Y-11613361D01*
X14657887Y-11620254D01*
X14659257Y-11621134D01*
X14663665Y-11623147D01*
X14663930Y-11623268D01*
X14677725Y-11627319D01*
X14677726Y-11627319D01*
X14677726Y-11627319D01*
X14682811Y-11628050D01*
X14682811Y-11628050D01*
X14740000Y-11628050D01*
X14740870Y-11627997D01*
X14742176Y-11627918D01*
X14750254Y-11624855D01*
X14750254Y-11624854D01*
X14750344Y-11624792D01*
X14750584Y-11624730D01*
X14751236Y-11624482D01*
X14751262Y-11624553D01*
X14756070Y-11623299D01*
X14760995Y-11625436D01*
X14761612Y-11625982D01*
X14770000Y-11628050D01*
X14770000Y-11628050D01*
X14827189Y-11628050D01*
X14827189Y-11628050D01*
X14832274Y-11627319D01*
X14832274Y-11627319D01*
X14832274Y-11627319D01*
X14840472Y-11624912D01*
X14846070Y-11623268D01*
X14850743Y-11621134D01*
X14862838Y-11613361D01*
X14866721Y-11609996D01*
X14876137Y-11599130D01*
X14878914Y-11594808D01*
X14884887Y-11581730D01*
X14886334Y-11576800D01*
X14887676Y-11567469D01*
X14890470Y-11562253D01*
X14895963Y-11560054D01*
X14896238Y-11560050D01*
X14976041Y-11560050D01*
X14981601Y-11562074D01*
X14982157Y-11562583D01*
X14993276Y-11573703D01*
X14995777Y-11579065D01*
X14995722Y-11581050D01*
X14994639Y-11588579D01*
X14994435Y-11590000D01*
X14995127Y-11594808D01*
X14996483Y-11604246D01*
X15002462Y-11617337D01*
X15002462Y-11617338D01*
X15011887Y-11628214D01*
X15011887Y-11628214D01*
X15011887Y-11628214D01*
X15023995Y-11635995D01*
X15037804Y-11640050D01*
X15052196Y-11640050D01*
X15066005Y-11635995D01*
X15076795Y-11629061D01*
X15082567Y-11627757D01*
X15087826Y-11630469D01*
X15089555Y-11633864D01*
X15089624Y-11633835D01*
X15089950Y-11634622D01*
X15089950Y-11634622D01*
X15093764Y-11643829D01*
X15093764Y-11643829D01*
X15106695Y-11656760D01*
X15109195Y-11662123D01*
X15108743Y-11665734D01*
X15104500Y-11677858D01*
X15102544Y-11695224D01*
X15102544Y-11695224D01*
X15104500Y-11712589D01*
X15104500Y-11712590D01*
X15104500Y-11712590D01*
X15110272Y-11729085D01*
X15119570Y-11743882D01*
X15131927Y-11756239D01*
X15146724Y-11765536D01*
X15163219Y-11771308D01*
X15174796Y-11772612D01*
X15180584Y-11773265D01*
X15180585Y-11773265D01*
X15180585Y-11773265D01*
X15184926Y-11772775D01*
X15197950Y-11771308D01*
X15214445Y-11765536D01*
X15229242Y-11756239D01*
X15241599Y-11743882D01*
X15250897Y-11729085D01*
X15256669Y-11712590D01*
X15258625Y-11695224D01*
X15256669Y-11677858D01*
X15250897Y-11661363D01*
X15241599Y-11646566D01*
X15229242Y-11634209D01*
X15229242Y-11634209D01*
X15223289Y-11630469D01*
X15214445Y-11624912D01*
X15197950Y-11619140D01*
X15197950Y-11619140D01*
X15197950Y-11619140D01*
X15180585Y-11617183D01*
X15180584Y-11617183D01*
X15163219Y-11619140D01*
X15151557Y-11623221D01*
X15145640Y-11623147D01*
X15141155Y-11619287D01*
X15140050Y-11615056D01*
X15140050Y-11483959D01*
X15142074Y-11478399D01*
X15142582Y-11477843D01*
X15364189Y-11256236D01*
X15364190Y-11256236D01*
X15370184Y-11250242D01*
X15375546Y-11247742D01*
X15381261Y-11249273D01*
X15384655Y-11254120D01*
X15384950Y-11256359D01*
X15384950Y-11362571D01*
X15382926Y-11368131D01*
X15382416Y-11368687D01*
X15308600Y-11442503D01*
X15303237Y-11445004D01*
X15299627Y-11444552D01*
X15291415Y-11441678D01*
X15287502Y-11440309D01*
X15278819Y-11439331D01*
X15270137Y-11438352D01*
X15270136Y-11438352D01*
X15252771Y-11440309D01*
X15245992Y-11442681D01*
X15236276Y-11446081D01*
X15234750Y-11447040D01*
X15221479Y-11455378D01*
X15209122Y-11467736D01*
X15204437Y-11475192D01*
X15199824Y-11482533D01*
X15197817Y-11488270D01*
X15194052Y-11499028D01*
X15192096Y-11516393D01*
X15192096Y-11516393D01*
X15194052Y-11533759D01*
X15194052Y-11533759D01*
X15194052Y-11533759D01*
X15199824Y-11550254D01*
X15202501Y-11554514D01*
X15207731Y-11562837D01*
X15209122Y-11565051D01*
X15221479Y-11577408D01*
X15236276Y-11586705D01*
X15252771Y-11592477D01*
X15264348Y-11593782D01*
X15270136Y-11594434D01*
X15270136Y-11594434D01*
X15270137Y-11594434D01*
X15274478Y-11593945D01*
X15287502Y-11592477D01*
X15303997Y-11586705D01*
X15318794Y-11577408D01*
X15319599Y-11576603D01*
X15324962Y-11574102D01*
X15330677Y-11575634D01*
X15334071Y-11580481D01*
X15334365Y-11582719D01*
X15334365Y-11705243D01*
X15332342Y-11710803D01*
X15328573Y-11713407D01*
X15325555Y-11714463D01*
X15325555Y-11714464D01*
X15310758Y-11723761D01*
X15298401Y-11736118D01*
X15289103Y-11750915D01*
X15289103Y-11750915D01*
X15283331Y-11767410D01*
X15281375Y-11784776D01*
X15281375Y-11784776D01*
X15283331Y-11802141D01*
X15283331Y-11802141D01*
X15283331Y-11802141D01*
X15289103Y-11818636D01*
X15298401Y-11833433D01*
X15310758Y-11845790D01*
X15325555Y-11855088D01*
X15342050Y-11860860D01*
X15353627Y-11862164D01*
X15359415Y-11862816D01*
X15359415Y-11862816D01*
X15359416Y-11862816D01*
X15363757Y-11862327D01*
X15376781Y-11860860D01*
X15393276Y-11855088D01*
X15408073Y-11845790D01*
X15420430Y-11833433D01*
X15429728Y-11818636D01*
X15435500Y-11802141D01*
X15437456Y-11784776D01*
X15435500Y-11767410D01*
X15429728Y-11750915D01*
X15420430Y-11736118D01*
X15408073Y-11723761D01*
X15393276Y-11714464D01*
X15393276Y-11714463D01*
X15390258Y-11713407D01*
X15385679Y-11709661D01*
X15384465Y-11705243D01*
X15384465Y-11671998D01*
X15386489Y-11666438D01*
X15391613Y-11663480D01*
X15397440Y-11664507D01*
X15399232Y-11665882D01*
X15400310Y-11666960D01*
X15415107Y-11676257D01*
X15431602Y-11682029D01*
X15443179Y-11683333D01*
X15448967Y-11683986D01*
X15448967Y-11683986D01*
X15448967Y-11683986D01*
X15453309Y-11683496D01*
X15466333Y-11682029D01*
X15482828Y-11676257D01*
X15497625Y-11666960D01*
X15509982Y-11654603D01*
X15519279Y-11639806D01*
X15525051Y-11623311D01*
X15526551Y-11609997D01*
X15527008Y-11605945D01*
X15527008Y-11605945D01*
X15525211Y-11590000D01*
X15525051Y-11588579D01*
X15519279Y-11572084D01*
X15516376Y-11567463D01*
X15515050Y-11562861D01*
X15515050Y-10600000D01*
X15889435Y-10600000D01*
X15891483Y-10614246D01*
X15897462Y-10627337D01*
X15897462Y-10627338D01*
X15906887Y-10638214D01*
X15906887Y-10638214D01*
X15906887Y-10638214D01*
X15918995Y-10645995D01*
X15932804Y-10650050D01*
X15947196Y-10650050D01*
X15961005Y-10645995D01*
X15973113Y-10638214D01*
X15973113Y-10638214D01*
X15982537Y-10627338D01*
X15982538Y-10627337D01*
X15982537Y-10627337D01*
X15982538Y-10627337D01*
X15988516Y-10614246D01*
X15990565Y-10600000D01*
X15988516Y-10585754D01*
X15982538Y-10572663D01*
X15982538Y-10572663D01*
X15982538Y-10572663D01*
X15982537Y-10572662D01*
X15972961Y-10561611D01*
X15970850Y-10556084D01*
X15970916Y-10554868D01*
X15971132Y-10553146D01*
X15997618Y-10342294D01*
X16000319Y-10337029D01*
X16001524Y-10336095D01*
X16011901Y-10329426D01*
X16011901Y-10329426D01*
X16021325Y-10318550D01*
X16021325Y-10318550D01*
X16021325Y-10318550D01*
X16021326Y-10318549D01*
X16027304Y-10305458D01*
X16029353Y-10291212D01*
X16027304Y-10276966D01*
X16021326Y-10263875D01*
X16021325Y-10263875D01*
X16021325Y-10263875D01*
X16021325Y-10263874D01*
X16011901Y-10252998D01*
X16011901Y-10252998D01*
X15999793Y-10245217D01*
X15985984Y-10241162D01*
X15971592Y-10241162D01*
X15957783Y-10245217D01*
X15945675Y-10252998D01*
X15945675Y-10252998D01*
X15936250Y-10263874D01*
X15936250Y-10263875D01*
X15930271Y-10276966D01*
X15928223Y-10291212D01*
X15930271Y-10305458D01*
X15936250Y-10318550D01*
X15936250Y-10318550D01*
X15945826Y-10329601D01*
X15947938Y-10335128D01*
X15947872Y-10336344D01*
X15921169Y-10548919D01*
X15918468Y-10554183D01*
X15917263Y-10555117D01*
X15906887Y-10561786D01*
X15906887Y-10561786D01*
X15897462Y-10572662D01*
X15897462Y-10572663D01*
X15891483Y-10585754D01*
X15889435Y-10600000D01*
X15515050Y-10600000D01*
X15515050Y-10278119D01*
X15517074Y-10272559D01*
X15519023Y-10270842D01*
X15523113Y-10268214D01*
X15523528Y-10267736D01*
X15532537Y-10257338D01*
X15532538Y-10257337D01*
X15532537Y-10257337D01*
X15532538Y-10257337D01*
X15538516Y-10244246D01*
X15540565Y-10230000D01*
X15538516Y-10215754D01*
X15532538Y-10202663D01*
X15532538Y-10202663D01*
X15532538Y-10202663D01*
X15532537Y-10202662D01*
X15523113Y-10191786D01*
X15523113Y-10191786D01*
X15511005Y-10184005D01*
X15497196Y-10179950D01*
X15482804Y-10179950D01*
X15473058Y-10182812D01*
X15467153Y-10182436D01*
X15462870Y-10178353D01*
X15462214Y-10172473D01*
X15462752Y-10170920D01*
X15463516Y-10169246D01*
X15465565Y-10155000D01*
X15463516Y-10140754D01*
X15457538Y-10127663D01*
X15457538Y-10127663D01*
X15457538Y-10127663D01*
X15457537Y-10127662D01*
X15448113Y-10116786D01*
X15448113Y-10116786D01*
X15436005Y-10109005D01*
X15422196Y-10104950D01*
X15407804Y-10104950D01*
X15393995Y-10109005D01*
X15381887Y-10116786D01*
X15381887Y-10116786D01*
X15372462Y-10127662D01*
X15372462Y-10127663D01*
X15366483Y-10140754D01*
X15364435Y-10155000D01*
X15366483Y-10169246D01*
X15372462Y-10182337D01*
X15372462Y-10182338D01*
X15381887Y-10193214D01*
X15381887Y-10193214D01*
X15381887Y-10193214D01*
X15383405Y-10194190D01*
X15385976Y-10195842D01*
X15389560Y-10200551D01*
X15389950Y-10203119D01*
X15389950Y-10408641D01*
X15387926Y-10414201D01*
X15382802Y-10417160D01*
X15376975Y-10416132D01*
X15375183Y-10414757D01*
X15317583Y-10357157D01*
X15315083Y-10351795D01*
X15315050Y-10351041D01*
X15315050Y-10118119D01*
X15317074Y-10112559D01*
X15319023Y-10110842D01*
X15323113Y-10108214D01*
X15323113Y-10108214D01*
X15332537Y-10097338D01*
X15332538Y-10097337D01*
X15332537Y-10097337D01*
X15332538Y-10097337D01*
X15338516Y-10084246D01*
X15340565Y-10070000D01*
X15338516Y-10055754D01*
X15332538Y-10042663D01*
X15332538Y-10042663D01*
X15332538Y-10042663D01*
X15332537Y-10042662D01*
X15323113Y-10031786D01*
X15323113Y-10031786D01*
X15311005Y-10024005D01*
X15301556Y-10021230D01*
X15296792Y-10017722D01*
X15295397Y-10011972D01*
X15298024Y-10006670D01*
X15299316Y-10005655D01*
X15303113Y-10003214D01*
X15312538Y-9992337D01*
X15318516Y-9979246D01*
X15320565Y-9965000D01*
X15318516Y-9950754D01*
X15312538Y-9937663D01*
X15312538Y-9937663D01*
X15312538Y-9937663D01*
X15312537Y-9937662D01*
X15303113Y-9926786D01*
X15303113Y-9926786D01*
X15291005Y-9919005D01*
X15277196Y-9914950D01*
X15262804Y-9914950D01*
X15248995Y-9919005D01*
X15237990Y-9926077D01*
X15233314Y-9927450D01*
X15097483Y-9927450D01*
X15087517Y-9927450D01*
X15078310Y-9931264D01*
X15078310Y-9931264D01*
X14928764Y-10080810D01*
X14928764Y-10080810D01*
X14928764Y-10080810D01*
X14927996Y-10082663D01*
X14924950Y-10090017D01*
X14924950Y-10216041D01*
X14922926Y-10221601D01*
X14922416Y-10222157D01*
X14870810Y-10273764D01*
X14870810Y-10273764D01*
X14757157Y-10387417D01*
X14751795Y-10389917D01*
X14751041Y-10389950D01*
X14703470Y-10389950D01*
X14697910Y-10387926D01*
X14696933Y-10386965D01*
X14692017Y-10381291D01*
X14688113Y-10376786D01*
X14688113Y-10376786D01*
X14676005Y-10369005D01*
X14662196Y-10364950D01*
X14647804Y-10364950D01*
X14633995Y-10369005D01*
X14621887Y-10376786D01*
X14621887Y-10376786D01*
X14612462Y-10387662D01*
X14612462Y-10387663D01*
X14606483Y-10400754D01*
X14604435Y-10415000D01*
X14606483Y-10429246D01*
X14612462Y-10442337D01*
X14612462Y-10442338D01*
X14621887Y-10453214D01*
X14621887Y-10453214D01*
X14621887Y-10453214D01*
X14633995Y-10460995D01*
X14647804Y-10465050D01*
X14662196Y-10465050D01*
X14676005Y-10460995D01*
X14688113Y-10453214D01*
X14696933Y-10443035D01*
X14702103Y-10440159D01*
X14703470Y-10440050D01*
X14769983Y-10440050D01*
X14769983Y-10440050D01*
X14779190Y-10436236D01*
X14845183Y-10370243D01*
X14850546Y-10367742D01*
X14856261Y-10369273D01*
X14859655Y-10374120D01*
X14859950Y-10376359D01*
X14859950Y-10686881D01*
X14857926Y-10692441D01*
X14855977Y-10694158D01*
X14851887Y-10696786D01*
X14851887Y-10696786D01*
X14842462Y-10707662D01*
X14842462Y-10707663D01*
X14836483Y-10720754D01*
X14834435Y-10735000D01*
X14836483Y-10749246D01*
X14842462Y-10762337D01*
X14842462Y-10762338D01*
X14851887Y-10773214D01*
X14851887Y-10773214D01*
X14851887Y-10773214D01*
X14863995Y-10780995D01*
X14877804Y-10785050D01*
X14892196Y-10785050D01*
X14906005Y-10780995D01*
X14918113Y-10773214D01*
X14920195Y-10770812D01*
X14927537Y-10762338D01*
X14927538Y-10762337D01*
X14927537Y-10762337D01*
X14927538Y-10762337D01*
X14933516Y-10749246D01*
X14935565Y-10735000D01*
X14933516Y-10720754D01*
X14927538Y-10707663D01*
X14927538Y-10707663D01*
X14927538Y-10707663D01*
X14927537Y-10707662D01*
X14918113Y-10696786D01*
X14918113Y-10696786D01*
X14918113Y-10696786D01*
X14914023Y-10694158D01*
X14910440Y-10689449D01*
X14910050Y-10686881D01*
X14910050Y-10308959D01*
X14912074Y-10303399D01*
X14912582Y-10302844D01*
X14962973Y-10252453D01*
X14962973Y-10252453D01*
X14964190Y-10251236D01*
X14964190Y-10251236D01*
X14971236Y-10244190D01*
X14975050Y-10234983D01*
X14975050Y-10108959D01*
X14977074Y-10103399D01*
X14977583Y-10102843D01*
X15100343Y-9980084D01*
X15105705Y-9977583D01*
X15106459Y-9977550D01*
X15116337Y-9977550D01*
X15121898Y-9979574D01*
X15124856Y-9984698D01*
X15124206Y-9989793D01*
X15123441Y-9991469D01*
X15121483Y-9995754D01*
X15119435Y-10010000D01*
X15121483Y-10024246D01*
X15127462Y-10037337D01*
X15127462Y-10037338D01*
X15136887Y-10048214D01*
X15136887Y-10048214D01*
X15136887Y-10048214D01*
X15138606Y-10049319D01*
X15140976Y-10050842D01*
X15144560Y-10055551D01*
X15144950Y-10058119D01*
X15144950Y-10295017D01*
X15144950Y-10304983D01*
X15148764Y-10314190D01*
X15148764Y-10314190D01*
X15322416Y-10487843D01*
X15324917Y-10493205D01*
X15324950Y-10493959D01*
X15324950Y-11221041D01*
X15322926Y-11226601D01*
X15322416Y-11227157D01*
X15208786Y-11340788D01*
X15093764Y-11455810D01*
X15089950Y-11465017D01*
X15089950Y-11543552D01*
X15087926Y-11549112D01*
X15082802Y-11552070D01*
X15076975Y-11551043D01*
X15076623Y-11550828D01*
X15066005Y-11544005D01*
X15052196Y-11539950D01*
X15037804Y-11539950D01*
X15036986Y-11540190D01*
X15031081Y-11539815D01*
X15028433Y-11538007D01*
X15004190Y-11513764D01*
X15004190Y-11513764D01*
X14994983Y-11509950D01*
X14994983Y-11509950D01*
X14896238Y-11509950D01*
X14890678Y-11507926D01*
X14887719Y-11502802D01*
X14887676Y-11502534D01*
X14886334Y-11493200D01*
X14884887Y-11488270D01*
X14880778Y-11479273D01*
X14878914Y-11475192D01*
X14878914Y-11475191D01*
X14876137Y-11470871D01*
X14876137Y-11470870D01*
X14876137Y-11470870D01*
X14866721Y-11460004D01*
X14866720Y-11460003D01*
X14862839Y-11456640D01*
X14862839Y-11456640D01*
X14862838Y-11456639D01*
X14860877Y-11455378D01*
X14850743Y-11448866D01*
X14850742Y-11448866D01*
X14849613Y-11448350D01*
X14846069Y-11446732D01*
X14832274Y-11442681D01*
X14829368Y-11442263D01*
X14827189Y-11441950D01*
X14770000Y-11441950D01*
X14770000Y-11441950D01*
X14767824Y-11442081D01*
X14767824Y-11442082D01*
X14759746Y-11445145D01*
X14759654Y-11445208D01*
X14759413Y-11445271D01*
X14758764Y-11445517D01*
X14758738Y-11445447D01*
X14753929Y-11446701D01*
X14749005Y-11444564D01*
X14748388Y-11444017D01*
X14748388Y-11444017D01*
X14740001Y-11441950D01*
X14740000Y-11441950D01*
X14740000Y-11441950D01*
X14740000Y-11441950D01*
X14723700Y-11441950D01*
X14718140Y-11439926D01*
X14715181Y-11434802D01*
X14715050Y-11433300D01*
X14715050Y-11403700D01*
X14717074Y-11398140D01*
X14722198Y-11395181D01*
X14723700Y-11395050D01*
X14759759Y-11395050D01*
X14759759Y-11395050D01*
X14759760Y-11395050D01*
X14759761Y-11395050D01*
X14772147Y-11394175D01*
X14774708Y-11393995D01*
X14799524Y-11388406D01*
X14823122Y-11378908D01*
X14844891Y-11365748D01*
X14864267Y-11349267D01*
X14880748Y-11329891D01*
X14893908Y-11308122D01*
X14903406Y-11284524D01*
X14908995Y-11259708D01*
X14910050Y-11244759D01*
X14910050Y-11025772D01*
X14909476Y-11022888D01*
X14910376Y-11017040D01*
X14914825Y-11013138D01*
X14917960Y-11012550D01*
X14978792Y-11012550D01*
X14984352Y-11014574D01*
X14984909Y-11015084D01*
X14994916Y-11025091D01*
X14997417Y-11030454D01*
X14997450Y-11031208D01*
X14997450Y-11060808D01*
X14996668Y-11064401D01*
X14991483Y-11075754D01*
X14989435Y-11090000D01*
X14991483Y-11104246D01*
X14997462Y-11117337D01*
X14997462Y-11117338D01*
X15006887Y-11128214D01*
X15006887Y-11128214D01*
X15006887Y-11128214D01*
X15018995Y-11135995D01*
X15032804Y-11140050D01*
X15047196Y-11140050D01*
X15061005Y-11135995D01*
X15073113Y-11128214D01*
X15075244Y-11125754D01*
X15082537Y-11117338D01*
X15082538Y-11117337D01*
X15082537Y-11117337D01*
X15082538Y-11117337D01*
X15088516Y-11104246D01*
X15090565Y-11090000D01*
X15088516Y-11075754D01*
X15088516Y-11075754D01*
X15083332Y-11064401D01*
X15082550Y-11060808D01*
X15082550Y-11004398D01*
X15082550Y-11004398D01*
X15079650Y-10993576D01*
X15074048Y-10983874D01*
X15066126Y-10975952D01*
X15026126Y-10935952D01*
X15024633Y-10935089D01*
X15016424Y-10930350D01*
X15005974Y-10927550D01*
X15001127Y-10924156D01*
X14999596Y-10918441D01*
X15002097Y-10913078D01*
X15068883Y-10846291D01*
X15074246Y-10843791D01*
X15079961Y-10845322D01*
X15081116Y-10846291D01*
X15209916Y-10975091D01*
X15212417Y-10980454D01*
X15212450Y-10981208D01*
X15212450Y-11110808D01*
X15211668Y-11114401D01*
X15206483Y-11125754D01*
X15204435Y-11140000D01*
X15206483Y-11154246D01*
X15212462Y-11167337D01*
X15212462Y-11167338D01*
X15221887Y-11178214D01*
X15221887Y-11178214D01*
X15221887Y-11178214D01*
X15233995Y-11185995D01*
X15247804Y-11190050D01*
X15262196Y-11190050D01*
X15276005Y-11185995D01*
X15288113Y-11178214D01*
X15297538Y-11167337D01*
X15303516Y-11154246D01*
X15305565Y-11140000D01*
X15303516Y-11125754D01*
X15303516Y-11125754D01*
X15298332Y-11114401D01*
X15297550Y-11110808D01*
X15297550Y-10954398D01*
X15297550Y-10954398D01*
X15294650Y-10943576D01*
X15289048Y-10933874D01*
X15281126Y-10925952D01*
X15125986Y-10770812D01*
X15123744Y-10766332D01*
X15123691Y-10766348D01*
X15123603Y-10766050D01*
X15123541Y-10765926D01*
X15123516Y-10765754D01*
X15117538Y-10752663D01*
X15117538Y-10752663D01*
X15117538Y-10752663D01*
X15117537Y-10752662D01*
X15108113Y-10741786D01*
X15108113Y-10741786D01*
X15096005Y-10734005D01*
X15082196Y-10729950D01*
X15067804Y-10729950D01*
X15053995Y-10734005D01*
X15041887Y-10741786D01*
X15041887Y-10741786D01*
X15032462Y-10752662D01*
X15032462Y-10752663D01*
X15026483Y-10765755D01*
X15026459Y-10765926D01*
X15026396Y-10766051D01*
X15026309Y-10766348D01*
X15026255Y-10766332D01*
X15024013Y-10770812D01*
X14959909Y-10834917D01*
X14954546Y-10837417D01*
X14953792Y-10837450D01*
X14421208Y-10837450D01*
X14415648Y-10835426D01*
X14415091Y-10834917D01*
X14360987Y-10780812D01*
X14358745Y-10776333D01*
X14358691Y-10776348D01*
X14358603Y-10776050D01*
X14358541Y-10775926D01*
X14358516Y-10775754D01*
X14357302Y-10773094D01*
X14353332Y-10764401D01*
X14352550Y-10760808D01*
X14352550Y-10620823D01*
X14354574Y-10615263D01*
X14355083Y-10614707D01*
X14387453Y-10582337D01*
X14423664Y-10546126D01*
X14429266Y-10536424D01*
X14432165Y-10525602D01*
X14432165Y-10514398D01*
X14431760Y-10512887D01*
X14429266Y-10503576D01*
X14423664Y-10493874D01*
X14423664Y-10493873D01*
X14415676Y-10485886D01*
X14413176Y-10480524D01*
X14413149Y-10480106D01*
X14412505Y-10463354D01*
X14414314Y-10457721D01*
X14419320Y-10454567D01*
X14425183Y-10455370D01*
X14425825Y-10455745D01*
X14433701Y-10460807D01*
X14433995Y-10460995D01*
X14447804Y-10465050D01*
X14462196Y-10465050D01*
X14476005Y-10460995D01*
X14488113Y-10453214D01*
X14489436Y-10451687D01*
X14497537Y-10442338D01*
X14497538Y-10442337D01*
X14497537Y-10442337D01*
X14497538Y-10442337D01*
X14503516Y-10429246D01*
X14505565Y-10415000D01*
X14505565Y-10415000D01*
X14505565Y-10415000D01*
X14504278Y-10406050D01*
X14505490Y-10400259D01*
X14506723Y-10398703D01*
X14617843Y-10287584D01*
X14623205Y-10285083D01*
X14623959Y-10285050D01*
X14764983Y-10285050D01*
X14764983Y-10285050D01*
X14774190Y-10281236D01*
X14852973Y-10202453D01*
X14852973Y-10202453D01*
X14854190Y-10201236D01*
X14854190Y-10201236D01*
X14861236Y-10194190D01*
X14865050Y-10184983D01*
X14865050Y-10008119D01*
X14867074Y-10002559D01*
X14869023Y-10000842D01*
X14873113Y-9998214D01*
X14878205Y-9992338D01*
X14882537Y-9987338D01*
X14882538Y-9987337D01*
X14882537Y-9987337D01*
X14882538Y-9987337D01*
X14888516Y-9974246D01*
X14890565Y-9960000D01*
X14888516Y-9945754D01*
X14888516Y-9945754D01*
X14888505Y-9945675D01*
X14889717Y-9939884D01*
X14894368Y-9936226D01*
X14899504Y-9936145D01*
X14912804Y-9940050D01*
X14927196Y-9940050D01*
X14941005Y-9935995D01*
X14953113Y-9928214D01*
X14962538Y-9917337D01*
X14968516Y-9904246D01*
X14970565Y-9890000D01*
X14968516Y-9875754D01*
X14965756Y-9869711D01*
X14965287Y-9863813D01*
X14966380Y-9862279D01*
X14965553Y-9862493D01*
X14960210Y-9859950D01*
X14959838Y-9859547D01*
X14953113Y-9851786D01*
X14953113Y-9851786D01*
X14941005Y-9844005D01*
X14927196Y-9839950D01*
X14912804Y-9839950D01*
X14898995Y-9844005D01*
X14886887Y-9851786D01*
X14878067Y-9861965D01*
X14872897Y-9864841D01*
X14871530Y-9864950D01*
X14804983Y-9864950D01*
X14795017Y-9864950D01*
X14785810Y-9868764D01*
X14785810Y-9868764D01*
X14738764Y-9915810D01*
X14738764Y-9915810D01*
X14738764Y-9915810D01*
X14736288Y-9921786D01*
X14734950Y-9925017D01*
X14734950Y-10116041D01*
X14732926Y-10121601D01*
X14732416Y-10122157D01*
X14682157Y-10172417D01*
X14676795Y-10174917D01*
X14676041Y-10174950D01*
X14626531Y-10174950D01*
X14620971Y-10172926D01*
X14618012Y-10167802D01*
X14619040Y-10161975D01*
X14621854Y-10159023D01*
X14623113Y-10158214D01*
X14623113Y-10158214D01*
X14627093Y-10153621D01*
X14632537Y-10147338D01*
X14632538Y-10147337D01*
X14632537Y-10147337D01*
X14632538Y-10147337D01*
X14638516Y-10134246D01*
X14640565Y-10120000D01*
X14638516Y-10105754D01*
X14632538Y-10092663D01*
X14632538Y-10092663D01*
X14632538Y-10092663D01*
X14632537Y-10092662D01*
X14623113Y-10081786D01*
X14623113Y-10081786D01*
X14611005Y-10074005D01*
X14597196Y-10069950D01*
X14582804Y-10069950D01*
X14582804Y-10069950D01*
X14581986Y-10070190D01*
X14576081Y-10069815D01*
X14573433Y-10068007D01*
X14534772Y-10029346D01*
X14494190Y-9988764D01*
X14484983Y-9984950D01*
X14484983Y-9984950D01*
X14468470Y-9984950D01*
X14462910Y-9982926D01*
X14461933Y-9981965D01*
X14458136Y-9977583D01*
X14453113Y-9971786D01*
X14453113Y-9971786D01*
X14441005Y-9964005D01*
X14427196Y-9959950D01*
X14412804Y-9959950D01*
X14398994Y-9964005D01*
X14388949Y-9970461D01*
X14383177Y-9971764D01*
X14381636Y-9971422D01*
X14301064Y-9945639D01*
X14296385Y-9942017D01*
X14295050Y-9937400D01*
X14295050Y-9850000D01*
X14319435Y-9850000D01*
X14321483Y-9864246D01*
X14327462Y-9877337D01*
X14327462Y-9877338D01*
X14336887Y-9888214D01*
X14336887Y-9888214D01*
X14336887Y-9888214D01*
X14348995Y-9895995D01*
X14362804Y-9900050D01*
X14377196Y-9900050D01*
X14391005Y-9895995D01*
X14403113Y-9888214D01*
X14412538Y-9877337D01*
X14418516Y-9864246D01*
X14420565Y-9850000D01*
X14420565Y-9850000D01*
X14420565Y-9850000D01*
X14419278Y-9841050D01*
X14420490Y-9835259D01*
X14421723Y-9833703D01*
X14447843Y-9807584D01*
X14453205Y-9805083D01*
X14453959Y-9805050D01*
X14745017Y-9805050D01*
X14956041Y-9805050D01*
X14961601Y-9807074D01*
X14962157Y-9807584D01*
X14968276Y-9813703D01*
X14970777Y-9819065D01*
X14970722Y-9821050D01*
X14969435Y-9830000D01*
X14969435Y-9830000D01*
X14971483Y-9844246D01*
X14974111Y-9850000D01*
X14974243Y-9850289D01*
X14974712Y-9856187D01*
X14973620Y-9857721D01*
X14974447Y-9857507D01*
X14979789Y-9860050D01*
X14980162Y-9860453D01*
X14986887Y-9868214D01*
X14986887Y-9868214D01*
X14986887Y-9868214D01*
X14998995Y-9875995D01*
X15012804Y-9880050D01*
X15027196Y-9880050D01*
X15041005Y-9875995D01*
X15053113Y-9868214D01*
X15058256Y-9862279D01*
X15062537Y-9857338D01*
X15062538Y-9857337D01*
X15062537Y-9857337D01*
X15062538Y-9857337D01*
X15068516Y-9844246D01*
X15070565Y-9830000D01*
X15068516Y-9815754D01*
X15062538Y-9802663D01*
X15062538Y-9802663D01*
X15062538Y-9802663D01*
X15062537Y-9802662D01*
X15053113Y-9791786D01*
X15053113Y-9791786D01*
X15041005Y-9784005D01*
X15027196Y-9779950D01*
X15012804Y-9779950D01*
X15011986Y-9780190D01*
X15006081Y-9779815D01*
X15003433Y-9778007D01*
X14984190Y-9758764D01*
X14984190Y-9758764D01*
X14974983Y-9754950D01*
X14754983Y-9754950D01*
X14444983Y-9754950D01*
X14435017Y-9754950D01*
X14425810Y-9758764D01*
X14386567Y-9798007D01*
X14381204Y-9800508D01*
X14378013Y-9800190D01*
X14377196Y-9799950D01*
X14362804Y-9799950D01*
X14348995Y-9804005D01*
X14336887Y-9811786D01*
X14336887Y-9811786D01*
X14327462Y-9822662D01*
X14327462Y-9822663D01*
X14321483Y-9835754D01*
X14319435Y-9850000D01*
X14295050Y-9850000D01*
X14295050Y-9793959D01*
X14297074Y-9788399D01*
X14297583Y-9787843D01*
X14326662Y-9758764D01*
X14361236Y-9724190D01*
X14365050Y-9714983D01*
X14365050Y-9705017D01*
X14365050Y-9295017D01*
X14361236Y-9285810D01*
X14354190Y-9278764D01*
X14264190Y-9188764D01*
X14254983Y-9184950D01*
X14254983Y-9184950D01*
X14128470Y-9184950D01*
X14122910Y-9182926D01*
X14121933Y-9181965D01*
X14113113Y-9171786D01*
X14101005Y-9164005D01*
X14087196Y-9159950D01*
X14072804Y-9159950D01*
X14058995Y-9164005D01*
X14046887Y-9171786D01*
X14046887Y-9171786D01*
X14037462Y-9182662D01*
X14037462Y-9182663D01*
X14031483Y-9195754D01*
X14029435Y-9210000D01*
X14031483Y-9224246D01*
X14037462Y-9237337D01*
X14037462Y-9237338D01*
X14046887Y-9248214D01*
X14046887Y-9248214D01*
X14046887Y-9248214D01*
X14058995Y-9255995D01*
X14072804Y-9260050D01*
X14087196Y-9260050D01*
X14101005Y-9255995D01*
X14113113Y-9248214D01*
X14121933Y-9238035D01*
X14127103Y-9235159D01*
X14128470Y-9235050D01*
X14236041Y-9235050D01*
X14241601Y-9237074D01*
X14242157Y-9237584D01*
X14312416Y-9307843D01*
X14314917Y-9313205D01*
X14314950Y-9313959D01*
X14314950Y-9696041D01*
X14312926Y-9701601D01*
X14312416Y-9702157D01*
X14248764Y-9765810D01*
X14244950Y-9775017D01*
X14244950Y-9956739D01*
X14244712Y-9958264D01*
X14244719Y-9958265D01*
X14244623Y-9959111D01*
X14244920Y-9962682D01*
X14244950Y-9963399D01*
X14244950Y-9966983D01*
X14245116Y-9967819D01*
X14245109Y-9967820D01*
X14245207Y-9968226D01*
X14245214Y-9968224D01*
X14245449Y-9969042D01*
X14245449Y-9969042D01*
X14245449Y-9969042D01*
X14247091Y-9972229D01*
X14247392Y-9972879D01*
X14248763Y-9976190D01*
X14249237Y-9976898D01*
X14249231Y-9976902D01*
X14249476Y-9977239D01*
X14249482Y-9977235D01*
X14250013Y-9977901D01*
X14252748Y-9980216D01*
X14253276Y-9980702D01*
X14255810Y-9983236D01*
X14256519Y-9983710D01*
X14256514Y-9983716D01*
X14256871Y-9983933D01*
X14256874Y-9983927D01*
X14257619Y-9984339D01*
X14257620Y-9984340D01*
X14261033Y-9985432D01*
X14261706Y-9985679D01*
X14265017Y-9987050D01*
X14265853Y-9987216D01*
X14265851Y-9987224D01*
X14267375Y-9987462D01*
X14271287Y-9988713D01*
X14365989Y-10019018D01*
X14370667Y-10022640D01*
X14371155Y-10023716D01*
X14371226Y-10023683D01*
X14375179Y-10032337D01*
X14377462Y-10037337D01*
X14385871Y-10047041D01*
X14387982Y-10052568D01*
X14387883Y-10054021D01*
X14355759Y-10262822D01*
X14355323Y-10264507D01*
X14354777Y-10265983D01*
X14354777Y-10265984D01*
X14354844Y-10267736D01*
X14354750Y-10269383D01*
X14354483Y-10271115D01*
X14354483Y-10271116D01*
X14354858Y-10272645D01*
X14355099Y-10274369D01*
X14363101Y-10482417D01*
X14361293Y-10488051D01*
X14360574Y-10488866D01*
X14283874Y-10565567D01*
X14275951Y-10573489D01*
X14270350Y-10583191D01*
X14270350Y-10583192D01*
X14270350Y-10583192D01*
X14267450Y-10594014D01*
X14267450Y-10594014D01*
X14267450Y-10760808D01*
X14266668Y-10764401D01*
X14261483Y-10775754D01*
X14259435Y-10790000D01*
X14261483Y-10804246D01*
X14267462Y-10817337D01*
X14267462Y-10817338D01*
X14276887Y-10828214D01*
X14276887Y-10828214D01*
X14276887Y-10828214D01*
X14288995Y-10835995D01*
X14296539Y-10838211D01*
X14300219Y-10840394D01*
X14365649Y-10905824D01*
X14365649Y-10905824D01*
X14372509Y-10912684D01*
X14375009Y-10918046D01*
X14373478Y-10923761D01*
X14368631Y-10927155D01*
X14366392Y-10927450D01*
X14211208Y-10927450D01*
X14205648Y-10925426D01*
X14205091Y-10924917D01*
X14175083Y-10894909D01*
X14172583Y-10889546D01*
X14172550Y-10888792D01*
X14172550Y-10499398D01*
X14172550Y-10499398D01*
X14169650Y-10488576D01*
X14164048Y-10478874D01*
X14156126Y-10470952D01*
X14111126Y-10425952D01*
X14105698Y-10422817D01*
X14101424Y-10420350D01*
X14101424Y-10420350D01*
X14101424Y-10420350D01*
X14090602Y-10417450D01*
X14090602Y-10417450D01*
X13830989Y-10417450D01*
X13830655Y-10417444D01*
X13830409Y-10417434D01*
X13826044Y-10417266D01*
X13826043Y-10417266D01*
X13826043Y-10417266D01*
X13825479Y-10417318D01*
X13825478Y-10417314D01*
X13824960Y-10417372D01*
X13824960Y-10417376D01*
X13824398Y-10417450D01*
X13819941Y-10418644D01*
X13819618Y-10418724D01*
X13815118Y-10419746D01*
X13814586Y-10419942D01*
X13814585Y-10419938D01*
X13814098Y-10420129D01*
X13814100Y-10420133D01*
X13813576Y-10420350D01*
X13809581Y-10422656D01*
X13809289Y-10422817D01*
X13774867Y-10440958D01*
X13769757Y-10441888D01*
X13768521Y-10441733D01*
X13768521Y-10441733D01*
X13763488Y-10443115D01*
X13763488Y-10443115D01*
X13626274Y-10511826D01*
X13622152Y-10515029D01*
X13619558Y-10519588D01*
X13615048Y-10523419D01*
X13609132Y-10523455D01*
X13604576Y-10519679D01*
X13604049Y-10518620D01*
X13603776Y-10517959D01*
X13595015Y-10504848D01*
X13583865Y-10493698D01*
X13572554Y-10486140D01*
X13569056Y-10481369D01*
X13569443Y-10475465D01*
X13573487Y-10471214D01*
X13594270Y-10460807D01*
X13594270Y-10460806D01*
X13569643Y-10411628D01*
X13529406Y-10431777D01*
X13529406Y-10431777D01*
X13545194Y-10463304D01*
X13545874Y-10469182D01*
X13542617Y-10474121D01*
X13537459Y-10475827D01*
X13524951Y-10475827D01*
X13509487Y-10478903D01*
X13509486Y-10478903D01*
X13501702Y-10482128D01*
X13494918Y-10484938D01*
X13494918Y-10484938D01*
X13494918Y-10484938D01*
X13481807Y-10493698D01*
X13470657Y-10504848D01*
X13466296Y-10511375D01*
X13461524Y-10514874D01*
X13455620Y-10514487D01*
X13451369Y-10510442D01*
X13435520Y-10478792D01*
X13435520Y-10478792D01*
X13395283Y-10498941D01*
X13339449Y-10498941D01*
X13361735Y-10487781D01*
X13361735Y-10487781D01*
X13337109Y-10438603D01*
X13337109Y-10438603D01*
X13310979Y-10451687D01*
X13310979Y-10451687D01*
X13306869Y-10454881D01*
X13303424Y-10460932D01*
X13302558Y-10467839D01*
X13264974Y-10467839D01*
X13264084Y-10461155D01*
X13264008Y-10460013D01*
X13264008Y-10439987D01*
X13264084Y-10438844D01*
X13264431Y-10436236D01*
X13265608Y-10427409D01*
X13359462Y-10427409D01*
X13384089Y-10476587D01*
X13424326Y-10456438D01*
X13424326Y-10456438D01*
X13406764Y-10421367D01*
X13403570Y-10417256D01*
X13397519Y-10413812D01*
X13390612Y-10412946D01*
X13385593Y-10414324D01*
X13359462Y-10427409D01*
X13265608Y-10427409D01*
X13266729Y-10418993D01*
X13266954Y-10417873D01*
X13272199Y-10398544D01*
X13272570Y-10397463D01*
X13280434Y-10378728D01*
X13280672Y-10378211D01*
X13283119Y-10373318D01*
X13285111Y-10369332D01*
X13499272Y-10369332D01*
X13499272Y-10369332D01*
X13500650Y-10374352D01*
X13518212Y-10409423D01*
X13518212Y-10409423D01*
X13536163Y-10400434D01*
X13591997Y-10400434D01*
X13591997Y-10400434D01*
X13616624Y-10449612D01*
X13642754Y-10436528D01*
X13646864Y-10433334D01*
X13650308Y-10427283D01*
X13651174Y-10420376D01*
X13651174Y-10420376D01*
X13649797Y-10415357D01*
X13632234Y-10380285D01*
X13632234Y-10380285D01*
X13591997Y-10400434D01*
X13536163Y-10400434D01*
X13558449Y-10389274D01*
X13558449Y-10389274D01*
X13533823Y-10340096D01*
X13533822Y-10340096D01*
X13507693Y-10353180D01*
X13507693Y-10353180D01*
X13503582Y-10356374D01*
X13500138Y-10362425D01*
X13499272Y-10369332D01*
X13285111Y-10369332D01*
X13305326Y-10328902D01*
X13556176Y-10328902D01*
X13580803Y-10378080D01*
X13621040Y-10357931D01*
X13621040Y-10357931D01*
X13603478Y-10322860D01*
X13600284Y-10318749D01*
X13594233Y-10315305D01*
X13587326Y-10314439D01*
X13582307Y-10315817D01*
X13556176Y-10328902D01*
X13305326Y-10328902D01*
X13799777Y-9340000D01*
X14039435Y-9340000D01*
X14041483Y-9354246D01*
X14047462Y-9367337D01*
X14047462Y-9367338D01*
X14056887Y-9378214D01*
X14056887Y-9378214D01*
X14056887Y-9378214D01*
X14060976Y-9380842D01*
X14064560Y-9385551D01*
X14064950Y-9388119D01*
X14064950Y-9956881D01*
X14062926Y-9962441D01*
X14060977Y-9964158D01*
X14056887Y-9966786D01*
X14056887Y-9966786D01*
X14047462Y-9977662D01*
X14047462Y-9977663D01*
X14041483Y-9990754D01*
X14039435Y-10005000D01*
X14041483Y-10019246D01*
X14047462Y-10032337D01*
X14047462Y-10032338D01*
X14056887Y-10043214D01*
X14056887Y-10043214D01*
X14056887Y-10043214D01*
X14068995Y-10050995D01*
X14082804Y-10055050D01*
X14097196Y-10055050D01*
X14111005Y-10050995D01*
X14123113Y-10043214D01*
X14123591Y-10042663D01*
X14132537Y-10032338D01*
X14132538Y-10032337D01*
X14132537Y-10032337D01*
X14132538Y-10032337D01*
X14138516Y-10019246D01*
X14140565Y-10005000D01*
X14138516Y-9990754D01*
X14132538Y-9977663D01*
X14132538Y-9977663D01*
X14132538Y-9977663D01*
X14132537Y-9977662D01*
X14123113Y-9966786D01*
X14123113Y-9966786D01*
X14123113Y-9966786D01*
X14119023Y-9964158D01*
X14115440Y-9959449D01*
X14115050Y-9956881D01*
X14115050Y-9388119D01*
X14117074Y-9382559D01*
X14119023Y-9380842D01*
X14123113Y-9378214D01*
X14132538Y-9367337D01*
X14138516Y-9354246D01*
X14140565Y-9340000D01*
X14138516Y-9325754D01*
X14132538Y-9312663D01*
X14132538Y-9312663D01*
X14132538Y-9312663D01*
X14132537Y-9312662D01*
X14123113Y-9301786D01*
X14123113Y-9301786D01*
X14111005Y-9294005D01*
X14097196Y-9289950D01*
X14082804Y-9289950D01*
X14068995Y-9294005D01*
X14056887Y-9301786D01*
X14056887Y-9301786D01*
X14047462Y-9312662D01*
X14047462Y-9312663D01*
X14041483Y-9325754D01*
X14039435Y-9340000D01*
X13799777Y-9340000D01*
X13932277Y-9075000D01*
X14244435Y-9075000D01*
X14246483Y-9089246D01*
X14252462Y-9102337D01*
X14252462Y-9102338D01*
X14261887Y-9113214D01*
X14261887Y-9113214D01*
X14261887Y-9113214D01*
X14273995Y-9120995D01*
X14287804Y-9125050D01*
X14302196Y-9125050D01*
X14316005Y-9120995D01*
X14328113Y-9113214D01*
X14337538Y-9102337D01*
X14343516Y-9089246D01*
X14345565Y-9075000D01*
X14343516Y-9060754D01*
X14337538Y-9047663D01*
X14337538Y-9047663D01*
X14337538Y-9047663D01*
X14337537Y-9047662D01*
X14328113Y-9036786D01*
X14328113Y-9036786D01*
X14328113Y-9036786D01*
X14324023Y-9034158D01*
X14320440Y-9029449D01*
X14320050Y-9026881D01*
X14320050Y-8633959D01*
X14322074Y-8628399D01*
X14322583Y-8627843D01*
X14414655Y-8535771D01*
X14544950Y-8535771D01*
X14544950Y-9239229D01*
X14545968Y-9244348D01*
X14545968Y-9244348D01*
X14549847Y-9250153D01*
X14549847Y-9250153D01*
X14555652Y-9254032D01*
X14558247Y-9254548D01*
X14560771Y-9255050D01*
X14560771Y-9255050D01*
X14560771Y-9255050D01*
X14560772Y-9255050D01*
X14844228Y-9255050D01*
X14844228Y-9255050D01*
X14849348Y-9254032D01*
X14855153Y-9250153D01*
X14859032Y-9244348D01*
X14860050Y-9239228D01*
X14860050Y-8921200D01*
X14862074Y-8915640D01*
X14867198Y-8912681D01*
X14868700Y-8912550D01*
X14881588Y-8912550D01*
X14887148Y-8914574D01*
X14890106Y-8919698D01*
X14890149Y-8919964D01*
X14891483Y-8929246D01*
X14897462Y-8942337D01*
X14897462Y-8942338D01*
X14906887Y-8953214D01*
X14906887Y-8953214D01*
X14906887Y-8953214D01*
X14918995Y-8960995D01*
X14932804Y-8965050D01*
X14947196Y-8965050D01*
X14961005Y-8960995D01*
X14973113Y-8953214D01*
X14982538Y-8942337D01*
X14988516Y-8929246D01*
X14990565Y-8915000D01*
X14988516Y-8900754D01*
X14982538Y-8887663D01*
X14982538Y-8887663D01*
X14982538Y-8887663D01*
X14982537Y-8887662D01*
X14973113Y-8876786D01*
X14973113Y-8876786D01*
X14961005Y-8869005D01*
X14947196Y-8864950D01*
X14932804Y-8864950D01*
X14930298Y-8865686D01*
X14924551Y-8865378D01*
X14917483Y-8862450D01*
X14917483Y-8862450D01*
X14868700Y-8862450D01*
X14863140Y-8860426D01*
X14860181Y-8855302D01*
X14860050Y-8853800D01*
X14860050Y-8580094D01*
X14942888Y-8580094D01*
X14942888Y-8580095D01*
X14960450Y-8615165D01*
X14960450Y-8615167D01*
X14963644Y-8619276D01*
X14964115Y-8619544D01*
X14967946Y-8624054D01*
X14968485Y-8627227D01*
X14968474Y-8627799D01*
X14970381Y-8636226D01*
X14970381Y-8636226D01*
X14991789Y-8678976D01*
X14998226Y-8691831D01*
X14998227Y-8691832D01*
X15001017Y-8695850D01*
X15001157Y-8696052D01*
X15010956Y-8706573D01*
X15014957Y-8709796D01*
X15027323Y-8717131D01*
X15032070Y-8719096D01*
X15046002Y-8722650D01*
X15046004Y-8722650D01*
X15046041Y-8722657D01*
X15046050Y-8722662D01*
X15046301Y-8722726D01*
X15046283Y-8722798D01*
X15051155Y-8725633D01*
X15053159Y-8731170D01*
X15053159Y-8774839D01*
X15051135Y-8780399D01*
X15046946Y-8783138D01*
X15043995Y-8784005D01*
X15031887Y-8791786D01*
X15031887Y-8791786D01*
X15022462Y-8802662D01*
X15022462Y-8802663D01*
X15016483Y-8815754D01*
X15014435Y-8830000D01*
X15016483Y-8844246D01*
X15022462Y-8857337D01*
X15022462Y-8857338D01*
X15031887Y-8868214D01*
X15031887Y-8868214D01*
X15031887Y-8868214D01*
X15043995Y-8875995D01*
X15057804Y-8880050D01*
X15072196Y-8880050D01*
X15086005Y-8875995D01*
X15098113Y-8868214D01*
X15099803Y-8866264D01*
X15107537Y-8857338D01*
X15107538Y-8857337D01*
X15107537Y-8857337D01*
X15107538Y-8857337D01*
X15113516Y-8844246D01*
X15115565Y-8830000D01*
X15113516Y-8815754D01*
X15107538Y-8802663D01*
X15105371Y-8800163D01*
X15103260Y-8794635D01*
X15103259Y-8794498D01*
X15103259Y-8712644D01*
X15105282Y-8707084D01*
X15108036Y-8704909D01*
X15126127Y-8695850D01*
X15127267Y-8695377D01*
X15128884Y-8694839D01*
X15133477Y-8692539D01*
X15145286Y-8684337D01*
X15149046Y-8680835D01*
X15158066Y-8669639D01*
X15160686Y-8665220D01*
X15166187Y-8651936D01*
X15167457Y-8646957D01*
X15168991Y-8632662D01*
X15168991Y-8632661D01*
X15168991Y-8632660D01*
X15168807Y-8627528D01*
X15168807Y-8627528D01*
X15167365Y-8619544D01*
X15166252Y-8613379D01*
X15164629Y-8608504D01*
X15161861Y-8602978D01*
X15161861Y-8602977D01*
X15136784Y-8552899D01*
X15136783Y-8552897D01*
X15135691Y-8551011D01*
X15129863Y-8545647D01*
X15127143Y-8540392D01*
X15127139Y-8538206D01*
X15127247Y-8537350D01*
X15125869Y-8532331D01*
X15108306Y-8497259D01*
X15108306Y-8497259D01*
X15016918Y-8543023D01*
X15016918Y-8543023D01*
X14942888Y-8580094D01*
X14860050Y-8580094D01*
X14860050Y-8552010D01*
X14862074Y-8546450D01*
X14862582Y-8545895D01*
X14898059Y-8510418D01*
X14903421Y-8507918D01*
X14909137Y-8509449D01*
X14912531Y-8514296D01*
X14912758Y-8517610D01*
X14912753Y-8517650D01*
X14914131Y-8522669D01*
X14931694Y-8557741D01*
X14931694Y-8557741D01*
X15025580Y-8510726D01*
X15097112Y-8474905D01*
X15097112Y-8474905D01*
X15079550Y-8439835D01*
X15079549Y-8439833D01*
X15076356Y-8435724D01*
X15075884Y-8435455D01*
X15072054Y-8430946D01*
X15071515Y-8427773D01*
X15071526Y-8427201D01*
X15070426Y-8422338D01*
X15069619Y-8418775D01*
X15048211Y-8376024D01*
X15041773Y-8363168D01*
X15038843Y-8358948D01*
X15029044Y-8348427D01*
X15025043Y-8345204D01*
X15025043Y-8345204D01*
X15012677Y-8337869D01*
X15012676Y-8337869D01*
X15007929Y-8335904D01*
X15002491Y-8334517D01*
X14993998Y-8332350D01*
X14992295Y-8332167D01*
X14988890Y-8331802D01*
X14988889Y-8331802D01*
X14974522Y-8332317D01*
X14974522Y-8332317D01*
X14969465Y-8333230D01*
X14955824Y-8337773D01*
X14951230Y-8340073D01*
X14949831Y-8341045D01*
X14948770Y-8341675D01*
X14913873Y-8359150D01*
X14912733Y-8359623D01*
X14911117Y-8360161D01*
X14911116Y-8360161D01*
X14906523Y-8362461D01*
X14906522Y-8362462D01*
X14894714Y-8370663D01*
X14894714Y-8370663D01*
X14890953Y-8374165D01*
X14881934Y-8385361D01*
X14881934Y-8385362D01*
X14879313Y-8389780D01*
X14873813Y-8403065D01*
X14872544Y-8408041D01*
X14872543Y-8408043D01*
X14871009Y-8422338D01*
X14871009Y-8422339D01*
X14871193Y-8427472D01*
X14871193Y-8427472D01*
X14873748Y-8441621D01*
X14873748Y-8441622D01*
X14875371Y-8446496D01*
X14877836Y-8451417D01*
X14878516Y-8457295D01*
X14876218Y-8461407D01*
X14820209Y-8517417D01*
X14814846Y-8519917D01*
X14814092Y-8519950D01*
X14560771Y-8519950D01*
X14555652Y-8520968D01*
X14555652Y-8520968D01*
X14549847Y-8524847D01*
X14549847Y-8524847D01*
X14545968Y-8530652D01*
X14545968Y-8530652D01*
X14544950Y-8535771D01*
X14414655Y-8535771D01*
X14512843Y-8437584D01*
X14518205Y-8435083D01*
X14518959Y-8435050D01*
X14681530Y-8435050D01*
X14687090Y-8437074D01*
X14688067Y-8438035D01*
X14696887Y-8448214D01*
X14708995Y-8455995D01*
X14722804Y-8460050D01*
X14737196Y-8460050D01*
X14751005Y-8455995D01*
X14763113Y-8448214D01*
X14764602Y-8446496D01*
X14772537Y-8437338D01*
X14772538Y-8437337D01*
X14772537Y-8437337D01*
X14772538Y-8437337D01*
X14778516Y-8424246D01*
X14780565Y-8410000D01*
X14778516Y-8395754D01*
X14772538Y-8382663D01*
X14772538Y-8382663D01*
X14772538Y-8382662D01*
X14772537Y-8382662D01*
X14763113Y-8371786D01*
X14763113Y-8371786D01*
X14751005Y-8364005D01*
X14737196Y-8359950D01*
X14722804Y-8359950D01*
X14708995Y-8364005D01*
X14696887Y-8371786D01*
X14688067Y-8381964D01*
X14682897Y-8384841D01*
X14681530Y-8384950D01*
X14509983Y-8384950D01*
X14500017Y-8384950D01*
X14490810Y-8388764D01*
X14490810Y-8388764D01*
X14273764Y-8605810D01*
X14273764Y-8605810D01*
X14273764Y-8605810D01*
X14272648Y-8608504D01*
X14269950Y-8615017D01*
X14269950Y-9026881D01*
X14267926Y-9032441D01*
X14265977Y-9034158D01*
X14261887Y-9036786D01*
X14261887Y-9036786D01*
X14252462Y-9047662D01*
X14252462Y-9047663D01*
X14246483Y-9060754D01*
X14244435Y-9075000D01*
X13932277Y-9075000D01*
X14432742Y-8074070D01*
X14432742Y-8074069D01*
X14433247Y-8073060D01*
X14433247Y-8073060D01*
X14434219Y-8071116D01*
X14434224Y-8071111D01*
X14435824Y-8067911D01*
X14435824Y-8067911D01*
X14442082Y-8055394D01*
X14451604Y-8029076D01*
X14458004Y-8001831D01*
X14461195Y-7974026D01*
X14461133Y-7946038D01*
X14457820Y-7918248D01*
X14451300Y-7891030D01*
X14447007Y-7879325D01*
X14441663Y-7864756D01*
X14441662Y-7864755D01*
X14429037Y-7839777D01*
X14429037Y-7839777D01*
X14413594Y-7816436D01*
X14395546Y-7795048D01*
X14395545Y-7795047D01*
X14395543Y-7795046D01*
X14390029Y-7789873D01*
X14390027Y-7789870D01*
X14385483Y-7785608D01*
X14385200Y-7785330D01*
X14356171Y-7755481D01*
X14355644Y-7754887D01*
X14349848Y-7747714D01*
X14329599Y-7722654D01*
X14329130Y-7722015D01*
X14306152Y-7687530D01*
X14305743Y-7686852D01*
X14286025Y-7650405D01*
X14285680Y-7649690D01*
X14279176Y-7634479D01*
X14269388Y-7611588D01*
X14269110Y-7610844D01*
X14267286Y-7605193D01*
X14256381Y-7571408D01*
X14256173Y-7570644D01*
X14247116Y-7530207D01*
X14246978Y-7529424D01*
X14246938Y-7529117D01*
X14241668Y-7488327D01*
X14241603Y-7487537D01*
X14240227Y-7450000D01*
X14294461Y-7450000D01*
X14296414Y-7489749D01*
X14302254Y-7529117D01*
X14302527Y-7530207D01*
X14311924Y-7567722D01*
X14325331Y-7605193D01*
X14342347Y-7641169D01*
X14362807Y-7675305D01*
X14371629Y-7687201D01*
X14386514Y-7707270D01*
X14386514Y-7707271D01*
X14386514Y-7707271D01*
X14413241Y-7736759D01*
X14442729Y-7763485D01*
X14474695Y-7787193D01*
X14508830Y-7807653D01*
X14544807Y-7824669D01*
X14582278Y-7838076D01*
X14620883Y-7847746D01*
X14660250Y-7853586D01*
X14700000Y-7855538D01*
X14739750Y-7853586D01*
X14779117Y-7847746D01*
X14817722Y-7838076D01*
X14855193Y-7824669D01*
X14891169Y-7807653D01*
X14925305Y-7787193D01*
X14957271Y-7763485D01*
X14986759Y-7736759D01*
X15013485Y-7707271D01*
X15037193Y-7675305D01*
X15057653Y-7641169D01*
X15074669Y-7605193D01*
X15088076Y-7567722D01*
X15097746Y-7529117D01*
X15103586Y-7489750D01*
X15105538Y-7450000D01*
X15103586Y-7410250D01*
X15097746Y-7370883D01*
X15088076Y-7332278D01*
X15074669Y-7294807D01*
X15057653Y-7258830D01*
X15037193Y-7224695D01*
X15013485Y-7192729D01*
X14986759Y-7163241D01*
X14957271Y-7136514D01*
X14957271Y-7136514D01*
X14957270Y-7136514D01*
X14943296Y-7126150D01*
X14925305Y-7112807D01*
X14891169Y-7092347D01*
X14869605Y-7082148D01*
X14855193Y-7075331D01*
X14855193Y-7075331D01*
X14855193Y-7075331D01*
X14817722Y-7061924D01*
X14817721Y-7061924D01*
X14817721Y-7061924D01*
X14779117Y-7052254D01*
X14751383Y-7048140D01*
X14739750Y-7046414D01*
X14739749Y-7046414D01*
X14739749Y-7046414D01*
X14700000Y-7044461D01*
X14660251Y-7046414D01*
X14620883Y-7052254D01*
X14582279Y-7061924D01*
X14544806Y-7075331D01*
X14508830Y-7092347D01*
X14474695Y-7112807D01*
X14442730Y-7136514D01*
X14413242Y-7163240D01*
X14413240Y-7163242D01*
X14386514Y-7192730D01*
X14362807Y-7224695D01*
X14342347Y-7258830D01*
X14325331Y-7294806D01*
X14311924Y-7332279D01*
X14302254Y-7370883D01*
X14296414Y-7410251D01*
X14294461Y-7450000D01*
X14240227Y-7450000D01*
X14240084Y-7446125D01*
X14240092Y-7445333D01*
X14242379Y-7403956D01*
X14242459Y-7403169D01*
X14248531Y-7362175D01*
X14248683Y-7361399D01*
X14258490Y-7321134D01*
X14258712Y-7320376D01*
X14272171Y-7281180D01*
X14272463Y-7280444D01*
X14289460Y-7242650D01*
X14289818Y-7241943D01*
X14310209Y-7205868D01*
X14310630Y-7205197D01*
X14334246Y-7171143D01*
X14334726Y-7170514D01*
X14361366Y-7138769D01*
X14361902Y-7138188D01*
X14391341Y-7109021D01*
X14391928Y-7108490D01*
X14423918Y-7082147D01*
X14424551Y-7081672D01*
X14458823Y-7058374D01*
X14459497Y-7057959D01*
X14495761Y-7037903D01*
X14496472Y-7037552D01*
X14534421Y-7020907D01*
X14535161Y-7020622D01*
X14574478Y-7007528D01*
X14575239Y-7007313D01*
X14615591Y-6997880D01*
X14616372Y-6997735D01*
X14657419Y-6992044D01*
X14658206Y-6991971D01*
X14699604Y-6990068D01*
X14700396Y-6990068D01*
X14741793Y-6991971D01*
G37*
%TD.AperFunction*%
%TD*%
M02*
