%TF.GenerationSoftware,KiCad,Pcbnew,8.0.3*%
%TF.CreationDate,2024-06-16T19:36:31+02:00*%
%TF.ProjectId,jewelled_lc1,6a657765-6c6c-4656-945f-6c63312e6b69,rev?*%
%TF.SameCoordinates,Original*%
%TF.FileFunction,Soldermask,Top*%
%TF.FilePolarity,Negative*%
%FSLAX45Y45*%
G04 Gerber Fmt 4.5, Leading zero omitted, Abs format (unit mm)*
G04 Created by KiCad (PCBNEW 8.0.3) date 2024-06-16 19:36:31*
%MOMM*%
%LPD*%
G01*
G04 APERTURE LIST*
G04 Aperture macros list*
%AMRoundRect*
0 Rectangle with rounded corners*
0 $1 Rounding radius*
0 $2 $3 $4 $5 $6 $7 $8 $9 X,Y pos of 4 corners*
0 Add a 4 corners polygon primitive as box body*
4,1,4,$2,$3,$4,$5,$6,$7,$8,$9,$2,$3,0*
0 Add four circle primitives for the rounded corners*
1,1,$1+$1,$2,$3*
1,1,$1+$1,$4,$5*
1,1,$1+$1,$6,$7*
1,1,$1+$1,$8,$9*
0 Add four rect primitives between the rounded corners*
20,1,$1+$1,$2,$3,$4,$5,0*
20,1,$1+$1,$4,$5,$6,$7,0*
20,1,$1+$1,$6,$7,$8,$9,0*
20,1,$1+$1,$8,$9,$2,$3,0*%
%AMRotRect*
0 Rectangle, with rotation*
0 The origin of the aperture is its center*
0 $1 length*
0 $2 width*
0 $3 Rotation angle, in degrees counterclockwise*
0 Add horizontal line*
21,1,$1,$2,0,0,$3*%
%AMFreePoly0*
4,1,5,0.110000,-0.125000,-0.110000,-0.125000,-0.110000,0.125000,0.360000,0.125000,0.110000,-0.125000,0.110000,-0.125000,$1*%
%AMFreePoly1*
4,1,6,0.290000,-0.055000,0.290000,-0.125000,-0.110000,-0.125000,-0.110000,0.125000,0.110000,0.125000,0.290000,-0.055000,0.290000,-0.055000,$1*%
%AMFreePoly2*
4,1,7,0.110000,-0.125000,-0.110000,-0.125000,-0.290000,-0.125000,-0.290000,-0.055000,-0.110000,0.125000,0.110000,0.125000,0.110000,-0.125000,0.110000,-0.125000,$1*%
%AMFreePoly3*
4,1,6,0.110000,-0.125000,-0.110000,-0.125000,-0.290000,0.055000,-0.290000,0.125000,0.110000,0.125000,0.110000,-0.125000,0.110000,-0.125000,$1*%
G04 Aperture macros list end*
%ADD10RoundRect,0.147500X0.220286X-0.054649X0.088197X0.209126X-0.220286X0.054649X-0.088197X-0.209126X0*%
%ADD11RoundRect,0.100000X-0.125000X-0.100000X0.125000X-0.100000X0.125000X0.100000X-0.125000X0.100000X0*%
%ADD12R,0.350000X0.650000*%
%ADD13R,1.600000X1.000000*%
%ADD14RoundRect,0.147500X0.088197X-0.209126X0.220286X0.054649X-0.088197X0.209126X-0.220286X-0.054649X0*%
%ADD15RoundRect,0.147500X0.172500X-0.147500X0.172500X0.147500X-0.172500X0.147500X-0.172500X-0.147500X0*%
%ADD16RoundRect,0.135000X-0.135000X-0.185000X0.135000X-0.185000X0.135000X0.185000X-0.135000X0.185000X0*%
%ADD17RoundRect,0.140000X0.170000X-0.140000X0.170000X0.140000X-0.170000X0.140000X-0.170000X-0.140000X0*%
%ADD18FreePoly0,270.000000*%
%ADD19FreePoly1,270.000000*%
%ADD20FreePoly2,270.000000*%
%ADD21FreePoly3,270.000000*%
%ADD22RotRect,0.480000X0.480000X315.000000*%
%ADD23RoundRect,0.140000X-0.170000X0.140000X-0.170000X-0.140000X0.170000X-0.140000X0.170000X0.140000X0*%
%ADD24RoundRect,0.140000X-0.140000X-0.170000X0.140000X-0.170000X0.140000X0.170000X-0.140000X0.170000X0*%
%ADD25RoundRect,0.135000X-0.185000X0.135000X-0.185000X-0.135000X0.185000X-0.135000X0.185000X0.135000X0*%
%ADD26R,0.200000X0.500000*%
%ADD27R,0.650000X0.500000*%
%ADD28RoundRect,0.147500X0.054649X0.220286X-0.209126X0.088197X-0.054649X-0.220286X0.209126X-0.088197X0*%
%ADD29RoundRect,0.135000X0.135000X0.185000X-0.135000X0.185000X-0.135000X-0.185000X0.135000X-0.185000X0*%
%ADD30C,4.700000*%
%ADD31C,7.500000*%
%ADD32RoundRect,0.062500X-0.372500X-0.062500X0.372500X-0.062500X0.372500X0.062500X-0.372500X0.062500X0*%
%ADD33R,0.610000X2.200000*%
%ADD34FreePoly0,0.000000*%
%ADD35FreePoly1,0.000000*%
%ADD36FreePoly2,0.000000*%
%ADD37FreePoly3,0.000000*%
%ADD38RotRect,0.480000X0.480000X45.000000*%
%ADD39RoundRect,0.140000X0.140000X0.170000X-0.140000X0.170000X-0.140000X-0.170000X0.140000X-0.170000X0*%
%ADD40R,1.100000X1.800000*%
%ADD41R,0.540000X0.600000*%
%ADD42RoundRect,0.050000X-0.387500X-0.050000X0.387500X-0.050000X0.387500X0.050000X-0.387500X0.050000X0*%
%ADD43RoundRect,0.050000X-0.050000X-0.387500X0.050000X-0.387500X0.050000X0.387500X-0.050000X0.387500X0*%
%ADD44R,2.600000X2.600000*%
%ADD45RoundRect,0.062500X0.062500X-0.350000X0.062500X0.350000X-0.062500X0.350000X-0.062500X-0.350000X0*%
%ADD46RoundRect,0.062500X0.350000X-0.062500X0.350000X0.062500X-0.350000X0.062500X-0.350000X-0.062500X0*%
%ADD47R,2.400000X2.400000*%
%ADD48C,1.200000*%
G04 APERTURE END LIST*
D10*
%TO.C,D8*%
X15221716Y-8873367D03*
X15178284Y-8786634D03*
%TD*%
D11*
%TO.C,D19*%
X15032500Y-11200000D03*
X15032500Y-11280000D03*
X15147500Y-11240000D03*
%TD*%
D12*
%TO.C,U4*%
X14550000Y-11820000D03*
X14615000Y-11820000D03*
X14680000Y-11820000D03*
X14680000Y-11610000D03*
X14615000Y-11610000D03*
X14550000Y-11610000D03*
D13*
X14615000Y-11715000D03*
%TD*%
D14*
%TO.C,D11*%
X14178284Y-8873367D03*
X14221716Y-8786634D03*
%TD*%
D15*
%TO.C,D14*%
X13390000Y-10498500D03*
X13390000Y-10401500D03*
%TD*%
D16*
%TO.C,R4*%
X14544000Y-11955000D03*
X14646000Y-11955000D03*
%TD*%
D17*
%TO.C,C7*%
X14345000Y-11003000D03*
X14345000Y-10907000D03*
%TD*%
%TO.C,C9*%
X14225000Y-11003000D03*
X14225000Y-10907000D03*
%TD*%
D14*
%TO.C,D13*%
X13638284Y-9953367D03*
X13681716Y-9866634D03*
%TD*%
D18*
%TO.C,U2*%
X14772500Y-10856000D03*
D19*
X14707500Y-10856000D03*
D20*
X14707500Y-10964000D03*
D21*
X14772500Y-10964000D03*
D22*
X14740000Y-10910000D03*
%TD*%
D23*
%TO.C,C11*%
X14510000Y-9912000D03*
X14510000Y-10008000D03*
%TD*%
D16*
%TO.C,R3*%
X14489000Y-10870000D03*
X14591000Y-10870000D03*
%TD*%
D10*
%TO.C,D16*%
X13948466Y-11563366D03*
X13905034Y-11476633D03*
%TD*%
D24*
%TO.C,C5*%
X14492000Y-10750000D03*
X14588000Y-10750000D03*
%TD*%
D18*
%TO.C,U8*%
X15077500Y-10856000D03*
D19*
X15012500Y-10856000D03*
D20*
X15012500Y-10964000D03*
D21*
X15077500Y-10964000D03*
D22*
X15045000Y-10910000D03*
%TD*%
D24*
%TO.C,C1*%
X14647000Y-12555000D03*
X14743000Y-12555000D03*
%TD*%
D25*
%TO.C,R1*%
X14750000Y-9909000D03*
X14750000Y-10011000D03*
%TD*%
D26*
%TO.C,Q2*%
X15272500Y-10872500D03*
X15227500Y-10872500D03*
D27*
X15250000Y-10947500D03*
%TD*%
D14*
%TO.C,D12*%
X13908284Y-9413367D03*
X13951716Y-9326634D03*
%TD*%
D23*
%TO.C,C10*%
X14630000Y-9912000D03*
X14630000Y-10008000D03*
%TD*%
D28*
%TO.C,D15*%
X13728366Y-10993284D03*
X13641633Y-11036716D03*
%TD*%
D10*
%TO.C,D7*%
X15491716Y-9413367D03*
X15448284Y-9326634D03*
%TD*%
D17*
%TO.C,C3*%
X14825000Y-11833000D03*
X14825000Y-11737000D03*
%TD*%
D14*
%TO.C,D3*%
X15448284Y-11573366D03*
X15491716Y-11486633D03*
%TD*%
D24*
%TO.C,C6*%
X14827000Y-11605000D03*
X14923000Y-11605000D03*
%TD*%
D10*
%TO.C,D9*%
X14951716Y-8333366D03*
X14908284Y-8246633D03*
%TD*%
%TO.C,D17*%
X14221716Y-12113366D03*
X14178284Y-12026633D03*
%TD*%
D14*
%TO.C,D10*%
X14448284Y-8333366D03*
X14491716Y-8246633D03*
%TD*%
D23*
%TO.C,C8*%
X15410000Y-10382000D03*
X15410000Y-10478000D03*
%TD*%
D29*
%TO.C,R5*%
X14596000Y-10335000D03*
X14494000Y-10335000D03*
%TD*%
D30*
%TO.C,H1*%
X14700000Y-7450000D03*
D31*
X14700000Y-7450000D03*
%TD*%
D24*
%TO.C,C2*%
X14662000Y-12210000D03*
X14758000Y-12210000D03*
%TD*%
D14*
%TO.C,D4*%
X15693284Y-11058367D03*
X15736716Y-10971634D03*
%TD*%
D32*
%TO.C,U6*%
X14177750Y-10175000D03*
X14177750Y-10225000D03*
X14177750Y-10275000D03*
X14177750Y-10325000D03*
X14365750Y-10325000D03*
X14365750Y-10275000D03*
X14365750Y-10225000D03*
X14365750Y-10175000D03*
D33*
X14271750Y-10250000D03*
%TD*%
D10*
%TO.C,D18*%
X14491716Y-12653366D03*
X14448284Y-12566633D03*
%TD*%
D29*
%TO.C,R6*%
X14596000Y-10225000D03*
X14494000Y-10225000D03*
%TD*%
D34*
%TO.C,U5*%
X14856000Y-8697500D03*
D35*
X14856000Y-8762500D03*
D36*
X14964000Y-8762500D03*
D37*
X14964000Y-8697500D03*
D38*
X14910000Y-8730000D03*
%TD*%
D10*
%TO.C,D6*%
X15761716Y-9953367D03*
X15718284Y-9866634D03*
%TD*%
D17*
%TO.C,C12*%
X14750000Y-10348000D03*
X14750000Y-10252000D03*
%TD*%
D39*
%TO.C,C4*%
X14788000Y-10750000D03*
X14692000Y-10750000D03*
%TD*%
D15*
%TO.C,D5*%
X16010000Y-10498500D03*
X16010000Y-10401500D03*
%TD*%
D14*
%TO.C,D2*%
X15186567Y-12081733D03*
X15230000Y-11995000D03*
%TD*%
D40*
%TO.C,BZ1*%
X14535000Y-11270000D03*
X14905000Y-11270000D03*
%TD*%
D14*
%TO.C,D1*%
X14908284Y-12653366D03*
X14951716Y-12566633D03*
%TD*%
D41*
%TO.C,U7*%
X14381500Y-11137500D03*
X14188500Y-11137500D03*
X14188500Y-11242500D03*
X14381500Y-11242500D03*
%TD*%
D29*
%TO.C,R2*%
X14591000Y-10990000D03*
X14489000Y-10990000D03*
%TD*%
D42*
%TO.C,U3*%
X14876250Y-10230000D03*
X14876250Y-10270000D03*
X14876250Y-10310000D03*
X14876250Y-10350000D03*
X14876250Y-10390000D03*
X14876250Y-10430000D03*
X14876250Y-10470000D03*
D43*
X14950000Y-10543750D03*
X14990000Y-10543750D03*
X15030000Y-10543750D03*
X15070000Y-10543750D03*
X15110000Y-10543750D03*
X15150000Y-10543750D03*
X15190000Y-10543750D03*
D42*
X15263750Y-10470000D03*
X15263750Y-10430000D03*
X15263750Y-10390000D03*
X15263750Y-10350000D03*
X15263750Y-10310000D03*
X15263750Y-10270000D03*
X15263750Y-10230000D03*
D43*
X15190000Y-10156250D03*
X15150000Y-10156250D03*
X15110000Y-10156250D03*
X15070000Y-10156250D03*
X15030000Y-10156250D03*
X14990000Y-10156250D03*
X14950000Y-10156250D03*
D44*
X15070000Y-10350000D03*
%TD*%
D45*
%TO.C,U1*%
X14580000Y-9793750D03*
X14620000Y-9793750D03*
X14660000Y-9793750D03*
X14700000Y-9793750D03*
X14740000Y-9793750D03*
X14780000Y-9793750D03*
X14820000Y-9793750D03*
D46*
X14893750Y-9720000D03*
X14893750Y-9680000D03*
X14893750Y-9640000D03*
X14893750Y-9600000D03*
X14893750Y-9560000D03*
X14893750Y-9520000D03*
X14893750Y-9480000D03*
D45*
X14820000Y-9406250D03*
X14780000Y-9406250D03*
X14740000Y-9406250D03*
X14700000Y-9406250D03*
X14660000Y-9406250D03*
X14620000Y-9406250D03*
X14580000Y-9406250D03*
D46*
X14506250Y-9480000D03*
X14506250Y-9520000D03*
X14506250Y-9560000D03*
X14506250Y-9600000D03*
X14506250Y-9640000D03*
X14506250Y-9680000D03*
X14506250Y-9720000D03*
D47*
X14700000Y-9600000D03*
%TD*%
D48*
%TO.C,SW3*%
X13667164Y-10824123D03*
X13532836Y-10555877D03*
%TD*%
M02*
