%TF.GenerationSoftware,KiCad,Pcbnew,8.0.3*%
%TF.CreationDate,2024-06-16T19:36:31+02:00*%
%TF.ProjectId,jewelled_lc1,6a657765-6c6c-4656-945f-6c63312e6b69,rev?*%
%TF.SameCoordinates,Original*%
%TF.FileFunction,Legend,Top*%
%TF.FilePolarity,Positive*%
%FSLAX45Y45*%
G04 Gerber Fmt 4.5, Leading zero omitted, Abs format (unit mm)*
G04 Created by KiCad (PCBNEW 8.0.3) date 2024-06-16 19:36:31*
%MOMM*%
%LPD*%
G01*
G04 APERTURE LIST*
%ADD10C,0.100000*%
%ADD11C,0.120000*%
%ADD12C,0.150000*%
%ADD13C,0.200000*%
G04 APERTURE END LIST*
D10*
%TO.C,D8*%
X15253806Y-8927463D02*
G75*
G02*
X15243806Y-8927463I-5000J0D01*
G01*
X15243806Y-8927463D02*
G75*
G02*
X15253806Y-8927463I5000J0D01*
G01*
D11*
%TO.C,D19*%
X15120000Y-11326000D02*
X15060000Y-11326000D01*
X15140000Y-11154000D02*
X15020000Y-11154000D01*
D12*
X14982500Y-11200000D02*
G75*
G02*
X14967500Y-11200000I-7500J0D01*
G01*
X14967500Y-11200000D02*
G75*
G02*
X14982500Y-11200000I7500J0D01*
G01*
D11*
%TO.C,U4*%
X14504000Y-11815000D02*
X14504000Y-11615000D01*
X14726000Y-11815000D02*
X14726000Y-11615000D01*
X14514000Y-11899000D02*
X14486000Y-11871000D01*
X14514000Y-11871000D01*
X14514000Y-11899000D01*
G36*
X14514000Y-11899000D02*
G01*
X14486000Y-11871000D01*
X14514000Y-11871000D01*
X14514000Y-11899000D01*
G37*
D10*
%TO.C,D11*%
X14156194Y-8927463D02*
G75*
G02*
X14146194Y-8927463I-5000J0D01*
G01*
X14146194Y-8927463D02*
G75*
G02*
X14156194Y-8927463I5000J0D01*
G01*
%TO.C,D14*%
X13395000Y-10559000D02*
G75*
G02*
X13385000Y-10559000I-5000J0D01*
G01*
X13385000Y-10559000D02*
G75*
G02*
X13395000Y-10559000I5000J0D01*
G01*
D11*
%TO.C,R4*%
X14579636Y-11917000D02*
X14610364Y-11917000D01*
X14579636Y-11993000D02*
X14610364Y-11993000D01*
%TO.C,C7*%
X14309000Y-10965784D02*
X14309000Y-10944216D01*
X14381000Y-10965784D02*
X14381000Y-10944216D01*
%TO.C,C9*%
X14189000Y-10965784D02*
X14189000Y-10944216D01*
X14261000Y-10965784D02*
X14261000Y-10944216D01*
D10*
%TO.C,D13*%
X13616194Y-10007463D02*
G75*
G02*
X13606194Y-10007463I-5000J0D01*
G01*
X13606194Y-10007463D02*
G75*
G02*
X13616194Y-10007463I5000J0D01*
G01*
D11*
%TO.C,U2*%
X14669000Y-10960000D02*
X14669000Y-10860000D01*
X14811000Y-10960000D02*
X14811000Y-10860000D01*
X14832000Y-10826000D02*
X14804000Y-10826000D01*
X14804000Y-10798000D01*
X14832000Y-10826000D01*
G36*
X14832000Y-10826000D02*
G01*
X14804000Y-10826000D01*
X14804000Y-10798000D01*
X14832000Y-10826000D01*
G37*
%TO.C,C11*%
X14474000Y-9949216D02*
X14474000Y-9970784D01*
X14546000Y-9949216D02*
X14546000Y-9970784D01*
%TO.C,R3*%
X14524636Y-10832000D02*
X14555364Y-10832000D01*
X14524636Y-10908000D02*
X14555364Y-10908000D01*
D10*
%TO.C,D16*%
X13980556Y-11617463D02*
G75*
G02*
X13970556Y-11617463I-5000J0D01*
G01*
X13970556Y-11617463D02*
G75*
G02*
X13980556Y-11617463I5000J0D01*
G01*
D11*
%TO.C,C5*%
X14529216Y-10714000D02*
X14550784Y-10714000D01*
X14529216Y-10786000D02*
X14550784Y-10786000D01*
%TO.C,U8*%
X14974000Y-10960000D02*
X14974000Y-10860000D01*
X15116000Y-10960000D02*
X15116000Y-10860000D01*
X15137000Y-10826000D02*
X15109000Y-10826000D01*
X15109000Y-10798000D01*
X15137000Y-10826000D01*
G36*
X15137000Y-10826000D02*
G01*
X15109000Y-10826000D01*
X15109000Y-10798000D01*
X15137000Y-10826000D01*
G37*
%TO.C,C1*%
X14684216Y-12519000D02*
X14705784Y-12519000D01*
X14684216Y-12591000D02*
X14705784Y-12591000D01*
%TO.C,R1*%
X14712000Y-9944636D02*
X14712000Y-9975364D01*
X14788000Y-9944636D02*
X14788000Y-9975364D01*
%TO.C,Q2*%
X15190000Y-10830000D02*
X15310000Y-10830000D01*
X15190000Y-10960000D02*
X15190000Y-10830000D01*
X15310000Y-10830000D02*
X15310000Y-10990000D01*
X15310000Y-10990000D02*
X15220000Y-10990000D01*
D13*
X15196350Y-10990000D02*
G75*
G02*
X15183650Y-10990000I-6350J0D01*
G01*
X15183650Y-10990000D02*
G75*
G02*
X15196350Y-10990000I6350J0D01*
G01*
D10*
%TO.C,D12*%
X13886194Y-9467463D02*
G75*
G02*
X13876194Y-9467463I-5000J0D01*
G01*
X13876194Y-9467463D02*
G75*
G02*
X13886194Y-9467463I5000J0D01*
G01*
D11*
%TO.C,C10*%
X14594000Y-9949216D02*
X14594000Y-9970784D01*
X14666000Y-9949216D02*
X14666000Y-9970784D01*
D10*
%TO.C,D15*%
X13787463Y-10966194D02*
G75*
G02*
X13777463Y-10966194I-5000J0D01*
G01*
X13777463Y-10966194D02*
G75*
G02*
X13787463Y-10966194I5000J0D01*
G01*
%TO.C,D7*%
X15523806Y-9467463D02*
G75*
G02*
X15513806Y-9467463I-5000J0D01*
G01*
X15513806Y-9467463D02*
G75*
G02*
X15523806Y-9467463I5000J0D01*
G01*
D11*
%TO.C,C3*%
X14789000Y-11795784D02*
X14789000Y-11774216D01*
X14861000Y-11795784D02*
X14861000Y-11774216D01*
D10*
%TO.C,D3*%
X15426194Y-11627463D02*
G75*
G02*
X15416194Y-11627463I-5000J0D01*
G01*
X15416194Y-11627463D02*
G75*
G02*
X15426194Y-11627463I5000J0D01*
G01*
D11*
%TO.C,C6*%
X14864216Y-11569000D02*
X14885784Y-11569000D01*
X14864216Y-11641000D02*
X14885784Y-11641000D01*
D10*
%TO.C,D9*%
X14983806Y-8387463D02*
G75*
G02*
X14973806Y-8387463I-5000J0D01*
G01*
X14973806Y-8387463D02*
G75*
G02*
X14983806Y-8387463I5000J0D01*
G01*
%TO.C,D17*%
X14253806Y-12167463D02*
G75*
G02*
X14243806Y-12167463I-5000J0D01*
G01*
X14243806Y-12167463D02*
G75*
G02*
X14253806Y-12167463I5000J0D01*
G01*
%TO.C,D10*%
X14426194Y-8387463D02*
G75*
G02*
X14416194Y-8387463I-5000J0D01*
G01*
X14416194Y-8387463D02*
G75*
G02*
X14426194Y-8387463I5000J0D01*
G01*
D11*
%TO.C,C8*%
X15374000Y-10419216D02*
X15374000Y-10440784D01*
X15446000Y-10419216D02*
X15446000Y-10440784D01*
%TO.C,R5*%
X14560364Y-10297000D02*
X14529636Y-10297000D01*
X14560364Y-10373000D02*
X14529636Y-10373000D01*
%TO.C,C2*%
X14699216Y-12174000D02*
X14720784Y-12174000D01*
X14699216Y-12246000D02*
X14720784Y-12246000D01*
D10*
%TO.C,D4*%
X15671194Y-11112463D02*
G75*
G02*
X15661194Y-11112463I-5000J0D01*
G01*
X15661194Y-11112463D02*
G75*
G02*
X15671194Y-11112463I5000J0D01*
G01*
D11*
%TO.C,U6*%
X14171750Y-10089000D02*
X14371750Y-10089000D01*
X14171750Y-10411000D02*
X14371750Y-10411000D01*
X14116750Y-10145000D02*
X14088750Y-10145000D01*
X14116750Y-10117000D01*
X14116750Y-10145000D01*
G36*
X14116750Y-10145000D02*
G01*
X14088750Y-10145000D01*
X14116750Y-10117000D01*
X14116750Y-10145000D01*
G37*
D10*
%TO.C,D18*%
X14523806Y-12707463D02*
G75*
G02*
X14513806Y-12707463I-5000J0D01*
G01*
X14513806Y-12707463D02*
G75*
G02*
X14523806Y-12707463I5000J0D01*
G01*
D11*
%TO.C,R6*%
X14560364Y-10187000D02*
X14529636Y-10187000D01*
X14560364Y-10263000D02*
X14529636Y-10263000D01*
%TO.C,U5*%
X14960000Y-8659000D02*
X14860000Y-8659000D01*
X14960000Y-8801000D02*
X14860000Y-8801000D01*
X14826000Y-8666000D02*
X14798000Y-8666000D01*
X14826000Y-8638000D01*
X14826000Y-8666000D01*
G36*
X14826000Y-8666000D02*
G01*
X14798000Y-8666000D01*
X14826000Y-8638000D01*
X14826000Y-8666000D01*
G37*
D10*
%TO.C,D6*%
X15793806Y-10007463D02*
G75*
G02*
X15783806Y-10007463I-5000J0D01*
G01*
X15783806Y-10007463D02*
G75*
G02*
X15793806Y-10007463I5000J0D01*
G01*
D11*
%TO.C,C12*%
X14714000Y-10310784D02*
X14714000Y-10289216D01*
X14786000Y-10310784D02*
X14786000Y-10289216D01*
%TO.C,C4*%
X14750784Y-10714000D02*
X14729216Y-10714000D01*
X14750784Y-10786000D02*
X14729216Y-10786000D01*
D10*
%TO.C,D5*%
X16015000Y-10559000D02*
G75*
G02*
X16005000Y-10559000I-5000J0D01*
G01*
X16005000Y-10559000D02*
G75*
G02*
X16015000Y-10559000I5000J0D01*
G01*
%TO.C,D2*%
X15164478Y-12135829D02*
G75*
G02*
X15154478Y-12135829I-5000J0D01*
G01*
X15154478Y-12135829D02*
G75*
G02*
X15164478Y-12135829I5000J0D01*
G01*
D12*
%TO.C,BZ1*%
X14520000Y-11070000D02*
X14520000Y-11155000D01*
X14520000Y-11070000D02*
X14920000Y-11070000D01*
X14520000Y-11470000D02*
X14520000Y-11385000D01*
X14920000Y-11070000D02*
X14920000Y-11155000D01*
X14920000Y-11470000D02*
X14520000Y-11470000D01*
X14920000Y-11470000D02*
X14920000Y-11385000D01*
D10*
%TO.C,D1*%
X14886194Y-12707463D02*
G75*
G02*
X14876194Y-12707463I-5000J0D01*
G01*
X14876194Y-12707463D02*
G75*
G02*
X14886194Y-12707463I5000J0D01*
G01*
%TO.C,U7*%
D12*
X14425000Y-11090000D02*
X14145000Y-11090000D01*
X14145000Y-11290000D01*
X14425000Y-11290000D01*
X14425000Y-11090000D01*
X14475000Y-11090000D02*
X14425000Y-11090000D01*
X14425000Y-11040000D01*
X14475000Y-11090000D01*
G36*
X14475000Y-11090000D02*
G01*
X14425000Y-11090000D01*
X14425000Y-11040000D01*
X14475000Y-11090000D01*
G37*
D11*
%TO.C,R2*%
X14555364Y-10952000D02*
X14524636Y-10952000D01*
X14555364Y-11028000D02*
X14524636Y-11028000D01*
%TO.C,U3*%
X14859000Y-10194000D02*
X14859000Y-10163000D01*
X14859000Y-10561000D02*
X14859000Y-10506000D01*
X14914000Y-10139000D02*
X14889000Y-10139000D01*
X14914000Y-10561000D02*
X14859000Y-10561000D01*
X15226000Y-10139000D02*
X15281000Y-10139000D01*
X15226000Y-10561000D02*
X15281000Y-10561000D01*
X15281000Y-10139000D02*
X15281000Y-10194000D01*
X15281000Y-10561000D02*
X15281000Y-10506000D01*
X14859000Y-10139000D02*
X14835000Y-10106000D01*
X14883000Y-10106000D01*
X14859000Y-10139000D01*
G36*
X14859000Y-10139000D02*
G01*
X14835000Y-10106000D01*
X14883000Y-10106000D01*
X14859000Y-10139000D01*
G37*
%TO.C,U1*%
X14489000Y-9389000D02*
X14541500Y-9389000D01*
X14489000Y-9441500D02*
X14489000Y-9389000D01*
X14489000Y-9758500D02*
X14489000Y-9781000D01*
X14541500Y-9811000D02*
X14513000Y-9811000D01*
X14911000Y-9389000D02*
X14858500Y-9389000D01*
X14911000Y-9441500D02*
X14911000Y-9389000D01*
X14911000Y-9758500D02*
X14911000Y-9811000D01*
X14911000Y-9811000D02*
X14858500Y-9811000D01*
X14489000Y-9811000D02*
X14456000Y-9835000D01*
X14456000Y-9787000D01*
X14489000Y-9811000D01*
G36*
X14489000Y-9811000D02*
G01*
X14456000Y-9835000D01*
X14456000Y-9787000D01*
X14489000Y-9811000D01*
G37*
%TD*%
M02*
